<?xml version="1.0" encoding="utf-8"?>
<COLLADA xmlns="http://www.collada.org/2005/11/COLLADASchema" version="1.4.1" xmlns:xsi="http://www.w3.org/2001/XMLSchema-instance">
  <asset>
    <contributor>
      <author>Blender User</author>
      <authoring_tool>Blender 4.5.7 LTS commit date:2026-02-16, commit time:13:34, hash:a9874eeece8d</authoring_tool>
    </contributor>
    <created>2026-09-30T16:39:52</created>
    <modified>2026-09-30T16:39:52</modified>
    <unit name="meter" meter="1"/>
    <up_axis>Z_UP</up_axis>
  </asset>
  <library_effects>
    <effect id="base-effect">
      <profile_COMMON>
        <technique sid="common">
          <lambert>
            <emission>
              <color sid="emission">0 0 0 1</color>
            </emission>
            <diffuse>
              <color sid="diffuse">0.22 0.22 0.17 1</color>
            </diffuse>
            <index_of_refraction>
              <float sid="ior">1.5</float>
            </index_of_refraction>
          </lambert>
        </technique>
      </profile_COMMON>
    </effect>
  </library_effects>
  <library_images/>
  <library_materials>
    <material id="base-material" name="base">
      <instance_effect url="#base-effect"/>
    </material>
  </library_materials>
  <library_geometries>
    <geometry id="link_3-mesh" name="link_3">
      <mesh>
        <source id="link_3-mesh-positions">
          <float_array id="link_3-mesh-positions-array" count="1965">0.02081418 -0.009454786 0.008260667 0.02051341 -0.009499967 0.008270621 0.02081418 -0.009499967 0.007699966 0.02081418 -0.008147239 0.01046389 0.02081418 -0.007397353 0.0109089 0.02043151 -0.007427752 0.01097869 0.02081418 -0.007081508 0.01102864 0.02049523 -0.00660628 0.01119995 0.02081418 -0.006560683 0.01115477 0.02081418 -0.005999982 0.01119995 0.02043151 -0.008193969 0.01052397 0.02043151 -0.00882399 0.009893953 0.02081418 -0.008763849 0.009847283 0.02081418 -0.009208917 0.009097337 0.02043151 -0.009278714 0.009127736 0.02081418 -0.009328663 0.008781552 0.02043539 -0.009499967 0.008425295 0.02010709 -0.009477436 0.009214282 0.02010709 -0.009499967 0.009161472 0.02029073 -0.009499967 0.008728027 0.02010709 -0.008995175 0.01002693 0.02010709 -0.008326947 0.01069515 0.02010709 -0.007514297 0.01117748 0.02010709 -0.007461488 0.01119995 0.02081418 0.006560683 0.01115477 0.02051341 0.006570637 0.01119995 0.02081418 0.005999982 0.01119995 0.02081418 0.008763849 0.009847283 0.02081418 0.009208917 0.009097337 0.02043151 0.009278714 0.009127736 0.02081418 0.009328663 0.008781552 0.02049523 0.009499967 0.008306264 0.02081418 0.009454786 0.008260667 0.02081418 0.009499967 0.007699966 0.02043151 0.00882399 0.009893953 0.02043151 0.008193969 0.01052397 0.02081418 0.008147239 0.01046389 0.02081418 0.007397353 0.0109089 0.02043151 0.007427752 0.01097869 0.02081418 0.007081508 0.01102864 0.02043539 0.006725311 0.01119995 0.02010709 0.007514297 0.01117748 0.02010709 0.007461488 0.01119995 0.02029073 0.007028043 0.01119995 0.02010709 0.008326947 0.01069515 0.02010709 0.008995175 0.01002693 0.02010709 0.009477436 0.009214282 0.02010709 0.009499967 0.009161472 0 0.009423851 0.005482673 0 0.009207069 0.005807101 0.00832355 0.009218037 0.005795955 0 0.008882641 0.006023824 0.00774914 0.008999645 0.005966186 0 0.008499979 0.006099998 0.006723701 0.008499979 0.006099998 0.007062852 0.008681833 0.006083607 0.008871018 0.009388864 0.005558073 0.009107649 0.009444892 0.00542736 0 0.009499967 0.005099952 0.009679973 0.009499967 0.005099952 -0.002113938 0.009261786 0.005099952 -0.002935647 0.009034991 0.005099952 -0.002912104 0.008962631 0.005482673 -0.008559167 0.00412184 0.005099952 -0.009034991 0.002935647 0.005099952 -0.008962631 0.002912104 0.005482673 -0.009261786 -0.002113938 0.005099952 -0.009034991 -0.002935647 0.005099952 -0.008962631 -0.002912104 0.005482673 -0.00412184 -0.008559167 0.005099952 -0.002935647 -0.009034991 0.005099952 -0.002912104 -0.008962631 0.005482673 -0.00132966 -0.008395314 0.006099998 -0.002626597 -0.008083939 0.006099998 -0.001389503 -0.008773267 0.006023824 -0.002744853 -0.008447885 0.006023824 -0.001440286 -0.009093701 0.005807101 -0.002845108 -0.008756458 0.005807101 -0.001474201 -0.009307801 0.005482673 -0.00499612 -0.006876587 0.006099998 -0.006010353 -0.006010353 0.006099998 -0.005221068 -0.007186233 0.006023824 -0.006280958 -0.006280958 0.006023824 -0.005411744 -0.007448673 0.005807101 -0.006510376 -0.006510376 0.005807101 -0.005539178 -0.00762403 0.005482673 -0.00666368 -0.00666368 0.005482673 -0.006876587 -0.00499612 0.006099998 -0.007186233 -0.005221068 0.006023824 -0.007448673 -0.005411744 0.005807101 -0.00762403 -0.005539178 0.005482673 -0.007573544 -0.003858864 0.006099998 -0.007914483 -0.004032611 0.006023824 -0.008203566 -0.004179894 0.005807101 -0.008396685 -0.004278302 0.005482673 -0.008395314 0.00132966 0.006099998 -0.008083939 0.002626597 0.006099998 -0.008773267 0.001389503 0.006023824 -0.008447885 0.002744853 0.006023824 -0.009093701 0.001440286 0.005807101 -0.008756458 0.002845108 0.005807101 -0.009307801 0.001474201 0.005482673 -0.006876587 0.00499612 0.006099998 -0.006010353 0.006010353 0.006099998 -0.007186233 0.005221068 0.006023824 -0.006280958 0.006280958 0.006023824 -0.007448673 0.005411744 0.005807101 -0.006510376 0.006510376 0.005807101 -0.00762403 0.005539178 0.005482673 -0.00666368 0.00666368 0.005482673 -0.00499612 0.006876587 0.006099998 -0.005221068 0.007186233 0.006023824 -0.005411744 0.007448673 0.005807101 -0.005539178 0.00762403 0.005482673 -0.003858864 0.007573544 0.006099998 -0.004032611 0.007914483 0.006023824 -0.004179894 0.008203566 0.005807101 -0.004278302 0.008396685 0.005482673 0 -0.008499979 0.006099998 0 -0.008882641 0.006023824 0 -0.009207069 0.005807101 0 -0.009423851 0.005482673 0 -0.009499967 0.005099952 -0.001486122 -0.009383022 0.005099952 -0.002113938 -0.009261786 0.005099952 -0.004312872 -0.008464515 0.005099952 -0.004278302 -0.008396685 0.005482673 -0.004179894 -0.008203566 0.005807101 -0.004032611 -0.007914483 0.006023824 -0.003858864 -0.007573544 0.006099998 -0.005583941 -0.007685661 0.005099952 -0.008559167 -0.00412184 0.005099952 -0.008464515 -0.004312872 0.005099952 -0.007685661 -0.005583941 0.005099952 -0.007427394 -0.005923151 0.005099952 -0.006717503 -0.006717503 0.005099952 -0.005923151 -0.007427394 0.005099952 -0.008756458 -0.002845108 0.005807101 -0.008447885 -0.002744853 0.006023824 -0.008083939 -0.002626597 0.006099998 -0.009383022 -0.001486122 0.005099952 -0.009307801 -0.001474201 0.005482673 -0.009093701 -0.001440286 0.005807101 -0.008773267 -0.001389503 0.006023824 -0.008395314 -0.00132966 0.006099998 -0.008499979 0 0.006099998 -0.008882641 0 0.006023824 -0.009207069 0 0.005807101 -0.009423851 0 0.005482673 -0.009499967 0 0.005099952 -0.009383022 0.001486122 0.005099952 -0.009261786 0.002113938 0.005099952 -0.008464515 0.004312872 0.005099952 -0.008396685 0.004278302 0.005482673 -0.008203566 0.004179894 0.005807101 -0.007914483 0.004032611 0.006023824 -0.007573544 0.003858864 0.006099998 -0.007685661 0.005583941 0.005099952 -0.00412184 0.008559167 0.005099952 -0.004312872 0.008464515 0.005099952 -0.005583941 0.007685661 0.005099952 -0.005923151 0.007427394 0.005099952 -0.006717503 0.006717503 0.005099952 -0.007427394 0.005923151 0.005099952 -0.002845108 0.008756458 0.005807101 -0.002744853 0.008447885 0.006023824 -0.002626597 0.008083939 0.006099998 -0.001486122 0.009383022 0.005099952 -0.001474201 0.009307801 0.005482673 -0.001440286 0.009093701 0.005807101 -0.001389503 0.008773267 0.006023824 -0.00132966 0.008395314 0.006099998 0 0.009207069 0.005807101 0 -0.009423851 0.005482673 0.008871018 -0.009388864 0.005558073 0.008655428 -0.009325802 0.00566405 0.009396433 -0.009486556 0.005263268 0.009679973 -0.009499967 0.005099952 0.006723701 -0.008499979 0.006099998 0.007329225 -0.008812844 0.006050169 0 -0.008882641 0.006023824 0.007988452 -0.009095668 0.005903244 0.008284389 -0.009204447 0.005809724 0.01975309 0.00822401 0.01119995 0.01936858 0.009275615 0.01083111 0.01936441 0.009206891 0.01090729 0.01937872 0.00906074 0.01102793 0.01945626 0.008794307 0.01115566 0.01959884 0.008499979 0.01119995 0.01959884 0.009499967 0.01019996 0.01955068 0.009496152 0.01028716 0.01942604 0.00942564 0.01057833 0.02002346 0.009499967 0.009366333 0.01975309 -0.009499967 0.009923994 0.01936858 -0.009131133 0.01097565 0.01936441 -0.009207248 0.01090687 0.01937872 -0.009327948 0.01076072 0.01945626 -0.00945568 0.01049435 0.01959884 -0.009499967 0.01019996 0.01959884 -0.008499979 0.01119995 0.01955068 -0.008587181 0.01119613 0.01942604 -0.00887829 0.01112562 0.02002346 -0.007666349 0.01119995 0.03129994 -0.009499967 0.007699966 0.03129994 -0.009328663 0.008781552 0.03129994 -0.00883156 0.00975722 0.03129994 -0.008057236 0.01053154 0.03129994 -0.007081508 0.01102864 0.03129994 -0.005999982 0.01119995 0.03129994 0.005999982 0.01119995 0.03129994 0.007081508 0.01102864 0.03129994 0.008057236 0.01053154 0.03129994 0.00883156 0.00975722 0.03129994 0.009328663 0.008781552 0.03129994 0.009499967 0.007699966 0.009679973 -0.008499979 0.01119995 0.00914067 -0.008425891 0.01119995 0.009679973 -0.008882641 0.01112383 0.009037494 -0.008794426 0.01112383 0.009679973 -0.009207069 0.01090705 0.008949995 -0.009106814 0.01090705 0.009679973 -0.009423851 0.01058268 0.008891582 -0.00931555 0.01058268 0.009679973 -0.009499967 0.01019996 0.008871018 -0.009388864 0.01019996 0.00914067 0.008425891 0.01119995 0.009679973 0.008499979 0.01119995 0.009037494 0.008794426 0.01112383 0.009679973 0.008882641 0.01112383 0.008949995 0.009106814 0.01090705 0.009679973 0.009207069 0.01090705 0.008891582 0.00931555 0.01058268 0.009679973 0.009423851 0.01058268 0.008871018 0.009388864 0.01019996 0.009679973 0.009499967 0.01019996 0.006588697 0.007241666 0.01119995 0.007395148 0.007727384 0.01119995 0.006373882 0.007558345 0.01112383 0.007215619 0.008065342 0.01112383 0.00619179 0.007826864 0.01090705 0.007063388 0.008351862 0.01090705 0.006070137 0.008006274 0.01058268 0.006961703 0.008543252 0.01058268 0.0060274 0.008069276 0.01019996 0.006926 0.008610486 0.01019996 0.008249104 0.008123636 0.01119995 0.008106887 0.008478939 0.01112383 0.007986366 0.008780121 0.01090705 0.00790584 0.008981406 0.01058268 0.007877528 0.009052097 0.01019996 0.006149947 0.006413996 0.01119995 0.00620228 0.006733298 0.01119995 0.005767285 0.006413996 0.01112383 0.005839645 0.006855428 0.01112383 0.005442857 0.006413996 0.01090705 0.005532205 0.006959021 0.01090705 0.005226075 0.006413996 0.01058268 0.005326747 0.007028222 0.01058268 0.00514996 0.006413996 0.01019996 0.006353855 0.007019102 0.01119995 0.006049156 0.007250666 0.01112383 0.005790889 0.007447004 0.01090705 0.005618274 0.007578194 0.01058268 0.005557656 0.007624208 0.01019996 0.005382895 0.007350742 0.01019996 0.005254626 0.00705254 0.01019996 0.00514996 -0.006413996 0.01019996 0.005226075 -0.006413996 0.01058268 0.005442857 -0.006413996 0.01090705 0.005767285 -0.006413996 0.01112383 0.006149947 -0.006413996 0.01119995 0.006588697 -0.007241666 0.01119995 0.006353855 -0.007019102 0.01119995 0.006373882 -0.007558345 0.01112383 0.006049156 -0.007250666 0.01112383 0.00619179 -0.007826864 0.01090705 0.005790889 -0.007447004 0.01090705 0.006070137 -0.008006274 0.01058268 0.005618274 -0.007578194 0.01058268 0.0060274 -0.008069276 0.01019996 0.00620228 -0.006733298 0.01119995 0.005839645 -0.006855428 0.01112383 0.005532205 -0.006959021 0.01090705 0.005326747 -0.007028222 0.01058268 0.005254626 -0.00705254 0.01019996 0.005382895 -0.007350742 0.01019996 0.005557656 -0.007624208 0.01019996 0.008249104 -0.008123636 0.01119995 0.008106887 -0.008478939 0.01112383 0.007986366 -0.008780121 0.01090705 0.00790584 -0.008981406 0.01058268 0.007877528 -0.009052097 0.01019996 0.007395148 -0.007727384 0.01119995 0.007215619 -0.008065342 0.01112383 0.007063388 -0.008351862 0.01090705 0.006961703 -0.008543252 0.01058268 0.006926 -0.008610486 0.01019996 0.0060274 -0.008069276 0.006099998 0.005382895 -0.007350742 0.006099998 0.00514996 -0.006413996 0.006099998 0.00514996 0.006413996 0.006099998 0.005382895 0.007350742 0.006099998 0.0060274 0.008069276 0.006099998 0.009547412 0.009499967 -0.006099998 0.02043539 0.009499967 -0.008425295 0.02029073 0.009499967 -0.008728027 0 0.009499967 -0.006099998 0.03129994 0.009499967 -0.007699966 0.02081418 0.009499967 -0.007699966 0.02051341 0.009499967 -0.008270621 0.01959884 0.009499967 -0.01019996 0.009547412 0.009499967 -0.01019996 0.01975309 0.009499967 -0.009923994 0.02010709 0.009499967 -0.009161472 0.02049523 -0.009499967 -0.008306264 0.02081418 -0.009499967 -0.007699966 0.02010709 -0.009499967 -0.009161472 0.009547412 -0.009499967 -0.006099998 0 -0.009499967 -0.006099998 0.02002346 -0.009499967 -0.009366333 0.009547412 -0.009499967 -0.01019996 0.01959884 -0.009499967 -0.01019996 0.03129994 -0.009499967 -0.007699966 -0.001486122 -0.009383022 -0.006099998 -0.002113938 -0.009261786 -0.006099998 -0.002935647 -0.009034991 -0.006099998 -0.00412184 -0.008559167 -0.006099998 -0.004312872 -0.008464515 -0.006099998 -0.005583941 -0.007685661 -0.006099998 -0.005923151 -0.007427394 -0.006099998 -0.006717503 -0.006717503 -0.006099998 -0.007427394 -0.005923151 -0.006099998 -0.007685661 -0.005583941 -0.006099998 -0.008464515 -0.004312872 -0.006099998 -0.008559167 -0.00412184 -0.006099998 -0.009034991 -0.002935647 -0.006099998 -0.009261786 -0.002113938 -0.006099998 -0.009383022 -0.001486122 -0.006099998 -0.009499967 0 -0.006099998 -0.009499967 0 0.005099952 -0.009383022 0.001486122 -0.006099998 -0.009261786 0.002113938 -0.006099998 -0.009034991 0.002935647 -0.006099998 -0.008559167 0.00412184 -0.006099998 -0.008464515 0.004312872 -0.006099998 -0.007685661 0.005583941 -0.006099998 -0.007427394 0.005923151 -0.006099998 -0.006717503 0.006717503 -0.006099998 -0.005923151 0.007427394 -0.006099998 -0.005583941 0.007685661 -0.006099998 -0.004312872 0.008464515 -0.006099998 -0.00412184 0.008559167 -0.006099998 -0.002935647 0.009034991 -0.006099998 -0.002113938 0.009261786 -0.006099998 -0.001486122 0.009383022 -0.006099998 -0.008499979 0 0.006099998 0.02081418 0.009454786 -0.008260667 0.03129994 0.009328663 -0.008781552 0.02081418 0.009328663 -0.008781552 0.02081418 0.009208917 -0.009097337 0.03129994 0.00883156 -0.00975722 0.02081418 0.008763849 -0.009847283 0.03129994 0.008057236 -0.01053154 0.02081418 0.008147239 -0.01046389 0.02081418 0.007397353 -0.0109089 0.03129994 0.007081508 -0.01102864 0.02081418 0.007081508 -0.01102864 0.02081418 0.006560683 -0.01115477 0.03129994 0.005999982 -0.01119995 0.02081418 0.005999982 -0.01119995 0.02043151 0.007427752 -0.01097869 0.02049523 0.00660628 -0.01119995 0.02043151 0.008193969 -0.01052397 0.02043151 0.00882399 -0.009893953 0.02043151 0.009278714 -0.009127736 0.02010709 0.009477436 -0.009214282 0.02010709 0.008995175 -0.01002693 0.02010709 0.008326947 -0.01069515 0.02010709 0.007514297 -0.01117748 0.02010709 0.007461488 -0.01119995 0.01936858 0.009131133 -0.01097565 0.01936441 0.009207248 -0.01090687 0.01937872 0.009327948 -0.01076072 0.01945626 0.00945568 -0.01049435 0.01959884 0.008499979 -0.01119995 0.01955068 0.008587181 -0.01119613 0.01942604 0.00887829 -0.01112562 0.02002346 0.007666349 -0.01119995 0.009547412 0.008882641 -0.01112383 0.009547412 0.008499979 -0.01119995 0.009547412 0.009207069 -0.01090705 0.009547412 0.009423851 -0.01058268 0.009043514 0.009435474 -0.01019996 0.009043514 0.009435474 -0.006453335 0.009456634 0.00949788 -0.006164073 0 0.009207069 -0.006807088 0 0.009423851 -0.00648266 0.00866425 0.009328484 -0.006660103 0 0.009438157 -0.006446063 0.008284389 0.009204447 -0.006809771 0.007994174 0.009097874 -0.006901562 0 0.008882641 -0.00702387 0.007329761 0.008813142 -0.007050275 0 0.008499979 -0.007099986 0.007303893 0.008800864 -0.007054269 0.006723701 0.008499979 -0.007099986 0 -0.008499979 -0.007099986 0 -0.008882641 -0.00702387 -0.001389503 -0.008773267 -0.00702387 0 -0.009207069 -0.006807088 -0.001440286 -0.009093701 -0.006807088 0 -0.009423851 -0.00648266 -0.001474201 -0.009307801 -0.00648266 -0.001474201 0.009307801 -0.00648266 -0.002912104 -0.008962631 -0.00648266 -0.004278302 -0.008396685 -0.00648266 -0.005539178 -0.00762403 -0.00648266 -0.00666368 -0.00666368 -0.00648266 -0.00762403 -0.005539178 -0.00648266 -0.008396685 -0.004278302 -0.00648266 -0.008962631 -0.002912104 -0.00648266 -0.009307801 -0.001474201 -0.00648266 -0.009499967 0 -0.006099998 -0.009423851 0 -0.00648266 -0.009307801 0.001474201 -0.00648266 -0.008962631 0.002912104 -0.00648266 -0.008396685 0.004278302 -0.00648266 -0.00762403 0.005539178 -0.00648266 -0.00666368 0.00666368 -0.00648266 -0.005539178 0.00762403 -0.00648266 -0.004278302 0.008396685 -0.00648266 -0.002912104 0.008962631 -0.00648266 -0.002845108 -0.008756458 -0.006807088 -0.004179894 -0.008203566 -0.006807088 -0.005411744 -0.007448673 -0.006807088 -0.006510376 -0.006510376 -0.006807088 -0.007448673 -0.005411744 -0.006807088 -0.008203566 -0.004179894 -0.006807088 -0.008756458 -0.002845108 -0.006807088 -0.009093701 -0.001440286 -0.006807088 -0.009207069 0 -0.006807088 -0.009093701 0.001440286 -0.006807088 -0.008756458 0.002845108 -0.006807088 -0.008203566 0.004179894 -0.006807088 -0.007448673 0.005411744 -0.006807088 -0.006510376 0.006510376 -0.006807088 -0.005411744 0.007448673 -0.006807088 -0.004179894 0.008203566 -0.006807088 -0.002845108 0.008756458 -0.006807088 -0.001440286 0.009093701 -0.006807088 0 0.009207069 -0.006807088 -0.002744853 -0.008447885 -0.00702387 -0.004032611 -0.007914483 -0.00702387 -0.005221068 -0.007186233 -0.00702387 -0.006280958 -0.006280958 -0.00702387 -0.007186233 -0.005221068 -0.00702387 -0.007914483 -0.004032611 -0.00702387 -0.008447885 -0.002744853 -0.00702387 -0.008773267 -0.001389503 -0.00702387 -0.008882641 0 -0.00702387 -0.008773267 0.001389503 -0.00702387 -0.008447885 0.002744853 -0.00702387 -0.007914483 0.004032611 -0.00702387 -0.007186233 0.005221068 -0.00702387 -0.006280958 0.006280958 -0.00702387 -0.005221068 0.007186233 -0.00702387 -0.004032611 0.007914483 -0.00702387 -0.002744853 0.008447885 -0.00702387 -0.001389503 0.008773267 -0.00702387 -0.00132966 -0.008395314 -0.007099986 -0.002626597 -0.008083939 -0.007099986 -0.003858864 -0.007573544 -0.007099986 -0.00499612 -0.006876587 -0.007099986 -0.006010353 -0.006010353 -0.007099986 -0.006876587 -0.00499612 -0.007099986 -0.007573544 -0.003858864 -0.007099986 -0.008083939 -0.002626597 -0.007099986 -0.008395314 -0.00132966 -0.007099986 -0.008499979 0 -0.007099986 -0.008395314 0.00132966 -0.007099986 -0.008083939 0.002626597 -0.007099986 -0.007573544 0.003858864 -0.007099986 -0.006876587 0.00499612 -0.007099986 -0.006010353 0.006010353 -0.007099986 -0.00499612 0.006876587 -0.007099986 -0.003858864 0.007573544 -0.007099986 -0.002626597 0.008083939 -0.007099986 -0.00132966 0.008395314 -0.007099986 0 -0.009207069 -0.006807088 0.008285582 -0.009204864 -0.006809353 0.006723701 -0.008499979 -0.007099986 0.007303833 -0.008800804 -0.007054269 0.007319509 -0.008808314 -0.007051885 0.007973611 -0.009089946 -0.006907403 0.00861144 -0.009312272 -0.006683349 0.009043514 -0.009435474 -0.006453335 0.009150624 -0.00946021 -0.006378889 0.009043514 -0.009435474 -0.01019996 0.01936858 -0.009275615 -0.01083111 0.01942604 -0.00942564 -0.01057833 0.009547412 -0.009423851 -0.01058268 0.01955068 -0.009496152 -0.01028716 0.01936441 -0.009206891 -0.01090729 0.009547412 -0.009207069 -0.01090705 0.01937872 -0.00906074 -0.01102793 0.009547412 -0.008882641 -0.01112383 0.01945626 -0.008794307 -0.01115566 0.009547412 -0.008499979 -0.01119995 0.01959884 -0.008499979 -0.01119995 0.02010709 -0.008326947 -0.01069515 0.01975309 -0.00822401 -0.01119995 0.02010709 -0.007514297 -0.01117748 0.02010709 -0.007461488 -0.01119995 0.02010709 -0.008995175 -0.01002693 0.02010709 -0.009477436 -0.009214282 0.02081418 -0.006560683 -0.01115477 0.02051341 -0.006570637 -0.01119995 0.02081418 -0.005999982 -0.01119995 0.02081418 -0.008763849 -0.009847283 0.02081418 -0.009208917 -0.009097337 0.02043151 -0.009278714 -0.009127736 0.02081418 -0.009328663 -0.008781552 0.02081418 -0.009454786 -0.008260667 0.02043151 -0.00882399 -0.009893953 0.02043151 -0.008193969 -0.01052397 0.02081418 -0.008147239 -0.01046389 0.02081418 -0.007397353 -0.0109089 0.02043151 -0.007427752 -0.01097869 0.02081418 -0.007081508 -0.01102864 0.02043539 -0.006725311 -0.01119995 0.02029073 -0.007028043 -0.01119995 0.03129994 -0.005999982 -0.01119995 0.03129994 -0.007081508 -0.01102864 0.03129994 -0.008057236 -0.01053154 0.03129994 -0.00883156 -0.00975722 0.03129994 -0.009328663 -0.008781552 0.009295463 0.008467733 -0.01119995 0.004649996 0.005083262 -0.01119995 0.008053362 -0.008042573 -0.01119995 0.006888866 -0.007436394 -0.01119995 0.005828142 -0.006662786 -0.01119995 0.00489515 -0.005739212 -0.01119995 0.004649996 -0.005083262 -0.01119995 0.009295463 -0.008467733 -0.01119995 0.004761576 -0.005542337 -0.01119995 0.004678249 -0.005319476 -0.01119995 0.005828142 0.006662786 -0.01119995 0.006888866 0.007436394 -0.01119995 0.008053362 0.008042573 -0.01119995 0.00489515 0.005739212 -0.01119995 0.004678249 0.005319476 -0.01119995 0.004761576 0.005542337 -0.01119995 0.009199023 0.008838057 -0.01112383 0.009117305 0.009151995 -0.01090705 0.009062707 0.009361803 -0.01058268 0.007659494 0.008961737 -0.01019996 0.007303774 0.008800804 -0.01019996 0.006361901 0.008286237 -0.01019996 0.005482256 0.007671296 -0.007099986 0.004140317 0.006395101 -0.01019996 0.004140317 0.006395101 -0.007099986 0.005179941 0.007424235 -0.01019996 0.005482256 0.007671296 -0.01019996 -2.16506e-4 1.25e-4 -0.007099986 -1.25e-4 2.16506e-4 -0.007099986 -2.5e-4 0 -0.007099986 -2.16506e-4 -1.25e-4 -0.007099986 0.005482256 -0.007671296 -0.007099986 0.004140317 -0.006395101 -0.007099986 0 2.5e-4 -0.007099986 -1.25e-4 -2.16506e-4 -0.007099986 0.00364995 -0.005083262 -0.007099986 0.00377655 -0.005783498 -0.007099986 1.25e-4 -2.16506e-4 -0.007099986 1.25e-4 2.16506e-4 -0.007099986 0.00377655 0.005783498 -0.007099986 2.16506e-4 1.25e-4 -0.007099986 0.00364995 0.005083262 -0.007099986 2.5e-4 0 -0.007099986 2.16506e-4 -1.25e-4 -0.007099986 0 -2.5e-4 -0.007099986 0.007659494 -0.008961737 -0.01019996 0.007303774 -0.008800804 -0.01019996 0.006361901 -0.008286237 -0.01019996 0.005482256 -0.007671296 -0.01019996 0.005179941 -0.007424235 -0.01019996 0.004140317 -0.006395101 -0.01019996 0.009199023 -0.008838057 -0.01112383 0.009117305 -0.009151995 -0.01090705 0.009062707 -0.009361803 -0.01058268 0.006402015 -0.008221566 -0.01058268 0.005580067 -0.006954193 -0.01112383 0.006687164 -0.007761597 -0.01112383 0.005369782 -0.007201194 -0.01090705 0.006516218 -0.008037328 -0.01090705 0.005229294 -0.007366299 -0.01058268 0.004606246 -0.005990207 -0.01112383 0.004361391 -0.006202995 -0.01090705 0.004197776 -0.006345152 -0.01058268 0.007689476 -0.008891761 -0.01058268 0.007774829 -0.008692502 -0.01090705 0.007902622 -0.0083943 -0.01112383 0.004267275 -0.005083262 -0.01112383 0.004306435 -0.005409896 -0.01112383 0.004149973 -0.005083262 -0.01106601 0.003991186 -0.005486488 -0.01090705 0.003780543 -0.005537688 -0.01058268 0.003783941 -0.005083262 -0.01069998 0.003942847 -0.005083262 -0.01090705 0.003706574 -0.005555689 -0.01019996 0.00364995 -0.005083262 -0.01019996 0.003726065 -0.005083262 -0.01058268 0.004421591 -0.005717992 -0.01112383 0.004133343 -0.005866944 -0.01090705 0.003940761 -0.005966424 -0.01058268 0.003873169 -0.006001353 -0.01019996 0.004267275 0.005083262 -0.01112383 0.004149973 0.005083262 -0.01106601 0.003942847 0.005083262 -0.01090705 0.003783941 0.005083262 -0.01069998 0.003726065 0.005083262 -0.01058268 0.00364995 0.005083262 -0.01019996 0.004306435 0.005409896 -0.01112383 0.003991186 0.005486488 -0.01090705 0.004606246 0.005990207 -0.01112383 0.004421591 0.005717992 -0.01112383 0.004361391 0.006202995 -0.01090705 0.004133343 0.005866944 -0.01090705 0.004197776 0.006345152 -0.01058268 0.003940761 0.005966424 -0.01058268 0.003873169 0.006001353 -0.01019996 0.003780543 0.005537688 -0.01058268 0.003706574 0.005555689 -0.01019996 0.006402015 0.008221566 -0.01058268 0.007902622 0.0083943 -0.01112383 0.006687164 0.007761597 -0.01112383 0.007774829 0.008692502 -0.01090705 0.006516218 0.008037328 -0.01090705 0.007689476 0.008891761 -0.01058268 0.005229294 0.007366299 -0.01058268 0.005369782 0.007201194 -0.01090705 0.005580067 0.006954193 -0.01112383 0 2.5e-4 -0.006099998 1.25e-4 2.16506e-4 -0.006099998 2.16506e-4 1.25e-4 -0.006099998 2.5e-4 0 -0.006099998 2.16506e-4 -1.25e-4 -0.006099998 1.25e-4 -2.16506e-4 -0.006099998 0 -2.5e-4 -0.006099998 -1.25e-4 -2.16506e-4 -0.006099998 -2.16506e-4 -1.25e-4 -0.006099998 -2.5e-4 0 -0.006099998 -2.16506e-4 1.25e-4 -0.006099998 -1.25e-4 2.16506e-4 -0.006099998 0 0 -0.006099998</float_array>
          <technique_common>
            <accessor source="#link_3-mesh-positions-array" count="655" stride="3">
              <param name="X" type="float"/>
              <param name="Y" type="float"/>
              <param name="Z" type="float"/>
            </accessor>
          </technique_common>
        </source>
        <source id="link_3-mesh-normals">
          <float_array id="link_3-mesh-normals-array" count="3870">0.1507183 -0.9853796 0.07944232 0.1936274 -0.5006952 0.8436899 0.1948713 -0.3477481 0.9171131 0.1164025 -0.2667242 0.9567177 0.1689255 -0.2319179 0.9579553 0.1510011 -0.0794388 0.9853366 0.1936266 -0.6937255 0.6937245 0.1936268 -0.8436895 0.5006963 0.1936274 -0.8436893 0.5006965 0.1948713 -0.9171131 0.3477481 0.1506464 -0.9856643 0.07596993 0.5555609 -0.7648258 0.3261805 0.2132293 -0.9495709 0.2298876 0.1463911 -0.943294 0.2979364 0.5363211 -0.8041647 0.2562789 0.5639705 -0.7904658 0.2389584 0.552569 -0.7167515 0.4253644 0.5525683 -0.7167521 0.4253643 0.5525681 -0.5893511 0.5893503 0.552568 -0.5893512 0.5893503 0.5525681 -0.4253638 0.7167524 0.1936265 -0.6937255 0.6937245 0.1936267 -0.5006956 0.84369 0.552569 -0.4253631 0.7167522 0.5537338 -0.256345 0.7922538 0.6539335 -0.2967886 0.6959078 0.1507182 0.07944226 0.9853796 0.1936274 0.8436895 0.5006963 0.1948713 0.9171131 0.3477481 0.1164023 0.9567177 0.2667241 0.1689258 0.9579553 0.2319175 0.1510012 0.9853366 0.07943886 0.1936265 0.6937255 0.6937245 0.1936267 0.5006953 0.84369 0.1936274 0.5006955 0.8436898 0.1948713 0.3477481 0.9171131 0.1506463 0.07597011 0.9856644 0.5555609 0.3261805 0.7648258 0.213229 0.229888 0.949571 0.1463911 0.2979364 0.943294 0.5363216 0.2562788 0.8041644 0.5639705 0.2389587 0.7904658 0.552569 0.4253635 0.7167519 0.5525681 0.4253634 0.7167527 0.5525681 0.5893511 0.5893503 0.5525681 0.5893511 0.5893502 0.5525683 0.7167519 0.4253646 0.1936265 0.6937255 0.6937245 0.1936267 0.8436893 0.5006965 0.552569 0.7167517 0.425364 0.5537338 0.7922538 0.2563449 0.6539332 0.6959081 0.2967883 -3.51691e-4 0.8314696 0.5555702 3.80247e-4 0.5555702 0.8314696 -0.003534674 0.6205723 0.7841413 0 0.1950899 0.9807854 -0.005584537 0.09979474 0.9949923 0.001807034 0.343149 0.9392793 -0.001727163 0.8141091 0.5807094 2.72681e-4 0.9190241 0.3942014 -0.001079022 0.980785 0.1950886 0 0.986131 0.1659687 -0.2609347 0.945477 0.1949006 -0.9103602 0.3651714 0.1946645 -0.945477 -0.2609347 0.1949006 -0.3651714 -0.9103602 0.1946645 -0.04567807 -0.1902633 0.9806699 -0.04567831 -0.1902636 0.9806698 -0.1299723 -0.5413732 0.8306758 -0.1299719 -0.5413726 0.8306762 -0.1942873 -0.8092657 0.5543839 -0.1942871 -0.8092653 0.5543844 -0.1270775 -0.1487886 0.9806698 -0.1270775 -0.1487886 0.9806698 -0.3615844 -0.4233608 0.8306758 -0.3615842 -0.4233608 0.8306759 -0.5405099 -0.632856 0.5543846 -0.5405104 -0.6328562 0.5543839 -0.1487886 -0.1270775 0.9806698 -0.1487886 -0.1270775 0.9806698 -0.4233608 -0.3615843 0.830676 -0.423361 -0.3615844 0.8306758 -0.6328564 -0.5405103 0.5543839 -0.6328559 -0.5405101 0.5543845 -0.1668362 -0.1022372 0.9806698 -0.1668359 -0.1022372 0.9806699 -0.4747129 -0.2909045 0.8306758 -0.4747129 -0.2909045 0.8306758 -0.7096189 -0.4348551 0.5543845 -0.7096191 -0.4348551 0.5543843 -0.1902633 0.04567807 0.9806699 -0.1902636 0.04567831 0.9806698 -0.5413732 0.1299723 0.8306758 -0.5413726 0.1299719 0.8306762 -0.8092657 0.1942873 0.5543839 -0.8092653 0.1942871 0.5543844 -0.1487886 0.1270775 0.9806698 -0.1487886 0.1270775 0.9806698 -0.4233608 0.3615844 0.8306758 -0.4233608 0.3615842 0.8306759 -0.632856 0.5405099 0.5543846 -0.6328562 0.5405104 0.5543839 -0.1270775 0.1487886 0.9806698 -0.1270775 0.1487886 0.9806698 -0.3615843 0.4233608 0.830676 -0.3615844 0.423361 0.8306758 -0.5405103 0.6328564 0.5543839 -0.5405101 0.6328559 0.5543845 -0.1022372 0.1668362 0.9806698 -0.1022372 0.1668359 0.9806699 -0.2909045 0.4747129 0.8306758 -0.2909045 0.4747129 0.8306758 -0.4348551 0.7096189 0.5543845 -0.4348551 0.7096191 0.5543843 -0.01535218 -0.1950669 0.9806698 -0.01535201 -0.1950665 0.9806699 -0.04368257 -0.5550398 0.830676 -0.04368263 -0.5550402 0.8306758 -0.06529855 -0.8296951 0.5543845 -0.06529873 -0.8296955 0.5543839 -0.07696092 -0.9778768 0.1945101 -0.07696008 -0.9778761 0.194513 -0.2289863 -0.9537981 0.1945109 -0.2527292 -0.9157451 0.3123121 -0.1859471 -0.9630184 0.1949853 -0.4354376 -0.8788279 0.1950781 -0.372471 -0.8992241 0.2294805 -0.3184925 -0.7689086 0.5543844 -0.3184926 -0.7689086 0.5543844 -0.2130616 -0.5143759 0.8306757 -0.2130611 -0.5143753 0.8306762 -0.07487964 -0.1807755 0.9806698 -0.07487964 -0.1807755 0.9806698 -0.1022373 -0.166836 0.9806698 -0.1022373 -0.1668361 0.9806698 -0.2909045 -0.4747129 0.8306758 -0.2909045 -0.4747129 0.8306758 -0.4348551 -0.7096189 0.5543843 -0.4348551 -0.7096189 0.5543845 -0.512519 -0.836355 0.1945114 -0.5125188 -0.8363549 0.194512 -0.878828 -0.4354376 0.1950781 -0.836355 -0.5125188 0.1945114 -0.8363548 -0.5125189 0.194512 -0.780344 -0.594156 0.1950433 -0.7358009 -0.6284335 0.252326 -0.7313586 -0.653582 0.1947952 -0.6370438 -0.7458823 0.1945118 -0.6407774 -0.7170302 0.2743575 -0.594156 -0.780344 0.1950433 -0.9103602 -0.3651714 0.1946645 -0.8992241 -0.372471 0.2294805 -0.7689086 -0.3184926 0.5543843 -0.7689086 -0.3184925 0.5543844 -0.5143753 -0.2130613 0.8306762 -0.5143761 -0.2130613 0.8306757 -0.1807756 -0.07487964 0.9806698 -0.1807752 -0.07487958 0.9806699 -0.9630184 -0.1859471 0.1949853 -0.9379799 -0.2251887 0.2635976 -0.8092657 -0.1942872 0.5543839 -0.8092653 -0.1942873 0.5543844 -0.5413732 -0.1299721 0.8306758 -0.5413725 -0.1299722 0.8306762 -0.1902633 -0.04567819 0.9806699 -0.1902637 -0.04567819 0.9806698 -0.1950665 -0.01535212 0.9806699 -0.1950669 -0.01535207 0.9806698 -0.5550402 -0.04368257 0.8306758 -0.5550399 -0.04368263 0.830676 -0.8296954 -0.06529855 0.5543839 -0.8296951 -0.06529873 0.5543845 -0.9778761 -0.07696086 0.194513 -0.9778767 -0.07696014 0.1945101 -0.1950669 0.01535218 0.9806698 -0.1950665 0.01535201 0.9806699 -0.5550398 0.04368257 0.830676 -0.5550402 0.04368263 0.8306758 -0.8296951 0.06529855 0.5543845 -0.8296955 0.06529873 0.5543839 -0.9778768 0.07696092 0.1945101 -0.9778761 0.07696008 0.194513 -0.9537981 0.2289863 0.1945109 -0.9157451 0.2527292 0.3123121 -0.9630184 0.1859471 0.1949853 -0.8788279 0.4354376 0.1950781 -0.8992241 0.372471 0.2294805 -0.7689086 0.3184925 0.5543844 -0.7689086 0.3184926 0.5543844 -0.5143759 0.2130616 0.8306757 -0.5143753 0.2130611 0.8306762 -0.1807753 0.07487952 0.9806699 -0.1807755 0.0748797 0.9806698 -0.1668359 0.1022371 0.9806699 -0.1668361 0.1022373 0.9806698 -0.4747129 0.2909045 0.8306758 -0.4747129 0.2909045 0.8306758 -0.7096189 0.4348551 0.5543843 -0.7096189 0.4348551 0.5543845 -0.836355 0.512519 0.1945114 -0.8363549 0.5125188 0.194512 -0.4354376 0.878828 0.1950781 -0.5125188 0.836355 0.1945114 -0.5125189 0.8363548 0.194512 -0.594156 0.780344 0.1950433 -0.6284335 0.7358009 0.252326 -0.653582 0.7313586 0.1947952 -0.7458823 0.6370438 0.1945118 -0.7170302 0.6407774 0.2743575 -0.780344 0.594156 0.1950433 -0.3651714 0.9103602 0.1946645 -0.372471 0.8992241 0.2294805 -0.3184926 0.7689086 0.5543843 -0.3184925 0.7689086 0.5543844 -0.2130613 0.5143753 0.8306762 -0.2130613 0.5143761 0.8306757 -0.07487964 0.1807756 0.9806698 -0.07487958 0.1807752 0.9806699 -0.1859471 0.9630184 0.1949853 -0.2251887 0.9379799 0.2635976 -0.1942872 0.8092657 0.5543839 -0.1942873 0.8092653 0.5543844 -0.1299721 0.5413732 0.8306758 -0.1299722 0.5413725 0.8306762 -0.04567819 0.1902633 0.9806699 -0.04567819 0.1902637 0.9806698 -0.01535212 0.1950664 0.9806699 -0.01535207 0.1950669 0.9806698 -0.04368257 0.5550402 0.8306758 -0.04368263 0.5550399 0.830676 -0.06529855 0.8296954 0.5543839 -0.06529873 0.8296951 0.5543845 -0.07696086 0.9778761 0.194513 -0.07696014 0.9778767 0.1945101 -9.44469e-4 -0.8601589 0.5100253 -0.002224028 -0.8314676 0.5555688 0.001053094 -0.9486946 0.3161922 -0.00198853 -0.9807837 0.1950883 0 -0.9966356 0.08196133 0 -0.1572031 0.9875663 -0.001663506 -0.1950896 0.980784 0.001179277 -0.4588723 0.8885015 -0.002260148 -0.5555688 0.8314675 -3.35328e-5 -0.6520018 0.7582175 4.07018e-5 -0.768247 0.6401535 0.733088 0.3471092 0.5848908 0.6454144 0.2996445 0.7026048 0.7188343 0.4959658 0.4871296 0.7240646 0.4798994 0.4954059 0.7338919 0.4552053 0.5041735 0.7099508 0.4979812 0.4979805 0.7062192 0.4270474 0.5646989 0.7111838 0.3975353 0.5798133 0.7082123 0.5705542 0.4158165 0.7060672 0.5570574 0.437214 0.7112078 0.5217418 0.471136 0.7157159 0.5956621 0.3646062 0.7573979 0.5615165 0.3332383 0.6930218 0.6631288 0.2828091 0.7330887 -0.5848896 0.3471094 0.6454146 -0.7026045 0.2996444 0.7188351 -0.4871323 0.495962 0.7240633 -0.4954053 0.4799019 0.7338916 -0.5041738 0.4552054 0.7099511 -0.497981 0.4979802 0.7062197 -0.5646983 0.4270476 0.711184 -0.5798119 0.3975367 0.7082118 -0.4158163 0.5705549 0.706067 -0.4372125 0.557059 0.7112079 -0.4711371 0.5217404 0.7157154 -0.3646057 0.5956628 0.7573974 -0.333238 0.5615173 0.6930218 -0.282809 0.6631288 0 -0.9967659 0.08036035 0.004106938 -0.98768 0.1564328 0 -0.9719231 0.235299 0 -0.9350389 0.3545452 0.003497838 -0.8910011 0.4539875 -0.001166403 -0.8599635 0.5103542 0.001509189 -0.707106 0.707106 0.001509249 -0.7071065 0.7071054 -0.001166343 -0.5103533 0.8599641 0.003497838 -0.4539874 0.8910012 0 -0.3545452 0.9350389 0 -0.2352994 0.9719229 0.004106938 -0.1564329 0.98768 0 -0.08036023 0.9967659 0 0.08036023 0.9967659 0.004106938 0.1564329 0.98768 0 0.2352994 0.9719229 0 0.3545452 0.9350389 0.003497838 0.4539874 0.8910012 -0.001166343 0.5103533 0.8599641 0.001509249 0.707106 0.707106 0.001509189 0.7071065 0.7071054 -0.001166403 0.8599635 0.5103542 0.003497838 0.8910011 0.4539875 0 0.9350389 0.3545452 0 0.9719231 0.235299 0.004106938 0.98768 0.1564328 0 0.9967659 0.08036035 -0.02678805 -0.1950187 0.9804336 -0.02678781 -0.1950185 0.9804337 -0.07609212 -0.5539595 0.8290591 -0.07609236 -0.5539597 0.8290588 -0.1134737 -0.8260992 0.5519818 -0.1134741 -0.8260995 0.5519812 -0.1335158 -0.9720044 0.193342 -0.1335142 -0.972004 0.193345 -0.136082 -0.9906976 0 -0.1786767 -0.9838786 0.007585823 -0.04730856 -0.9988803 0 -0.02678799 0.1950184 0.9804337 -0.02678787 0.1950187 0.9804337 -0.07609218 0.5539598 0.8290588 -0.07609236 0.5539595 0.8290591 -0.1134737 0.8260996 0.5519812 -0.113474 0.8260992 0.5519818 -0.1335157 0.9720037 0.193345 -0.1335143 0.9720045 0.193342 -0.2303917 0.9730979 0 -0.1360804 0.9906858 0.004881381 -0.09582769 0.9953979 0 -0.1007973 0.167349 0.9807315 -0.1007973 0.167349 0.9807314 -0.2869362 0.4763868 0.8310976 -0.2869363 0.4763872 0.8310974 -0.4291927 0.7125691 0.5550125 -0.4291928 0.7125682 0.5550135 -0.506069 0.8402021 0.1948195 -0.506069 0.8402021 0.1948195 -0.08223468 0.1772096 0.9807315 -0.08223468 0.1772097 0.9807315 -0.2340947 0.504457 0.8310973 -0.2340947 0.5044577 0.8310969 -0.3501529 0.7545548 0.5550135 -0.350153 0.7545537 0.5550148 -0.4128723 0.8897089 0.1948195 -0.4128717 0.8897096 0.1948174 -0.06271988 0.1850191 0.9807314 -0.06271988 0.1850189 0.9807315 -0.1785429 0.5266881 0.8310969 -0.178543 0.5266876 0.8310973 -0.26706 0.7878056 0.5550149 -0.2670596 0.787807 0.555013 -0.3148947 0.9289174 0.1948176 -0.3148955 0.9289166 0.1948202 -0.194989 0.03196281 0.9802845 -0.194989 0.03196275 0.9802845 -0.5532806 0.09069418 0.828043 -0.5532803 0.09069389 0.8280432 -0.8238528 0.1350462 0.5504808 -0.8238528 0.1350461 0.550481 -0.9683507 0.1587322 0.1926164 -0.1358982 0.1434364 0.9802845 -0.1358983 0.1434361 0.9802845 -0.3856112 0.407 0.8280429 -0.3856112 0.4069996 0.8280431 -0.5741878 0.6060357 0.5504809 -0.5741876 0.6060367 0.5504799 -0.8001201 0.5113447 0.3135833 -0.9010953 0.3875672 0.1944707 -0.9683506 0.1587323 0.1926162 -0.1745801 0.09254235 0.9802845 -0.1745801 0.0925424 0.9802845 -0.4953703 0.2625887 0.8280432 -0.4953704 0.2625892 0.8280429 -0.7376223 0.3910037 0.550481 -0.7376224 0.391004 0.5504807 -0.8669959 0.4595833 0.1926172 -0.6748954 0.7123306 0.1926169 -0.6748957 0.7123304 0.1926174 -0.9807854 0 0.1950899 -0.9807854 0 0.1950899 -0.8314696 0 0.5555702 -0.8314696 0 0.5555702 -0.5555702 0 0.8314696 -0.5555702 0 0.8314696 -0.1950888 0 0.9807856 -0.1950888 0 0.9807856 -0.1358982 -0.1434363 0.9802845 -0.1358984 -0.1434363 0.9802845 -0.3856111 -0.4069997 0.8280431 -0.3856114 -0.4069998 0.8280429 -0.5741882 -0.6060362 0.5504798 -0.5741872 -0.6060363 0.5504809 -0.6748954 -0.7123305 0.1926175 -0.1949889 -0.03196281 0.9802845 -0.194989 -0.03196275 0.9802845 -0.5532802 -0.09069412 0.8280432 -0.5532806 -0.09069389 0.828043 -0.8238527 -0.1350462 0.5504809 -0.8238528 -0.1350461 0.5504809 -0.8722981 -0.3751813 0.3135843 -0.8265342 -0.5282255 0.1944715 -0.6748957 -0.7123304 0.1926169 -0.1745801 -0.0925424 0.9802845 -0.1745801 -0.0925424 0.9802845 -0.4953707 -0.2625889 0.8280429 -0.4953701 -0.2625891 0.8280431 -0.7376225 -0.3910039 0.5504806 -0.7376223 -0.391004 0.550481 -0.8669961 -0.4595834 0.1926164 -0.9683507 -0.1587322 0.1926162 -0.9683506 -0.1587323 0.1926164 -0.06271982 -0.1850189 0.9807315 -0.06271994 -0.185019 0.9807315 -0.1785427 -0.5266876 0.8310973 -0.1785432 -0.526688 0.831097 -0.2670604 -0.7878068 0.555013 -0.2670592 -0.7878058 0.5550147 -0.3148946 -0.9289169 0.1948202 -0.3148956 -0.928917 0.1948176 -0.08223474 -0.1772097 0.9807315 -0.08223468 -0.1772097 0.9807315 -0.234095 -0.5044576 0.831097 -0.2340945 -0.5044571 0.8310973 -0.3501526 -0.754554 0.5550149 -0.3501534 -0.7545545 0.5550136 -0.4128724 -0.8897092 0.1948175 -0.4128715 -0.8897092 0.1948195 -0.1007973 -0.1673491 0.9807315 -0.1007973 -0.167349 0.9807315 -0.2869365 -0.4763872 0.8310974 -0.2869361 -0.4763869 0.8310976 -0.4291924 -0.7125685 0.5550136 -0.4291931 -0.7125688 0.5550125 -0.506069 -0.840202 0.1948195 -0.5060691 -0.8402021 0.1948194 -0.6877749 -0.725924 0 -0.7443532 -0.6676634 -0.01280546 -0.9868299 -0.1617615 0 -0.9703691 -0.2412876 -0.0128054 -0.9186336 -0.3951105 0 -0.8426213 -0.5385066 0 -0.9868299 0.1617615 0 -0.9703691 0.2412876 -0.0128054 -0.6877749 0.725924 0 -0.7443532 0.6676634 -0.01280546 -0.8426213 0.5385066 0 -0.9186336 0.3951105 0 -1 0 0 -1 0 0 -0.5260449 0.8504567 0 -0.5159538 0.8566132 0.002360582 -0.4725889 0.8812829 -4.43816e-4 -0.4209365 0.9070885 0.001720368 -0.4199992 0.9075233 0.001495778 -0.3210465 0.9470614 -0.001994907 -0.3534278 0.9354305 0.007654905 -0.2978408 0.9546155 0 -0.2807146 -0.9597913 0 -0.5159552 -0.8566156 0 -0.5260425 -0.8504529 0.003024399 -0.459185 -0.8883397 -0.001295328 -0.4209347 -0.9070848 0.003335237 -0.394392 -0.9189419 -8.55507e-4 -0.3210468 -0.9470624 0.001322567 -0.3432311 -0.9392291 0.006413996 -0.310294 -0.9506394 0.001533389 6.98851e-5 0.8600031 0.5102888 -9.29057e-5 0.9807856 0.1950887 -0.001698732 0.9720564 0.2347413 0 0.9990474 0.04363816 -0.005821764 0.7424247 0.6699043 5.41364e-6 0.8314697 0.5555702 -2.63688e-6 0.6367 0.7711117 -0.001979053 0.5555691 0.831468 9.7369e-4 0.4325245 0.9016217 -0.001429319 0.1950885 0.9807846 0 0.1488301 0.9888627 6.98042e-5 -0.5102912 0.8600018 -9.29994e-5 -0.1950887 0.9807856 -0.001698732 -0.2347384 0.9720571 0 -0.04363816 0.9990474 -0.005821943 -0.6699087 0.7424207 5.46629e-6 -0.5555702 0.8314697 -2.56262e-6 -0.7711092 0.6367028 -0.001979053 -0.831468 0.5555691 9.7369e-4 -0.9016217 0.4325245 -0.001429319 -0.9807846 0.1950885 0 -0.9888627 0.1488301 0 1 0 0 1 0 0 1 0 0 1 0 0 1 0 0 1 0 0 1 0 0 1 0 0 1 0 0 1 0 0 1 0 0 1 0 0 1 0 0 1 0 0 1 0 0 1 0 0 1 0 0 1 0 0 0 1 0 0 1 0 0 1 0 0 1 0 0 1 0 0 1 0 0 1 0 0 1 0 0 1 0 0 1 0 0 1 0 0 1 0 0 1 0 0 1 0 0 1 0 0 1 0 0 1 0 0 1 0 0 1 0 0 1 0 0 1 0 0 1 0 0 1 0 0 1 0 0 1 0 0 1 0 0 1 0 0 1 0 -1 0 0 -1 0 0 -1 0 0 -1 0 0 -1 0 0 -1 0 0 -1 0 0 -1 0 0 -1 0 0 -1 0 0 -1 0 0 -1 0 0 -1 0 0 -1 0 0 -1 0 0 -1 0 0 -1 0 0 -1 0 -0.07845866 -0.9969174 0 -0.07845866 -0.9969174 0 -0.189586 -0.9818641 0 -0.189586 -0.9818641 0 -0.2660365 -0.963963 0 -0.2660365 -0.963963 0 -0.3722934 -0.9281151 0 -0.3722934 -0.9281151 0 -0.4439673 -0.8960431 0 -0.4439673 -0.8960431 0 -0.5224985 -0.8526403 0 -0.5224985 -0.8526403 0 -0.6057904 -0.7956243 0 -0.6057904 -0.7956243 0 -0.6663466 -0.7456421 0 -0.6663466 -0.7456421 0 -0.7456421 -0.6663466 0 -0.7456421 -0.6663466 0 -0.7956243 -0.6057904 0 -0.7956243 -0.6057904 0 -0.8526403 -0.5224985 0 -0.8526403 -0.5224985 0 -0.8960431 -0.4439673 0 -0.8960431 -0.4439673 0 -0.9281151 -0.3722934 0 -0.9281151 -0.3722934 0 -0.963963 -0.2660365 0 -0.963963 -0.2660365 0 -0.9818641 -0.189586 0 -0.9818641 -0.189586 0 -0.9969174 -0.07845866 0 -0.9969174 -0.07845866 0 -0.9969174 0.07845866 0 -0.9969174 0.07845866 0 -0.9818641 0.189586 0 -0.9818641 0.189586 0 -0.963963 0.2660365 0 -0.963963 0.2660365 0 -0.9281151 0.3722934 0 -0.9281151 0.3722934 0 -0.8960431 0.4439673 0 -0.8960431 0.4439673 0 -0.8526403 0.5224985 0 -0.8526403 0.5224985 0 -0.7956243 0.6057904 0 -0.7956243 0.6057904 0 -0.7456421 0.6663466 0 -0.7456421 0.6663466 0 -0.6663466 0.7456421 0 -0.6663466 0.7456421 0 -0.6057904 0.7956243 0 -0.6057904 0.7956243 0 -0.5224985 0.8526403 0 -0.5224985 0.8526403 0 -0.4439673 0.8960431 0 -0.4439673 0.8960431 0 -0.3722934 0.9281151 0 -0.3722934 0.9281151 0 -0.2660365 0.963963 0 -0.2660365 0.963963 0 -0.189586 0.9818641 0 -0.189586 0.9818641 0 -0.07845866 0.9969174 0 -0.07845866 0.9969174 0 0 0 1 0 0 1 0 0 1 0 0 1 0 0 1 0 0 1 0 0 1 0 0 1 0 0 1 0 0 1 0 0 1 0 0 1 0 0 1 0 0 1 0 0 1 0 0 1 0 0 1 0 0 1 0 0 1 0 0 1 0 0 1 0 0 1 0 0 1 0 0 1 0 0 1 0 0 1 0 0 1 0 0.9967659 -0.08036035 0.004106938 0.98768 -0.1564328 0 0.9719231 -0.235299 0 0.9350389 -0.3545452 0.003497838 0.8910011 -0.4539875 -0.001166403 0.8599635 -0.5103542 0.001509189 0.707106 -0.707106 0.001509249 0.7071065 -0.7071054 -0.001166343 0.5103533 -0.8599641 0.003497838 0.4539874 -0.8910012 0 0.3545452 -0.9350389 0 0.2352994 -0.9719229 0.004106938 0.1564329 -0.98768 0 0.08036023 -0.9967659 0.1507183 0.9853796 -0.07944232 0.1936274 0.5006952 -0.8436899 0.1948713 0.3477481 -0.9171131 0.1164025 0.2667242 -0.9567177 0.1689255 0.2319179 -0.9579553 0.1510011 0.0794388 -0.9853366 0.1936266 0.6937255 -0.6937245 0.1936268 0.8436895 -0.5006963 0.1936274 0.8436893 -0.5006965 0.1948713 0.9171131 -0.3477481 0.1506464 0.9856643 -0.07596993 0.5555609 0.7648258 -0.3261805 0.2132293 0.9495709 -0.2298876 0.1463911 0.943294 -0.2979364 0.5363211 0.8041647 -0.2562789 0.5639705 0.7904658 -0.2389584 0.552569 0.7167515 -0.4253644 0.5525683 0.7167521 -0.4253643 0.5525681 0.5893511 -0.5893503 0.552568 0.5893512 -0.5893503 0.5525681 0.4253638 -0.7167524 0.1936265 0.6937255 -0.6937245 0.1936267 0.5006956 -0.84369 0.552569 0.4253631 -0.7167522 0.5537338 0.256345 -0.7922538 0.6539335 0.2967886 -0.6959078 0.7330887 0.5848896 -0.3471094 0.6454146 0.7026045 -0.2996444 0.7188351 0.4871323 -0.495962 0.7240633 0.4954053 -0.4799019 0.7338916 0.5041738 -0.4552054 0.7099511 0.497981 -0.4979802 0.7062197 0.5646983 -0.4270476 0.711184 0.5798119 -0.3975367 0.7082118 0.4158163 -0.5705549 0.706067 0.4372125 -0.557059 0.7112079 0.4711371 -0.5217404 0.7157154 0.3646057 -0.5956628 0.7573974 0.333238 -0.5615173 0.6930218 0.282809 -0.6631288 6.88676e-5 0.510291 -0.8600019 -9.17517e-5 0.1950887 -0.9807856 -0.001676261 0.2347475 -0.972055 0 0.04363816 -0.9990474 -0.005743503 0.6699114 -0.7424188 5.39249e-6 0.5555702 -0.8314697 -2.52802e-6 0.7711092 -0.6367029 -0.00195235 0.8314681 -0.5555691 9.60634e-4 0.9016233 -0.4325214 -0.001410245 0.9807847 -0.1950885 0 0.9888628 -0.1488301 -0.1269988 0.9919028 0 -0.1475592 0.9890492 -0.002814292 -0.02270388 0.9997422 0 -0.002227723 0.8314676 -0.5555688 3.51626e-4 0.8879332 -0.4599723 -1.34954e-5 0.9312169 -0.3644655 1.23248e-4 0.9774425 -0.2112022 -9.76825e-4 0.9844264 -0.1757947 0 0.9994829 -0.0321542 3.56544e-5 0.7699116 -0.6381506 -4.07299e-5 0.652648 -0.7576612 -0.002239048 0.5555679 -0.8314681 0.001169383 0.4608056 -0.8875003 -0.001687586 0.1950907 -0.9807837 -0.00730437 0.3211965 -0.9469845 0 0.1502029 -0.9886552 -0.01535218 -0.195068 -0.9806696 -0.04368257 -0.5550391 -0.8306764 -0.06529873 -0.8296951 -0.5543845 -0.07309263 0.928726 -0.3634907 -0.07696014 -0.9778768 -0.1945099 -0.07696086 -0.9778762 -0.1945128 -0.1859471 -0.9630184 -0.194985 -0.2251887 -0.9379801 -0.2635973 -0.2609347 -0.9454771 -0.1949004 -0.3651714 -0.9103602 -0.1946643 -0.3724711 -0.8992242 -0.2294802 -0.4354376 -0.878828 -0.1950779 -0.5125189 -0.836355 -0.1945112 -0.512519 -0.8363549 -0.1945117 -0.594156 -0.780344 -0.1950431 -0.6284336 -0.735801 -0.2523257 -0.6535821 -0.7313586 -0.194795 -0.7458823 -0.6370438 -0.1945116 -0.7170302 -0.6407775 -0.2743572 -0.780344 -0.594156 -0.1950431 -0.8363549 -0.5125188 -0.1945117 -0.836355 -0.5125191 -0.1945112 -0.878828 -0.4354376 -0.1950779 -0.8992242 -0.3724711 -0.2294802 -0.9103602 -0.3651714 -0.1946643 -0.9537982 -0.2289863 -0.1945107 -0.9157453 -0.2527293 -0.3123117 -0.9630184 -0.1859471 -0.194985 -0.9778762 -0.07696008 -0.1945128 -0.9778768 -0.07696092 -0.1945099 -0.9778768 0.07696014 -0.1945099 -0.9778762 0.07696086 -0.1945128 -0.9630184 0.1859471 -0.194985 -0.9379801 0.2251887 -0.2635973 -0.9454771 0.2609347 -0.1949004 -0.9103602 0.3651714 -0.1946643 -0.8992242 0.3724711 -0.2294802 -0.878828 0.4354376 -0.1950779 -0.836355 0.5125189 -0.1945112 -0.8363549 0.512519 -0.1945117 -0.780344 0.594156 -0.1950431 -0.735801 0.6284336 -0.2523257 -0.7313586 0.6535821 -0.194795 -0.6370438 0.7458823 -0.1945116 -0.6407775 0.7170302 -0.2743572 -0.594156 0.780344 -0.1950431 -0.5125188 0.8363549 -0.1945117 -0.5125191 0.836355 -0.1945112 -0.4354376 0.878828 -0.1950779 -0.3724711 0.8992242 -0.2294802 -0.3651714 0.9103602 -0.1946643 -0.2289863 0.9537982 -0.1945107 -0.07724416 0.9814856 -0.1752696 -0.08159327 0.9774871 -0.1945805 -0.1859471 0.9630184 -0.194985 -0.2527292 0.9157452 -0.3123117 -0.06529855 -0.8296955 -0.5543839 -0.1942872 -0.8092657 -0.5543839 -0.1942873 -0.8092653 -0.5543844 -0.3184926 -0.7689086 -0.5543844 -0.3184925 -0.7689086 -0.5543844 -0.4348551 -0.7096191 -0.5543843 -0.4348551 -0.7096188 -0.5543845 -0.5405101 -0.6328559 -0.5543846 -0.5405102 -0.6328564 -0.5543839 -0.6328562 -0.5405104 -0.5543839 -0.632856 -0.54051 -0.5543846 -0.7096189 -0.4348551 -0.5543845 -0.709619 -0.4348551 -0.5543842 -0.7689086 -0.3184925 -0.5543844 -0.7689086 -0.3184926 -0.5543844 -0.8092653 -0.1942871 -0.5543844 -0.8092657 -0.1942873 -0.5543839 -0.8296955 -0.06529873 -0.5543839 -0.8296951 -0.06529855 -0.5543845 -0.8296951 0.06529873 -0.5543845 -0.8296955 0.06529855 -0.5543839 -0.8092657 0.1942872 -0.5543839 -0.8092653 0.1942873 -0.5543844 -0.7689086 0.3184926 -0.5543844 -0.7689086 0.3184925 -0.5543844 -0.7096191 0.4348551 -0.5543843 -0.7096188 0.4348551 -0.5543845 -0.6328559 0.5405101 -0.5543846 -0.6328564 0.5405102 -0.5543839 -0.5405104 0.6328562 -0.5543839 -0.54051 0.632856 -0.5543846 -0.4348551 0.7096189 -0.5543845 -0.4348551 0.709619 -0.5543842 -0.3184925 0.7689086 -0.5543844 -0.3184926 0.7689086 -0.5543844 -0.1942871 0.8092653 -0.5543844 -0.1942873 0.8092657 -0.5543839 -0.06529873 0.8296955 -0.5543839 -0.06529855 0.8296951 -0.5543845 -0.04368251 -0.5550394 -0.8306763 -0.1299719 -0.5413724 -0.8306763 -0.129972 -0.5413718 -0.8306768 -0.213061 -0.5143744 -0.8306767 -0.213061 -0.5143752 -0.8306763 -0.2909041 -0.4747121 -0.8306764 -0.2909041 -0.4747122 -0.8306763 -0.3615838 -0.4233604 -0.8306763 -0.3615837 -0.4233601 -0.8306765 -0.4233602 -0.3615837 -0.8306765 -0.4233602 -0.3615838 -0.8306763 -0.4747121 -0.2909041 -0.8306764 -0.4747122 -0.2909041 -0.8306763 -0.5143752 -0.2130613 -0.8306763 -0.5143746 -0.2130608 -0.8306768 -0.5413718 -0.1299718 -0.8306767 -0.5413724 -0.1299721 -0.8306763 -0.5550394 -0.04368263 -0.8306763 -0.5550391 -0.04368251 -0.8306766 -0.5550391 0.04368257 -0.8306764 -0.5550394 0.04368251 -0.8306763 -0.5413724 0.1299719 -0.8306763 -0.5413718 0.129972 -0.8306768 -0.5143744 0.213061 -0.8306767 -0.5143752 0.213061 -0.8306763 -0.4747121 0.2909041 -0.8306764 -0.4747122 0.2909041 -0.8306763 -0.4233604 0.3615838 -0.8306763 -0.4233601 0.3615837 -0.8306765 -0.3615837 0.4233602 -0.8306765 -0.3615838 0.4233602 -0.8306763 -0.2909041 0.4747121 -0.8306764 -0.2909041 0.4747122 -0.8306763 -0.2130613 0.5143752 -0.8306763 -0.2130608 0.5143746 -0.8306768 -0.1299718 0.5413718 -0.8306767 -0.1299721 0.5413724 -0.8306763 -0.04368263 0.5550394 -0.8306763 -0.04368251 0.5550391 -0.8306766 -0.01535224 -0.1950676 -0.9806696 -0.04567849 -0.1902644 -0.9806696 -0.04567843 -0.1902648 -0.9806696 -0.07488006 -0.1807766 -0.9806695 -0.07488006 -0.1807765 -0.9806696 -0.1022379 -0.166837 -0.9806696 -0.1022379 -0.1668371 -0.9806696 -0.1270782 -0.1487895 -0.9806696 -0.1270782 -0.1487894 -0.9806696 -0.1487895 -0.1270782 -0.9806696 -0.1487895 -0.1270782 -0.9806696 -0.166837 -0.1022379 -0.9806696 -0.1668369 -0.1022377 -0.9806696 -0.1807764 -0.07487994 -0.9806696 -0.1807766 -0.07488018 -0.9806696 -0.1902648 -0.04567855 -0.9806696 -0.1902644 -0.04567837 -0.9806696 -0.1950676 -0.01535212 -0.9806697 -0.195068 -0.0153523 -0.9806696 -0.195068 0.01535218 -0.9806696 -0.1950676 0.01535224 -0.9806696 -0.1902644 0.04567849 -0.9806696 -0.1902648 0.04567843 -0.9806696 -0.1807766 0.07488006 -0.9806695 -0.1807763 0.07488006 -0.9806696 -0.1668369 0.1022378 -0.9806696 -0.1668371 0.1022378 -0.9806696 -0.1487895 0.1270782 -0.9806696 -0.1487894 0.1270782 -0.9806696 -0.1270782 0.1487895 -0.9806696 -0.1270782 0.1487895 -0.9806696 -0.1022379 0.166837 -0.9806696 -0.1022377 0.1668369 -0.9806696 -0.07487994 0.1807764 -0.9806696 -0.07488018 0.1807766 -0.9806696 -0.04567855 0.1902648 -0.9806696 -0.04567837 0.1902644 -0.9806696 -0.01535212 0.1950676 -0.9806697 -0.0153523 0.195068 -0.9806696 6.76909e-5 -0.8314696 -0.5555702 0 -0.195091 -0.9807851 -0.00238204 -0.1546664 -0.9879638 -5.39267e-4 -0.3057888 -0.9520992 0.00246042 -0.5555677 -0.8314677 -0.004324674 -0.4643006 -0.8856672 -3.75262e-5 -0.6490812 -0.7607191 -0.004992783 -0.767499 -0.6410308 4.01726e-4 -0.8811914 -0.4727596 -6.26129e-4 -0.9807855 -0.1950885 -0.005282223 -0.9511027 -0.3088296 0 -0.989997 -0.1410879 -0.2252455 -0.9743021 0 -0.1269983 -0.9918989 -0.002868056 -0.09969007 -0.9950186 0 6.88676e-5 -0.8600019 -0.510291 -9.17517e-5 -0.9807856 -0.1950887 -0.001676261 -0.972055 -0.2347475 0 -0.9990474 -0.04363816 -0.005743324 -0.7424229 -0.6699068 5.34055e-6 -0.8314697 -0.5555702 -2.60128e-6 -0.6366999 -0.7711117 -0.00195235 -0.5555691 -0.8314681 9.60634e-4 -0.4325214 -0.9016233 -0.001410245 -0.1950885 -0.9807847 0 -0.1488301 -0.9888628 0.733088 -0.3471092 -0.5848908 0.6454144 -0.2996445 -0.7026048 0.7188343 -0.4959658 -0.4871296 0.7240646 -0.4798994 -0.4954059 0.7338919 -0.4552053 -0.5041735 0.7099508 -0.4979812 -0.4979805 0.7062192 -0.4270474 -0.5646989 0.7111838 -0.3975353 -0.5798133 0.7082123 -0.5705542 -0.4158165 0.7060674 -0.5570584 -0.4372125 0.7112083 -0.5217401 -0.471137 0.7157159 -0.5956621 -0.3646062 0.7573979 -0.5615165 -0.3332383 0.6930218 -0.6631288 -0.2828091 0.1507182 -0.07944226 -0.9853796 0.1936274 -0.8436895 -0.5006963 0.1948713 -0.9171131 -0.3477481 0.1164023 -0.9567177 -0.2667241 0.1689258 -0.9579553 -0.2319175 0.1510012 -0.9853366 -0.07943886 0.1936265 -0.6937255 -0.6937245 0.1936267 -0.5006953 -0.84369 0.1936274 -0.5006955 -0.8436898 0.1948713 -0.3477481 -0.9171131 0.1506463 -0.07597011 -0.9856644 0.5555609 -0.3261805 -0.7648258 0.213229 -0.229888 -0.949571 0.1463911 -0.2979364 -0.943294 0.5363216 -0.2562788 -0.8041644 0.5639705 -0.2389587 -0.7904658 0.552569 -0.4253635 -0.7167519 0.5525681 -0.4253634 -0.7167527 0.5525681 -0.5893511 -0.5893503 0.5525681 -0.5893511 -0.5893502 0.5525683 -0.7167519 -0.4253646 0.1936265 -0.6937255 -0.6937245 0.1936267 -0.8436893 -0.5006965 0.552569 -0.7167517 -0.425364 0.5537338 -0.7922538 -0.2563449 0.6539332 -0.6959081 -0.2967883 0 -0.08036023 -0.9967659 0.004106938 -0.1564329 -0.98768 0 -0.2352994 -0.9719229 0 -0.3545452 -0.9350389 0.003497838 -0.4539874 -0.8910012 -0.001166343 -0.5103533 -0.8599641 0.001509249 -0.707106 -0.707106 0.001509189 -0.7071065 -0.7071054 -0.001166403 -0.8599635 -0.5103542 0.003497838 -0.8910011 -0.4539875 0 -0.9350389 -0.3545452 0 -0.9719231 -0.235299 0.004106938 -0.98768 -0.1564328 0 -0.9967659 -0.08036035 0 0 -1 0 0 -1 0 0 -1 0 0 -1 0 0 -1 0 0 -1 0 0 -1 0 0 -1 0 0 -1 0 0 -1 0 0 -1 0 0 -1 0 0 -1 0 0 -1 0 0 -1 0 0 -1 0 0 -1 0 0 -1 0 0 -1 0 0 -1 0 0 -1 0 0 -1 0 0 -1 0 0 -1 0 0 -1 0 0 -1 0 0 -1 0 0 -1 0 0 -1 0 0 -1 -0.02497088 0.1950279 -0.9804798 -0.02497082 0.1950278 -0.9804798 -0.07095444 0.55417 -0.829374 -0.0709545 0.55417 -0.8293739 -0.1058611 0.8267975 -0.5524484 -0.1058604 0.8267973 -0.552449 -0.124598 0.9731426 -0.1935684 -0.1245968 0.9731425 -0.1935699 -0.3412528 0.9398901 -0.01237154 -0.3088369 0.9511051 -0.004348516 -0.2714484 0.962453 0 -0.3882081 0.921108 -0.02923154 -0.3238148 0.9460596 0.01073563 -0.4287548 0.9034181 -0.002261817 -0.4122212 0.9110838 -8.24385e-7 -0.460379 0.8877225 1.50212e-6 -0.479405 0.8775821 -0.004542231 -0.5551494 0.8317172 0.007461071 -0.7035056 0.7106897 0 -0.689104 0.7246009 0.009448111 -0.6328316 0.7742896 0 -0.5729612 0.8195825 0 0 0 -1 0 0 -1 0 0 -1 0 0 -1 0 0 -1 0 0 -1 0 0 -1 0 0 -1 0 0 -1 0 0 -1 0 0 -1 0 0 -1 0 0 -1 0 0 -1 0 0 -1 0 0 -1 0 0 -1 0 0 -1 0 0 -1 0 0 -1 0 0 -1 0 0 -1 0 0 -1 0 0 -1 0 0 -1 0 0 -1 0 0 -1 0 0 -1 0 0 -1 0 0 -1 0 0 -1 0 0 -1 0 0 -1 0 0 -1 0 0 -1 0 0 -1 0 0 -1 0 0 -1 0 0 -1 0 0 -1 0 0 -1 0 0 -1 0 0 -1 -0.2741771 -0.9616792 0 -0.3112838 -0.950304 -0.004957854 -0.3422108 -0.9395387 -0.0126034 -0.3238277 -0.9460974 -0.005941629 -0.3958578 -0.9183097 0.002013027 -0.4122211 -0.9110838 -1.06086e-4 -0.4295846 -0.9030267 2.19035e-7 -0.4794099 -0.8775911 1.67045e-6 -0.4598997 -0.8879389 -0.007533073 -0.5729303 -0.8195384 0.01037621 -0.5551648 -0.8317403 0 -0.6328316 -0.7742896 0 -0.689104 -0.7246009 0.009448111 -0.7035056 -0.7106897 0 -0.02497088 -0.1950278 -0.9804798 -0.02497082 -0.1950278 -0.9804797 -0.07095444 -0.55417 -0.829374 -0.0709545 -0.55417 -0.829374 -0.105861 -0.8267972 -0.5524491 -0.1058605 -0.8267976 -0.5524485 -0.124598 -0.9731423 -0.19357 -0.1245968 -0.9731428 -0.1935685 -0.4702252 -0.8607779 -0.1948071 -0.1152697 -0.1580497 -0.9806799 -0.1152696 -0.1580495 -0.9806801 -0.3280121 -0.4497467 -0.8307443 -0.328012 -0.4497464 -0.8307444 -0.4903749 -0.6723666 -0.5544866 -0.490375 -0.6723673 -0.5544859 -0.137619 -0.1390243 -0.9806799 -0.137619 -0.1390244 -0.98068 -0.3916092 -0.3956083 -0.8307445 -0.3916094 -0.3956086 -0.8307442 -0.5854524 -0.5914313 -0.5544856 -0.5854523 -0.5914307 -0.5544868 -0.6900619 -0.6971085 -0.1945618 -0.6900619 -0.6971088 -0.1945611 -0.5779956 -0.7925065 -0.1945626 -0.5525152 -0.790336 -0.2647565 -0.6206766 -0.7594176 -0.1950524 -0.4043035 -0.8935844 -0.1950532 -0.4474768 -0.8596108 -0.246645 -0.3842586 -0.7381675 -0.5544855 -0.3842586 -0.7381672 -0.5544859 -0.2570305 -0.4937599 -0.8307445 -0.2570306 -0.4937601 -0.8307444 -0.09032553 -0.1735169 -0.98068 -0.09032547 -0.1735166 -0.9806799 -0.06334787 -0.1850779 -0.9806799 -0.06334787 -0.1850778 -0.98068 -0.180263 -0.526658 -0.8307445 -0.180263 -0.5266587 -0.8307442 -0.2694916 -0.7873501 -0.5544854 -0.2694917 -0.7873489 -0.554487 -0.3176451 -0.9280341 -0.1945619 -0.3176451 -0.9280341 -0.1945617 -0.1950355 -0.02336519 -0.9805179 -0.1950354 -0.02336508 -0.9805179 -0.4416717 -0.05291193 -0.8956151 -0.5440964 -0.1133613 -0.8313294 -0.8208004 -0.1369963 -0.5545437 -0.7897936 -0.09461688 -0.6060311 -0.6071481 -0.07273608 -0.7912526 -0.9740844 -0.116695 -0.1937574 -0.9740843 -0.1166948 -0.1937575 -0.891741 -0.1068301 -0.439756 -0.1839972 -0.06877321 -0.9805179 -0.1839972 -0.06877297 -0.9805179 -0.5229706 -0.1954717 -0.8296341 -0.5229706 -0.1954718 -0.8296339 -0.7805495 -0.2917476 -0.5528344 -0.7805496 -0.2917479 -0.5528341 -0.9189556 -0.3434803 -0.1937575 -0.9189556 -0.3434799 -0.1937579 -0.1625456 -0.1102887 -0.9805179 -0.1625457 -0.110289 -0.9805179 -0.4619992 -0.3134714 -0.829634 -0.4619991 -0.3134707 -0.8296342 -0.6895483 -0.4678649 -0.5528341 -0.6895483 -0.4678655 -0.5528337 -0.8118177 -0.5508266 -0.193758 -0.8118177 -0.5508266 -0.1937579 -0.1950887 0 -0.9807857 -0.1950887 0 -0.9807857 -0.4422913 0 -0.8968715 -0.4422913 0 -0.8968715 -0.6087605 0 -0.793354 -0.6087605 0 -0.793354 -0.7933527 0 -0.6087622 -0.7933527 0 -0.6087622 -0.8968735 0 -0.442287 -0.8968735 0 -0.442287 -0.9807853 0 -0.1950904 -0.9807853 0 -0.1950904 -0.1950354 0.02336513 -0.9805179 -0.1950355 0.02336508 -0.9805179 -0.4416717 0.05291193 -0.8956151 -0.5440964 0.1133613 -0.8313293 -0.1625458 0.1102888 -0.9805179 -0.1625455 0.1102889 -0.9805179 -0.4619987 0.3134711 -0.8296343 -0.4619994 0.3134709 -0.829634 -0.6895486 0.4678651 -0.5528336 -0.689548 0.4678654 -0.5528341 -0.8118177 0.5508266 -0.1937579 -0.8118177 0.5508266 -0.193758 -0.1839971 0.06877315 -0.9805179 -0.1839973 0.06877303 -0.9805179 -0.5229707 0.1954717 -0.829634 -0.5229706 0.1954718 -0.829634 -0.7805497 0.2917476 -0.552834 -0.7805494 0.2917479 -0.5528343 -0.9189555 0.3434802 -0.1937579 -0.9189557 0.34348 -0.1937575 -0.6071481 0.07273608 -0.7912526 -0.7897936 0.09461688 -0.6060311 -0.8208004 0.1369963 -0.5545437 -0.891741 0.1068301 -0.439756 -0.9740844 0.1166948 -0.1937574 -0.9740844 0.116695 -0.1937575 -0.5619841 0.8038806 -0.1948071 -0.09032553 0.1735168 -0.9806799 -0.09032541 0.1735166 -0.9806801 -0.2570304 0.4937599 -0.8307446 -0.2570306 0.4937601 -0.8307445 -0.3842588 0.7381674 -0.5544854 -0.3842585 0.7381672 -0.5544859 -0.06334787 0.1850778 -0.9806801 -0.06334793 0.1850779 -0.98068 -0.1802632 0.5266587 -0.8307441 -0.1802628 0.5266582 -0.8307446 -0.2694913 0.7873491 -0.5544871 -0.269492 0.7873499 -0.5544854 -0.3176451 0.9280341 -0.1945616 -0.317645 0.9280341 -0.1945618 -0.4529181 0.8700636 -0.1945627 -0.4623021 0.8462741 -0.2647583 -0.4043035 0.8935844 -0.1950532 -0.6206766 0.7594176 -0.1950524 -0.5710519 0.7829858 -0.2466437 -0.4903746 0.6723669 -0.5544868 -0.4903753 0.6723672 -0.5544859 -0.3280122 0.4497466 -0.8307442 -0.3280119 0.4497464 -0.8307445 -0.1152697 0.1580497 -0.98068 -0.1152696 0.1580495 -0.9806801 -0.137619 0.1390244 -0.9806801 -0.137619 0.1390244 -0.98068 -0.3916094 0.3956085 -0.8307442 -0.3916091 0.3956084 -0.8307445 -0.585452 0.5914309 -0.5544867 -0.5854527 0.5914312 -0.5544857 -0.6900621 0.6971086 -0.1945611 -0.6900618 0.6971086 -0.1945618 -0.9840495 0.1778949 0 -0.8274993 0.5614668 0 -0.8594458 0.5111451 0.009144186 -0.936697 0.3501111 -0.004580378 -0.9928075 0.118938 0.01367479 -0.2588189 -0.9659259 0 -0.2588189 -0.9659259 0 -0.7071068 -0.7071067 0 -0.7071068 -0.7071067 0 -0.9659258 -0.2588192 0 -0.9659258 -0.2588192 0 -0.9659258 0.2588191 0 -0.9659258 0.2588191 0 -0.7071068 0.7071068 0 -0.7071068 0.7071068 0 -0.2588191 0.9659258 0 -0.2588191 0.9659258 0 0.2588192 0.9659258 0 0.2588192 0.9659258 0 0.7071067 0.7071068 0 0.7071067 0.7071068 0 0.9659258 0.2588191 0 0.9659258 0.2588191 0 0.9659258 -0.2588192 0 0.9659258 -0.2588192 0 0.7071068 -0.7071068 0 0.7071068 -0.7071068 0 0.2588189 -0.9659259 0 0.2588189 -0.9659259 0 -1 0 0 -1 0 0 -0.8274993 -0.5614668 0 -0.8594458 -0.5111451 0.009144186 -0.936697 -0.3501111 -0.004580378 -0.9840083 -0.1778874 0.009144067 -0.9929004 -0.1189491 0 0 0 -1 0 0 -1 0 0 -1 0 0 -1 0 0 -1 0 0 -1 0 0 -1 0 0 -1 0 0 -1 0 0 -1 0 0 -1 0 0 -1 1 0 0 1 0 0 1 0 0 1 0 0 1 0 0 1 0 0 1 0 0 1 0 0 1 0 0 1 0 0 1 0 0 1 0 0 1 0 0 1 0 0 1 0 0 1 0 0 1 0 0 1 0 0 1 0 0 1 0 0 1 0 0 1 0 0</float_array>
          <technique_common>
            <accessor source="#link_3-mesh-normals-array" count="1290" stride="3">
              <param name="X" type="float"/>
              <param name="Y" type="float"/>
              <param name="Z" type="float"/>
            </accessor>
          </technique_common>
        </source>
        <vertices id="link_3-mesh-vertices">
          <input semantic="POSITION" source="#link_3-mesh-positions"/>
        </vertices>
        <triangles material="base-material" count="1290">
          <input semantic="VERTEX" source="#link_3-mesh-vertices" offset="0"/>
          <input semantic="NORMAL" source="#link_3-mesh-normals" offset="1"/>
          <p>0 0 1 0 2 0 3 1 4 1 5 1 5 2 4 2 6 2 5 3 6 3 7 3 7 4 6 4 8 4 7 5 8 5 9 5 10 6 11 6 12 6 12 7 11 7 13 7 13 8 11 8 14 8 13 9 14 9 15 9 1 10 0 10 16 10 14 11 17 11 18 11 0 12 15 12 16 12 16 13 15 13 14 13 16 14 14 14 19 14 19 15 14 15 18 15 17 16 14 16 20 16 20 17 14 17 11 17 20 18 11 18 21 18 21 19 11 19 10 19 21 20 10 20 22 20 12 21 3 21 10 21 10 22 3 22 5 22 10 23 5 23 22 23 22 24 5 24 7 24 22 25 7 25 23 25 24 26 25 26 26 26 27 27 28 27 29 27 29 28 28 28 30 28 29 29 30 29 31 29 31 30 30 30 32 30 31 31 32 31 33 31 34 32 35 32 36 32 36 33 35 33 37 33 37 34 35 34 38 34 37 35 38 35 39 35 25 36 24 36 40 36 38 37 41 37 42 37 24 38 39 38 40 38 40 39 39 39 38 39 40 40 38 40 43 40 43 41 38 41 42 41 41 42 38 42 44 42 44 43 38 43 35 43 44 44 35 44 45 44 45 45 35 45 34 45 45 46 34 46 46 46 36 47 27 47 34 47 34 48 27 48 29 48 34 49 29 49 46 49 46 50 29 50 31 50 46 51 31 51 47 51 48 52 49 52 50 52 50 53 49 53 51 53 50 54 51 54 52 54 53 55 54 55 51 55 51 56 54 56 55 56 51 57 55 57 52 57 50 58 56 58 48 58 48 59 56 59 57 59 48 60 57 60 58 60 58 61 57 61 59 61 60 62 61 62 62 62 63 63 64 63 65 63 66 64 67 64 68 64 69 65 70 65 71 65 72 66 73 66 74 66 74 67 73 67 75 67 74 68 75 68 76 68 76 69 75 69 77 69 76 70 77 70 78 70 78 71 77 71 71 71 79 72 80 72 81 72 81 73 80 73 82 73 81 74 82 74 83 74 83 75 82 75 84 75 83 76 84 76 85 76 85 77 84 77 86 77 80 78 87 78 82 78 82 79 87 79 88 79 82 80 88 80 84 80 84 81 88 81 89 81 84 82 89 82 86 82 86 83 89 83 90 83 87 84 91 84 88 84 88 85 91 85 92 85 88 86 92 86 89 86 89 87 92 87 93 87 89 88 93 88 90 88 90 89 93 89 94 89 95 90 96 90 97 90 97 91 96 91 98 91 97 92 98 92 99 92 99 93 98 93 100 93 99 94 100 94 101 94 101 95 100 95 65 95 102 96 103 96 104 96 104 97 103 97 105 97 104 98 105 98 106 98 106 99 105 99 107 99 106 100 107 100 108 100 108 101 107 101 109 101 103 102 110 102 105 102 105 103 110 103 111 103 105 104 111 104 107 104 107 105 111 105 112 105 107 106 112 106 109 106 109 107 112 107 113 107 110 108 114 108 111 108 111 109 114 109 115 109 111 110 115 110 112 110 112 111 115 111 116 111 112 112 116 112 113 112 113 113 116 113 117 113 118 114 72 114 119 114 119 115 72 115 74 115 119 116 74 116 120 116 120 117 74 117 76 117 120 118 76 118 121 118 121 119 76 119 78 119 121 120 78 120 122 120 122 121 78 121 123 121 71 122 70 122 78 122 78 123 70 123 124 123 78 124 124 124 123 124 125 125 69 125 126 125 126 126 69 126 71 126 126 127 71 127 127 127 127 128 71 128 77 128 127 129 77 129 128 129 128 130 77 130 75 130 128 131 75 131 129 131 129 132 75 132 73 132 129 133 79 133 128 133 128 134 79 134 81 134 128 135 81 135 127 135 127 136 81 136 83 136 127 137 83 137 126 137 126 138 83 138 85 138 126 139 85 139 125 139 125 140 85 140 130 140 131 141 132 141 94 141 94 142 132 142 133 142 94 143 133 143 90 143 90 144 133 144 134 144 90 145 134 145 86 145 86 146 134 146 135 146 86 147 135 147 85 147 85 148 135 148 136 148 85 149 136 149 130 149 67 150 131 150 68 150 68 151 131 151 94 151 68 152 94 152 137 152 137 153 94 153 93 153 137 154 93 154 138 154 138 155 93 155 92 155 138 156 92 156 139 156 139 157 92 157 91 157 140 158 66 158 141 158 141 159 66 159 68 159 141 160 68 160 142 160 142 161 68 161 137 161 142 162 137 162 143 162 143 163 137 163 138 163 143 164 138 164 144 164 144 165 138 165 139 165 144 166 145 166 143 166 143 167 145 167 146 167 143 168 146 168 142 168 142 169 146 169 147 169 142 170 147 170 141 170 141 171 147 171 148 171 141 172 148 172 140 172 140 173 148 173 149 173 145 174 95 174 146 174 146 175 95 175 97 175 146 176 97 176 147 176 147 177 97 177 99 177 147 178 99 178 148 178 148 179 99 179 101 179 148 180 101 180 149 180 149 181 101 181 150 181 65 182 64 182 101 182 101 183 64 183 151 183 101 184 151 184 150 184 152 185 63 185 153 185 153 186 63 186 65 186 153 187 65 187 154 187 154 188 65 188 100 188 154 189 100 189 155 189 155 190 100 190 98 190 155 191 98 191 156 191 156 192 98 192 96 192 156 193 102 193 155 193 155 194 102 194 104 194 155 195 104 195 154 195 154 196 104 196 106 196 154 197 106 197 153 197 153 198 106 198 108 198 153 199 108 199 152 199 152 200 108 200 157 200 158 201 159 201 117 201 117 202 159 202 160 202 117 203 160 203 113 203 113 204 160 204 161 204 113 205 161 205 109 205 109 206 161 206 162 206 109 207 162 207 108 207 108 208 162 208 163 208 108 209 163 209 157 209 61 210 158 210 62 210 62 211 158 211 117 211 62 212 117 212 164 212 164 213 117 213 116 213 164 214 116 214 165 214 165 215 116 215 115 215 165 216 115 216 166 216 166 217 115 217 114 217 167 218 60 218 168 218 168 219 60 219 62 219 168 220 62 220 169 220 169 221 62 221 164 221 169 222 164 222 170 222 170 223 164 223 165 223 170 224 165 224 171 224 171 225 165 225 166 225 171 226 53 226 170 226 170 227 53 227 51 227 170 228 51 228 169 228 169 229 51 229 172 229 169 230 172 230 168 230 168 231 172 231 48 231 168 232 48 232 167 232 167 233 48 233 58 233 173 234 174 234 175 234 173 235 175 235 120 235 174 236 173 236 176 236 176 237 173 237 122 237 176 238 122 238 177 238 178 239 118 239 179 239 179 240 118 240 180 240 179 241 180 241 181 241 181 242 180 242 120 242 181 243 120 243 182 243 182 244 120 244 175 244 44 245 183 245 41 245 41 246 183 246 42 246 184 247 185 247 45 247 185 248 186 248 45 248 45 249 186 249 187 249 45 250 187 250 44 250 44 251 187 251 188 251 44 252 188 252 183 252 189 253 190 253 45 253 45 254 190 254 191 254 45 255 191 255 184 255 189 256 45 256 192 256 192 257 45 257 46 257 192 258 46 258 47 258 20 259 193 259 17 259 17 260 193 260 18 260 194 261 195 261 21 261 195 262 196 262 21 262 21 263 196 263 197 263 21 264 197 264 20 264 20 265 197 265 198 265 20 266 198 266 193 266 199 267 200 267 21 267 21 268 200 268 201 268 21 269 201 269 194 269 199 270 21 270 202 270 202 271 21 271 22 271 202 272 22 272 23 272 2 273 203 273 0 273 0 274 203 274 204 274 0 275 204 275 15 275 15 276 204 276 13 276 13 277 204 277 205 277 13 278 205 278 12 278 12 279 205 279 206 279 12 280 206 280 3 280 3 281 206 281 4 281 4 282 206 282 207 282 4 283 207 283 6 283 6 284 207 284 8 284 8 285 207 285 208 285 8 286 208 286 9 286 26 287 209 287 24 287 24 288 209 288 210 288 24 289 210 289 39 289 39 290 210 290 37 290 37 291 210 291 211 291 37 292 211 292 36 292 36 293 211 293 212 293 36 294 212 294 27 294 27 295 212 295 28 295 28 296 212 296 213 296 28 297 213 297 30 297 30 298 213 298 32 298 32 299 213 299 214 299 32 300 214 300 33 300 215 301 216 301 217 301 217 302 216 302 218 302 217 303 218 303 219 303 219 304 218 304 220 304 219 305 220 305 221 305 221 306 220 306 222 306 221 307 222 307 223 307 223 308 222 308 224 308 224 309 174 309 223 309 223 310 174 310 176 310 223 311 176 311 177 311 225 312 226 312 227 312 227 313 226 313 228 313 227 314 228 314 229 314 229 315 228 315 230 315 229 316 230 316 231 316 231 317 230 317 232 317 231 318 232 318 233 318 233 319 232 319 234 319 56 320 233 320 57 320 57 321 233 321 234 321 57 322 234 322 59 322 235 323 236 323 237 323 237 324 236 324 238 324 237 325 238 325 239 325 239 326 238 326 240 326 239 327 240 327 241 327 241 328 240 328 242 328 241 329 242 329 243 329 243 330 242 330 244 330 236 331 245 331 238 331 238 332 245 332 246 332 238 333 246 333 240 333 240 334 246 334 247 334 240 335 247 335 242 335 242 336 247 336 248 336 242 337 248 337 244 337 244 338 248 338 249 338 245 339 225 339 246 339 246 340 225 340 227 340 246 341 227 341 247 341 247 342 227 342 229 342 247 343 229 343 248 343 248 344 229 344 231 344 248 345 231 345 249 345 249 346 231 346 233 346 250 347 251 347 252 347 252 348 251 348 253 348 252 349 253 349 254 349 254 350 253 350 255 350 254 351 255 351 256 351 256 352 255 352 257 352 256 353 257 353 258 353 259 354 235 354 260 354 260 355 235 355 237 355 260 356 237 356 261 356 261 357 237 357 239 357 261 358 239 358 262 358 262 359 239 359 241 359 263 360 264 360 257 360 257 361 264 361 265 361 257 362 265 362 258 362 251 363 259 363 253 363 253 364 259 364 260 364 253 365 260 365 255 365 255 366 260 366 261 366 255 367 261 367 257 367 257 368 261 368 262 368 257 369 262 369 263 369 263 370 262 370 241 370 263 371 241 371 243 371 258 372 266 372 267 372 258 373 267 373 256 373 256 374 267 374 268 374 256 375 268 375 254 375 254 376 268 376 269 376 254 377 269 377 252 377 252 378 269 378 270 378 252 379 270 379 250 379 271 380 272 380 273 380 273 381 272 381 274 381 273 382 274 382 275 382 275 383 274 383 276 383 275 384 276 384 277 384 277 385 276 385 278 385 277 386 278 386 279 386 280 387 270 387 281 387 281 388 270 388 269 388 281 389 269 389 282 389 282 390 269 390 268 390 282 391 268 391 283 391 283 392 268 392 267 392 284 393 285 393 278 393 278 394 285 394 286 394 278 395 286 395 279 395 272 396 280 396 274 396 274 397 280 397 281 397 274 398 281 398 276 398 276 399 281 399 282 399 276 400 282 400 278 400 278 401 282 401 283 401 278 402 283 402 284 402 284 403 283 403 267 403 284 404 267 404 266 404 216 405 287 405 218 405 218 406 287 406 288 406 218 407 288 407 220 407 220 408 288 408 289 408 220 409 289 409 222 409 222 410 289 410 290 410 222 411 290 411 224 411 224 412 290 412 291 412 287 413 292 413 288 413 288 414 292 414 293 414 288 415 293 415 289 415 289 416 293 416 294 416 289 417 294 417 290 417 290 418 294 418 295 418 290 419 295 419 291 419 291 420 295 420 296 420 292 421 271 421 293 421 293 422 271 422 273 422 293 423 273 423 294 423 294 424 273 424 275 424 294 425 275 425 295 425 295 426 275 426 277 426 295 427 277 427 296 427 296 428 277 428 279 428 279 429 286 429 297 429 297 430 286 430 298 430 266 431 299 431 284 431 284 432 299 432 298 432 284 433 298 433 285 433 285 434 298 434 286 434 258 435 265 435 300 435 300 436 265 436 301 436 243 437 302 437 263 437 263 438 302 438 301 438 263 439 301 439 264 439 264 440 301 440 265 440 258 441 300 441 266 441 266 442 300 442 299 442 302 443 243 443 54 443 54 444 243 444 244 444 54 445 244 445 55 445 55 446 244 446 249 446 55 447 249 447 52 447 52 448 249 448 233 448 52 449 233 449 50 449 50 450 233 450 56 450 175 451 174 451 224 451 296 452 279 452 297 452 297 453 178 453 296 453 296 454 178 454 179 454 296 455 179 455 291 455 291 456 179 456 181 456 291 457 181 457 224 457 224 458 181 458 182 458 224 459 182 459 175 459 184 460 191 460 232 460 232 461 191 461 234 461 234 462 191 462 190 462 234 463 190 463 189 463 184 464 232 464 185 464 185 465 232 465 230 465 185 466 230 466 186 466 186 467 230 467 228 467 186 468 228 468 187 468 187 469 228 469 226 469 187 470 226 470 188 470 194 471 201 471 217 471 217 472 201 472 215 472 215 473 201 473 200 473 215 474 200 474 199 474 194 475 217 475 195 475 195 476 217 476 219 476 195 477 219 477 196 477 196 478 219 478 221 478 196 479 221 479 197 479 197 480 221 480 223 480 197 481 223 481 198 481 31 482 33 482 303 482 304 483 305 483 303 483 47 484 31 484 59 484 59 485 31 485 303 485 59 486 303 486 58 486 58 487 303 487 306 487 47 488 59 488 192 488 192 489 59 489 234 489 192 490 234 490 189 490 214 491 307 491 33 491 33 492 307 492 308 492 33 493 308 493 303 493 303 494 308 494 309 494 303 495 309 495 304 495 310 496 311 496 312 496 312 497 311 497 303 497 312 498 303 498 313 498 313 499 303 499 305 499 259 500 251 500 250 500 208 501 209 501 9 501 9 502 209 502 26 502 40 503 43 503 226 503 215 504 199 504 202 504 245 505 236 505 7 505 7 506 236 506 235 506 40 507 226 507 25 507 43 508 42 508 226 508 226 509 42 509 183 509 226 510 183 510 188 510 245 511 7 511 225 511 225 512 7 512 9 512 225 513 9 513 226 513 226 514 9 514 26 514 226 515 26 515 25 515 272 516 271 516 202 516 216 517 215 517 287 517 287 518 215 518 202 518 287 519 202 519 292 519 292 520 202 520 271 520 235 521 259 521 7 521 7 522 259 522 250 522 7 523 250 523 23 523 23 524 250 524 270 524 23 525 270 525 202 525 202 526 270 526 280 526 202 527 280 527 272 527 314 528 315 528 177 528 16 529 19 529 177 529 316 530 314 530 317 530 317 531 314 531 177 531 317 532 177 532 318 532 318 533 177 533 122 533 316 534 317 534 319 534 319 535 317 535 320 535 319 536 320 536 321 536 322 537 203 537 315 537 315 538 203 538 2 538 315 539 2 539 177 539 177 540 2 540 1 540 177 541 1 541 16 541 198 542 223 542 193 542 193 543 223 543 177 543 193 544 177 544 18 544 18 545 177 545 19 545 318 546 122 546 323 546 323 547 122 547 123 547 323 548 123 548 324 548 324 549 123 549 124 549 324 550 124 550 325 550 325 551 124 551 70 551 325 552 70 552 326 552 326 553 70 553 69 553 326 554 69 554 327 554 327 555 69 555 125 555 327 556 125 556 328 556 328 557 125 557 130 557 328 558 130 558 329 558 329 559 130 559 136 559 329 560 136 560 330 560 330 561 136 561 135 561 330 562 135 562 331 562 331 563 135 563 134 563 331 564 134 564 332 564 332 565 134 565 133 565 332 566 133 566 333 566 333 567 133 567 132 567 333 568 132 568 334 568 334 569 132 569 131 569 334 570 131 570 335 570 335 571 131 571 67 571 335 572 67 572 336 572 336 573 67 573 66 573 336 574 66 574 337 574 337 575 66 575 140 575 337 576 140 576 338 576 338 577 140 577 339 577 338 578 339 578 340 578 340 579 339 579 150 579 340 580 150 580 341 580 341 581 150 581 151 581 341 582 151 582 342 582 342 583 151 583 64 583 342 584 64 584 343 584 343 585 64 585 63 585 343 586 63 586 344 586 344 587 63 587 152 587 344 588 152 588 345 588 345 589 152 589 157 589 345 590 157 590 346 590 346 591 157 591 163 591 346 592 163 592 347 592 347 593 163 593 162 593 347 594 162 594 348 594 348 595 162 595 161 595 348 596 161 596 349 596 349 597 161 597 160 597 349 598 160 598 350 598 350 599 160 599 159 599 350 600 159 600 351 600 351 601 159 601 158 601 351 602 158 602 352 602 352 603 158 603 61 603 352 604 61 604 353 604 353 605 61 605 60 605 353 606 60 606 354 606 354 607 60 607 167 607 354 608 167 608 306 608 306 609 167 609 58 609 302 610 54 610 53 610 118 611 178 611 297 611 103 612 102 612 299 612 73 613 72 613 299 613 299 614 72 614 118 614 299 615 118 615 298 615 298 616 118 616 297 616 171 617 300 617 53 617 53 618 300 618 301 618 53 619 301 619 302 619 171 620 166 620 300 620 300 621 166 621 114 621 300 622 114 622 299 622 299 623 114 623 110 623 299 624 110 624 103 624 102 625 156 625 299 625 299 626 156 626 96 626 299 627 96 627 95 627 80 628 79 628 299 628 299 629 79 629 129 629 299 630 129 630 73 630 95 631 355 631 299 631 299 632 355 632 144 632 299 633 144 633 139 633 139 634 91 634 299 634 299 635 91 635 87 635 299 636 87 636 80 636 308 637 307 637 356 637 356 638 307 638 357 638 356 639 357 639 358 639 358 640 357 640 359 640 359 641 357 641 360 641 359 642 360 642 361 642 361 643 360 643 362 643 361 644 362 644 363 644 363 645 362 645 364 645 364 646 362 646 365 646 364 647 365 647 366 647 366 648 365 648 367 648 367 649 365 649 368 649 367 650 368 650 369 650 356 651 309 651 308 651 363 652 364 652 370 652 370 653 364 653 366 653 370 654 366 654 371 654 371 655 366 655 367 655 371 656 367 656 369 656 372 657 373 657 361 657 361 658 373 658 359 658 359 659 373 659 374 659 359 660 374 660 358 660 309 661 356 661 304 661 374 662 375 662 313 662 356 663 358 663 304 663 304 664 358 664 374 664 304 665 374 665 305 665 305 666 374 666 313 666 375 667 374 667 376 667 376 668 374 668 373 668 376 669 373 669 377 669 377 670 373 670 372 670 377 671 372 671 378 671 361 672 363 672 372 672 372 673 363 673 370 673 372 674 370 674 378 674 378 675 370 675 371 675 378 676 371 676 379 676 376 677 312 677 375 677 375 678 312 678 313 678 380 679 381 679 377 679 381 680 382 680 377 680 377 681 382 681 383 681 377 682 383 682 376 682 376 683 383 683 310 683 376 684 310 684 312 684 384 685 385 685 377 685 377 686 385 686 386 686 377 687 386 687 380 687 384 688 377 688 387 688 387 689 377 689 378 689 387 690 378 690 379 690 380 691 386 691 388 691 388 692 386 692 389 692 389 693 386 693 385 693 389 694 385 694 384 694 380 695 388 695 381 695 381 696 388 696 390 696 381 697 390 697 382 697 382 698 390 698 391 698 382 699 391 699 383 699 383 700 391 700 311 700 383 701 311 701 310 701 392 702 393 702 311 702 311 703 393 703 394 703 311 704 394 704 303 704 395 705 396 705 397 705 397 706 396 706 393 706 393 707 396 707 398 707 393 708 398 708 394 708 394 709 398 709 306 709 394 710 306 710 303 710 397 711 399 711 395 711 395 712 399 712 400 712 395 713 400 713 401 713 401 714 400 714 402 714 401 715 402 715 403 715 403 716 402 716 404 716 403 717 404 717 405 717 406 718 407 718 408 718 407 719 409 719 410 719 409 720 411 720 412 720 398 721 396 721 413 721 411 722 318 722 323 722 411 723 323 723 412 723 412 724 323 724 324 724 412 725 324 725 414 725 324 726 325 726 414 726 414 727 325 727 326 727 414 728 326 728 415 728 326 729 327 729 415 729 415 730 327 730 328 730 415 731 328 731 416 731 416 732 328 732 329 732 416 733 329 733 417 733 417 734 329 734 330 734 417 735 330 735 418 735 418 736 330 736 331 736 331 737 332 737 418 737 418 738 332 738 333 738 418 739 333 739 419 739 419 740 333 740 334 740 419 741 334 741 420 741 420 742 334 742 335 742 420 743 335 743 421 743 421 744 335 744 336 744 336 745 337 745 421 745 421 746 337 746 422 746 421 747 422 747 423 747 423 748 422 748 340 748 423 749 340 749 424 749 424 750 340 750 341 750 424 751 341 751 425 751 341 752 342 752 425 752 425 753 342 753 343 753 425 754 343 754 426 754 343 755 344 755 426 755 426 756 344 756 345 756 426 757 345 757 427 757 427 758 345 758 346 758 427 759 346 759 428 759 428 760 346 760 347 760 428 761 347 761 429 761 429 762 347 762 348 762 348 763 349 763 429 763 429 764 349 764 350 764 429 765 350 765 430 765 430 766 350 766 351 766 430 767 351 767 431 767 431 768 351 768 352 768 431 769 352 769 413 769 306 770 398 770 354 770 354 771 398 771 413 771 354 772 413 772 353 772 353 773 413 773 352 773 409 774 412 774 410 774 410 775 412 775 414 775 410 776 414 776 432 776 432 777 414 777 415 777 432 778 415 778 433 778 433 779 415 779 416 779 433 780 416 780 434 780 434 781 416 781 417 781 434 782 417 782 435 782 435 783 417 783 418 783 435 784 418 784 436 784 436 785 418 785 419 785 436 786 419 786 437 786 437 787 419 787 420 787 437 788 420 788 438 788 438 789 420 789 421 789 438 790 421 790 439 790 439 791 421 791 423 791 439 792 423 792 440 792 440 793 423 793 424 793 440 794 424 794 441 794 441 795 424 795 425 795 441 796 425 796 442 796 442 797 425 797 426 797 442 798 426 798 443 798 443 799 426 799 427 799 443 800 427 800 444 800 444 801 427 801 428 801 444 802 428 802 445 802 445 803 428 803 429 803 445 804 429 804 446 804 446 805 429 805 430 805 446 806 430 806 447 806 447 807 430 807 431 807 447 808 431 808 448 808 448 809 431 809 413 809 448 810 413 810 449 810 449 811 413 811 396 811 449 812 396 812 450 812 407 813 410 813 408 813 408 814 410 814 432 814 408 815 432 815 451 815 451 816 432 816 433 816 451 817 433 817 452 817 452 818 433 818 434 818 452 819 434 819 453 819 453 820 434 820 435 820 453 821 435 821 454 821 454 822 435 822 436 822 454 823 436 823 455 823 455 824 436 824 437 824 455 825 437 825 456 825 456 826 437 826 438 826 456 827 438 827 457 827 457 828 438 828 439 828 457 829 439 829 458 829 458 830 439 830 440 830 458 831 440 831 459 831 459 832 440 832 441 832 459 833 441 833 460 833 460 834 441 834 442 834 460 835 442 835 461 835 461 836 442 836 443 836 461 837 443 837 462 837 462 838 443 838 444 838 462 839 444 839 463 839 463 840 444 840 445 840 463 841 445 841 464 841 464 842 445 842 446 842 464 843 446 843 465 843 465 844 446 844 447 844 465 845 447 845 466 845 466 846 447 846 448 846 466 847 448 847 467 847 467 848 448 848 449 848 467 849 449 849 468 849 468 850 449 850 450 850 468 851 450 851 401 851 406 852 408 852 469 852 469 853 408 853 451 853 469 854 451 854 470 854 470 855 451 855 452 855 470 856 452 856 471 856 471 857 452 857 453 857 471 858 453 858 472 858 472 859 453 859 454 859 472 860 454 860 473 860 473 861 454 861 455 861 473 862 455 862 474 862 474 863 455 863 456 863 474 864 456 864 475 864 475 865 456 865 457 865 475 866 457 866 476 866 476 867 457 867 458 867 476 868 458 868 477 868 477 869 458 869 459 869 477 870 459 870 478 870 478 871 459 871 460 871 478 872 460 872 479 872 479 873 460 873 461 873 479 874 461 874 480 874 480 875 461 875 462 875 480 876 462 876 481 876 481 877 462 877 463 877 481 878 463 878 482 878 482 879 463 879 464 879 482 880 464 880 483 880 483 881 464 881 465 881 483 882 465 882 484 882 484 883 465 883 466 883 484 884 466 884 485 884 485 885 466 885 467 885 485 886 467 886 486 886 486 887 467 887 468 887 486 888 468 888 487 888 487 889 468 889 401 889 487 890 401 890 403 890 411 891 488 891 489 891 407 892 406 892 490 892 490 893 491 893 407 893 407 894 491 894 492 894 407 895 492 895 488 895 488 896 492 896 493 896 488 897 493 897 489 897 489 898 494 898 411 898 411 899 494 899 495 899 411 900 495 900 318 900 318 901 495 901 496 901 318 902 496 902 317 902 495 903 497 903 496 903 496 904 497 904 320 904 496 905 320 905 317 905 498 906 499 906 500 906 500 907 499 907 320 907 320 908 499 908 501 908 320 909 501 909 321 909 498 910 500 910 502 910 502 911 500 911 503 911 502 912 503 912 504 912 504 913 503 913 505 913 504 914 505 914 506 914 506 915 505 915 507 915 506 916 507 916 508 916 509 917 510 917 511 917 511 918 510 918 512 918 498 919 502 919 513 919 502 920 504 920 513 920 513 921 504 921 506 921 513 922 506 922 509 922 509 923 506 923 508 923 509 924 508 924 510 924 321 925 501 925 513 925 513 926 501 926 499 926 513 927 499 927 498 927 321 928 513 928 319 928 319 929 513 929 514 929 319 930 514 930 316 930 515 931 516 931 517 931 518 932 519 932 520 932 520 933 519 933 521 933 520 934 521 934 314 934 314 935 521 935 522 935 314 936 522 936 315 936 523 937 524 937 525 937 525 938 524 938 526 938 526 939 524 939 527 939 526 940 527 940 528 940 516 941 515 941 529 941 527 942 511 942 512 942 515 943 528 943 529 943 529 944 528 944 527 944 529 945 527 945 530 945 530 946 527 946 512 946 511 947 527 947 509 947 509 948 527 948 524 948 509 949 524 949 513 949 513 950 524 950 523 950 513 951 523 951 514 951 525 952 518 952 523 952 523 953 518 953 520 953 523 954 520 954 514 954 514 955 520 955 314 955 514 956 314 956 316 956 517 957 531 957 515 957 515 958 531 958 532 958 515 959 532 959 528 959 528 960 532 960 526 960 526 961 532 961 533 961 526 962 533 962 525 962 525 963 533 963 534 963 525 964 534 964 518 964 518 965 534 965 519 965 519 966 534 966 535 966 519 967 535 967 521 967 521 968 535 968 522 968 522 969 535 969 322 969 522 970 322 970 315 970 529 971 530 971 507 971 536 972 389 972 537 972 538 973 539 973 371 973 371 974 539 974 540 974 371 975 540 975 541 975 530 976 512 976 507 976 507 977 512 977 510 977 507 978 510 978 508 978 371 979 542 979 379 979 379 980 542 980 537 980 379 981 537 981 387 981 387 982 537 982 389 982 387 983 389 983 384 983 369 984 507 984 371 984 371 985 507 985 543 985 371 986 543 986 538 986 368 987 531 987 369 987 369 988 531 988 517 988 369 989 517 989 507 989 507 990 517 990 516 990 507 991 516 991 529 991 541 992 544 992 371 992 371 993 544 993 545 993 371 994 545 994 542 994 546 995 547 995 537 995 537 996 547 996 548 996 537 997 548 997 536 997 546 998 537 998 549 998 549 999 537 999 550 999 549 1000 550 1000 551 1000 389 1001 536 1001 388 1001 388 1002 536 1002 552 1002 388 1003 552 1003 390 1003 390 1004 552 1004 553 1004 390 1005 553 1005 391 1005 391 1006 553 1006 554 1006 391 1007 554 1007 311 1007 311 1008 554 1008 392 1008 400 1009 399 1009 392 1009 392 1010 399 1010 397 1010 392 1011 397 1011 393 1011 400 1012 392 1012 402 1012 402 1013 392 1013 555 1013 402 1014 555 1014 404 1014 404 1015 555 1015 556 1015 404 1016 556 1016 405 1016 405 1017 556 1017 557 1017 405 1018 557 1018 558 1018 559 1019 560 1019 561 1019 561 1020 560 1020 558 1020 561 1021 558 1021 562 1021 562 1022 558 1022 557 1022 480 1023 481 1023 563 1023 563 1024 481 1024 482 1024 485 1025 564 1025 484 1025 484 1026 564 1026 563 1026 484 1027 563 1027 483 1027 483 1028 563 1028 482 1028 480 1029 563 1029 479 1029 479 1030 563 1030 565 1030 479 1031 565 1031 478 1031 478 1032 565 1032 477 1032 477 1033 565 1033 566 1033 477 1034 566 1034 476 1034 490 1035 406 1035 567 1035 567 1036 406 1036 568 1036 560 1037 403 1037 558 1037 558 1038 403 1038 405 1038 485 1039 486 1039 564 1039 564 1040 486 1040 487 1040 564 1041 487 1041 569 1041 570 1042 471 1042 472 1042 472 1043 473 1043 570 1043 570 1044 473 1044 474 1044 570 1045 474 1045 566 1045 566 1046 474 1046 475 1046 566 1047 475 1047 476 1047 571 1048 572 1048 573 1048 487 1049 403 1049 569 1049 569 1050 403 1050 560 1050 569 1051 560 1051 574 1051 574 1052 560 1052 575 1052 574 1053 575 1053 576 1053 576 1054 575 1054 577 1054 576 1055 577 1055 578 1055 578 1056 577 1056 571 1056 578 1057 571 1057 579 1057 579 1058 571 1058 573 1058 572 1059 568 1059 573 1059 573 1060 568 1060 406 1060 573 1061 406 1061 580 1061 580 1062 406 1062 469 1062 580 1063 469 1063 570 1063 570 1064 469 1064 470 1064 570 1065 470 1065 471 1065 497 1066 495 1066 494 1066 494 1067 489 1067 497 1067 497 1068 489 1068 493 1068 497 1069 493 1069 581 1069 581 1070 493 1070 492 1070 581 1071 492 1071 582 1071 582 1072 492 1072 491 1072 582 1073 491 1073 583 1073 583 1074 491 1074 490 1074 583 1075 490 1075 584 1075 584 1076 490 1076 567 1076 584 1077 567 1077 585 1077 585 1078 567 1078 568 1078 585 1079 568 1079 586 1079 543 1080 507 1080 587 1080 587 1081 507 1081 505 1081 587 1082 505 1082 588 1082 588 1083 505 1083 503 1083 588 1084 503 1084 589 1084 589 1085 503 1085 500 1085 589 1086 500 1086 497 1086 497 1087 500 1087 320 1087 582 1088 583 1088 590 1088 540 1089 539 1089 591 1089 591 1090 539 1090 592 1090 591 1091 592 1091 593 1091 593 1092 592 1092 594 1092 593 1093 594 1093 595 1093 595 1094 594 1094 590 1094 541 1095 540 1095 596 1095 596 1096 540 1096 591 1096 596 1097 591 1097 597 1097 597 1098 591 1098 593 1098 597 1099 593 1099 598 1099 598 1100 593 1100 595 1100 598 1101 595 1101 586 1101 586 1102 595 1102 585 1102 590 1103 583 1103 595 1103 595 1104 583 1104 584 1104 595 1105 584 1105 585 1105 581 1106 582 1106 599 1106 599 1107 582 1107 590 1107 599 1108 590 1108 600 1108 600 1109 590 1109 594 1109 600 1110 594 1110 601 1110 601 1111 594 1111 592 1111 601 1112 592 1112 538 1112 538 1113 592 1113 539 1113 538 1114 543 1114 601 1114 601 1115 543 1115 587 1115 601 1116 587 1116 600 1116 600 1117 587 1117 588 1117 600 1118 588 1118 599 1118 599 1119 588 1119 589 1119 599 1120 589 1120 581 1120 581 1121 589 1121 497 1121 542 1122 545 1122 602 1122 602 1123 545 1123 603 1123 602 1124 603 1124 604 1124 604 1125 603 1125 605 1125 606 1126 607 1126 605 1126 605 1127 607 1127 608 1127 605 1128 608 1128 604 1128 609 1129 610 1129 606 1129 606 1130 610 1130 611 1130 606 1131 611 1131 607 1131 545 1132 544 1132 603 1132 603 1133 544 1133 612 1133 603 1134 612 1134 605 1134 605 1135 612 1135 613 1135 605 1136 613 1136 606 1136 606 1137 613 1137 614 1137 606 1138 614 1138 609 1138 609 1139 614 1139 615 1139 544 1140 541 1140 612 1140 612 1141 541 1141 596 1141 612 1142 596 1142 613 1142 613 1143 596 1143 597 1143 613 1144 597 1144 614 1144 614 1145 597 1145 598 1145 614 1146 598 1146 615 1146 615 1147 598 1147 586 1147 537 1148 542 1148 616 1148 616 1149 542 1149 602 1149 616 1150 602 1150 617 1150 617 1151 602 1151 604 1151 617 1152 604 1152 618 1152 618 1153 604 1153 608 1153 618 1154 608 1154 619 1154 619 1155 608 1155 607 1155 619 1156 607 1156 620 1156 620 1157 607 1157 611 1157 620 1158 611 1158 621 1158 621 1159 611 1159 610 1159 622 1160 550 1160 537 1160 537 1161 616 1161 622 1161 622 1162 616 1162 617 1162 622 1163 617 1163 623 1163 549 1164 551 1164 624 1164 624 1165 551 1165 625 1165 624 1166 625 1166 626 1166 626 1167 625 1167 627 1167 626 1168 627 1168 628 1168 628 1169 627 1169 629 1169 628 1170 629 1170 559 1170 559 1171 629 1171 630 1171 551 1172 550 1172 625 1172 625 1173 550 1173 622 1173 625 1174 622 1174 627 1174 627 1175 622 1175 623 1175 627 1176 623 1176 629 1176 629 1177 623 1177 631 1177 629 1178 631 1178 630 1178 630 1179 631 1179 632 1179 617 1180 618 1180 623 1180 623 1181 618 1181 619 1181 623 1182 619 1182 631 1182 631 1183 619 1183 620 1183 631 1184 620 1184 632 1184 632 1185 620 1185 621 1185 562 1186 557 1186 633 1186 548 1187 547 1187 634 1187 634 1188 547 1188 635 1188 634 1189 635 1189 636 1189 636 1190 635 1190 637 1190 636 1191 637 1191 638 1191 638 1192 637 1192 633 1192 536 1193 548 1193 552 1193 552 1194 548 1194 634 1194 552 1195 634 1195 553 1195 553 1196 634 1196 636 1196 553 1197 636 1197 554 1197 554 1198 636 1198 638 1198 554 1199 638 1199 392 1199 392 1200 638 1200 555 1200 633 1201 557 1201 638 1201 638 1202 557 1202 556 1202 638 1203 556 1203 555 1203 561 1204 562 1204 639 1204 639 1205 562 1205 633 1205 639 1206 633 1206 640 1206 640 1207 633 1207 637 1207 640 1208 637 1208 641 1208 641 1209 637 1209 635 1209 641 1210 635 1210 546 1210 546 1211 635 1211 547 1211 546 1212 549 1212 641 1212 641 1213 549 1213 624 1213 641 1214 624 1214 640 1214 640 1215 624 1215 626 1215 640 1216 626 1216 639 1216 639 1217 626 1217 628 1217 639 1218 628 1218 561 1218 561 1219 628 1219 559 1219 621 1220 577 1220 575 1220 560 1221 559 1221 630 1221 560 1222 630 1222 575 1222 575 1223 630 1223 632 1223 575 1224 632 1224 621 1224 642 1225 569 1225 643 1225 643 1226 569 1226 574 1226 643 1227 574 1227 644 1227 644 1228 574 1228 576 1228 644 1229 576 1229 645 1229 645 1230 576 1230 578 1230 645 1231 578 1231 646 1231 646 1232 578 1232 579 1232 646 1233 579 1233 647 1233 647 1234 579 1234 573 1234 647 1235 573 1235 648 1235 648 1236 573 1236 580 1236 648 1237 580 1237 649 1237 649 1238 580 1238 570 1238 649 1239 570 1239 650 1239 650 1240 570 1240 566 1240 650 1241 566 1241 651 1241 651 1242 566 1242 565 1242 651 1243 565 1243 652 1243 652 1244 565 1244 563 1244 652 1245 563 1245 653 1245 653 1246 563 1246 564 1246 653 1247 564 1247 642 1247 642 1248 564 1248 569 1248 610 1249 571 1249 621 1249 621 1250 571 1250 577 1250 586 1251 568 1251 615 1251 615 1252 568 1252 572 1252 615 1253 572 1253 609 1253 609 1254 572 1254 571 1254 609 1255 571 1255 610 1255 652 1256 653 1256 654 1256 654 1257 653 1257 642 1257 654 1258 642 1258 643 1258 649 1259 650 1259 654 1259 654 1260 650 1260 651 1260 654 1261 651 1261 652 1261 646 1262 647 1262 654 1262 654 1263 647 1263 648 1263 654 1264 648 1264 649 1264 643 1265 644 1265 654 1265 654 1266 644 1266 645 1266 654 1267 645 1267 646 1267 209 1268 208 1268 203 1268 204 1269 203 1269 205 1269 205 1270 203 1270 208 1270 205 1271 208 1271 206 1271 206 1272 208 1272 207 1272 533 1273 322 1273 534 1273 534 1274 322 1274 535 1274 362 1275 360 1275 357 1275 322 1276 307 1276 203 1276 203 1277 307 1277 214 1277 203 1278 214 1278 209 1278 209 1279 214 1279 213 1279 209 1280 213 1280 210 1280 210 1281 213 1281 212 1281 210 1282 212 1282 211 1282 533 1283 532 1283 322 1283 322 1284 532 1284 531 1284 322 1285 531 1285 307 1285 307 1286 531 1286 368 1286 307 1287 368 1287 357 1287 357 1288 368 1288 365 1288 357 1289 365 1289 362 1289</p>
        </triangles>
      </mesh>
    </geometry>
  </library_geometries>
  <library_visual_scenes>
    <visual_scene id="Scene" name="Scene">
      <node id="link_3" name="link_3" type="NODE">
        <matrix sid="transform">1 0 0 0 0 1 0 0 0 0 1 0 0 0 0 1</matrix>
        <instance_geometry url="#link_3-mesh" name="link_3">
          <bind_material>
            <technique_common>
              <instance_material symbol="base-material" target="#base-material"/>
            </technique_common>
          </bind_material>
        </instance_geometry>
      </node>
    </visual_scene>
  </library_visual_scenes>
  <scene>
    <instance_visual_scene url="#Scene"/>
  </scene>
</COLLADA>