<?xml version="1.0" encoding="utf-8"?>
<COLLADA xmlns="http://www.collada.org/2005/11/COLLADASchema" version="1.4.1" xmlns:xsi="http://www.w3.org/2001/XMLSchema-instance">
  <asset>
    <contributor>
      <author>Blender User</author>
      <authoring_tool>Blender 4.5.7 LTS commit date:2026-02-16, commit time:13:34, hash:a9874eeece8d</authoring_tool>
    </contributor>
    <created>2026-09-30T16:40:36</created>
    <modified>2026-09-30T16:40:36</modified>
    <unit name="meter" meter="1"/>
    <up_axis>Z_UP</up_axis>
  </asset>
  <library_effects>
    <effect id="base-effect">
      <profile_COMMON>
        <technique sid="common">
          <lambert>
            <emission>
              <color sid="emission">0 0 0 1</color>
            </emission>
            <diffuse>
              <color sid="diffuse">0.22 0.22 0.17 1</color>
            </diffuse>
            <index_of_refraction>
              <float sid="ior">1.5</float>
            </index_of_refraction>
          </lambert>
        </technique>
      </profile_COMMON>
    </effect>
  </library_effects>
  <library_images/>
  <library_materials>
    <material id="base-material" name="base">
      <instance_effect url="#base-effect"/>
    </material>
  </library_materials>
  <library_geometries>
    <geometry id="link_tip-mesh" name="link_tip">
      <mesh>
        <source id="link_tip-mesh-positions">
          <float_array id="link_tip-mesh-positions-array" count="1434">0.009499967 -0.006001234 0.0112006 0.002499997 -0.006001174 0.0112006 0.009499967 -0.006665408 0.011137 0.002499997 -0.006908774 0.01108103 0.002499997 -0.007750332 0.01073265 0.009499967 -0.007266521 0.01096415 0.009499967 -0.006908774 0.01108103 0.009499967 -0.008479773 0.01017242 0.009499967 -0.00847578 0.01017642 0.002499997 -0.00847578 0.01017642 0.009499967 -0.007947623 0.01060986 0.009499967 -0.007750332 0.01073265 0.009499967 -0.008908629 0.009649455 0.002499997 -0.009033441 0.009448885 0.009499967 -0.009033441 0.009448885 0.002499997 -0.009499549 0.007704436 0.009499967 -0.009499788 0.007704138 0.009499967 -0.00943154 0.008391201 0.002499997 -0.009382903 0.008600056 0.009499967 -0.009382903 0.008600056 0.009499967 -0.009235799 0.009036898 0.009499967 0.007350385 0.007950603 0.004999995 0.007350385 0.007950603 0.009499967 0.007243216 0.007550597 0.004999995 0.007243216 0.007550597 0.009499967 0.006950378 0.007257819 0.004999995 0.006950378 0.007257819 0.009499967 0.006550371 0.00715059 0.004999995 0.006550371 0.00715059 0.009499967 0.006150364 0.007257819 0.004999995 0.006150364 0.007257819 0.009499967 0.005857527 0.007550597 0.004999995 0.005857527 0.007550597 0.009499967 0.005750358 0.007950603 0.004999995 0.005750358 0.007950603 0.009499967 0.005857527 0.00835061 0.004999995 0.005857527 0.00835061 0.009499967 0.006150364 0.008643448 0.004999995 0.006150364 0.008643448 0.009499967 0.006550371 0.008750617 0.004999995 0.006550371 0.008750617 0.009499967 0.006950378 0.008643448 0.004999995 0.006950378 0.008643448 0.009499967 0.007243216 0.00835061 0.004999995 0.007243216 0.00835061 0.009499967 0.007350385 -0.007949352 0.004999995 0.007350385 -0.007949352 0.009499967 0.007243216 -0.008349299 0.004999995 0.007243216 -0.008349299 0.009499967 0.006950378 -0.008642137 0.004999995 0.006950378 -0.008642137 0.009499967 0.006550371 -0.008749306 0.004999995 0.006550371 -0.008749306 0.009499967 0.006150364 -0.008642137 0.004999995 0.006150364 -0.008642137 0.009499967 0.005857527 -0.008349299 0.004999995 0.005857527 -0.008349299 0.009499967 0.005750358 -0.007949352 0.004999995 0.005750358 -0.007949352 0.009499967 0.005857527 -0.007549345 0.004999995 0.005857527 -0.007549345 0.009499967 0.006150364 -0.007256507 0.004999995 0.006150364 -0.007256507 0.009499967 0.006550371 -0.007149338 0.004999995 0.006550371 -0.007149338 0.009499967 0.006950378 -0.007256507 0.004999995 0.006950378 -0.007256507 0.009499967 0.007243216 -0.007549345 0.004999995 0.007243216 -0.007549345 0.009499967 0.009500384 0.007701754 0.002499997 0.009500384 0.007701754 0.009499967 0.009382486 0.008602797 0.002499997 0.009380817 0.008608996 0.009499967 0.009380817 0.008608996 0.009499967 0.009033322 0.009448766 0.002499997 0.009032487 0.009450197 0.002499997 0.008475244 0.01017677 0.009499967 0.008475244 0.01017677 0.009499967 0.007750332 0.01073271 0.002499997 0.007747411 0.01073437 0.009499967 0.007747411 0.01073437 0.009499967 0.006906211 0.01108181 0.002499997 0.006898224 0.01108396 0.009499967 0.006898224 0.01108396 0.002499997 0.006002247 0.0112006 0.009499967 0.006002247 0.0112006 0.009499967 0.006002247 -0.01119935 0.002499997 0.006002247 -0.01119935 0.009499967 0.00690335 -0.01108133 0.002499997 0.006909251 -0.01107978 0.009499967 0.006909251 -0.01107978 0.009499967 0.00774914 -0.01073199 0.002499997 0.007750093 -0.01073145 0.002499997 0.008476436 -0.01017427 0.009499967 0.008476436 -0.01017427 0.002499997 0.008478701 -0.010172 0.009499967 0.008478701 -0.010172 0.002499997 0.009032189 -0.009449541 0.009499967 0.009032189 -0.009449541 0.002499997 0.009382605 -0.008600711 0.009499967 0.009381532 -0.008604705 0.009499967 0.009382605 -0.008600711 0.002499997 0.009500384 -0.007700443 0.009499967 0.009500384 -0.007700443 0.002499997 -0.009379982 -0.00860995 0.009499967 -0.009431898 -0.008388757 0.002499997 -0.009499549 -0.007703125 0.009499967 -0.009499609 -0.007724463 0.009499967 -0.009499669 -0.007703423 0.002499997 -0.009031653 -0.009450554 0.009499967 -0.009232163 -0.009044706 0.009499967 -0.009379982 -0.00860995 0.009499967 -0.008434176 -0.01021623 0.009499967 -0.008472561 -0.01017832 0.002499997 -0.008472561 -0.01017832 0.009499967 -0.008474469 -0.01017647 0.002499997 -0.008474469 -0.01017647 0.009499967 -0.008913159 -0.009641826 0.009499967 -0.009031653 -0.009450554 0.009499967 -0.007946848 -0.01060944 0.002499997 -0.007750272 -0.01073145 0.009499967 -0.007750272 -0.01073145 0.009499967 -0.007335245 -0.0109356 0.002499997 -0.006901621 -0.01108163 0.009499967 -0.006901621 -0.01108163 0.009499967 -0.006661593 -0.01113671 0.002499997 -0.006001174 -0.01119935 0.009499967 -0.006001234 -0.01119947 0 0.006002247 0.0112006 0 -0.006001174 0.0112006 0.009499967 0.001500248 0.0112003 0.009499967 0.003951311 0.0112006 0 0.006898224 0.01108396 0 0.007747411 0.01073437 0 0.008475244 0.01017677 0 0.009032487 0.009450197 0 0.009380817 0.008608996 0 0.009500384 0.007701754 0 0.009500384 -0.007700443 0 0.009382605 -0.008600711 0 0.009032189 -0.009449541 0 0.008478701 -0.010172 0 0.008476436 -0.01017427 0 0.007750093 -0.01073145 0 0.006909251 -0.01107978 0 0.006002247 -0.01119935 0 -0.006001174 -0.01119935 0.009499967 0.001500248 -0.01119965 0.009499967 0.003951311 -0.01119935 0 -0.006901621 -0.01108163 0 -0.007750272 -0.01073145 0 -0.008472561 -0.01017832 0 -0.008474469 -0.01017647 0 -0.009031653 -0.009450554 0 -0.009379982 -0.00860995 0 -0.009499549 -0.007703125 0 -0.009499549 0.007704436 0 -0.009382903 0.008600056 0 -0.009033441 0.009448885 0 -0.00847578 0.01017642 0 -0.007750332 0.01073265 0 -0.006908774 0.01108103 0.01318269 -0.009415149 0.007490217 0.01381313 -0.009397387 0.00744009 0.01386755 -0.00933665 0.008076667 0.02244538 -0.006911218 0.007531046 0.02239549 -0.006869316 0.007717013 0.02185964 -0.007188796 0.007799327 0.02229362 -0.006783783 0.008022189 0.02216106 -0.00667262 0.008334457 0.0217998 -0.00688517 0.008393168 0.02152758 -0.006141245 0.009274601 0.02141267 -0.006044864 0.009391486 0.02070069 -0.006406009 0.00951457 0.02116352 -0.005835652 0.009608924 0.02093398 -0.00564295 0.009772002 0.02050125 -0.005852699 0.009847819 0.02077788 -0.005511939 0.009865343 0.02036964 -0.005169391 0.01005071 0.02027201 -0.005280733 0.01005768 0.0139634 -0.005900681 0.01092988 0.01137036 -0.005948245 0.0111165 0.01245146 -0.006541669 0.01099526 0.01090449 -0.007220983 0.01090461 0.01090228 -0.007852673 0.0105825 0.01084959 -0.009206295 0.008939623 0.01087391 -0.008877396 0.009568572 0.01089191 -0.008417665 0.01012885 0.01401895 -0.006507754 0.01087141 0.01400309 -0.005899429 0.01092636 0.01992613 -0.00479722 0.010167 0.01933056 -0.005033731 0.01026535 0.01952993 -0.005585968 0.01018244 0.01849704 -0.005306005 0.01039445 0.01877099 -0.005842924 0.01030182 0.01786249 -0.005471408 0.01048618 0.01799523 -0.006053328 0.01041549 0.01676571 -0.005678832 0.01063156 0.01720291 -0.006217479 0.01052302 0.01555728 -0.005814969 0.01077288 0.01560282 -0.00641942 0.01071465 0.01485615 -0.005862712 0.01084601 0.02257251 -0.007017791 0.006474435 0.02254116 -0.006991624 0.007001578 0.02179861 -0.007478654 0.006581723 0.02185654 -0.007385551 0.007184147 0.02099114 -0.007890582 0.006688773 0.02098459 -0.007833719 0.00730586 0.02098309 -0.007894337 0.006689786 0.02009874 -0.008215188 0.007423222 0.01827907 -0.008795261 0.007643043 0.01924574 -0.008577823 0.006903886 0.01919752 -0.008534491 0.007535755 0.01932525 -0.008551955 0.006894588 0.0200327 -0.008300006 0.006809771 0.0153734 -0.00931096 0.007303118 0.0156663 -0.009285211 0.0072757 0.01554107 -0.009238123 0.007926702 0.01635915 -0.009209036 0.007209002 0.01642578 -0.009142041 0.00783962 0.01747924 -0.009030997 0.007096707 0.01734417 -0.008998274 0.007744669 0.01749223 -0.009028494 0.007095396 0.01821029 -0.00887072 0.007020056 0.01225668 -0.009432077 0.00755757 0.01565599 -0.008257508 0.009754359 0.01563471 -0.008715629 0.009198188 0.01651853 -0.008162081 0.009660243 0.0165103 -0.008618235 0.009105801 0.01740282 -0.008021175 0.009556114 0.01741284 -0.008473634 0.009003877 0.01829332 -0.007824718 0.009443283 0.0183258 -0.008271217 0.008893668 0.01916593 -0.007574141 0.009323775 0.019221 -0.008012771 0.008777081 0.02001982 -0.007268965 0.009198069 0.02009761 -0.00769788 0.008654534 0.02085608 -0.006906449 0.009066581 0.02095687 -0.007323324 0.008526384 0.02167528 -0.006482958 0.008929729 0.02208817 -0.006611466 0.00848025 0.01559513 -0.009045243 0.008574843 0.01647806 -0.00894761 0.008484959 0.01739197 -0.008802115 0.008386313 0.0183199 -0.008597552 0.008280158 0.01923042 -0.008335769 0.008167982 0.02012294 -0.008016109 0.008050143 0.02099889 -0.007635235 0.007927119 0.01241272 -0.008393704 0.01003724 0.01238083 -0.008853554 0.009477496 0.01234227 -0.009182453 0.008849263 0.01229995 -0.009372472 0.008195817 0.01284986 -0.009422183 0.00751537 0.01402497 -0.007161796 0.01068764 0.01563829 -0.00706917 0.0105285 0.01243567 -0.007828593 0.01049035 0.01399707 -0.008357107 0.009913504 0.01396322 -0.008816659 0.009355008 0.01391887 -0.009145915 0.008728384 0.0108993 -0.006565988 0.01108807 0.01244854 -0.007196784 0.0108121 0.01401799 -0.007792651 0.0103659 0.01989281 -0.006751775 0.009646773 0.01972532 -0.006178736 0.009977638 0.01906722 -0.007042884 0.009773135 0.01893198 -0.006453216 0.01010185 0.01822334 -0.007281959 0.009893298 0.01812106 -0.006678342 0.01021999 0.0173617 -0.007469236 0.01000666 0.01729291 -0.006854355 0.01033157 0.01650148 -0.007604122 0.01011139 0.01565694 -0.007696032 0.01020592 0.02182251 -0.006388485 0.008913278 0.01836174 -0.003484547 0.01041454 0.01599627 -0.001499712 0.01072376 0.01396298 -0.001499712 0.01092994 0.011083 -0.001144289 0.01113212 0.01067185 -8.78836e-4 0.01115268 0.0125001 -0.001499712 0.01104545 0.0120092 -0.001459777 0.01107829 0.01153469 -0.00134027 0.01110714 0.0103079 -5.47892e-4 0.01116925 0.01000273 -1.63108e-4 0.01118189 0.009765923 2.65331e-4 0.01119095 0.009600162 7.29618e-4 0.01119685 0.009513616 0.001211285 0.01119983 0.01599627 -0.001499712 0.0107212 0.01277071 -0.001499712 0.01102238 0.01275092 0.001223444 0.01102381 0.01832658 -0.005353808 -0.01041901 0.01599627 -0.001499712 -0.01072317 0.01860451 -0.005274474 -0.01037776 0.01992613 -0.00479722 -0.01016634 0.01603966 -0.005770027 -0.01071816 0.01585131 -0.001499712 -0.01073962 0.01664507 -0.005696237 -0.01064592 0.01710444 -0.005624711 -0.01058781 0.01166802 -0.005943238 -0.01109868 0.0117284 -0.001399278 -0.01109504 0.01220989 -0.001485943 -0.01106458 0.01249963 -0.001499712 -0.01104122 0.01334494 -0.001499712 -0.01098138 0.01367729 -0.005908966 -0.01095396 0.0141853 -0.001499712 -0.01090931 0.01555728 -0.005814969 -0.01077222 0.01585179 -0.005788862 -0.01073956 0.009539902 0.001009285 -0.01119828 0.009659409 5.34827e-4 -0.0111941 0.009855389 8.31878e-5 -0.01118695 0.01012086 -3.27951e-4 -0.01117646 0.01045173 -6.91779e-4 -0.01116222 0.01083606 -9.96696e-4 -0.0111441 0.01126438 -0.001233518 -0.01112174 0.009997189 -0.005981385 -0.01118141 0.01088857 -0.005956828 -0.01114147 0.01277071 -0.001499712 -0.01102173 0.01357805 -0.001499712 -0.01095849 0.01438486 -0.001499712 -0.01088732 0.01599627 -0.001499712 -0.01072055 0.01275092 0.001223444 -0.01102316 0.01238089 -0.008853256 -0.009477317 0.01234233 -0.009182214 -0.008849203 0.01084965 -0.009206116 -0.008939504 0.0128501 -0.009422183 -0.007514655 0.01095271 -0.009452581 -0.007637143 0.01229995 -0.009372353 -0.008195817 0.01087391 -0.008877158 -0.009568333 0.0108993 -0.006565868 -0.01108741 0.01245146 -0.00654155 -0.01099467 0.02074158 -0.005481481 -0.009884476 0.0209338 -0.005642712 -0.009771525 0.02050119 -0.00585252 -0.009847223 0.02114856 -0.005823075 -0.009619951 0.02141255 -0.006044745 -0.009391009 0.02070063 -0.00640577 -0.009514093 0.02151232 -0.00612843 -0.009290158 0.02167516 -0.00648266 -0.008929371 0.02085596 -0.006906211 -0.009066164 0.02181738 -0.006384134 -0.008919835 0.02206975 -0.006596028 -0.008514165 0.02216082 -0.006672382 -0.008334338 0.02179974 -0.006884872 -0.00839293 0.02228277 -0.006774723 -0.008050024 0.02239537 -0.006869137 -0.007716894 0.02185958 -0.007188618 -0.007799148 0.02244246 -0.006908714 -0.00754249 0.02253919 -0.006989955 -0.007017314 0.0218566 -0.007385373 -0.007184088 0.01720285 -0.00621736 -0.01052242 0.01799523 -0.006053268 -0.01041483 0.01877099 -0.005842804 -0.01030117 0.01952993 -0.005585908 -0.01018178 0.02034068 -0.005145072 -0.01006025 0.02027195 -0.005280673 -0.01005709 0.01090449 -0.007220804 -0.01090407 0.01090222 -0.007852435 -0.01058202 0.01089191 -0.008417427 -0.01012849 0.01989275 -0.006751537 -0.009646296 0.02001976 -0.007268726 -0.009197711 0.01906716 -0.007042706 -0.009772658 0.01916587 -0.007573843 -0.009323418 0.01822328 -0.00728172 -0.009892761 0.01829332 -0.00782448 -0.009442925 0.0173617 -0.007468998 -0.01000618 0.01740276 -0.008020877 -0.009555757 0.01650148 -0.007603883 -0.01011085 0.01651847 -0.008161783 -0.009659886 0.01729291 -0.006854176 -0.01033097 0.01812106 -0.006678164 -0.01021939 0.01893198 -0.006453037 -0.01010131 0.01972526 -0.006178557 -0.009977102 0.01563829 -0.007068991 -0.0105279 0.01560282 -0.006419301 -0.01071399 0.01565694 -0.007695794 -0.01020544 0.01565593 -0.00825721 -0.009754002 0.01241272 -0.008393466 -0.01003688 0.01243567 -0.007828354 -0.01048988 0.01244854 -0.007196605 -0.0108115 0.01399707 -0.008356809 -0.009913146 0.01401793 -0.007792413 -0.01036542 0.01402497 -0.007161617 -0.01068705 0.01401895 -0.006507635 -0.01087081 0.01396322 -0.008816421 -0.00935477 0.02257251 -0.007017791 -0.006473779 0.02129524 -0.00774312 -0.006648302 0.02098459 -0.0078336 -0.0073058 0.02099126 -0.007890522 -0.006688117 0.02092182 -0.007922947 -0.006697118 0.0200988 -0.008215069 -0.007423162 0.0195195 -0.008486807 -0.006871044 0.01919758 -0.008534312 -0.007535696 0.0192458 -0.008577764 -0.006903231 0.01912957 -0.008614659 -0.006916701 0.01827913 -0.008795142 -0.007642984 0.01778721 -0.008968114 -0.007064282 0.01734423 -0.008998155 -0.00774461 0.01749235 -0.009028494 -0.00709474 0.01727563 -0.009069144 -0.007116854 0.01642584 -0.009141921 -0.00783962 0.01598334 -0.009253144 -0.007244825 0.01554113 -0.009238004 -0.007926642 0.01547759 -0.009302198 -0.007292807 0.01537352 -0.00931096 -0.007302463 0.02095681 -0.007323086 -0.008526146 0.02099889 -0.007635056 -0.00792694 0.02009755 -0.007697641 -0.008654236 0.02012294 -0.00801593 -0.008050024 0.01922094 -0.008012533 -0.008776843 0.01923048 -0.00833553 -0.008167862 0.0183258 -0.008270978 -0.00889343 0.0183199 -0.008597373 -0.008280038 0.01741284 -0.008473336 -0.009003639 0.01739203 -0.008801937 -0.008386194 0.0165103 -0.008617937 -0.009105563 0.01647812 -0.008947432 -0.00848484 0.01563471 -0.008715391 -0.00919795 0.01559513 -0.009045064 -0.008574724 0.01391887 -0.009145677 -0.008728265 0.01386761 -0.009336531 -0.008076667 0.01378458 -0.009398341 -0.007441759 0.004999995 0.006550371 -0.007949352 0.004999995 0.006550371 0.007950603 0.007999956 -0.008427202 -0.008521854 0.007999956 -0.008549571 -0.007749319 0.007999956 -0.006049573 -0.01024931 0.007999956 0.005000352 0.00925064 0.007999956 0.005000352 0.005350589 0.007999956 -0.008549571 0.00775063 0.007999956 0.005875885 0.00453478 0.007999956 0.006000399 0.003936409 0.007999956 0.004000365 -0.01024931 0.007999956 -0.008072137 0.009220063 0.007999956 -0.007519006 0.009773135 0.007999956 -0.006822109 0.01012825 0.007999956 0.005523025 0.005033791 0.007999956 0.004500389 0.01011663 0.007999956 0.004866421 0.009750604 0.007999956 0.004000365 0.01025062 0.007999956 -0.006049573 0.01025062 0.007999956 -0.008427202 0.008523166 0.007999956 0.005875885 -0.004533469 0.007999956 0.005523025 -0.005032479 0.007999956 0.006000399 -0.003935098 0.007999956 0.005000352 -0.005349338 0.007999956 0.004866421 -0.009749352 0.007999956 0.004500389 -0.01011532 0.007999956 0.005000352 -0.009249329 0.007999956 -0.006822109 -0.01012694 0.007999956 -0.007519006 -0.009771883 0.007999956 -0.008072137 -0.009218811 0.004999995 0.006000399 -0.003935098 0.004999995 0.006000399 0.003936409 0.004999995 0.005000352 -0.005349338 0.004999995 0.005523025 -0.005032479 0.004999995 0.005875885 -0.004533469 0.004999995 0.005000352 -0.009249329 0.004999995 0.005000352 0.005350589 0.004999995 0.005000352 0.00925064 0.004999995 0.005875885 0.00453478 0.004999995 0.005523025 0.005033791 0.004999995 -0.006049573 -0.01024931 0.004999995 0.004000365 -0.01024931 0.004999995 -0.008549571 -0.007749319 0.004999995 -0.008427202 -0.008521854 0.004999995 -0.008072137 -0.009218811 0.004999995 -0.007519006 -0.009771883 0.004999995 -0.006822109 -0.01012694 0.004999995 -0.006049573 0.01025062 0.004999995 -0.006822109 0.01012825 0.004999995 -0.007519006 0.009773135 0.004999995 -0.008072137 0.009220063 0.004999995 -0.008427202 0.008523166 0.004999995 -0.008549571 0.00775063 0.004999995 0.004000365 0.01025062 0.004999995 0.004866421 0.009750604 0.004999995 0.004500389 0.01011663 0.004999995 0.004866421 -0.009749352 0.004999995 0.004500389 -0.01011532</float_array>
          <technique_common>
            <accessor source="#link_tip-mesh-positions-array" count="478" stride="3">
              <param name="X" type="float"/>
              <param name="Y" type="float"/>
              <param name="Z" type="float"/>
            </accessor>
          </technique_common>
        </source>
        <source id="link_tip-mesh-normals">
          <float_array id="link_tip-mesh-normals-array" count="2844">-2.94495e-6 -0.09540671 0.9954383 -0.003380596 -0.1306178 0.991427 -0.004121899 -0.3825176 0.9239391 0 -0.3105532 0.950556 0 -0.2239761 0.9745946 0 -0.7123383 0.7018362 0 -0.6343545 0.7730422 -0.003225624 -0.6084566 0.7935805 0 -0.5284627 0.8489565 0 -0.4316691 0.902032 -7.37357e-5 -0.773214 0.6341452 -0.003279983 -0.7936602 0.6083525 0 -0.8490453 0.52832 -2.60957e-5 -0.9951043 0.0988304 -0.003035128 -0.99162 0.1291537 0 -0.9739485 0.2267692 0 -0.9246928 0.3807141 -0.00861603 -0.9476744 0.3191224 0 -0.8975633 0.4408857 0 -0.9659258 0.2588193 0 -0.9659258 0.2588193 0 -0.7071068 0.7071068 0 -0.7071068 0.7071068 0 -0.2588185 0.965926 0 -0.2588185 0.965926 0 0.2588182 0.965926 0 0.2588182 0.965926 0 0.7071068 0.7071068 0 0.7071068 0.7071068 0 0.965926 0.2588182 0 0.965926 0.2588182 0 0.965926 -0.2588182 0 0.965926 -0.2588182 0 0.7071062 -0.7071074 0 0.7071062 -0.7071074 0 0.2588182 -0.965926 0 0.2588182 -0.965926 0 -0.2588185 -0.965926 0 -0.2588185 -0.965926 0 -0.7071062 -0.7071074 0 -0.7071062 -0.7071074 0 -0.9659258 -0.2588193 0 -0.9659258 -0.2588193 0 -0.9659258 0.2588193 0 -0.9659258 0.2588193 0 -0.7071062 0.7071074 0 -0.7071062 0.7071074 0 -0.2588206 0.9659254 0 -0.2588206 0.9659254 0 0.2588203 0.9659255 0 0.2588203 0.9659255 0 0.7071062 0.7071074 0 0.7071062 0.7071074 0 0.965926 0.2588182 0 0.965926 0.2588182 0 0.965926 -0.2588185 0 0.965926 -0.2588185 0 0.7071068 -0.7071068 0 0.7071068 -0.7071068 0 0.2588193 -0.9659258 0 0.2588193 -0.9659258 0 -0.2588196 -0.9659257 0 -0.2588196 -0.9659257 0 -0.7071068 -0.7071068 0 -0.7071068 -0.7071068 0 -0.9659257 -0.2588196 0 -0.9659257 -0.2588196 0 0.9915468 0.1297501 -1.19581e-4 0.9914268 0.1306634 0 0.9660717 0.258274 0 0.9240187 0.3823472 -3.0535e-5 0.9239287 0.3825646 3.09645e-5 0.7934883 0.6085854 0 0.7936322 0.6083979 0 0.6085501 0.7935155 -6.21651e-5 0.6081721 0.7938053 0 0.4993839 0.8663808 0 0.3817205 0.9242778 -1.53178e-4 0.3806313 0.9247269 0 0.2574944 0.9662798 0 0.1291451 0.9916257 0 0.1291451 0.9916257 0 0.1298458 -0.9915342 -1.12394e-4 0.1307042 -0.9914214 0 0.2582842 -0.966069 0 0.382516 -0.923949 -1.99634e-5 0.382658 -0.9238901 2.01533e-5 0.608672 -0.7934219 0 0.60855 -0.7935156 0 0.7074025 -0.706811 0 0.7074025 -0.706811 0 0.7938148 -0.6081596 0 0.7938148 -0.6081596 0 0.9243309 -0.3815919 -7.73054e-5 0.9241059 -0.3821365 0 0.96619 -0.257831 0 0.9915544 -0.1296919 0 0.9915544 -0.1296919 -0.003224253 -0.9914124 -0.1307333 -3.18298e-4 -0.9948455 -0.1014022 -1.59168e-5 -0.9999978 -0.002124011 -0.004265606 -0.9238203 -0.3828026 0 -0.9467643 -0.3219276 0 -0.9735268 -0.228573 0 -0.70249 -0.7116937 0 -0.7062217 -0.7079908 0 -0.7062217 -0.7079908 0 -0.773052 -0.6343427 -0.003207564 -0.7932357 -0.6089063 0 -0.8500421 -0.5267146 0 -0.8965667 -0.4429087 -7.6913e-4 -0.6279366 -0.7782642 -0.003233611 -0.6079811 -0.793945 0 -0.5273919 -0.8496222 0 -0.4413534 -0.8973333 -0.004342794 -0.3814172 -0.9243928 0 -0.3191547 -0.9477026 0 -0.223653 -0.9746688 -0.003357648 -0.1296216 -0.9915579 -2.51891e-5 -0.09467303 -0.9955084 0 0 1 0 0 1 -1.99569e-6 0 1 7.50716e-5 4.49426e-5 1 -3.86309e-5 -1.31848e-4 1 0 0 1 0 0.1291451 0.9916256 0 0.1291451 0.9916256 0 0.3806313 0.9247269 0 0.3806313 0.9247269 0 0.6081721 0.7938052 0 0.6081721 0.7938052 0 0.7934883 0.6085854 0 0.7934883 0.6085854 0 0.9239288 0.3825646 0 0.9239288 0.3825646 0 0.9914268 0.1306634 0 0.9914268 0.1306634 0 1 0 0 1 0 0 1 0 0 1 0 0 0.9915543 -0.1296919 0 0.9915543 -0.1296919 0 0.924331 -0.3815919 0 0.924331 -0.3815919 0 0.7938149 -0.6081596 0 0.7938149 -0.6081596 0 0.7074025 -0.706811 0 0.7074025 -0.706811 0 0.6086721 -0.7934219 0 0.6086721 -0.7934219 0 0.382658 -0.9238901 0 0.382658 -0.9238901 0 0.1307042 -0.9914215 0 0.1307042 -0.9914215 0 0 -1 0 0 -1 -2.43476e-5 -2.03607e-5 -1 -4.6167e-5 0 -1 3.86309e-5 1.31848e-4 -1 0 0 -1 0 -0.1296223 -0.9915634 0 -0.1296223 -0.9915634 0 -0.3814208 -0.9244015 0 -0.3814208 -0.9244015 0 -0.6079843 -0.7939491 0 -0.6079843 -0.7939491 0 -0.7062217 -0.7079908 0 -0.7062217 -0.7079908 0 -0.7932397 -0.6089094 0 -0.7932397 -0.6089094 0 -0.9238287 -0.3828061 0 -0.9238287 -0.3828061 0 -0.9914175 -0.1307339 0 -0.9914175 -0.1307339 -1.58327e-5 -1 -6.52815e-6 -3.02014e-5 -1 0 0 -1 0 0 -1 0 0 -0.9916245 0.1291543 0 -0.9916245 0.1291543 0 -0.9246928 0.380714 0 -0.9246928 0.380714 0 -0.7936645 0.6083557 0 -0.7936645 0.6083557 0 -0.6084598 0.7935847 0 -0.6084598 0.7935847 0 -0.3825209 0.9239469 0 -0.3825209 0.9239469 0 -0.1306186 0.9914327 0 -0.1306186 0.9914327 -1 0 0 -1 0 0 -1 0 0 -1 0 0 -1 0 0 -1 0 0 -1 0 0 -1 0 0 -1 0 0 -1 0 0 -1 0 0 -1 0 0 -1 0 0 -1 0 0 -1 0 0 -1 0 0 -1 0 0 -1 0 0 -1 0 0 -1 0 0 -1 0 0 -1 0 0 -1 0 0 -1 0 0 -1 0 0 -1 0 0 -1 0 0 -1 0 0 1 0 0 1 0 0 1 0 0 1 0 0 1 0 0 1 0 0 1 0 0 1 0 0 1 0 0 1 0 0 1 0 0 1 0 0 1 0 0 1 0 0 1 0 0 1 0 0 1 0 0 1 0 0 1 0 0 1 0 0 1 0 0 1 0 0 1 0 0 1 0 0 1 0 0 1 0 0 1 0 0 1 0 0 1 0 0 1 0 0 1 0 0 1 0 0 1 0 0 1 0 0 1 0 0 1 0 0 1 0 0 1 0 0 1 0 0 1 0 0 1 0 0 1 0 0 1 0 0 1 0 0 1 0 0 1 0 0 1 0 0 1 0 0 0.03536593 -0.9951381 0.09191966 0.5210693 -0.7919617 0.3182506 0.5028886 -0.724439 0.4714778 0.384079 -0.4906589 0.7821363 0.3253443 -0.3544655 0.8766443 0.2756516 -0.1822193 0.9438285 0.07289958 -0.07045751 0.9948474 0.05031347 -0.3101599 0.9493521 0.05227011 -0.5277396 0.8477964 0.07021212 -0.9715448 0.2262104 0.04367315 -0.9468053 0.3188297 0.05132305 -0.8963804 0.4403046 0.06042641 -0.8854812 0.4607297 0.05033963 -0.8479685 0.5276508 0.05482757 -0.772051 0.6331912 0.05422723 -0.7728054 0.6323221 0.05362772 -0.7113255 0.7008138 0.09059351 -0.08725011 0.9920586 0.1778081 -0.09416967 0.979549 0.1940718 -0.08208441 0.9775471 0.1956489 -0.0762099 0.9777083 0.1788792 -0.08266687 0.9803919 0.1803946 -0.07720416 0.9805597 0.1643821 -0.08573621 0.9826637 0.1661223 -0.0815134 0.9827303 0.1469081 -0.08621984 0.9853853 0.1497561 -0.07705944 0.9857155 0.1263142 -0.0964058 0.9872946 0.1290857 -0.08547675 0.9879425 0.1092106 -0.08718979 0.9901874 0.517777 -0.8523876 0.0730915 0.5134832 -0.8541072 0.08267956 0.462101 -0.8820486 0.09193921 0.464937 -0.8811503 0.08606904 0.4330195 -0.8971564 0.08720451 0.4038313 -0.9105337 0.08859211 0.2815186 -0.9556012 0.08702635 0.316967 -0.9442559 0.08895331 0.3428462 -0.9346919 0.09384834 0.3438927 -0.9344736 0.0921781 0.4000808 -0.9127027 0.08312106 0.09575277 -0.9913173 0.09011864 0.1177039 -0.9885762 0.0941435 0.1165025 -0.9888489 0.09276294 0.1648714 -0.982473 0.08697134 0.1625736 -0.9831474 0.08361232 0.1989527 -0.9757913 0.09082484 0.2211258 -0.9705445 0.09563785 0.2229417 -0.9703891 0.09296268 0.2800617 -0.9562169 0.08493983 0.02968245 -0.9946658 0.09878695 0.1528842 -0.7656279 0.6248524 0.151194 -0.7644619 0.6266884 0.1941472 -0.7589574 0.6215228 0.1918474 -0.7574452 0.6240763 0.2432355 -0.7481247 0.6173701 0.240342 -0.7463856 0.6205999 0.2945333 -0.7331142 0.6130202 0.2914898 -0.7315161 0.6163748 0.3449598 -0.7147896 0.6083409 0.3418048 -0.7133559 0.6117948 0.3951987 -0.6927918 0.6032061 0.3919175 -0.6915174 0.6067984 0.444689 -0.6670383 0.5977555 0.4412235 -0.6659077 0.601572 0.447525 -0.6626071 0.6005608 0.4915276 -0.6878274 0.5341292 0.1330804 -0.9529254 0.2724387 0.1305725 -0.952173 0.2762562 0.1797796 -0.9458253 0.2703586 0.1764523 -0.944917 0.2756744 0.2365331 -0.9339741 0.2678515 0.232438 -0.9330383 0.2746127 0.2965063 -0.9173434 0.2656409 0.292156 -0.9166126 0.2728852 0.3558726 -0.896676 0.2633003 0.3513206 -0.89618 0.2709896 0.4155314 -0.8714316 0.2606543 0.4107725 -0.8711894 0.2688773 0.474757 -0.8414798 0.2579099 0.4697831 -0.8415094 0.2667691 0.5081932 -0.8210492 0.2600343 0.5299355 -0.8189395 0.2202417 0.1457766 -0.8783851 0.4551801 0.1436008 -0.8772627 0.4580273 0.1906763 -0.8712074 0.4523718 0.1877474 -0.8697736 0.4563384 0.2446812 -0.8594233 0.4489127 0.2410301 -0.8578103 0.4539449 0.301423 -0.8430189 0.4454922 0.297535 -0.841562 0.4508284 0.3573699 -0.8228432 0.4418324 0.353289 -0.8215736 0.4474412 0.4133245 -0.7984433 0.4377796 0.4090417 -0.7973701 0.4437181 0.4686235 -0.7697182 0.4335042 0.4640981 -0.7688449 0.4398756 0.4836863 -0.7585725 0.4365952 0.5154023 -0.7649137 0.3863514 0.05793315 -0.6332885 0.7717443 0.05270302 -0.6257513 0.7782403 0.05673843 -0.6256576 0.7780318 0.05029106 -0.7729027 0.6325284 0.05044573 -0.7731226 0.6322474 0.04193621 -0.8860283 0.4617308 0.04208964 -0.8861924 0.4614017 0.03380334 -0.9509889 0.3073719 0.03956621 -0.960169 0.2766047 0.02736729 -0.9954627 0.09113186 0.02308148 -0.995544 0.09142988 0.08036172 -0.08826303 0.9928503 0.08165127 -0.2689159 0.9596965 0.109801 -0.2679433 0.9571573 0.05217683 -0.4310812 0.9008033 0.06209748 -0.4535834 0.8890478 0.06055104 -0.4536222 0.8891347 0.05656629 -0.6259299 0.7778252 0.0751118 -0.6256219 0.776502 0.06715387 -0.7728273 0.6310532 0.06688487 -0.7724174 0.6315836 0.05627495 -0.8859295 0.4603933 0.05590409 -0.8854972 0.4612694 0.04345196 -0.9600809 0.2763271 0.04300677 -0.959751 0.2775399 0.03008824 -0.9948256 0.09703999 0.02853035 -0.9945955 0.09982931 0.04992705 -0.2236983 0.9733788 0.06101989 -0.2687289 0.9612811 0.06181645 -0.2687098 0.9612355 0.06038856 -0.4539316 0.8889878 0.08010339 -0.4536201 0.8875879 0.07528531 -0.6253394 0.7767128 0.1116502 -0.624021 0.7733899 0.1065204 -0.7709267 0.6279534 0.1056023 -0.7695032 0.6298515 0.09635591 -0.8839309 0.4575825 0.09517961 -0.8825043 0.4605724 0.08262681 -0.9581846 0.2739617 0.08128255 -0.9571334 0.2780087 0.06651312 -0.9937968 0.08912938 0.06367993 -0.9930531 0.09894657 0.3610962 -0.4298761 0.8275361 0.3198928 -0.4015107 0.8581712 0.3136469 -0.4043484 0.8591438 0.3137 -0.4043771 0.8591108 0.2795702 -0.4175174 0.8645923 0.2798439 -0.4176856 0.8644225 0.2451947 -0.4285277 0.8696228 0.2456895 -0.4288728 0.8693128 0.2101662 -0.4375749 0.8742759 0.2108556 -0.4381186 0.8738376 0.1765725 -0.4443105 0.8782998 0.1616353 -0.4312804 0.8876211 0.1475548 -0.4490305 0.8812487 0.1132324 -0.4519055 0.8848502 0.2998058 -0.2901548 0.9088051 0.2440741 -0.2464112 0.9379282 0.2575919 -0.240252 0.9359089 0.2558117 -0.2392349 0.9366574 0.2330188 -0.2480109 0.9403153 0.2316734 -0.2471355 0.940878 0.2082073 -0.2544802 0.9443991 0.2072953 -0.2538081 0.9447804 0.18296 -0.2597714 0.9481795 0.1824539 -0.25935 0.9483923 0.1478663 -0.2655331 0.952695 0.1475378 -0.2649283 0.9529142 0.1097021 -0.268193 0.9570988 0.103313 -0.09507799 0.9900943 0.09714996 -0.08702462 0.9914578 0.04741328 -0.09529972 0.9943189 0.04027605 -0.07663106 0.9962457 0.06085109 -0.09221082 0.9938784 0.06166595 -0.2690429 0.961152 0.08172988 -0.2687379 0.9597396 0.08013719 -0.4535541 0.8876186 0.1130068 -0.4523949 0.8846289 0.1122811 -0.6228834 0.7742152 0.1536216 -0.6194519 0.769857 0.1525331 -0.6185551 0.770794 0.1895365 -0.6138311 0.7663468 0.1880457 -0.612666 0.7676452 0.231716 -0.6047636 0.7619506 0.2298464 -0.6034287 0.7635735 0.2755652 -0.5922315 0.7571828 0.2736949 -0.591054 0.7587795 0.3185857 -0.57701 0.752039 0.3167486 -0.5759957 0.753591 0.361321 -0.5588333 0.7464265 0.359505 -0.5579609 0.7479544 0.3898213 -0.5440896 0.742971 0.4080551 -0.5551444 0.7247798 0.4290803 -0.5430461 0.7217971 0.4733024 -0.6305964 0.6150878 0.160824 0.005550205 0.9869676 0.1529316 4.92282e-4 0.9882367 0.1008564 0.001510918 0.9948998 0.1036819 7.64484e-4 0.9946103 0.116206 -5.25369e-4 0.993225 0.1315835 0.002348065 0.9913023 0.130853 0.002888798 0.9913976 0.1431138 -2.53246e-4 0.9897062 0.07179301 -1.42872e-6 0.9974196 0.08815371 0 0.9961069 0.09379398 5.18264e-5 0.9955917 0.04881525 -0.001820623 0.9988061 0.0787419 -0.004073619 0.9968867 0.06658583 -9.72221e-4 0.9977802 0.04486191 0.002130091 0.998991 0.0593031 -0.005869448 0.9982227 0.05369466 -0.003414511 0.9985516 0.0445913 -8.52455e-4 0.999005 0.04099231 -3.18359e-4 0.9991594 0.03807425 -6.67079e-5 0.9992749 0.03589767 2.57877e-5 0.9993554 0.03459465 4.52096e-5 0.9994014 0.03474545 4.4924e-5 0.9993962 0 1 0 0 1 0 0 1 0 0.09296494 1.44838e-4 0.9956693 0.0541892 -1.31716e-4 0.9985307 0.05428254 9.68166e-4 0.9985252 0.05427241 0.003586709 0.9985197 0.05382621 0.006436765 0.9985296 0.05322253 0.008320689 0.998548 0.05283331 0.009093642 0.998562 0.0531798 0.008614659 0.9985478 0.05461657 0.00718975 0.9984816 0.05742341 0.005205929 0.9983363 0.0615856 0.003223657 0.9980966 0.06680804 0.001773297 0.9977643 0.08500272 8.66162e-5 0.9963808 0.1443625 0.009206771 -0.9894821 0.152635 0.01504296 -0.9881682 0.1184776 2.31263e-4 -0.9929567 0.1130188 -8.15481e-4 -0.9935926 0.1253596 0.001119673 -0.9921107 0.1359124 0.004000484 -0.9907128 0.06316679 -4.37462e-5 -0.998003 0.08027839 -0.002133607 -0.9967702 0.07060718 -3.1404e-4 -0.9975042 0.07185059 -7.85635e-4 -0.9974151 0.08539974 2.42194e-4 -0.9963467 0.09626621 -0.001019775 -0.9953551 0.1013373 6.08497e-4 -0.994852 0.1101689 -3.39543e-7 -0.9939129 0.1133028 0 -0.9935605 0.03365951 -2.03533e-5 -0.9994334 0.03473913 -2.65058e-5 -0.9993965 0.03653961 -7.04748e-5 -0.9993322 0.03907811 -2.18954e-4 -0.9992361 0.0423156 -5.73798e-4 -0.9991042 0.04619503 -0.001270413 -0.9989317 0.05069583 -0.002474427 -0.9987111 0.03617537 0.002909421 -0.9993412 0.05744755 3.25331e-5 -0.9983485 0.05481022 -1.94199e-4 -0.9984968 0.0447942 6.04804e-4 -0.998996 0 1 0 0 1 0 0 1 0 0 1 0 0 1 0 0 1 0 0 1 0 0.07164084 -1.07693e-5 -0.9974305 0.0803405 -8.17839e-4 -0.9967671 0.06362944 0.00253725 -0.9979704 0.05898618 0.004355132 -0.9982492 0.05559581 0.006413698 -0.9984328 0.0536248 0.008118867 -0.9985281 0.05286109 0.009038031 -0.998561 0.05300623 0.008791446 -0.9985555 0.05357825 0.007336258 -0.9985367 0.05412799 0.004864573 -0.9985222 0.05434143 0.001663386 -0.998521 0.05421149 1.31593e-4 -0.9985294 0.1029446 0.01215571 -0.9946128 0.0878635 0.003031253 -0.9961279 0.07806682 3.61613e-5 -0.9969481 0.04209619 -0.8861204 -0.4615393 0.02177858 -0.9956608 -0.09047216 0.05039107 -0.8489634 -0.5260435 0.047046 -0.08744782 -0.9950576 0.07293313 -0.07737231 -0.9943311 0.2973976 -0.2842478 -0.9114592 0.360148 -0.4274271 -0.8292161 0.4073011 -0.5530199 -0.7268252 0.4246583 -0.5427808 -0.7246064 0.4904959 -0.6847385 -0.539024 0.514965 -0.7631319 -0.3904367 0.52894 -0.8185344 -0.2241067 0.1497073 -0.0768013 -0.9857431 0.1705434 -0.08664858 -0.9815329 0.1666338 -0.08354473 -0.9824732 0.1848229 -0.07784205 -0.9796842 0.1782008 -0.07029455 -0.9814801 0.1876587 -0.07508707 -0.9793601 0.2169789 -0.1323725 -0.9671596 0.1294224 -0.09536671 -0.9869928 0.1382123 -0.08588308 -0.986672 0.1543356 -0.08296942 -0.9845286 0.03989833 -0.0945971 -0.9947158 0.0415734 -0.09580945 -0.9945312 0.04955548 -0.2233795 -0.973471 0.06048071 -0.2687023 -0.9613226 0.06172257 -0.4535303 -0.889101 0.05603182 -0.440659 -0.8959242 0.04724192 -0.3187977 -0.9466447 0.05325776 -0.7052194 -0.706986 0.05324244 -0.701487 -0.7106907 0.05657428 -0.6255829 -0.7781037 0.05741411 -0.626901 -0.7769806 0.0520637 -0.5266782 -0.848469 0.0433256 -0.945875 -0.3216259 0.02814871 -0.9944514 -0.1013619 0.03575533 -0.9977301 -0.05706298 0.03251224 -0.999469 -0.002144634 0.3830973 -0.4880055 -0.7842749 0.3906723 -0.5436087 -0.742876 0.3608783 -0.5572713 -0.7478072 0.3599067 -0.5593248 -0.7467415 0.3182247 -0.5753754 -0.7534428 0.3170806 -0.5774279 -0.7523542 0.2752816 -0.590506 -0.7586322 0.2739569 -0.5925726 -0.7574994 0.2315208 -0.602967 -0.7634324 0.2300313 -0.6050152 -0.7622613 0.1894513 -0.6123543 -0.7675482 0.1881281 -0.61395 -0.7665985 0.1828688 -0.259235 -0.9483439 0.182535 -0.2598345 -0.9482442 0.2080019 -0.2535926 -0.944683 0.2074857 -0.2546648 -0.9445081 0.2326589 -0.2467845 -0.940727 0.2320212 -0.2483514 -0.9404721 0.2570382 -0.2387178 -0.9364535 0.2563552 -0.2407788 -0.9361131 0.2385634 -0.2488593 -0.9386994 0.2782153 -0.1629194 -0.946601 0.1478627 -0.2654951 -0.9527061 0.1475344 -0.2648903 -0.9529254 0.1300323 -0.09381127 -0.9870619 0.1215727 -0.08812958 -0.9886624 0.3243367 -0.3518522 -0.8780692 0.3196388 -0.4015625 -0.8582416 0.3136667 -0.4042754 -0.8591709 0.3136432 -0.4043356 -0.8591511 0.2797651 -0.4173809 -0.8645952 0.2796183 -0.4176946 -0.8644911 0.2455846 -0.4283457 -0.8696023 0.2452736 -0.428916 -0.8694089 0.2107511 -0.4373747 -0.8742353 0.2102543 -0.4381701 -0.8739566 0.1626941 -0.446589 -0.8798232 0.1738278 -0.4155524 -0.8928047 0.1475519 -0.4489687 -0.8812807 0.1536014 -0.6183539 -0.7707432 0.1525535 -0.6194779 -0.7700484 0.0541197 -0.7719194 -0.6334125 0.05345726 -0.7727443 -0.6324622 0.0502963 -0.7728216 -0.6326271 0.05674147 -0.6255789 -0.7780948 0.05656856 -0.6258525 -0.7778873 0.0605517 -0.4535595 -0.8891665 0.06038945 -0.4538685 -0.88902 0.06181639 -0.2686704 -0.9612466 0.06166535 -0.2690047 -0.9611628 0.06079852 -0.08714252 -0.9943388 0.05626136 -0.09905618 -0.99349 0.05175715 -0.8953648 -0.4423156 0.06007421 -0.8854234 -0.4608865 0.04194349 -0.885957 -0.4618667 0.05045056 -0.7730408 -0.6323469 0.06715959 -0.7727456 -0.6311527 0.07511484 -0.6255446 -0.7765641 0.07528823 -0.6252622 -0.7767747 0.08010435 -0.4535571 -0.88762 0.08013749 -0.4534923 -0.8876501 0.08172917 -0.2686997 -0.9597504 0.0816518 -0.268875 -0.9597079 0.08041584 -0.09198969 -0.9925075 0.09990149 -0.08075898 -0.9917145 0.05628353 -0.8858576 -0.4605307 0.06689041 -0.7723353 -0.6316834 0.1065251 -0.7708448 -0.6280532 0.1116519 -0.6239439 -0.7734521 0.1122823 -0.6228069 -0.7742766 0.1130062 -0.452333 -0.8846606 0.1132318 -0.4518433 -0.884882 0.1097999 -0.2679025 -0.9571689 0.1096999 -0.2681549 -0.9571097 0.1029716 -0.08770614 -0.99081 0.1173309 -0.08648121 -0.9893202 0.5135502 -0.854752 -0.07526761 0.4987249 -0.8650126 -0.05501568 0.4658142 -0.8793218 -0.09904712 0.4438161 -0.891892 -0.08692359 0.4309569 -0.8981338 -0.08736073 0.4040848 -0.9100946 -0.09188783 0.3785951 -0.9237752 -0.05749076 0.3432934 -0.9339394 -0.09953314 0.3235329 -0.9419854 -0.08938682 0.3104149 -0.9464545 -0.08869278 0.2820121 -0.9549016 -0.09290969 0.2608604 -0.9631108 -0.06610232 0.2216114 -0.9698408 -0.1014748 0.2089792 -0.9734794 -0.09308874 0.1924265 -0.9772224 -0.08949059 0.1634132 -0.9821439 -0.09321713 0.147813 -0.9862079 -0.07446694 0.1169443 -0.9883088 -0.09782564 0.1046139 -0.9904435 -0.08987534 0.09198629 -0.9915701 -0.09125477 0.5022776 -0.722301 -0.4753931 0.4832025 -0.7587595 -0.4368057 0.4680142 -0.766759 -0.4393669 0.4647139 -0.7715962 -0.4343734 0.4129163 -0.7956312 -0.4432507 0.4094627 -0.7999836 -0.4385961 0.3571275 -0.8201438 -0.4470168 0.3535518 -0.8240803 -0.4425979 0.3013194 -0.8404178 -0.4504493 0.2976635 -0.8439757 -0.4462078 0.2447012 -0.8569432 -0.4536184 0.2410396 -0.8601082 -0.4495706 0.1907827 -0.869229 -0.4561172 0.1876674 -0.8715854 -0.4529015 0.1459049 -0.876943 -0.4579114 0.1434969 -0.8785498 -0.4555864 0.09518891 -0.8824325 -0.4607081 0.08264011 -0.9581359 -0.274128 0.04301893 -0.9597023 -0.2777064 0.02979034 -0.9952207 -0.09299552 0.03313773 -0.9944796 -0.09956049 0.5209618 -0.7913357 -0.3199792 0.5086982 -0.820716 -0.260099 0.4746761 -0.8389697 -0.2661063 0.4699143 -0.843872 -0.2589607 0.4155864 -0.8690908 -0.2682706 0.410769 -0.8733922 -0.2616387 0.3560341 -0.8944821 -0.2704467 0.3512106 -0.8982441 -0.2642134 0.2967489 -0.9152792 -0.2724043 0.2919655 -0.9185538 -0.2664867 0.2368385 -0.9320513 -0.2742043 0.2321834 -0.9348438 -0.2686224 0.1800847 -0.9443117 -0.2753994 0.1761907 -0.9463225 -0.2709809 0.1333348 -0.9518321 -0.2761115 0.130355 -0.9531644 -0.2729196 0.08129572 -0.9570838 -0.2781754 0.06726115 -0.9929059 -0.09805029 0.06243354 -0.9941069 -0.08861988 0.4741286 -0.6241637 -0.6209846 0.4418268 -0.6655099 -0.6015692 0.4439178 -0.6644183 -0.6012364 0.4419626 -0.6682953 -0.5983731 0.3946155 -0.6902566 -0.6064854 0.3924785 -0.6938267 -0.6037924 0.3445343 -0.7122913 -0.6115041 0.3422202 -0.7156303 -0.6088996 0.2942452 -0.7306376 -0.6161075 0.2917757 -0.7337709 -0.613553 0.2430795 -0.7456954 -0.6203634 0.2405048 -0.7485948 -0.6178699 0.1941173 -0.756999 -0.6239157 0.1918869 -0.7592042 -0.6219232 0.1529154 -0.7641897 -0.6266027 0.1511735 -0.7657181 -0.6251579 0.1056076 -0.7694219 -0.6299501 0.09636521 -0.8838596 -0.4577183 0.05591338 -0.8854259 -0.4614052 0.04346412 -0.9600324 -0.2764934 0.03213012 -0.9602485 -0.2772912 0.04048848 -0.9554054 -0.2925084 0.06944453 -0.9711766 -0.2280206 0.6427878 0.7660444 0 0.6427875 0.7660446 0 0.6427874 0.7660446 0 0.6430706 0.7658068 -4.82051e-5 0.6430433 0.7658298 -4.4084e-5 0.6427159 0.7661046 1.22022e-5 0.6427787 0.7660518 2.23408e-7 0.6428284 0.7660102 -1.12058e-5 0.6427878 0.7660444 -1.63474e-7 0.6427875 0.7660446 0 0.6427876 0.7660444 0 0.6427876 0.7660445 0 0.6427876 0.7660444 0 0.642793 0.7660399 -3.35566e-6 0.6439422 0.7650741 -2.65169e-4 0.643661 0.7653108 -2.06792e-4 0.6428147 0.7660218 -1.16633e-6 0.642735 0.7660886 5.26221e-7 0.6426503 0.7661596 3.4051e-6 0.6428956 0.7659539 -9.21098e-6 0.6423875 0.76638 3.32448e-5 0.6427531 0.7660735 -8.62846e-6 0.6427878 0.7660443 7.82067e-7 0.6427877 0.7660443 8.16236e-7 0.6428152 0.7660214 3.42457e-5 0.6433842 0.7655429 8.38541e-4 0.6429614 0.7658986 2.22877e-4 0.6428192 0.7660179 3.47106e-5 0.6425273 0.7662628 -3.19087e-4 0.6436457 0.7653227 0.001187801 0.6428729 0.7659728 2.54912e-4 0.6423 0.7664533 -4.02822e-4 0.640983 0.7675526 -0.001983344 0.6427937 0.7660393 1.17602e-5 0.6426845 0.7661311 -8.67738e-5 0.643022 0.7658478 1.99003e-4 0.6427083 0.766111 -1.10949e-4 0.4544334 -0.8907806 5.13938e-4 0.4939448 -0.8694922 -0.001414835 0.5116872 -0.8591719 1.13143e-6 0.3355137 -0.9420353 -1.70718e-4 0.3152286 -0.949015 0.001134634 0.3923499 -0.9198135 -0.002157211 0.3730512 -0.9278107 2.74985e-4 0.4253924 -0.905009 -1.3161e-5 0.4233086 -0.9059856 0 0.4362804 -0.8998107 1.29166e-7 0.30881 -0.9511237 0 0.2722344 -0.962231 -2.49212e-7 0.3020205 -0.9532984 0.002402961 0.2141927 -0.9767839 -0.003821492 0.2545074 -0.9670701 0.001176059 0.08774107 -0.9961434 2.76174e-5 0.08390206 -0.996474 0 0.1092157 -0.994018 -2.53015e-4 0.09651803 -0.9953311 5.27264e-4 0.156862 -0.9876199 -0.001065015 0.1409159 -0.9900214 6.3538e-4 0.190777 -0.9816334 -1.01434e-4 0.1843559 -0.9828596 0 0.2006332 -0.9796664 0 0.0549069 -0.9984914 -2.38204e-7 0.05529314 -0.9984701 -4.19864e-5 0.02550089 -0.9996747 1.52223e-5 0.02455323 -0.9996985 -6.50094e-6 0.03248018 -0.9994713 -0.001439332 0.01664036 -0.9998615 -7.95686e-5 0.01600545 -0.9998719 0 0.02110886 -0.9997771 0 0.02816516 -0.9996033 -1.56463e-4 1 0 0 1 0 0 1 0 0 1 0 0 1 0 0 1 0 0 1 0 0 1 0 0 1 0 0 1 0 0 1 0 0 1 0 0 1 0 0 1 0 0 1 0 0 1 0 0 1 0 0 1 0 0 1 0 0 1 0 0 1 0 0 1 0 0 1 0 0 1 0 0 -1 0 0 -1 0 0 -1 0 0 -1 0 0 -1 0 0 -1 0 0 -1 0 0 -1 0 0 -1 0 0 -1 0 0 -1 0 0 -1 0 0 -1 0 0 -1 0 0 -1 0 0 -1 0 0 -1 0 0 -1 0 0 -1 0 0 -1 0 0 -1 0 0 -1 0 0 -1 0 0 -1 0 0 -1 0 0 -1 0 0 0 -1 0 0 -1 0 0 -0.5184153 0.855129 0 -0.5184153 0.855129 0 -0.8164967 0.5773501 0 -0.8164967 0.5773501 0 -0.9790284 0.2037241 0 -0.9790284 0.2037241 0 -1 0 0 -1 0 0 -1 0 0 -1 0 0 -0.9790284 -0.2037242 0 -0.9790284 -0.2037242 0 -0.8164967 -0.5773501 0 -0.8164967 -0.5773501 0 -0.5184153 -0.855129 0 -0.5184153 -0.855129 0 0 1 0 0 1 0 0.9876883 0.1564348 0 0.9876883 0.1564348 0 0.8910068 0.45399 0 0.8910068 0.45399 0 0.7071062 0.7071074 0 0.7071062 0.7071074 0 0.4539912 0.8910062 0 0.4539912 0.8910062 0 0.1564336 0.9876885 0 0.1564336 0.9876885 0 0.1564348 -0.9876883 0 0.1564348 -0.9876883 0 0.4539902 -0.8910067 0 0.4539902 -0.8910067 0 0.7071062 -0.7071074 0 0.7071062 -0.7071074 0 0.8910068 -0.45399 0 0.8910068 -0.45399 0 0.9876883 -0.1564348 0 0.9876883 -0.1564348 0 1 0 0 1 0 0 0 -1 0 0 -1 0 -0.9659259 -0.2588188 0 -0.9659259 -0.2588188 0 -0.7071068 -0.7071068 0 -0.7071068 -0.7071068 0 -0.2588188 -0.9659259 0 -0.2588188 -0.9659259 0 -0.9659258 0.2588192 0 -0.9659258 0.2588192 0 -0.7071068 0.7071068 0 -0.7071068 0.7071068 0 -0.2588188 0.9659259 0 -0.2588188 0.9659259 1 0 0 1 0 0 1 0 0 1 0 0 1 0 0 1 0 0 1 0 0 1 0 0 1 0 0 1 0 0 1 0 0 1 0 0 1 0 0 1 0 0 1 0 0 1 0 0 1 0 0 1 0 0 1 0 0 1 0 0 1 0 0 1 0 0 1 0 0 1 0 0 1 0 0 1 0 0</float_array>
          <technique_common>
            <accessor source="#link_tip-mesh-normals-array" count="948" stride="3">
              <param name="X" type="float"/>
              <param name="Y" type="float"/>
              <param name="Z" type="float"/>
            </accessor>
          </technique_common>
        </source>
        <vertices id="link_tip-mesh-vertices">
          <input semantic="POSITION" source="#link_tip-mesh-positions"/>
        </vertices>
        <triangles material="base-material" count="948">
          <input semantic="VERTEX" source="#link_tip-mesh-vertices" offset="0"/>
          <input semantic="NORMAL" source="#link_tip-mesh-normals" offset="1"/>
          <p>0 0 1 0 2 0 2 1 1 1 3 1 4 2 5 2 3 2 3 3 5 3 6 3 3 4 6 4 2 4 7 5 8 5 9 5 9 6 8 6 10 6 9 7 10 7 4 7 4 8 10 8 11 8 4 9 11 9 5 9 7 10 9 10 12 10 12 11 9 11 13 11 12 12 13 12 14 12 15 13 16 13 17 13 15 14 17 14 18 14 18 15 17 15 19 15 18 16 19 16 13 16 13 17 19 17 20 17 13 18 20 18 14 18 21 19 22 19 23 19 23 20 22 20 24 20 23 21 24 21 25 21 25 22 24 22 26 22 25 23 26 23 27 23 27 24 26 24 28 24 27 25 28 25 29 25 29 26 28 26 30 26 29 27 30 27 31 27 31 28 30 28 32 28 31 29 32 29 33 29 33 30 32 30 34 30 33 31 34 31 35 31 35 32 34 32 36 32 35 33 36 33 37 33 37 34 36 34 38 34 37 35 38 35 39 35 39 36 38 36 40 36 39 37 40 37 41 37 41 38 40 38 42 38 41 39 42 39 43 39 43 40 42 40 44 40 43 41 44 41 21 41 21 42 44 42 22 42 45 43 46 43 47 43 47 44 46 44 48 44 47 45 48 45 49 45 49 46 48 46 50 46 49 47 50 47 51 47 51 48 50 48 52 48 51 49 52 49 53 49 53 50 52 50 54 50 53 51 54 51 55 51 55 52 54 52 56 52 55 53 56 53 57 53 57 54 56 54 58 54 57 55 58 55 59 55 59 56 58 56 60 56 59 57 60 57 61 57 61 58 60 58 62 58 61 59 62 59 63 59 63 60 62 60 64 60 63 61 64 61 65 61 65 62 64 62 66 62 65 63 66 63 67 63 67 64 66 64 68 64 67 65 68 65 45 65 45 66 68 66 46 66 69 67 70 67 71 67 71 68 70 68 72 68 71 69 72 69 73 69 73 70 72 70 74 70 74 71 72 71 75 71 74 72 75 72 76 72 74 73 76 73 77 73 77 74 76 74 78 74 78 75 76 75 79 75 78 76 79 76 80 76 80 77 79 77 81 77 81 78 79 78 82 78 81 79 82 79 83 79 83 80 82 80 84 80 83 81 84 81 85 81 86 82 87 82 88 82 88 83 87 83 89 83 88 84 89 84 90 84 90 85 89 85 91 85 91 86 89 86 92 86 91 87 92 87 93 87 91 88 93 88 94 88 94 89 93 89 95 89 94 90 95 90 96 90 96 91 95 91 97 91 96 92 97 92 98 92 98 93 97 93 99 93 98 94 99 94 100 94 100 95 99 95 101 95 101 96 99 96 102 96 101 97 102 97 103 97 104 98 105 98 106 98 106 99 105 99 107 99 106 100 107 100 108 100 109 101 110 101 104 101 104 102 110 102 111 102 104 103 111 103 105 103 112 104 113 104 114 104 114 105 113 105 115 105 114 106 115 106 116 106 116 107 115 107 117 107 116 108 117 108 109 108 109 109 117 109 118 109 109 110 118 110 110 110 112 111 114 111 119 111 119 112 114 112 120 112 119 113 120 113 121 113 121 114 120 114 122 114 122 115 120 115 123 115 122 116 123 116 124 116 124 117 123 117 125 117 125 118 123 118 126 118 125 119 126 119 127 119 128 120 129 120 84 120 84 121 129 121 1 121 84 122 1 122 0 122 0 123 130 123 84 123 84 124 130 124 131 124 84 125 131 125 85 125 128 126 84 126 82 126 128 127 82 127 132 127 132 128 82 128 79 128 132 129 79 129 133 129 133 130 79 130 76 130 133 131 76 131 134 131 134 132 76 132 75 132 134 133 75 133 135 133 135 134 75 134 72 134 135 135 72 135 136 135 136 136 72 136 70 136 136 137 70 137 137 137 69 138 103 138 70 138 70 139 103 139 102 139 70 140 102 140 137 140 137 141 102 141 138 141 138 142 102 142 99 142 138 143 99 143 139 143 139 144 99 144 97 144 139 145 97 145 140 145 140 146 97 146 95 146 140 147 95 147 141 147 141 148 95 148 93 148 141 149 93 149 142 149 142 150 93 150 92 150 142 151 92 151 143 151 143 152 92 152 89 152 143 153 89 153 144 153 144 154 89 154 87 154 144 155 87 155 145 155 146 156 145 156 126 156 126 157 145 157 87 157 127 158 126 158 147 158 147 159 126 159 87 159 147 160 87 160 148 160 148 161 87 161 86 161 146 162 126 162 123 162 146 163 123 163 149 163 149 164 123 164 120 164 149 165 120 165 150 165 150 166 120 166 114 166 150 167 114 167 151 167 151 168 114 168 116 168 151 169 116 169 152 169 152 170 116 170 109 170 152 171 109 171 153 171 153 172 109 172 104 172 153 173 104 173 154 173 154 174 104 174 106 174 154 175 106 175 155 175 108 176 16 176 106 176 106 177 16 177 15 177 106 178 15 178 155 178 155 179 15 179 156 179 156 180 15 180 18 180 156 181 18 181 157 181 157 182 18 182 13 182 157 183 13 183 158 183 158 184 13 184 9 184 158 185 9 185 159 185 159 186 9 186 4 186 159 187 4 187 160 187 160 188 4 188 3 188 160 189 3 189 161 189 161 190 3 190 1 190 161 191 1 191 129 191 136 192 137 192 132 192 128 193 156 193 129 193 129 194 156 194 157 194 129 195 157 195 161 195 132 196 137 196 128 196 128 197 137 197 145 197 128 198 145 198 156 198 156 199 145 199 146 199 156 200 146 200 149 200 137 201 138 201 145 201 145 202 138 202 139 202 145 203 139 203 140 203 140 204 141 204 145 204 145 205 141 205 142 205 145 206 142 206 144 206 144 207 142 207 143 207 149 208 150 208 156 208 156 209 150 209 151 209 156 210 151 210 155 210 155 211 151 211 152 211 155 212 152 212 154 212 154 213 152 213 153 213 158 214 159 214 157 214 157 215 159 215 160 215 157 216 160 216 161 216 133 217 134 217 132 217 132 218 134 218 135 218 132 219 135 219 136 219 73 220 74 220 43 220 25 221 103 221 23 221 23 222 103 222 69 222 23 223 69 223 21 223 81 224 83 224 39 224 39 225 83 225 85 225 39 226 85 226 37 226 37 227 85 227 131 227 37 228 131 228 35 228 21 229 69 229 43 229 43 230 69 230 71 230 43 231 71 231 73 231 98 232 100 232 47 232 47 233 100 233 101 233 47 234 101 234 45 234 45 235 101 235 103 235 45 236 103 236 67 236 43 237 74 237 77 237 43 238 77 238 41 238 41 239 77 239 78 239 41 240 78 240 39 240 39 241 78 241 80 241 39 242 80 242 81 242 88 243 51 243 86 243 86 244 51 244 53 244 86 245 53 245 148 245 53 246 55 246 148 246 148 247 55 247 57 247 148 248 57 248 131 248 131 249 57 249 59 249 131 250 59 250 61 250 67 251 103 251 65 251 65 252 103 252 25 252 65 253 25 253 63 253 63 254 25 254 27 254 63 255 27 255 61 255 88 256 90 256 51 256 51 257 90 257 91 257 51 258 91 258 49 258 49 259 91 259 94 259 27 260 29 260 61 260 61 261 29 261 31 261 61 262 31 262 131 262 131 263 31 263 33 263 131 264 33 264 35 264 49 265 94 265 96 265 49 266 96 266 47 266 47 267 96 267 98 267 162 268 163 268 164 268 165 269 166 269 167 269 168 270 169 270 170 270 171 271 172 271 173 271 174 272 175 272 176 272 177 273 178 273 179 273 180 274 181 274 182 274 6 275 5 275 183 275 11 276 10 276 184 276 17 277 185 277 19 277 19 278 185 278 20 278 20 279 185 279 14 279 14 280 185 280 186 280 14 281 186 281 12 281 12 282 186 282 7 282 7 283 186 283 187 283 7 284 187 284 8 284 188 285 189 285 180 285 178 286 190 286 179 286 179 287 190 287 191 287 179 288 191 288 192 288 192 289 191 289 193 289 192 290 193 290 194 290 194 291 193 291 195 291 194 292 195 292 196 292 196 293 195 293 197 293 196 294 197 294 198 294 198 295 197 295 199 295 198 296 199 296 200 296 200 297 199 297 201 297 202 298 203 298 204 298 204 299 203 299 205 299 204 300 205 300 206 300 206 301 205 301 207 301 206 302 207 302 208 302 208 303 207 303 209 303 210 304 211 304 212 304 212 305 211 305 213 305 212 306 213 306 209 306 209 307 213 307 214 307 209 308 214 308 208 308 215 309 216 309 217 309 217 310 216 310 218 310 217 311 218 311 219 311 219 312 218 312 220 312 219 313 220 313 221 313 221 314 220 314 222 314 221 315 222 315 210 315 210 316 222 316 223 316 210 317 223 317 211 317 17 318 16 318 224 318 225 319 226 319 227 319 227 320 226 320 228 320 227 321 228 321 229 321 229 322 228 322 230 322 229 323 230 323 231 323 231 324 230 324 232 324 231 325 232 325 233 325 233 326 232 326 234 326 233 327 234 327 235 327 235 328 234 328 236 328 235 329 236 329 237 329 237 330 236 330 238 330 237 331 238 331 239 331 239 332 238 332 170 332 239 333 170 333 240 333 240 334 170 334 169 334 241 335 217 335 242 335 242 336 217 336 219 336 242 337 219 337 243 337 243 338 219 338 221 338 243 339 221 339 244 339 244 340 221 340 210 340 244 341 210 341 245 341 245 342 210 342 212 342 245 343 212 343 246 343 246 344 212 344 209 344 246 345 209 345 247 345 247 346 209 346 207 346 247 347 207 347 167 347 167 348 207 348 205 348 167 349 205 349 165 349 165 350 205 350 203 350 226 351 241 351 228 351 228 352 241 352 242 352 228 353 242 353 230 353 230 354 242 354 243 354 230 355 243 355 232 355 232 356 243 356 244 356 232 357 244 357 234 357 234 358 244 358 245 358 234 359 245 359 236 359 236 360 245 360 246 360 236 361 246 361 238 361 238 362 246 362 247 362 238 363 247 363 170 363 170 364 247 364 167 364 170 365 167 365 168 365 168 366 167 366 166 366 10 367 8 367 184 367 184 368 8 368 187 368 184 369 187 369 248 369 248 370 187 370 186 370 248 371 186 371 249 371 249 372 186 372 185 372 249 373 185 373 250 373 250 374 185 374 17 374 250 375 17 375 251 375 251 376 17 376 224 376 251 377 224 377 252 377 180 378 182 378 188 378 188 379 182 379 253 379 188 380 253 380 254 380 5 381 11 381 183 381 183 382 11 382 184 382 183 383 184 383 255 383 255 384 184 384 248 384 255 385 248 385 256 385 256 386 248 386 249 386 256 387 249 387 257 387 257 388 249 388 250 388 257 389 250 389 258 389 258 390 250 390 251 390 258 391 251 391 164 391 164 392 251 392 252 392 164 393 252 393 162 393 2 394 6 394 259 394 259 395 6 395 183 395 259 396 183 396 260 396 260 397 183 397 255 397 260 398 255 398 261 398 261 399 255 399 256 399 261 400 256 400 225 400 225 401 256 401 257 401 225 402 257 402 226 402 226 403 257 403 258 403 226 404 258 404 241 404 241 405 258 405 164 405 241 406 164 406 217 406 217 407 164 407 163 407 217 408 163 408 215 408 172 409 174 409 173 409 173 410 174 410 176 410 173 411 176 411 262 411 262 412 176 412 263 412 262 413 263 413 264 413 264 414 263 414 265 414 264 415 265 415 266 415 266 416 265 416 267 416 266 417 267 417 268 417 268 418 267 418 269 418 268 419 269 419 270 419 270 420 269 420 254 420 270 421 254 421 271 421 271 422 254 422 253 422 175 423 177 423 176 423 176 424 177 424 179 424 176 425 179 425 263 425 263 426 179 426 192 426 263 427 192 427 265 427 265 428 192 428 194 428 265 429 194 429 267 429 267 430 194 430 196 430 267 431 196 431 269 431 269 432 196 432 198 432 269 433 198 433 254 433 254 434 198 434 200 434 254 435 200 435 188 435 188 436 200 436 201 436 188 437 201 437 189 437 0 438 2 438 181 438 181 439 2 439 259 439 181 440 259 440 182 440 182 441 259 441 260 441 182 442 260 442 253 442 253 443 260 443 261 443 253 444 261 444 271 444 271 445 261 445 225 445 271 446 225 446 270 446 270 447 225 447 227 447 270 448 227 448 268 448 268 449 227 449 229 449 268 450 229 450 266 450 266 451 229 451 231 451 266 452 231 452 264 452 264 453 231 453 233 453 264 454 233 454 262 454 262 455 233 455 235 455 262 456 235 456 173 456 173 457 235 457 237 457 173 458 237 458 171 458 171 459 237 459 239 459 171 460 239 460 272 460 272 461 239 461 240 461 190 462 273 462 191 462 191 463 273 463 193 463 274 464 275 464 201 464 201 465 199 465 274 465 274 466 199 466 197 466 274 467 197 467 273 467 273 468 197 468 195 468 273 469 195 469 193 469 181 470 180 470 275 470 275 471 180 471 189 471 275 472 189 472 201 472 276 473 277 473 0 473 275 474 278 474 181 474 181 475 278 475 279 475 181 476 279 476 0 476 0 477 279 477 280 477 0 478 280 478 276 478 277 479 281 479 0 479 0 480 281 480 282 480 0 481 282 481 283 481 283 482 284 482 0 482 0 483 284 483 285 483 0 484 285 484 130 484 274 485 286 485 275 485 275 486 286 486 287 486 275 487 287 487 278 487 288 488 287 488 286 488 131 489 130 489 288 489 288 490 130 490 285 490 288 491 285 491 284 491 284 492 283 492 288 492 288 493 283 493 282 493 288 494 282 494 281 494 281 495 277 495 288 495 288 496 277 496 276 496 288 497 276 497 280 497 280 498 279 498 288 498 288 499 279 499 278 499 288 500 278 500 287 500 289 501 290 501 291 501 291 502 290 502 292 502 293 503 294 503 295 503 295 504 294 504 290 504 295 505 290 505 296 505 296 506 290 506 289 506 297 507 298 507 299 507 299 508 300 508 297 508 297 509 300 509 301 509 297 510 301 510 302 510 302 511 301 511 303 511 302 512 303 512 304 512 304 513 303 513 294 513 304 514 294 514 305 514 305 515 294 515 293 515 147 516 306 516 127 516 127 517 306 517 307 517 307 518 308 518 127 518 127 519 308 519 309 519 127 520 309 520 310 520 310 521 311 521 127 521 127 522 311 522 312 522 127 523 312 523 313 523 298 524 297 524 312 524 312 525 297 525 314 525 312 526 314 526 313 526 300 527 315 527 301 527 301 528 315 528 316 528 301 529 316 529 303 529 303 530 316 530 317 530 303 531 317 531 294 531 294 532 317 532 318 532 294 533 318 533 290 533 315 534 300 534 319 534 319 535 300 535 299 535 319 536 299 536 298 536 298 537 312 537 319 537 319 538 312 538 311 538 319 539 311 539 310 539 310 540 309 540 319 540 319 541 309 541 308 541 319 542 308 542 307 542 307 543 306 543 319 543 319 544 306 544 147 544 319 545 147 545 148 545 318 546 317 546 319 546 319 547 317 547 316 547 319 548 316 548 315 548 320 549 321 549 322 549 323 550 324 550 325 550 118 551 117 551 326 551 313 552 314 552 327 552 297 553 302 553 328 553 329 554 330 554 331 554 332 555 333 555 334 555 335 556 336 556 337 556 336 557 335 557 338 557 339 558 340 558 341 558 342 559 343 559 344 559 345 560 346 560 347 560 348 561 289 561 349 561 349 562 289 562 291 562 349 563 291 563 350 563 350 564 291 564 292 564 350 565 292 565 351 565 351 566 292 566 352 566 351 567 352 567 353 567 293 568 295 568 348 568 348 569 295 569 296 569 348 570 296 570 289 570 127 571 313 571 125 571 125 572 313 572 327 572 125 573 327 573 124 573 124 574 327 574 354 574 355 575 121 575 354 575 354 576 121 576 122 576 354 577 122 577 124 577 115 578 113 578 356 578 356 579 113 579 112 579 356 580 112 580 355 580 355 581 112 581 119 581 355 582 119 582 121 582 111 583 110 583 322 583 105 584 325 584 107 584 107 585 325 585 324 585 107 586 324 586 108 586 333 587 335 587 334 587 334 588 335 588 337 588 334 589 337 589 357 589 357 590 337 590 358 590 357 591 358 591 359 591 359 592 358 592 360 592 359 593 360 593 361 593 361 594 360 594 362 594 361 595 362 595 363 595 363 596 362 596 364 596 363 597 364 597 365 597 365 598 364 598 366 598 367 599 348 599 368 599 368 600 348 600 349 600 368 601 349 601 369 601 369 602 349 602 350 602 369 603 350 603 370 603 370 604 350 604 351 604 370 605 351 605 331 605 331 606 351 606 353 606 331 607 353 607 329 607 329 608 353 608 352 608 367 609 371 609 348 609 348 610 371 610 372 610 348 611 372 611 293 611 293 612 372 612 305 612 330 613 332 613 331 613 331 614 332 614 334 614 331 615 334 615 370 615 370 616 334 616 357 616 370 617 357 617 369 617 369 618 357 618 359 618 369 619 359 619 368 619 368 620 359 620 361 620 368 621 361 621 367 621 367 622 361 622 363 622 367 623 363 623 371 623 371 624 363 624 365 624 371 625 365 625 373 625 373 626 365 626 366 626 373 627 366 627 374 627 117 628 115 628 326 628 326 629 115 629 356 629 326 630 356 630 375 630 375 631 356 631 355 631 375 632 355 632 376 632 376 633 355 633 354 633 376 634 354 634 377 634 377 635 354 635 327 635 377 636 327 636 328 636 328 637 327 637 314 637 328 638 314 638 297 638 110 639 118 639 322 639 322 640 118 640 326 640 322 641 326 641 320 641 320 642 326 642 375 642 320 643 375 643 378 643 378 644 375 644 376 644 378 645 376 645 379 645 379 646 376 646 377 646 379 647 377 647 380 647 380 648 377 648 328 648 380 649 328 649 381 649 381 650 328 650 302 650 381 651 302 651 304 651 321 652 320 652 382 652 382 653 320 653 378 653 382 654 378 654 374 654 374 655 378 655 379 655 374 656 379 656 373 656 373 657 379 657 380 657 373 658 380 658 371 658 371 659 380 659 381 659 371 660 381 660 372 660 372 661 381 661 304 661 372 662 304 662 305 662 346 663 383 663 347 663 347 664 383 664 384 664 347 665 384 665 385 665 384 666 386 666 385 666 385 667 386 667 387 667 385 668 387 668 388 668 388 669 387 669 389 669 388 670 389 670 390 670 389 671 391 671 390 671 390 672 391 672 392 672 390 673 392 673 393 673 393 674 392 674 394 674 393 675 394 675 395 675 394 676 396 676 395 676 395 677 396 677 397 677 395 678 397 678 398 678 398 679 397 679 399 679 398 680 399 680 400 680 400 681 399 681 401 681 400 682 401 682 402 682 340 683 342 683 341 683 341 684 342 684 344 684 341 685 344 685 403 685 403 686 344 686 404 686 403 687 404 687 405 687 405 688 404 688 406 688 405 689 406 689 407 689 407 690 406 690 408 690 407 691 408 691 409 691 409 692 408 692 410 692 409 693 410 693 411 693 411 694 410 694 412 694 411 695 412 695 413 695 413 696 412 696 414 696 413 697 414 697 415 697 415 698 414 698 416 698 415 699 416 699 417 699 417 700 416 700 418 700 417 701 418 701 325 701 325 702 418 702 419 702 325 703 419 703 323 703 343 704 345 704 344 704 344 705 345 705 347 705 344 706 347 706 404 706 404 707 347 707 385 707 404 708 385 708 406 708 406 709 385 709 388 709 406 710 388 710 408 710 408 711 388 711 390 711 408 712 390 712 410 712 410 713 390 713 393 713 410 714 393 714 412 714 412 715 393 715 395 715 412 716 395 716 414 716 414 717 395 717 398 717 414 718 398 718 416 718 416 719 398 719 400 719 416 720 400 720 418 720 418 721 400 721 402 721 418 722 402 722 419 722 338 723 339 723 336 723 336 724 339 724 341 724 336 725 341 725 337 725 337 726 341 726 403 726 337 727 403 727 358 727 358 728 403 728 405 728 358 729 405 729 360 729 360 730 405 730 407 730 360 731 407 731 362 731 362 732 407 732 409 732 362 733 409 733 364 733 364 734 409 734 411 734 364 735 411 735 366 735 366 736 411 736 413 736 366 737 413 737 374 737 374 738 413 738 415 738 374 739 415 739 382 739 382 740 415 740 417 740 382 741 417 741 321 741 321 742 417 742 325 742 321 743 325 743 322 743 322 744 325 744 105 744 322 745 105 745 111 745 292 746 290 746 318 746 319 747 148 747 131 747 202 748 286 748 274 748 202 749 333 749 332 749 332 750 330 750 202 750 202 751 330 751 329 751 202 752 329 752 352 752 352 753 292 753 202 753 202 754 292 754 318 754 202 755 318 755 286 755 286 756 318 756 319 756 286 757 319 757 288 757 288 758 319 758 131 758 202 759 340 759 339 759 346 760 345 760 383 760 383 761 345 761 343 761 383 762 343 762 202 762 202 763 343 763 342 763 202 764 342 764 340 764 339 765 338 765 202 765 202 766 338 766 335 766 202 767 335 767 333 767 274 768 273 768 202 768 202 769 273 769 190 769 202 770 190 770 178 770 169 771 175 771 174 771 169 772 168 772 175 772 175 773 168 773 166 773 175 774 166 774 165 774 174 775 172 775 169 775 169 776 172 776 171 776 169 777 171 777 240 777 240 778 171 778 272 778 178 779 177 779 202 779 202 780 177 780 175 780 202 781 175 781 203 781 203 782 175 782 165 782 206 783 384 783 204 783 204 784 384 784 383 784 204 785 383 785 202 785 213 786 391 786 214 786 214 787 391 787 389 787 214 788 389 788 208 788 208 789 389 789 387 789 208 790 387 790 206 790 206 791 387 791 386 791 206 792 386 792 384 792 213 793 211 793 391 793 391 794 211 794 223 794 391 795 223 795 392 795 392 796 223 796 222 796 392 797 222 797 394 797 216 798 215 798 401 798 401 799 215 799 402 799 216 800 401 800 218 800 218 801 401 801 399 801 218 802 399 802 220 802 220 803 399 803 397 803 220 804 397 804 222 804 222 805 397 805 396 805 222 806 396 806 394 806 402 807 215 807 419 807 419 808 215 808 163 808 419 809 163 809 323 809 16 810 108 810 224 810 224 811 108 811 324 811 224 812 324 812 252 812 252 813 324 813 323 813 252 814 323 814 162 814 162 815 323 815 163 815 62 816 60 816 420 816 420 817 60 817 58 817 420 818 58 818 56 818 68 819 66 819 420 819 420 820 66 820 64 820 420 821 64 821 62 821 50 822 48 822 420 822 420 823 48 823 46 823 420 824 46 824 68 824 56 825 54 825 420 825 420 826 54 826 52 826 420 827 52 827 50 827 38 828 36 828 421 828 421 829 36 829 34 829 421 830 34 830 32 830 44 831 42 831 421 831 421 832 42 832 40 832 421 833 40 833 38 833 26 834 24 834 421 834 421 835 24 835 22 835 421 836 22 836 44 836 32 837 30 837 421 837 421 838 30 838 28 838 421 839 28 839 26 839 422 840 423 840 424 840 425 841 426 841 427 841 428 842 429 842 423 842 424 843 423 843 430 843 431 844 432 844 433 844 427 845 426 845 423 845 423 846 426 846 434 846 423 847 434 847 428 847 435 848 436 848 437 848 437 849 436 849 425 849 437 850 425 850 438 850 438 851 425 851 427 851 438 852 427 852 433 852 433 853 427 853 439 853 433 854 439 854 431 854 440 855 441 855 442 855 442 856 441 856 443 856 444 857 445 857 446 857 446 858 445 858 430 858 446 859 430 859 443 859 443 860 430 860 423 860 443 861 423 861 442 861 442 862 423 862 429 862 447 863 448 863 424 863 424 864 448 864 449 864 424 865 449 865 422 865 442 866 429 866 450 866 450 867 429 867 451 867 452 868 443 868 453 868 453 869 443 869 441 869 453 870 441 870 454 870 454 871 441 871 440 871 454 872 440 872 450 872 450 873 440 873 442 873 446 874 443 874 455 874 455 875 443 875 452 875 426 876 425 876 456 876 456 877 425 877 457 877 451 878 429 878 458 878 458 879 429 879 428 879 458 880 428 880 459 880 459 881 428 881 434 881 459 882 434 882 456 882 456 883 434 883 426 883 424 884 430 884 460 884 460 885 430 885 461 885 462 886 423 886 463 886 463 887 423 887 422 887 463 888 422 888 464 888 464 889 422 889 449 889 464 890 449 890 465 890 465 891 449 891 448 891 465 892 448 892 466 892 466 893 448 893 447 893 466 894 447 894 460 894 460 895 447 895 424 895 467 896 438 896 468 896 468 897 438 897 433 897 468 898 433 898 469 898 469 899 433 899 432 899 469 900 432 900 470 900 470 901 432 901 431 901 470 902 431 902 471 902 471 903 431 903 439 903 471 904 439 904 472 904 472 905 439 905 427 905 427 906 423 906 472 906 472 907 423 907 462 907 437 908 438 908 473 908 473 909 438 909 467 909 457 910 425 910 474 910 474 911 425 911 436 911 474 912 436 912 475 912 475 913 436 913 435 913 475 914 435 914 473 914 473 915 435 915 437 915 446 916 455 916 444 916 444 917 455 917 476 917 444 918 476 918 445 918 445 919 476 919 477 919 445 920 477 920 430 920 430 921 477 921 461 921 458 922 459 922 456 922 450 923 451 923 462 923 452 924 453 924 454 924 460 925 461 925 452 925 457 926 474 926 475 926 466 927 460 927 465 927 465 928 460 928 464 928 477 929 476 929 461 929 461 930 476 930 455 930 461 931 455 931 452 931 454 932 450 932 452 932 452 933 450 933 462 933 452 934 462 934 460 934 460 935 462 935 463 935 460 936 463 936 464 936 475 937 473 937 457 937 457 938 473 938 472 938 457 939 472 939 456 939 456 940 472 940 462 940 456 941 462 941 458 941 458 942 462 942 451 942 473 943 467 943 472 943 472 944 467 944 468 944 472 945 468 945 471 945 471 946 468 946 469 946 471 947 469 947 470 947</p>
        </triangles>
      </mesh>
    </geometry>
  </library_geometries>
  <library_visual_scenes>
    <visual_scene id="Scene" name="Scene">
      <node id="link_tip" name="link_tip" type="NODE">
        <matrix sid="transform">1 0 0 0 0 1 0 0 0 0 1 0 0 0 0 1</matrix>
        <instance_geometry url="#link_tip-mesh" name="link_tip">
          <bind_material>
            <technique_common>
              <instance_material symbol="base-material" target="#base-material"/>
            </technique_common>
          </bind_material>
        </instance_geometry>
      </node>
    </visual_scene>
  </library_visual_scenes>
  <scene>
    <instance_visual_scene url="#Scene"/>
  </scene>
</COLLADA>