<?xml version="1.0" encoding="utf-8"?>
<COLLADA xmlns="http://www.collada.org/2005/11/COLLADASchema" version="1.4.1" xmlns:xsi="http://www.w3.org/2001/XMLSchema-instance">
  <asset>
    <contributor>
      <author>Blender User</author>
      <authoring_tool>Blender 4.5.7 LTS commit date:2026-02-16, commit time:13:34, hash:a9874eeece8d</authoring_tool>
    </contributor>
    <created>2026-09-30T16:12:41</created>
    <modified>2026-09-30T16:12:41</modified>
    <unit name="meter" meter="1"/>
    <up_axis>Z_UP</up_axis>
  </asset>
  <library_effects>
    <effect id="silver-effect">
      <profile_COMMON>
        <technique sid="common">
          <lambert>
            <emission>
              <color sid="emission">0 0 0 1</color>
            </emission>
            <diffuse>
              <color sid="diffuse">0.22 0.22 0.17 1</color>
            </diffuse>
            <index_of_refraction>
              <float sid="ior">1.5</float>
            </index_of_refraction>
          </lambert>
        </technique>
      </profile_COMMON>
    </effect>
  </library_effects>
  <library_images/>
  <library_materials>
    <material id="silver-material" name="silver">
      <instance_effect url="#silver-effect"/>
    </material>
  </library_materials>
  <library_geometries>
    <geometry id="link_mount-mesh" name="link_mount">
      <mesh>
        <source id="link_mount-mesh-positions">
          <float_array id="link_mount-mesh-positions-array" count="1998">0.01958411 -0.01107746 0.01199996 0.01958411 -0.01107746 0.003999948 0.02118802 -0.007570803 0.003999948 0.02118802 -0.007570803 0.01199996 0.02216953 -0.003841817 0.003999948 0.02216953 -0.003841817 0.01199996 0.02249997 0 0.003999948 0.02249997 0 0.01199996 0.02216953 0.003841817 0.003999948 0.02216953 0.003841817 0.01199996 0.02118802 0.007570803 0.003999948 0.02118802 0.007570803 0.01199996 0.01958411 0.01107746 0.003999948 0.01958411 0.01107746 0.01199996 0.01088774 -0.01663166 0.009718716 0.01082998 -0.01712381 0.00993365 0.008203089 -0.01255822 0.009928941 0.01092451 -0.01893955 0.01014995 0.01095229 -0.01908004 0.01014906 0.01028549 -0.01946502 0.009928941 0.007499992 -0.01299035 0.01014995 0.007126927 -0.01319873 0.01009368 0.006774127 -0.0133832 0.009928941 0.007867217 -0.01277124 0.01009362 0.01081883 -0.01728564 0.009981453 0.01081818 -0.0180577 0.01011455 0.01096987 -0.01619362 0.009367763 0.008487522 -0.01236772 0.00966686 0.01097774 -0.01615822 0.009326756 0.008703351 -0.0122168 0.009324967 0.01102715 -0.01595491 0.009000241 0.008837819 -0.01211988 0.008926749 0.01105546 -0.01584917 0.008531987 0.01083016 -0.01712197 0.007067024 0.01088982 -0.01661819 0.007289946 0.008203089 -0.01255822 0.007071018 0.01097327 -0.01617813 0.00764954 0.00848782 -0.01236754 0.007333457 0.01097792 -0.01615768 0.00767374 0.008703351 -0.0122168 0.007674992 0.01103442 -0.01592707 0.008068382 0.008837401 -0.01212018 0.008071243 0.008883416 -0.01208651 0.008499979 0.007499992 -0.01299035 0.006849944 0.01082009 -0.01809102 0.00688225 0.0108205 -0.01725757 0.007026076 0.007866501 -0.01277172 0.006906092 0.01028549 -0.01946502 0.007071018 0.01095229 -0.01908004 0.006850898 0.01092433 -0.01893866 0.006850004 0.006466805 -0.01353436 0.009666681 0.009762465 -0.01976698 0.009324967 0.006228387 -0.01364576 0.009324967 0.006077289 -0.01371365 0.008927226 0.009571015 -0.01987755 0.008499979 0.006025493 -0.01373654 0.008499979 0.006077408 -0.01371365 0.008072435 0.009762465 -0.01976698 0.007674992 0.006228387 -0.01364576 0.007674992 0.007127344 -0.01319849 0.006906092 0.006774127 -0.0133832 0.007071018 0.006466686 -0.01353442 0.007333397 0.006914913 0.021411 0.01199996 0.006914913 0.021411 0.003999948 0.003294587 0.02225744 0.003999948 0.003294587 0.02225744 0.01199996 -4.15656e-4 0.02249616 0.003999948 -4.15656e-4 0.02249616 0.01199996 -0.004114568 0.02212053 0.003999948 -0.004114568 0.02212053 0.01199996 -0.007701158 0.02114099 0.003999948 -0.007701158 0.02114099 0.01199996 -0.01107746 0.01958411 0.003999948 -0.01107746 0.01958411 0.01199996 0.01095229 -0.01908004 0.01199996 0.006914913 -0.021411 0.01199996 0.006914913 -0.021411 0.003999948 0.01095229 -0.01908004 0.003999948 -0.01107746 -0.01958411 0.01199996 -0.01107746 -0.01958411 0.003999948 -0.007701158 -0.02114099 0.003999948 -0.007701158 -0.02114099 0.01199996 -0.004114568 -0.02212053 0.003999948 -0.004114568 -0.02212053 0.01199996 -4.15656e-4 -0.02249616 0.003999948 -4.15656e-4 -0.02249616 0.01199996 0.003294587 -0.02225744 0.003999948 0.003294587 -0.02225744 0.01199996 -0.02199995 -0.004716932 0.01199996 -0.02199995 -0.004716932 0.003999948 -0.02103388 -0.007989048 0.003999948 -0.02103388 -0.007989048 0.01199996 -0.01958411 -0.01107746 0.003999948 -0.01958411 -0.01107746 0.01199996 -0.01958411 0.01107746 0.01199996 -0.01958411 0.01107746 0.003999948 -0.02103388 0.007989048 0.003999948 -0.02103388 0.007989048 0.01199996 -0.02199995 0.004716932 0.003999948 -0.02199995 0.004716932 0.01199996 0.01088774 0.01663166 0.007281243 0.01082998 0.01712381 0.007066309 0.008203089 0.01255822 0.007071018 0.01095229 0.01908004 0.006850898 0.01028549 0.01946502 0.007071018 0.01092451 0.01893955 0.006850004 0.007127344 0.01319849 0.006906092 0.007499992 0.01299035 0.006849944 0.007866501 0.01277172 0.006906092 0.01081883 0.01728564 0.007018506 0.01081818 0.0180577 0.006885409 0.01096987 0.01619362 0.007632195 0.00848782 0.01236754 0.007333397 0.01097774 0.01615822 0.007673144 0.008703351 0.0122168 0.007674992 0.01102715 0.01595491 0.007999718 0.00883764 0.01212 0.008072435 0.01105546 0.01584917 0.008467972 0.01083016 0.01712197 0.009932935 0.01088982 0.01661819 0.009709954 0.008203089 0.01255822 0.009928941 0.01097327 0.01617813 0.009350359 0.008487701 0.0123676 0.009666681 0.01097792 0.01615768 0.009326219 0.008703351 0.0122168 0.009324967 0.01103442 0.01592707 0.008931577 0.008837699 0.01211994 0.008927226 0.008883416 0.01208651 0.008499979 0.007499992 0.01299035 0.01014995 0.01082009 0.01809102 0.0101177 0.0108205 0.01725757 0.009973883 0.007866919 0.01277142 0.01009368 0.01028549 0.01946502 0.009928941 0.01095229 0.01908004 0.01014906 0.01092433 0.01893866 0.01014995 0.006228387 0.01364576 0.009324967 0.00607717 0.01371371 0.008926749 0.009762465 0.01976698 0.009324967 0.009571015 0.01987755 0.008499979 0.007126629 0.01319885 0.01009362 0.006774127 0.0133832 0.009928941 0.006466984 0.0135343 0.00966686 0.009762465 0.01976698 0.007674992 0.006466686 0.01353442 0.007333457 0.006774127 0.0133832 0.007071018 0.006025493 0.01373654 0.008499979 0.006077706 0.01371353 0.008071243 0.006228387 0.01364576 0.007674992 0.01095229 0.01908004 0.01199996 0.01095229 0.01908004 0.003999948 0.01226139 0.02190387 0.003999948 0.01309049 0.02279186 0.003999948 0.0109927 0.0289855 0.003999948 0.01913189 0.02439194 0.003999948 0.01549994 0.02684676 0.003999948 0.01873302 0.02446609 0.003999948 0.01752072 0.02454584 0.003999948 -0.01761001 0.02551245 0.003999948 -0.01913189 0.02439194 0.003999948 -0.01772761 0.02454745 0.003999948 -0.01178723 0.02121311 0.003999948 0.01113188 0.01976329 0.003999948 -0.01328945 0.02800691 0.003999948 -0.01596403 0.02433049 0.003999948 -0.008624732 0.02977603 0.003999948 -0.014315 0.02366846 0.003999948 -0.003736615 0.03077393 0.003999948 -0.01289099 0.02260565 0.003999948 0.00124824 0.03097486 0.003999948 0.00620079 0.03037351 0.003999948 0.01160162 0.02088373 0.003999948 0.01406306 0.02351987 0.003999948 0.01514869 0.02406525 0.003999948 0.01631337 0.02441084 0.003999948 0.02444022 -0.01888775 0.003999948 0.02439194 -0.01913189 0.003999948 0.02620089 -0.01656842 0.003999948 0.02439194 0.01913189 0.003999948 0.02444022 0.01888775 0.003999948 0.02620089 0.01656842 0.003999948 0.02454763 0.01767766 0.003999948 0.02851933 0.01215094 0.003999948 0.02424752 0.01566922 0.003999948 0.03009915 0.007418751 0.003999948 0.02337336 0.01383626 0.003999948 0.03089946 0.002494454 0.003999948 0.0220015 0.01233899 0.003999948 0.02025187 0.01130819 0.003999948 0.0220015 -0.01233899 0.003999948 0.02025187 -0.01130819 0.003999948 0.03089946 -0.002494454 0.003999948 0.03009915 -0.007418751 0.003999948 0.02337336 -0.01383626 0.003999948 0.02851933 -0.01215094 0.003999948 0.02424752 -0.01566922 0.003999948 0.02454763 -0.01767766 0.003999948 -0.03059852 -0.004972696 0.003999948 -0.02940458 -0.009816706 0.003999948 -0.02366846 -0.014315 0.003999948 -0.02744913 0.01440638 0.003999948 -0.02940458 0.009816706 0.003999948 -0.02366846 0.014315 0.003999948 -0.02260565 0.01289099 0.003999948 -0.03059852 0.004972696 0.003999948 -0.02121311 0.01178723 0.003999948 -0.02433049 -0.01596403 0.003999948 -0.02744913 -0.01440638 0.003999948 -0.02454745 -0.01772761 0.003999948 -0.02478271 -0.01862299 0.003999948 -0.02439194 -0.01913189 0.003999948 -0.02260565 -0.01289099 0.003999948 -0.02121311 -0.01178723 0.003999948 -0.02433049 0.01596403 0.003999948 -0.02454745 0.01772761 0.003999948 -0.02478271 0.01862299 0.003999948 -0.02439194 0.01913189 0.003999948 -0.03099995 0 0.003999948 0.01767766 -0.01467764 0 0.01617765 -0.01507955 0 -0.01467764 -0.01767766 0 0.01507955 -0.01617765 0 -0.01507955 -0.01917767 0 0.01467764 -0.01767766 0 -0.01617765 -0.02027571 0 -0.01767766 -0.02067762 0 0.01767766 0.02067762 0 0.01617765 0.02027571 0 -0.01467764 0.01767766 0 0.01507955 0.01917767 0 -0.01507955 0.01617765 0 0.01467764 0.01767766 0 -0.01617765 0.01507955 0 -0.02478271 0.01862299 0 -0.02147442 0.02235722 0 -0.01917767 0.02027571 0 -0.01767766 0.02067762 0 -0.01761001 0.02551245 0 -0.01617765 0.02027571 0 0.00124824 -0.03097486 0 -0.003736615 -0.03077393 0 0.01507955 -0.01917767 0 0.01917767 -0.01507955 0 0.03089946 -0.002494454 0 0.03009915 -0.007418751 0 0.01617765 0.01507955 0 -0.01507955 -0.01617765 0 0.01507955 0.01617765 0 -0.01617765 -0.01507955 0 -0.01767766 0.01467764 0 -0.03059852 -0.004972696 0 -0.01917767 -0.01507955 0 -0.02940458 -0.009816706 0 -0.02027571 -0.01617765 0 -0.02744913 -0.01440638 0 -0.02067762 -0.01767766 0 -0.02478271 -0.01862299 0 -0.02027571 -0.01917767 0 -0.02147442 -0.02235722 0 -0.01917767 -0.02027571 0 -0.01761001 -0.02551245 0 -0.01328945 -0.02800691 0 -0.008624732 -0.02977603 0 0.02027571 -0.01617765 0 0.02851933 -0.01215094 0 0.02067762 -0.01767766 0 0.02620089 -0.01656842 0 0.02027571 -0.01917767 0 0.02320379 -0.0205568 0 0.01917767 -0.02027571 0 0.01960575 -0.02401274 0 0.01767766 -0.02067762 0 0.01549994 -0.02684676 0 0.01617765 -0.02027571 0 0.0109927 -0.0289855 0 0.00620079 -0.03037351 0 0.01767766 0.01467764 0 0.01917767 0.01507955 0 0.03089946 0.002494454 0 0.03009915 0.007418751 0 -0.02027571 0.01917767 0 -0.02067762 0.01767766 0 -0.02744913 0.01440638 0 -0.02027571 0.01617765 0 -0.02940458 0.009816706 0 -0.03059852 0.004972696 0 -0.01917767 0.01507955 0 -0.03099995 0 0 -0.01767766 -0.01467764 0 0.02851933 0.01215094 0 0.02027571 0.01617765 0 0.02620089 0.01656842 0 0.02067762 0.01767766 0 0.02320379 0.0205568 0 0.02027571 0.01917767 0 0.01960575 0.02401274 0 0.01917767 0.02027571 0 0.01549994 0.02684676 0 0.0109927 0.0289855 0 0.00620079 0.03037351 0 -0.01507955 0.01917767 0 0.00124824 0.03097486 0 -0.01328945 0.02800691 0 -0.008624732 0.02977603 0 -0.003736615 0.03077393 0 0.02271878 0.02109158 0.003218293 0.02320659 0.02055358 0.003362178 0.02320379 0.0205568 0 -0.02350026 -0.02021718 0.003482282 -0.02021718 0.02350026 0.003482282 -0.01761001 0.02551245 0 -0.02076691 0.02301591 0.003297686 -0.02147442 0.02235722 0 -0.02109158 0.02271878 0.003218293 -0.02147322 0.02235841 0.003156244 -0.02415561 0.01942944 0.003840625 -0.02349638 0.02022165 0.003480553 -0.02478271 0.01862299 0 -0.02273261 0.02107673 0.003221511 -0.02191555 0.02192497 0.003129959 -0.02147316 -0.02235853 0.003156304 -0.02192497 -0.02191555 0.003129959 -0.02147442 -0.02235722 0 -0.02271878 -0.02109158 0.003218293 -0.02478271 -0.01862299 0 -0.02301591 -0.02076691 0.003297686 -0.01942944 -0.02415561 0.003840625 -0.02022165 -0.02349638 0.003480553 -0.01761001 -0.02551245 0 -0.02107673 -0.02273261 0.003221511 0.02021718 -0.02350026 0.003482282 0.01959961 -0.02401769 0.003754913 0.01960575 -0.02401274 0 0.01913189 -0.02439194 0.003999948 0.01549994 -0.02684676 0 0.02320653 -0.0205537 0.003362178 0.02273261 -0.02107673 0.003221511 0.02320379 -0.0205568 0 0.02191555 -0.02192497 0.003129959 0.02109158 -0.02271878 0.003218293 0.02350026 0.02021718 0.003482282 0.02620089 0.01656842 0 0.02022165 0.02349638 0.003480553 0.02107673 0.02273261 0.003221511 0.01960575 0.02401274 0 0.02192497 0.02191555 0.003129959 0.01549994 -0.02684676 0.003999948 0.0109927 -0.0289855 0.003999948 0.0109927 -0.0289855 0 0.00620079 -0.03037351 0.003999948 0.00620079 -0.03037351 0 0.00124824 -0.03097486 0.003999948 0.00124824 -0.03097486 0 -0.003736615 -0.03077393 0.003999948 -0.003736615 -0.03077393 0 -0.008624732 -0.02977603 0.003999948 -0.008624732 -0.02977603 0 -0.01328945 -0.02800691 0.003999948 -0.01328945 -0.02800691 0 -0.01761001 -0.02551245 0.003999948 -0.01913189 -0.02439194 0.003999948 0.02851933 0.01215094 0 0.03009915 0.007418751 0 0.03089946 0.002494454 0 0.03089946 -0.002494454 0 0.03009915 -0.007418751 0 0.02851933 -0.01215094 0 0.02620089 -0.01656842 0 0.02349638 -0.02022165 0.003480553 -0.01328945 0.02800691 0 -0.008624732 0.02977603 0 -0.003736615 0.03077393 0 0.00124824 0.03097486 0 0.00620079 0.03037351 0 0.0109927 0.0289855 0 0.01549994 0.02684676 0 0.01959955 0.02401769 0.003754913 -0.02744913 -0.01440638 0 -0.02940458 -0.009816706 0 -0.03059852 -0.004972696 0 -0.03099995 0 0.003999948 -0.03059852 0.004972696 0 -0.02940458 0.009816706 0 -0.02744913 0.01440638 0 0.01113188 -0.01976329 0.003999948 -0.01178723 -0.02121311 0.003999948 0.01873302 -0.02446609 0.003999948 -0.01289099 -0.02260565 0.003999948 0.01752072 -0.02454584 0.003999948 0.01631337 -0.02441084 0.003999948 0.01514869 -0.02406525 0.003999948 0.01406306 -0.02351987 0.003999948 -0.014315 -0.02366846 0.003999948 -0.01596403 -0.02433049 0.003999948 -0.01772761 -0.02454745 0.003999948 0.01309049 -0.02279186 0.003999948 0.01226139 -0.02190387 0.003999948 0.01160162 -0.02088373 0.003999948 -0.02199995 -0.001428902 0.007674992 -0.02199995 -0.001649975 0.008499979 -0.02199995 -0.001428902 0.009324967 -0.02199995 0.001428902 0.009324967 -0.02199995 8.25e-4 0.009928941 -0.02199995 0 0.01014995 -0.02199995 -8.25e-4 0.009928941 -0.02199995 -8.25e-4 0.007071018 -0.02199995 0 0.006849944 -0.02199995 8.25e-4 0.007071018 -0.02199995 0.001428902 0.007674992 -0.02199995 0.001649975 0.008499979 -0.01546263 -0.01117449 0.01199996 -0.01361346 -0.01213878 0.01199996 0.01119685 -0.0153982 0.01199996 0.01387876 -0.01195353 0.01199996 0.01589429 -0.01104313 0.01199996 -0.01751589 -0.01080954 0.01199996 -0.01080954 -0.01751589 0.01199996 0.0108084 -0.01757544 0.01199996 -0.01117449 -0.01546263 0.01199996 -0.01213878 -0.01361346 0.01199996 0.01225692 -0.01345717 0.01199996 -0.01546263 0.01117449 0.01199996 -0.01751589 0.01080954 0.01199996 0.01589429 0.01104313 0.01199996 0.01387876 0.01195353 0.01199996 0.01225692 0.01345717 0.01199996 0.01119685 0.0153982 0.01199996 0.0108084 0.01757544 0.01199996 -0.01080954 0.01751589 0.01199996 -0.01117449 0.01546263 0.01199996 -0.01213878 0.01361346 0.01199996 -0.01361346 0.01213878 0.01199996 0.01809471 0.01082032 0.01199996 0.01809471 -0.01082032 0.01199996 -0.0149939 -4.27603e-4 0.01009362 -0.01497727 -8.25e-4 0.009928941 -0.01493173 -0.001428902 0.009324967 -0.01491504 -0.001593828 0.008926749 -0.01495456 -0.001166522 0.00966686 -0.01499998 0 0.01014995 -0.02199995 0 0.01014995 -0.0149939 4.2726e-4 0.01009368 -0.01497727 8.25e-4 0.009928941 -0.0149545 0.001166701 0.009666681 -0.01493173 0.001428902 0.009324967 -0.01491504 0.001593708 0.008927226 -0.01490896 0.001649975 0.008499979 -0.01491504 0.001593589 0.008072435 -0.01493173 0.001428902 0.007674992 -0.01497727 8.25e-4 0.007071018 -0.0149545 0.00116688 0.007333397 -0.0149939 -4.26765e-4 0.006906092 -0.02199995 0 0.006849944 -0.01499998 0 0.006849944 -0.0149939 4.26743e-4 0.006906092 -0.0149545 -0.00116688 0.007333457 -0.01497727 -8.25e-4 0.007071018 -0.01490896 -0.001649975 0.008499979 -0.0149151 -0.001593291 0.008071243 -0.01493173 -0.001428902 0.007674992 -0.01499998 0 0.006849944 -0.01499998 0 0.008499979 -0.01499998 0 0.01014995 0.007499992 -0.01299035 0.008499979 0.007499992 0.01299035 0.008499979 0.02027571 -0.01617765 1.3e-4 0.02027571 -0.01617765 0 0.02054655 -0.01680058 1.3e-4 0.02016484 -0.01600021 1.3e-4 0.01956582 -0.01534634 1.3e-4 0.01917767 -0.01507955 0 0.01785975 -0.01468318 1.3e-4 0.01767766 -0.01467764 0 0.01880174 -0.01489621 1.3e-4 0.01917767 -0.01507955 1.3e-4 0.01767766 -0.01467764 1.3e-4 0.01689893 -0.01478046 1.3e-4 0.01617765 -0.01507955 0 0.01617765 -0.01507955 1.3e-4 0.01601874 -0.01517802 1.3e-4 0.01531052 -0.01583462 1.3e-4 0.01507955 -0.01617765 0 0.014678 -0.01763302 1.3e-4 0.01467764 -0.01767766 0 0.01484757 -0.01668226 1.3e-4 0.01507955 -0.01617765 1.3e-4 0.01467764 -0.01767766 1.3e-4 0.01481926 -0.01858842 1.3e-4 0.01507955 -0.01917767 0 0.01502436 -0.01907765 1.3e-4 0.01507955 -0.01917767 1.3e-4 0.01531243 -0.01952314 1.3e-4 0.01567453 -0.01991093 1.3e-4 0.01617765 -0.02027571 0 0.01609921 -0.02022886 1.3e-4 0.01617765 -0.02027571 1.3e-4 0.0165733 -0.02046698 1.3e-4 0.01708191 -0.0206179 1.3e-4 0.01767766 -0.02067762 0 0.01760911 -0.02067685 1.3e-4 0.01767766 -0.02067762 1.3e-4 0.01813852 -0.02064204 1.3e-4 0.01865345 -0.02051448 1.3e-4 0.01917767 -0.02027571 0 0.01913791 -0.02029824 1.3e-4 0.01917767 -0.02027571 1.3e-4 0.01957666 -0.02000004 1.3e-4 0.01995611 -0.01962924 1.3e-4 0.02027571 -0.01917767 0 0.0202642 -0.0191974 1.3e-4 0.02049148 -0.018718 1.3e-4 0.02063071 -0.01820605 1.3e-4 0.02067762 -0.01767766 1.3e-4 0.0108084 -0.01757544 0.003999948 0.01119685 -0.0153982 0.003999948 0.01225692 -0.01345717 0.003999948 0.01387876 -0.01195353 0.003999948 0.01589429 -0.01104313 0.003999948 0.01809471 -0.01082032 0.003999948 -0.01483786 -0.0167104 1.3e-4 -0.01507955 -0.01617765 0 -0.01507955 -0.01617765 1.3e-4 -0.0152589 -0.01590287 1.3e-4 -0.01617765 -0.01507955 0 -0.01590287 -0.0152589 1.3e-4 -0.01760703 -0.01467847 1.3e-4 -0.01767766 -0.01467764 0 -0.0167104 -0.01483786 1.3e-4 -0.01617765 -0.01507955 1.3e-4 -0.01767766 -0.01467764 1.3e-4 -0.01851016 -0.01479548 1.3e-4 -0.01917767 -0.01507955 0 -0.01917767 -0.01507955 1.3e-4 -0.01922154 -0.01510542 1.3e-4 -0.01982963 -0.01558738 1.3e-4 -0.02027571 -0.01617765 0 -0.02027571 -0.01617765 1.3e-4 -0.02057164 -0.01846814 1.3e-4 -0.02027571 -0.01917767 0 -0.02067762 -0.01767766 0 -0.02029371 -0.01620924 1.3e-4 -0.02058279 -0.01692932 1.3e-4 -0.02067756 -0.01769948 1.3e-4 -0.02027207 -0.01918393 1.3e-4 -0.01979899 -0.01979899 1.3e-4 -0.01917767 -0.02027571 0 -0.01918393 -0.02027207 1.3e-4 -0.01846814 -0.02057164 1.3e-4 -0.01767766 -0.02067762 0 -0.01620924 -0.02029371 1.3e-4 -0.01617765 -0.02027571 0 -0.01692932 -0.02058279 1.3e-4 -0.01769948 -0.02067756 1.3e-4 -0.01510542 -0.01922154 1.3e-4 -0.01507955 -0.01917767 0 -0.01558738 -0.01982963 1.3e-4 -0.01617765 -0.02027571 1.3e-4 -0.01507955 -0.01917767 1.3e-4 -0.01479548 -0.01851016 1.3e-4 -0.01467764 -0.01767766 1.3e-4 -0.01751589 -0.01080954 0.003999948 -0.01546263 -0.01117449 0.003999948 -0.01361346 -0.01213878 0.003999948 -0.01213878 -0.01361346 0.003999948 -0.01117449 -0.01546263 0.003999948 -0.01080763 -0.01767766 0.003999948 -0.01507955 0.01917767 1.3e-4 -0.01507955 0.01917767 0 -0.01479548 0.01851016 1.3e-4 -0.01510542 0.01922154 1.3e-4 -0.01558738 0.01982963 1.3e-4 -0.01617765 0.02027571 0 -0.01617765 0.02027571 1.3e-4 -0.01846814 0.02057164 1.3e-4 -0.01917767 0.02027571 0 -0.01767766 0.02067762 0 -0.01620924 0.02029371 1.3e-4 -0.01692932 0.02058279 1.3e-4 -0.01769948 0.02067756 1.3e-4 -0.01918393 0.02027207 1.3e-4 -0.01979899 0.01979899 1.3e-4 -0.02027571 0.01917767 0 -0.02027207 0.01918393 1.3e-4 -0.02057164 0.01846814 1.3e-4 -0.02067762 0.01767766 0 -0.02029371 0.01620924 1.3e-4 -0.02027571 0.01617765 0 -0.02058279 0.01692932 1.3e-4 -0.02067756 0.01769948 1.3e-4 -0.01922154 0.01510542 1.3e-4 -0.01917767 0.01507955 0 -0.01982963 0.01558738 1.3e-4 -0.02027571 0.01617765 1.3e-4 -0.01767766 0.01467764 1.3e-4 -0.01767766 0.01467764 0 -0.01851016 0.01479548 1.3e-4 -0.01917767 0.01507955 1.3e-4 -0.01760703 0.01467847 1.3e-4 -0.0167104 0.01483786 1.3e-4 -0.01617765 0.01507955 0 -0.0152589 0.01590287 1.3e-4 -0.01507955 0.01617765 0 -0.01590287 0.0152589 1.3e-4 -0.01617765 0.01507955 1.3e-4 -0.01507955 0.01617765 1.3e-4 -0.01483786 0.0167104 1.3e-4 -0.01467764 0.01767766 1.3e-4 -0.01361346 0.01213878 0.003999948 -0.01213878 0.01361346 0.003999948 -0.01546263 0.01117449 0.003999948 -0.01751589 0.01080954 0.003999948 -0.01080763 0.01767766 0.003999948 -0.01117449 0.01546263 0.003999948 0.02049148 0.018718 1.3e-4 0.02027571 0.01917767 0 0.02063071 0.01820605 1.3e-4 0.0202642 0.0191974 1.3e-4 0.01995611 0.01962924 1.3e-4 0.01917767 0.02027571 0 0.01957666 0.02000004 1.3e-4 0.01917767 0.02027571 1.3e-4 0.01913791 0.02029824 1.3e-4 0.01865345 0.02051448 1.3e-4 0.01767766 0.02067762 0 0.01813852 0.02064204 1.3e-4 0.01767766 0.02067762 1.3e-4 0.01760911 0.02067685 1.3e-4 0.01708191 0.0206179 1.3e-4 0.01617765 0.02027571 0 0.0165733 0.02046698 1.3e-4 0.01617765 0.02027571 1.3e-4 0.01609921 0.02022886 1.3e-4 0.01567453 0.01991093 1.3e-4 0.01507955 0.01917767 0 0.01531243 0.01952314 1.3e-4 0.01507955 0.01917767 1.3e-4 0.01467764 0.01767766 1.3e-4 0.01467764 0.01767766 0 0.01481926 0.01858842 1.3e-4 0.01502436 0.01907765 1.3e-4 0.014678 0.01763302 1.3e-4 0.01484757 0.01668226 1.3e-4 0.01507955 0.01617765 0 0.01601874 0.01517802 1.3e-4 0.01617765 0.01507955 0 0.01531052 0.01583462 1.3e-4 0.01507955 0.01617765 1.3e-4 0.01767766 0.01467764 1.3e-4 0.01767766 0.01467764 0 0.01689893 0.01478046 1.3e-4 0.01617765 0.01507955 1.3e-4 0.01785975 0.01468318 1.3e-4 0.01880174 0.01489621 1.3e-4 0.01917767 0.01507955 0 0.02016484 0.01600021 1.3e-4 0.02027571 0.01617765 0 0.01956582 0.01534634 1.3e-4 0.01917767 0.01507955 1.3e-4 0.02027571 0.01617765 1.3e-4 0.02054655 0.01680058 1.3e-4 0.02067762 0.01767766 1.3e-4 0.01809471 0.01082032 0.003999948 0.01589429 0.01104313 0.003999948 0.01387876 0.01195353 0.003999948 0.01225692 0.01345717 0.003999948 0.01119685 0.0153982 0.003999948 0.0108084 0.01757544 0.003999948</float_array>
          <technique_common>
            <accessor source="#link_mount-mesh-positions-array" count="666" stride="3">
              <param name="X" type="float"/>
              <param name="Y" type="float"/>
              <param name="Z" type="float"/>
            </accessor>
          </technique_common>
        </source>
        <source id="link_mount-mesh-normals">
          <float_array id="link_mount-mesh-normals-array" count="3510">0.9093931 -0.4159377 0 0.9093931 -0.4159377 0 0.967059 -0.254552 0 0.967059 -0.254552 0 0.9963219 -0.08568972 0 0.9963219 -0.08568972 0 0.9963219 0.08568972 0 0.9963219 0.08568972 0 0.967059 0.254552 0 0.967059 0.254552 0 0.9093931 0.4159377 0 0.9093931 0.4159377 0 -0.5089517 -0.2936697 -0.8091516 0.2807264 0.06147056 -0.9578173 0.1131756 0.06515467 -0.9914364 0.2213253 0.1369507 -0.9655359 0.3314658 0.1913718 -0.9238546 -0.3314145 -0.1916393 -0.9238175 -0.3937793 -0.2353868 -0.8885555 -0.1200312 -0.05385071 -0.9913086 -0.2603193 -0.1638091 -0.9515253 -0.08775591 -0.05050849 -0.9948607 -0.6516486 -0.3960888 -0.6468909 -0.537961 -0.2870777 -0.7925808 -0.7351338 -0.4364175 -0.5187659 -0.6869884 -0.3967062 -0.6088277 -0.7920522 -0.4572395 -0.404457 -0.7991745 -0.4635603 -0.3826643 -0.8555305 -0.4915179 -0.16272 -0.5127941 -0.2958877 0.8059111 -0.6556355 -0.3993148 0.6408509 -0.5389139 -0.2857698 0.7924062 -0.7383207 -0.4391035 0.5119283 -0.6870767 -0.3967482 0.6087007 -0.7995573 -0.4615973 0.3842346 -0.7998808 -0.4619123 0.383181 -0.85956 -0.4961584 0.1224065 -0.8590699 -0.4947999 0.1310417 -0.8581752 -0.4965069 -0.1304462 -0.2612175 -0.1640109 0.9512444 -0.4101125 -0.2368465 0.8807448 -0.3303725 -0.1928472 0.9239394 -0.1203735 -0.05275952 0.9913257 0.28074 0.06144464 0.957815 0.5272127 0.3043864 -0.7933446 0.608363 0.3604527 -0.7070844 0.6870706 0.3966805 -0.6087517 0.8000806 0.4619269 -0.3827461 0.8325222 0.4898197 -0.2588118 0.8586086 0.4957179 -0.1305947 0.8585988 0.4957122 0.1306813 0.8325221 0.4898198 0.2588117 0.800051 0.4619098 0.3828285 -0.08365648 -0.04815423 0.9953305 0.1130321 0.06507784 0.9914578 0.2212424 0.1369096 0.9655608 0.3313372 0.1912976 0.923916 0.6123727 0.3535535 0.7071065 0.519879 0.3183541 0.792702 0.6871042 0.3966999 0.6087012 0.2276584 0.9737411 0 0.2276584 0.9737411 0 0.06419676 0.9979373 0 0.06419676 0.9979373 0 -0.1010177 0.9948846 0 -0.1010177 0.9948846 0 -0.2634739 0.9646666 0 -0.2634739 0.9646666 0 -0.4187359 0.9081081 0 -0.4187359 0.9081081 0 0.4999997 -0.8660256 0 0.4999998 -0.8660255 0 0.4999995 -0.8660257 -6.3136e-7 0.4999998 -0.8660255 0 0.4999997 -0.8660256 1.76457e-7 0.4999995 -0.8660257 4.86618e-7 0.5 -0.8660254 0 0.5000002 -0.8660253 1.94164e-7 0.5 -0.8660255 0 -0.4187359 -0.9081081 0 -0.4187359 -0.9081081 0 -0.2634739 -0.9646666 0 -0.2634739 -0.9646666 0 -0.1010177 -0.9948846 0 -0.1010177 -0.9948846 0 0.06419676 -0.9979373 0 0.06419676 -0.9979373 0 0.2276584 -0.9737411 0 0.2276584 -0.9737411 0 -0.959069 -0.2831726 0 -0.959069 -0.2831726 0 -0.9052286 -0.4249249 0 -0.9052286 -0.4249249 0 -0.9052286 0.4249249 0 -0.9052286 0.4249249 0 -0.959069 0.2831726 0 -0.959069 0.2831726 0 -0.5089511 0.2936692 0.8091521 0.280726 -0.06147044 0.9578174 0.2213249 -0.1369504 0.9655361 0.1130409 -0.06507712 0.9914569 -0.3311997 0.1915157 0.9239202 -0.3937302 0.2353959 0.8885748 -0.1198165 0.0536834 0.9913436 -0.26032 0.1638095 0.9515251 -0.08775478 0.05050784 0.9948608 -0.6516486 0.3960888 0.6468909 -0.5380517 0.2871609 0.7924891 -0.7351538 0.4363991 0.5187531 -0.687071 0.3967538 0.6087034 -0.7920522 0.4572395 0.404457 -0.7991023 0.4634956 0.3828933 -0.8555209 0.4915337 0.1627229 -0.5127941 0.2958877 -0.8059111 -0.6556355 0.3993148 -0.6408509 -0.5388755 0.2857342 -0.7924451 -0.7382993 0.4391009 -0.5119615 -0.6870409 0.3967278 -0.6087545 -0.7995578 0.4615977 -0.3842331 -0.8000126 0.4620406 -0.3827511 -0.8595851 0.4961166 -0.1224006 -0.859121 0.4948332 -0.1305802 -0.858146 0.4964921 0.1306949 -0.2612177 0.1640109 -0.9512443 -0.4101125 0.2368465 -0.8807448 -0.3304979 0.1929165 -0.9238801 -0.1204968 0.0528562 -0.9913056 0.2807421 -0.06144189 -0.9578146 0.8001341 -0.4619576 -0.382597 0.8325221 -0.4898197 -0.2588118 -0.08365666 0.04815423 -0.9953304 0.113266 -0.0652126 -0.9914223 0.2212423 -0.1369095 -0.9655607 0.3315515 -0.1914213 -0.9238135 0.6123724 -0.3535534 -0.7071067 0.5197651 -0.3183095 -0.7927947 0.687022 -0.3966525 -0.6088248 0.6083632 -0.3604529 0.7070841 0.527257 -0.304412 0.7933053 0.3313422 -0.1913005 0.9239137 0.858627 -0.4957284 -0.1304345 0.8585558 -0.4956874 0.1310569 0.8325222 -0.4898197 0.2588117 0.7999258 -0.4618374 0.3831774 0.6871065 -0.3967012 0.6086977 0.4999998 0.8660256 0 0.4999997 0.8660256 -2.78256e-7 0.4999996 0.8660256 -5.68224e-7 0.5 0.8660255 0 0.5000001 0.8660254 0 0.4999997 0.8660256 0 0.4999998 0.8660255 0 0.4999995 0.8660257 5.40687e-7 0.4999999 0.8660255 1.29005e-7 0 0 1 0 0 1 0 0 1 0 0 1 0 0 1 0 0 1 0 0 1 0 0 1 0 0 1 0 0 1 0 0 1 0 0 1 0 0 1 0 0 1 0 0 1 0 0 1 0 0 1 0 0 1 0 0 1 0 0 1 0 0 1 0 0 1 0 0 1 0 0 1 0 0 1 0 0 1 0 0 1 0 0 1 0 0 1 0 0 1 0 0 1 0 0 1 0 0 1 0 0 1 0 0 1 0 0 1 0 0 1 0 0 1 0 0 1 0 0 1 0 0 1 0 0 1 0 0 1 0 0 1 0 0 1 0 0 1 0 0 1 0 0 1 0 0 1 0 0 1 0 0 1 0 0 1 0 0 1 0 0 1 0 0 1 0 0 1 0 0 1 0 0 1 0 0 1 0 0 1 0 0 1 0 0 1 0 0 1 0 0 1 0 0 1 0 0 1 0 0 1 0 0 1 0 0 1 0 0 1 0 0 1 0 0 1 0 0 1 0 0 1 0 0 1 0 0 1 0 0 1 0 0 1 0 0 1 0 0 1 0 0 1 0 0 -1 0 0 -1 0 0 -1 0 0 -1 0 0 -1 0 0 -1 0 0 -1 0 0 -1 0 0 -1 0 0 -1 0 0 -1 0 0 -1 0 0 -1 0 0 -1 0 0 -1 0 0 -1 0 0 -1 0 0 -1 0 0 -1 0 0 -1 0 0 -1 0 0 -1 0 0 -1 0 0 -1 0 0 -1 0 0 -1 0 0 -1 0 0 -1 0 0 -1 0 0 -1 0 0 -1 0 0 -1 0 0 -1 0 0 -1 0 0 -1 0 0 -1 0 0 -1 0 0 -1 0 0 -1 0 0 -1 0 0 -1 0 0 -1 0 0 -1 0 0 -1 0 0 -1 0 0 -1 0 0 -1 0 0 -1 0 0 -1 0 0 -1 0 0 -1 0 0 -1 0 0 -1 0 0 -1 0 0 -1 0 0 -1 0 0 -1 0 0 -1 0 0 -1 0 0 -1 0 0 -1 0 0 -1 0 0 -1 0 0 -1 0 0 -1 0 0 -1 0 0 -1 0 0 -1 0 0 -1 0 0 -1 0 0 -1 0 0 -1 0 0 -1 0 0 -1 0 0 -1 0 0 -1 0 0 -1 0 0 -1 0 0 -1 0 0 -1 0 0 -1 0 0 -1 0 0 -1 0 0 -1 0 0 -1 0 0 -1 0 0 -1 0 0 -1 0 0 -1 0 0 -1 0 0 -1 0 0 -1 0 0 -1 0.7407752 0.6717531 1.45721e-5 -0.7900161 -0.6065519 -0.0892716 -0.5868167 0.7970393 -0.1427397 -0.6508294 0.7576094 -0.04948991 -0.6323311 0.7744647 -0.01902085 -0.6747902 0.738005 -0.002629101 -0.6865768 0.7270573 2.82633e-6 -0.7704476 0.6374526 -0.00805068 -0.7495731 0.6613806 -0.02675557 -0.7482014 0.6628487 -0.02874672 -0.7205242 0.6934057 -0.005791246 -0.6998291 0.7143104 1.25416e-5 -0.7000564 -0.7140876 -8.0768e-6 -0.7204903 -0.6934402 -0.00586307 -0.7482044 -0.6628513 -0.0286082 -0.7417563 -0.6695969 -0.03791743 -0.7539485 -0.6565345 -0.02289307 -0.6323943 -0.7742081 -0.02606397 -0.6322339 -0.7743457 -0.02586388 -0.6653123 -0.7465493 -0.004860222 -0.6863422 -0.7272787 -1.87591e-5 0.6422576 -0.766489 4.44879e-5 0.624818 -0.7807704 -2.92224e-6 0.568032 -0.8229365 -0.01072776 0.7410622 -0.6714364 1.36337e-5 0.7205604 -0.6933615 -0.006523668 0.6924097 -0.7208749 -0.0301367 0.6918463 -0.7214484 -0.02933841 0.6651893 -0.746643 -0.006902337 0.7534304 0.6575276 -9.40191e-6 0.7735725 0.633695 -0.004048228 0.7992226 0.6005769 -0.02346444 0.6649665 0.7468417 -0.00686419 0.6924185 0.720884 -0.02971333 0.6916998 0.7215355 -0.03062796 0.7205281 0.6933941 -0.006632804 0.5599811 -0.8285054 0 0.4286928 -0.9034503 0 0.4286928 -0.9034503 0 0.2782173 -0.9605182 0 0.2782173 -0.9605182 0 0.1205368 -0.9927089 0 0.1205368 -0.9927089 0 -0.04026603 -0.999189 0 -0.04026603 -0.999189 0 -0.2000257 -0.9797907 0 -0.2000257 -0.9797907 0 -0.3546048 -0.9350163 0 -0.3546048 -0.9350163 0 -0.5 -0.8660255 0 -0.5 -0.8660255 0 -0.5928876 -0.8052851 0 -0.617215 -0.7866615 -0.01447319 0.817061 0.5765512 0 0.8854561 0.4647231 0 0.8854561 0.4647231 0 0.9485364 0.3166681 0 0.9485364 0.3166681 0 0.9870503 0.1604112 0 0.9870503 0.1604112 0 1 0 0 1 0 0 0.9870503 -0.1604112 0 0.9870503 -0.1604112 0 0.9485364 -0.3166681 0 0.9485364 -0.3166681 0 0.8854561 -0.4647231 0 0.8854561 -0.4647231 0 0.817061 -0.5765512 0 0.7992226 -0.6005769 -0.02346444 0.7734956 -0.6337892 -0.003991842 0.7533761 -0.6575899 -8.81932e-6 -0.6109909 0.7916377 0 -0.5 0.8660255 0 -0.5 0.8660255 0 -0.3546048 0.9350163 0 -0.3546048 0.9350163 0 -0.2000257 0.9797907 0 -0.2000257 0.9797907 0 -0.04026603 0.999189 0 -0.04026603 0.999189 0 0.1205368 0.9927089 0 0.1205368 0.9927089 0 0.2782173 0.9605182 0 0.2782173 0.9605182 0 0.4286928 0.9034503 0 0.4286928 0.9034503 0 0.5599811 0.8285054 0 0.568032 0.8229365 -0.01072776 0.6248221 0.780767 -2.13747e-6 0.642333 0.7664256 4.58173e-5 -0.779168 -0.6268153 0 -0.8451901 -0.5344657 0 -0.8451901 -0.5344657 0 -0.9199795 -0.3919665 0 -0.9199795 -0.3919665 0 -0.9709418 -0.2393158 0 -0.9709418 -0.2393158 0 -0.9967573 -0.08046638 0 -0.9967573 -0.08046638 0 -0.9967573 0.08046638 0 -0.9967573 0.08046638 0 -0.9709418 0.2393158 0 -0.9709418 0.2393158 0 -0.9199795 0.3919665 0 -0.9199795 0.3919665 0 -0.8451901 0.5344657 0 -0.8451901 0.5344657 0 -0.793183 0.6089833 0 -0.7836289 0.6212242 -0.002490699 0 0 1 0 0 1 0 0 1 0 0 1 0 0 1 0 0 1 0 0 1 0 0 1 0 0 1 0 0 1 0 0 1 0 0 1 0 0 1 0 0 1 0 0 1 0 0 1 0 0 1 0 0 1 0 0 1 0 0 1 0 0 1 0 0 1 0 0 1 0 0 1 0 0 1 0 0 1 0 0 1 0 0 1 0 0 1 -1 0 0 -1 0 0 -1 0 0 -1 0 0 -1 0 0 -1 0 0 -1 0 0 -1 0 0 -1 0 0 -1 0 0 -1 0 0 -1 0 0 -1 0 0 -1 0 0 -1 0 0 -1 0 0 0 0 1 0 0 1 0 0 1 0 0 1 0 0 1 0 0 1 0 0 1 0 0 1 0 0 1 0 0 1 0 0 1 0 0 1 0 0 1 0 0 1 0 0 1 0 0 1 0 0 1 0 0 1 0 0 1 0 0 1 0 0 1 0 0 1 0 0 1 0 0 1 0 0 1 0 0 1 0 0 1 0 0 1 0 0 1 0 0 1 0 0 1 0 0 1 0 0 1 0 0 1 0 0 1 0 0 1 0 0 1 0 0 1 0 0 1 0 0 1 0 0 1 0 0 1 0 0 1 0 0 1 0 0 1 0 0 1 0 0 1 0 0 1 0 0 1 0 0.3828427 -0.9238135 0 0.9239153 -0.382597 0.007935166 0.9658955 -0.2588108 0 0.7071064 -0.7071072 0.01578152 0.6092844 -0.7927947 0 0.793305 -0.6088244 0.01587587 0.1309056 -0.9912678 0 0.2588198 -0.9659257 0 -0.1305925 -0.9914361 0.008024454 -0.2588114 -0.9658945 0 -0.3827438 -0.9238545 0 -0.6087726 -0.7933448 0.007979631 -0.7070839 -0.7070847 0 -0.7933611 -0.6087512 0 -0.9238535 -0.3827465 0.007935225 -0.9658954 -0.2588108 0 -0.9914358 -0.1305946 0 -0.9914244 0.1306813 0.007935285 -0.9658954 0.2588107 0 -0.9238193 0.3828287 0 -0.7071067 0.707107 0.01576316 -0.6094055 0.792702 0 -0.7933997 0.6087011 0.008024513 0.2588109 0.9658946 0 0.1304371 0.9914566 0 -0.2588192 0.9659258 0.01590871 -0.1306358 0.9913027 0 -0.3825949 0.9239162 0.007979691 0.7070841 0.7070844 0 0.6088246 0.7933049 0 0.3826007 0.9239138 0 0.9914569 -0.1304345 0 0.9913749 0.1310569 0.007935166 0.9658955 0.2588107 0 0.9236748 0.3831775 0 0.793402 0.6086981 -0.9998988 0.01422554 0 -0.9998988 -0.01422703 0 -0.9992177 -0.03898644 0.00663203 -0.9980047 0.05962938 0.02075827 -0.9983934 0.05447584 0.01558798 -0.9992177 0.0389865 0.006632089 -0.998457 0.0550819 -0.007047355 -0.998457 0.0550819 0.0070526 -0.9981586 0.05796724 0.01786655 -0.9998984 -0.01425361 0 -0.9998986 0.01424324 0 -0.9992172 0.03899902 -0.006639361 -0.9983935 0.05447375 -0.01558679 -0.9980049 0.05962884 -0.02075731 -0.9981587 0.05796605 -0.01786446 -0.9980049 -0.05962818 -0.02075618 -0.9983938 -0.05447036 -0.01558482 -0.9992168 -0.03900849 -0.006644785 -0.9983934 -0.05447638 0.01558828 -0.9980047 -0.0596292 0.02075785 -0.9981579 -0.05797415 0.01787865 -0.9984568 -0.0550819 0.007071375 -0.998457 -0.0550819 -0.007040977 -0.9981591 -0.05796223 -0.0178579 0.4876304 -0.8730501 0 0.5122701 -0.8588244 0 0.5333713 -0.8458552 0.006631851 0.4473629 -0.8941117 0.02075642 0.4520173 -0.8918729 0.01558947 0.4658457 -0.8848411 0.006632328 0.4515259 -0.8922302 -0.007050454 0.4515259 -0.8922302 0.007054448 0.4488784 -0.8934142 0.01786637 0.5122944 -0.85881 0 0.4876146 -0.873059 0 0.465835 -0.8848468 -0.006639242 0.4520199 -0.8918717 -0.0155878 0.4473629 -0.8941116 -0.02075636 0.4488801 -0.8934135 -0.01786321 0.5506419 -0.8344835 -0.02075594 0.5463708 -0.8373984 -0.01558601 0.5333887 -0.8458442 -0.006643772 0.5463754 -0.8373953 0.01558923 0.5506428 -0.8344829 0.02075797 0.5492859 -0.8354433 0.01787805 0.5469309 -0.8371479 0.007072865 0.546931 -0.837148 -0.007041037 0.5492767 -0.8354498 -0.01785856 0.51227 0.8588244 0 0.4876297 0.8730506 0 0.4658453 0.8848413 0.006632566 0.5506424 0.8344831 0.02075713 0.546376 0.837395 0.01558959 0.5333703 0.8458558 0.006631255 0.546931 0.837148 -0.007048904 0.546931 0.837148 0.007053136 0.5492806 0.835447 0.01786684 0.4876046 0.8730645 0 0.5122826 0.8588169 0 0.5333831 0.8458477 -0.006639957 0.5463734 0.8373966 -0.01558786 0.5506425 0.8344831 -0.02075713 0.5492792 0.835448 -0.01786392 0.4473637 0.8941113 -0.02075505 0.4520228 0.8918702 -0.01558595 0.4658274 0.8848506 -0.006644248 0.4520183 0.8918725 0.01558887 0.4473623 0.8941119 0.02075767 0.4488721 0.8934171 0.01787841 0.4515258 0.89223 0.007073283 0.4515259 0.8922302 -0.007041275 0.4488823 0.8934125 -0.01785904 -0.9170651 -0.3987376 0 -0.7644817 -0.2048419 0.6112344 -0.8480633 -0.529895 0 -0.7075256 -0.6482433 0.2814039 -0.5901323 -0.5901323 0.5508973 -0.2130898 -0.9422369 0.2584228 -0.22056 -0.8231415 0.5232508 -0.4384182 -0.8987711 0 -0.5664402 -0.8241029 0 -0.03036665 -0.9995388 0 0.1309167 -0.9913934 0 0.2034538 -0.7593013 0.6181166 0.3830476 -0.9237286 0 0.5267403 -0.8500263 0 0.6554414 -0.7069785 0.2656654 0.6037821 -0.6037821 0.5204752 0.9828184 -0.1753325 0.057675 0.7842539 -0.2101398 0.5837697 0.9085886 -0.4176922 0 0.8295077 -0.5584955 0 0.9999725 -0.007430076 0 0.9881303 0.1536181 0 0.7685837 0.2059413 0.6056957 0.9181525 0.3849408 0.09389656 0.8753847 0.483427 0 0.8292119 0.5589345 0 0.652589 0.6093373 0.4503729 0.5650498 0.5650497 0.6011968 0.5976886 0.7984355 0.07258975 0.5131399 0.8583049 0 0.4352261 0.9003212 0 0.249808 0.8418906 0.4783472 0.2078357 0.7756547 0.5959563 0.110994 0.9924318 0.05252951 0.01141661 0.9999348 0 -0.07703572 0.9970284 0 -0.2073743 0.83736 0.5057905 -0.2089841 0.7799397 0.589932 -0.4073756 0.9126378 0.03372383 -0.4934096 0.8697971 0 -0.5683679 0.8227745 0 -0.5916235 0.6052934 0.5325426 -0.5744557 0.5744557 0.5830963 -0.8139186 0.5807531 0.01619285 -0.9035071 0.428315 -0.01487272 -0.8003892 0.2177333 0.5585421 -0.7899973 0.2116791 0.5754097 -0.9960836 0.08841741 0 -0.989018 -0.1477949 0 -0.5451927 0.4487381 0.7080954 -0.5825009 0.4156303 0.69853 -0.4933165 0.504715 0.7084501 -0.4521604 0.5477188 0.7039567 -0.4012755 0.5808901 0.7081981 -0.3499699 0.6169372 0.7049182 -0.3429945 0.6216539 0.7042024 -0.2877272 0.6445914 0.7083184 -0.04651093 0.7069647 0.7057179 -0.1292372 0.6953532 0.7069525 -0.1697893 0.6855947 0.7079064 -0.1769222 0.68426 0.707451 -0.2449951 0.6644287 0.7060538 -0.05465137 0.7073205 0.7047773 0.008073031 0.7070837 0.7070838 0.07874661 0.704103 0.705718 0.07874715 0.7041029 0.7057181 0.2015413 0.6792225 0.7057181 0.2015407 0.6792227 0.7057179 0.3180322 0.6331017 0.705718 0.3089023 0.6390042 0.7044523 0.3628656 0.6069483 0.7070659 0.4245788 0.5671814 0.7057181 0.4245781 0.5671821 0.7057179 0.5178472 0.4835249 0.705718 0.5178469 0.4835255 0.7057179 0.5949218 0.384747 0.705718 0.588806 0.3968877 0.704122 0.6190466 0.3418655 0.7070426 0.6533913 0.273938 0.7057179 0.6533913 0.2739381 0.7057179 0.684332 0.1798651 0.7066386 0.6963207 0.1082524 0.7095202 0.7064516 0.06756687 0.7045288 0.7070971 -0.005253911 0.707097 0.7006695 -0.1249981 0.7024512 0.7006697 -0.1249978 0.7024512 0.6246464 -0.341144 0.7024511 0.6566495 -0.3018719 0.6911474 0.5872482 -0.3953856 0.7062647 0.4838869 -0.5219346 0.7024512 0.4838868 -0.5219347 0.7024512 0.372552 -0.6012054 0.7069351 0.2939012 -0.6506754 0.700174 0.2720097 -0.6559578 0.7040811 0.07170742 -0.7081104 0.7024513 0.09378141 -0.7101789 0.6977471 -0.0214774 -0.7069437 0.7069436 -0.1206731 -0.6989146 0.7049513 -0.1554273 -0.6872656 0.7095832 -0.2310498 -0.6687883 0.7066387 -0.3103857 -0.6363005 0.7062454 -0.3624505 -0.6151887 0.7001233 -0.4011521 -0.5836284 0.7060134 -0.5242361 -0.48031 0.703192 -0.6088268 0.3617491 0.7060223 -0.6374753 0.3041103 0.7079139 -0.6381088 0.3025006 0.7080329 -0.6753391 0.2193836 0.7041221 -0.6821035 0.1855556 0.7073217 -0.6937375 0.1371512 0.7070487 -0.7057182 0.06264328 0.7057178 -0.7057178 0.06264507 0.705718 -0.7031918 -0.1050823 0.7031919 -0.7031919 -0.1050832 0.7031918 -0.650551 -0.2828578 0.7048225 -0.6437174 -0.307006 0.7009816 -0.5998535 -0.3748064 0.7068917 -0.5242356 -0.4803107 0.7031918 -0.7781822 -0.2085129 0.5924144 -0.9106504 -0.4131777 0 -0.8373862 -0.5466117 0 -0.6276244 -0.6276244 0.4606249 -0.6276243 -0.6276243 0.460625 -0.1743229 -0.9807094 0.08843344 -0.2085129 -0.7781822 0.5924145 -0.4131777 -0.9106504 0 -0.5466117 -0.8373862 0 -0.01176232 -0.9999309 0 0.1401368 -0.9901322 0 0.2038829 -0.760902 0.6160033 0.3916269 -0.9201241 0 0.5073374 -0.8617475 0 0.6202885 -0.7825214 0.05387389 0.5565064 -0.5565064 0.6169289 0.7977607 -0.6029742 0 0.7593986 0.2034801 0.6179884 0.8690298 -0.4947597 0 0.9273361 -0.3723109 0.03784656 0.7596994 -0.2035605 0.617592 0.992296 -0.1220807 -0.02109223 0.9903885 0.1365012 0.02232003 0.9224576 0.3860318 -0.007170617 0.7925942 0.6097058 0.007302939 0.5558441 0.5558441 0.618122 0.6097058 0.7925942 0.007302939 0.3860318 0.9224576 -0.007170617 0.2034801 0.7593986 0.6179884 -0.3723109 0.9273361 0.03784656 -0.2035605 0.7596994 0.617592 -0.1220807 0.992296 -0.02109223 0.1365011 0.9903885 0.02232003 -0.7825213 0.6202885 0.05387389 -0.5565063 0.5565063 0.6169289 -0.6029742 0.7977607 0 -0.4947597 0.8690298 0 -0.8617475 0.5073374 0 -0.9201241 0.3916269 0 -0.760902 0.2038829 0.6160033 -0.9901322 0.1401368 0 -0.9865588 -0.1634063 0 0.4192137 0.5677025 0.7085011 0.09692263 0.7032251 0.7043298 0.27702 0.6619639 0.6964651 0.3344536 0.6162711 0.7129872 0.2349457 0.6680185 0.7060819 0.4688151 0.5206186 0.7135605 0.4330151 0.5629031 0.7040156 0.5466469 0.4509558 0.7055609 0.5591881 0.4301573 0.7087125 0.5993189 0.3757022 0.7068697 0.6315804 0.3191733 0.7065654 0.649915 0.2719777 0.709675 0.6753495 0.2189725 0.7042402 0.7000156 0.0964803 0.7075802 0.7046762 0.07803249 0.7052251 -0.5564624 0.4410963 0.704119 -0.5564625 0.4410963 0.704119 -0.4247189 0.5690609 0.704119 0.1595644 0.6820493 0.7136863 0.07803249 0.7046762 0.7052251 -0.08670651 0.7047685 0.7041189 -0.0867055 0.7047684 0.704119 -0.2645609 0.6589567 0.704119 -0.2645615 0.6589565 0.704119 -0.3498482 0.6145049 0.7070997 -0.4285935 0.5670472 0.7033954 0.7047686 -0.0867055 0.7041189 0.7047682 -0.08670657 0.7041191 0.6589565 -0.2645615 0.704119 0.6589569 -0.2645608 0.7041189 0.6145026 -0.3498512 0.7071002 0.5693908 -0.424965 0.7037037 0.5662586 -0.4279972 0.704393 0.4410964 -0.5564624 0.704119 0.4410963 -0.5564625 0.7041191 0.3587481 -0.6093584 0.7070941 0.2838482 -0.6514979 0.7035487 0.2779396 -0.6530167 0.7044989 0.09137147 -0.7053211 0.7029747 0.09989809 -0.7058269 0.701305 -0.00831747 -0.7070825 0.7070823 -0.1244683 -0.7002387 0.7029747 -0.1244687 -0.7002385 0.7029747 -0.3288379 -0.6306284 0.7029747 -0.2972038 -0.6550422 0.6946868 -0.3868022 -0.5925647 0.7065771 -0.5029049 -0.5029048 0.7029746 -0.5029048 -0.5029048 0.7029747 -0.5925647 -0.3868021 0.7065771 -0.6332402 -0.3301997 0.6999821 -0.6454629 -0.2928576 0.7054162 -0.7023064 -0.1163249 0.7023064 -0.7023065 -0.1163248 0.7023064 -0.703592 0.09958189 0.703592 -0.7035921 0.09958177 0.703592 -0.6509798 0.2836225 0.704119 -0.6542904 0.2784817 0.7031018 -0.6093584 0.3587481 0.7070941 -0.9201241 -0.3916269 0 -0.7609019 -0.2038829 0.6160032 -0.8617475 -0.5073374 0 -0.7825214 -0.6202885 0.05387389 -0.5565064 -0.5565064 0.6169289 -0.6029742 -0.7977607 0 0.2034801 -0.7593986 0.6179884 -0.4947597 -0.8690298 0 -0.3723109 -0.9273361 0.03784656 -0.2035605 -0.7596994 0.617592 -0.1220807 -0.992296 -0.02109223 0.1365012 -0.9903885 0.02232003 0.3860318 -0.9224576 -0.007170617 0.6097058 -0.7925942 0.007302939 0.5558441 -0.5558441 0.618122 0.7925942 -0.6097058 0.007302939 0.9224576 -0.3860318 -0.007170617 0.7593986 -0.2034801 0.6179884 0.9273361 0.3723109 0.03784656 0.7596994 0.2035605 0.617592 0.992296 0.1220807 -0.02109223 0.9903885 -0.1365011 0.02232003 0.6202885 0.7825213 0.05387389 0.5565063 0.5565063 0.6169289 0.7977607 0.6029742 0 0.8690298 0.4947597 0 0.1401368 0.9901322 0 0.2038829 0.7609019 0.6160032 0.3916269 0.9201241 0 0.5073374 0.8617475 0 -0.01176232 0.9999309 0 -0.1743229 0.9807094 0.08843344 -0.2085129 0.7781822 0.5924145 -0.6276244 0.6276244 0.4606248 -0.6276245 0.6276245 0.4606248 -0.5466117 0.8373862 0 -0.4131777 0.9106504 0 -0.8373862 0.5466117 0 -0.9106504 0.4131777 0 -0.7781822 0.2085129 0.5924145 -0.9865588 0.1634063 0 -0.9901322 -0.1401368 0 0.5593022 -0.4302451 0.7085692 0.7032251 -0.09692263 0.7043298 0.6619639 -0.27702 0.6964651 0.6162711 -0.3344536 0.7129872 0.6680185 -0.2349457 0.7060819 0.3757025 -0.5993188 0.7068696 0.4200675 -0.5669301 0.7086138 0.4294882 -0.5583183 0.7098032 0.4733296 -0.5259211 0.7066584 0.5470097 -0.45078 0.7053919 0.3191733 -0.6315804 0.7065654 0.2719777 -0.649915 0.709675 0.2189725 -0.6753495 0.7042402 0.0964803 -0.7000156 0.7075802 0.07803249 -0.7046762 0.7052251 -0.5029048 0.5029048 0.7029746 -0.5029048 0.5029048 0.7029747 -0.3868021 0.5925647 0.7065771 -0.3301997 0.6332402 0.6999821 -0.2928576 0.6454629 0.7054162 -0.1244683 0.7002387 0.7029747 -0.1244687 0.7002387 0.7029746 -0.00831747 0.7070824 0.7070823 0.09148836 0.7062234 0.7020528 0.09958177 0.7035921 0.703592 0.2836225 0.6509798 0.704119 0.2784817 0.6542904 0.7031018 0.3587481 0.6093584 0.7070941 0.4410963 0.5564624 0.704119 0.4410963 0.5564625 0.704119 0.5690609 0.4247189 0.704119 0.6820493 -0.1595644 0.7136863 0.7046762 -0.07803249 0.7052251 0.7047685 0.08670651 0.7041189 0.7047684 0.0867055 0.704119 0.6589567 0.2645609 0.704119 0.6589565 0.2645615 0.704119 0.6145049 0.3498482 0.7070997 0.5670472 0.4285935 0.7033954 -0.0867055 -0.7047686 0.7041189 -0.08670657 -0.7047682 0.7041191 -0.2645615 -0.6589565 0.704119 -0.2645608 -0.6589569 0.7041189 -0.3498512 -0.6145026 0.7071002 -0.424965 -0.5693908 0.7037037 -0.4279972 -0.5662586 0.704393 -0.5564624 -0.4410964 0.704119 -0.5564625 -0.4410963 0.7041191 -0.6093584 -0.3587481 0.7070941 -0.6514979 -0.2838482 0.7035487 -0.6530167 -0.2779396 0.7044989 -0.703592 -0.09958189 0.703592 -0.703592 -0.09958177 0.703592 -0.7023064 0.1163248 0.7023064 -0.7023065 0.1163248 0.7023064 -0.6306284 0.3288379 0.7029747 -0.6550422 0.2972038 0.6946868 -0.5925647 0.3868022 0.7065771 -0.8003892 -0.2177333 0.558542 -0.7899973 -0.2116791 0.5754097 -0.9035071 -0.428315 -0.01487278 -0.8139186 -0.5807531 0.01619285 -0.5744557 -0.5744557 0.5830963 -0.5916235 -0.6052934 0.5325426 -0.5683679 -0.8227745 0 -0.4934096 -0.8697971 0 -0.4073756 -0.9126378 0.03372377 -0.2089841 -0.7799397 0.589932 -0.2073743 -0.83736 0.5057905 -0.07703572 -0.9970284 0 0.01141661 -0.9999348 0 0.110994 -0.9924318 0.05252951 0.2078357 -0.7756547 0.5959563 0.249808 -0.8418908 0.4783471 0.4352261 -0.9003212 0 0.5131399 -0.8583049 0 0.5976886 -0.7984355 0.07258963 0.5650498 -0.5650497 0.6011968 0.652589 -0.6093373 0.4503728 0.8292119 -0.5589345 0 0.9881303 -0.1536181 0 0.7685837 -0.2059413 0.6056957 0.9181525 -0.3849408 0.09389662 0.8753847 -0.483427 0 0.9999725 0.007430076 0 0.9828184 0.1753325 0.057675 0.7842539 0.2101398 0.5837697 0.6554414 0.7069784 0.2656654 0.6037821 0.6037821 0.5204752 0.8295077 0.5584955 0 0.9085886 0.4176922 0 0.1309167 0.9913934 0 0.2034538 0.7593013 0.6181166 0.3830476 0.9237286 0 0.5267403 0.8500263 0 -0.03036665 0.9995388 0 -0.2130898 0.9422369 0.2584228 -0.22056 0.8231415 0.5232509 -0.7075256 0.6482433 0.2814039 -0.5901323 0.5901323 0.5508972 -0.5664402 0.8241029 0 -0.4384182 0.8987711 0 -0.8480633 0.529895 0 -0.9170651 0.3987376 0 -0.7644817 0.2048419 0.6112345 -0.989018 0.1477949 0 -0.9960836 -0.08841741 0 -0.5998538 0.3748062 0.7068916 -0.5014106 -0.5129961 0.6967227 -0.4012904 -0.5809113 0.7081723 -0.2452956 -0.6643331 0.7060394 -0.1699127 -0.6860933 0.7073936 -0.3380154 -0.6189103 0.7090104 -0.291894 -0.6539261 0.6979817 -0.3498812 -0.6167809 0.7050988 -0.6382066 -0.3025469 0.707925 -0.6082819 -0.3627862 0.7059598 -0.5746785 -0.410049 0.7082403 -0.5476824 -0.4521195 0.7040112 -0.4480178 -0.5445512 0.7090444 -0.6821035 -0.1855556 0.7073217 -0.6754078 -0.2190602 0.7041568 -0.6375418 -0.3037088 0.7080264 -0.5242362 0.4803101 0.7031918 -0.5242354 0.4803106 0.7031921 -0.3609166 0.6125851 0.7031919 -0.4085538 0.594397 0.6926586 -0.3103857 0.6363005 0.7062453 -0.2310498 0.6687883 0.7066387 -0.1554273 0.6872656 0.7095832 -0.1206731 0.6989146 0.7049513 -0.0214774 0.7069437 0.7069437 0.07192862 0.7102957 0.7002186 0.09297132 0.7040442 0.7040441 0.292979 0.6486337 0.7024512 0.2744417 0.6618228 0.6976191 0.372552 0.6012054 0.7069351 0.4838869 0.5219347 0.7024512 0.4838869 0.5219348 0.7024512 0.5872482 0.3953856 0.7062647 0.6277425 0.3428349 0.6988589 0.6438499 0.2959877 0.7055839 0.7006696 0.1249981 0.7024512 0.7006696 0.1249978 0.7024512 0.7070971 0.005253911 0.707097 0.7064516 -0.06756687 0.7045288 0.6963207 -0.1082524 0.7095202 0.684332 -0.1798651 0.7066386 0.6533913 -0.2739381 0.7057179 0.6533913 -0.2739381 0.7057179 0.6190466 -0.3418655 0.7070427 0.5955317 -0.3851413 0.704988 0.5870495 -0.3957037 0.7062517 0.5178472 -0.4835249 0.705718 0.5178468 -0.4835253 0.705718 0.4245788 -0.5671816 0.705718 0.4245781 -0.567182 0.7057181 0.3628656 -0.6069483 0.707066 0.3183072 -0.6336492 0.7051023 0.3081648 -0.6374787 0.7061554 0.2015413 -0.6792225 0.705718 0.2015407 -0.6792226 0.7057181 0.07874655 -0.7041029 0.7057181 -0.176365 -0.6838926 0.7079451 -0.1292372 -0.695353 0.7069525 -0.05455356 -0.7060541 0.7060534 -0.04654264 -0.7074469 0.7052325 0.008073449 -0.7070837 0.7070838 0.07874721 -0.7041029 0.7057179 -0.6565296 0.2854573 0.6981998 -0.6417505 0.306068 0.7031918 -0.7031921 0.1050823 0.7031917 -0.7031918 0.1050832 0.7031919 -0.7057179 -0.06264293 0.7057181 -0.705718 -0.06264507 0.7057179 -0.6937375 -0.1371512 0.7070487 0.9999942 2.80893e-4 -0.003429472 0.9952604 -0.09518939 -0.01989269 0.992528 -0.121885 -0.005673766 0.9810314 -0.193849 0 0.984368 0.1756093 0.01345902 0.9936584 0.08890861 0.06883478 0.9899652 0.1347361 0.04260289 0.9800346 0.1980215 0.01787793 0.9731206 0.2300596 0.01042997 0.9691619 0.2463305 0.006827175 0.9607668 0.277341 -0.003047645 0.9679738 0.2509242 -0.007982492 0.9720563 0.2343866 -0.01301425 0.9787077 0.2040209 -0.0225135 0.9882153 0.1421649 -0.05674177 0.9840667 0.1755555 -0.02816045 0.9973421 0.07265889 -0.005446553 0.9999815 -5.57886e-4 0.006056606 0.9927467 -0.1190814 0.01654404 0.9954449 -0.09520703 0.005007445 0.9810181 -0.1939163 0 -0.1701406 0.9854198 0 -0.1701406 0.9854198 0 0.1007505 0.9949117 0 0.1007505 0.9949117 0 0.4116424 0.9113454 0 0.4116424 0.9113454 0 0.6798725 0.7333304 0 0.6798725 0.7333304 0 0.8776428 0.4793153 0 0.8776428 0.4793153 0 0.9542048 0.2991542 0 0.9625214 0.2711882 0.003085672 -0.9865542 0.1634055 0.003068566 -0.9917091 -0.1284719 -0.002833068 -0.9901322 -0.140137 0 0.1284724 0.9917131 0 0.1284724 0.9917131 0 -0.1750079 0.9845669 0 -0.1750079 0.9845669 0 -0.4623608 0.8866919 0 -0.4623608 0.8866919 0 -0.7071068 0.7071068 0 -0.7071068 0.7071068 0 -0.8866919 0.4623608 0 -0.8866919 0.4623608 0 -0.9845669 0.1750079 0 0.1284724 -0.9917131 0 0.1284724 -0.9917131 0 -0.1750079 -0.9845669 0 -0.1750079 -0.9845669 0 -0.4623608 -0.8866919 0 -0.4623608 -0.8866919 0 -0.7071068 -0.7071068 0 -0.7071068 -0.7071068 0 -0.8866919 -0.4623608 0 -0.8866919 -0.4623608 0 -0.9865589 -0.1634063 0 -0.9845617 -0.1750071 0.003303527 -0.9901275 0.1401363 -0.003068506 -0.9917131 0.1284724 0 0.9999866 1.94385e-5 0.005171597 0.9953733 0.09520018 0.01299244 0.9925282 0.1219609 0.003679215 0.9810314 0.193849 0 0.9842578 -0.1755896 -0.02012455 0.9907605 -0.09652155 -0.0952751 0.9883177 -0.1410988 -0.05761444 0.979066 -0.2022022 -0.02332311 0.9723207 -0.2332683 -0.01335388 0.9684734 -0.2489696 -0.008574426 0.9614351 -0.2750194 0.002627015 0.9686492 -0.2483505 0.006381928 0.9728507 -0.2312098 0.01017582 0.9796591 -0.1999236 0.01727855 0.9898414 -0.1358318 0.0419951 0.9842797 -0.1755936 0.01898294 0.9973909 -0.07210087 0.003587841 0.9999919 2.06158e-4 -0.004018247 0.9926077 0.1187162 -0.02522605 0.9954278 0.09520536 -0.007714033 0.9810181 0.1939163 0 0.9618647 -0.2735015 -0.003647863 0.9542048 -0.2991543 0 0.8776428 -0.4793153 0 0.8776428 -0.4793153 0 0.6798725 -0.7333304 0 0.6798725 -0.7333304 0 0.4116424 -0.9113454 0 0.4116424 -0.9113454 0 0.1007505 -0.9949117 0 0.1007505 -0.9949117 0 -0.1701406 -0.9854198 0 -0.1701406 -0.9854198 0</float_array>
          <technique_common>
            <accessor source="#link_mount-mesh-normals-array" count="1170" stride="3">
              <param name="X" type="float"/>
              <param name="Y" type="float"/>
              <param name="Z" type="float"/>
            </accessor>
          </technique_common>
        </source>
        <vertices id="link_mount-mesh-vertices">
          <input semantic="POSITION" source="#link_mount-mesh-positions"/>
        </vertices>
        <triangles material="silver-material" count="1170">
          <input semantic="VERTEX" source="#link_mount-mesh-vertices" offset="0"/>
          <input semantic="NORMAL" source="#link_mount-mesh-normals" offset="1"/>
          <p>0 0 1 0 2 0 0 1 2 1 3 1 3 2 2 2 4 2 3 3 4 3 5 3 5 4 4 4 6 4 5 5 6 5 7 5 7 6 6 6 8 6 7 7 8 7 9 7 9 8 8 8 10 8 9 9 10 9 11 9 11 10 10 10 12 10 11 11 12 11 13 11 14 12 15 12 16 12 17 13 18 13 19 13 20 14 17 14 21 14 21 15 17 15 19 15 21 16 19 16 22 16 16 17 15 17 23 17 23 18 15 18 24 18 23 19 24 19 20 19 20 20 24 20 25 20 20 21 25 21 17 21 14 22 16 22 26 22 26 23 16 23 27 23 26 24 27 24 28 24 28 25 27 25 29 25 28 26 29 26 30 26 30 27 29 27 31 27 30 28 31 28 32 28 33 29 34 29 35 29 35 30 34 30 36 30 35 31 36 31 37 31 37 32 36 32 38 32 37 33 38 33 39 33 39 34 38 34 40 34 39 35 40 35 41 35 41 36 40 36 32 36 41 37 32 37 42 37 42 38 32 38 31 38 43 39 44 39 45 39 33 40 35 40 45 40 45 41 35 41 46 41 45 42 46 42 43 42 47 43 48 43 49 43 22 44 19 44 50 44 50 45 19 45 51 45 50 46 51 46 52 46 52 47 51 47 53 47 53 48 51 48 54 48 53 49 54 49 55 49 55 50 54 50 56 50 56 51 54 51 57 51 56 52 57 52 58 52 44 53 43 53 49 53 49 54 43 54 59 54 49 55 59 55 47 55 47 56 59 56 60 56 47 57 60 57 57 57 57 58 60 58 61 58 57 59 61 59 58 59 62 60 63 60 64 60 62 61 64 61 65 61 65 62 64 62 66 62 65 63 66 63 67 63 67 64 66 64 68 64 67 65 68 65 69 65 69 66 68 66 70 66 69 67 70 67 71 67 71 68 70 68 72 68 71 69 72 69 73 69 18 70 74 70 19 70 19 71 74 71 75 71 19 72 75 72 51 72 76 73 77 73 48 73 48 74 47 74 76 74 76 75 47 75 57 75 76 76 57 76 75 76 75 77 57 77 54 77 75 78 54 78 51 78 78 79 79 79 80 79 78 80 80 80 81 80 81 81 80 81 82 81 81 82 82 82 83 82 83 83 82 83 84 83 83 84 84 84 85 84 85 85 84 85 86 85 85 86 86 86 87 86 87 87 86 87 76 87 87 88 76 88 75 88 88 89 89 89 90 89 88 90 90 90 91 90 91 91 90 91 92 91 91 92 92 92 93 92 94 93 95 93 96 93 94 94 96 94 97 94 97 95 96 95 98 95 97 96 98 96 99 96 100 97 101 97 102 97 103 98 104 98 105 98 105 99 104 99 106 99 105 100 106 100 107 100 102 101 101 101 108 101 108 102 101 102 109 102 108 103 109 103 107 103 107 104 109 104 110 104 107 105 110 105 105 105 100 106 102 106 111 106 111 107 102 107 112 107 111 108 112 108 113 108 113 109 112 109 114 109 113 110 114 110 115 110 115 111 114 111 116 111 115 112 116 112 117 112 118 113 119 113 120 113 120 114 119 114 121 114 120 115 121 115 122 115 122 116 121 116 123 116 122 117 123 117 124 117 124 118 123 118 125 118 124 119 125 119 126 119 126 120 125 120 117 120 126 121 117 121 127 121 127 122 117 122 116 122 128 123 129 123 130 123 118 124 120 124 130 124 130 125 120 125 131 125 130 126 131 126 128 126 132 127 133 127 134 127 135 128 136 128 137 128 137 129 136 129 138 129 129 130 128 130 134 130 134 131 128 131 139 131 134 132 139 132 132 132 132 133 139 133 140 133 132 134 140 134 137 134 137 135 140 135 141 135 137 136 141 136 135 136 142 137 143 137 104 137 104 138 143 138 144 138 104 139 144 139 106 139 136 140 145 140 138 140 138 141 145 141 146 141 138 142 146 142 142 142 142 143 146 143 147 143 142 144 147 144 143 144 148 145 133 145 62 145 62 146 133 146 132 146 132 147 137 147 62 147 62 148 137 148 138 148 62 149 138 149 63 149 103 150 149 150 104 150 104 151 149 151 63 151 104 152 63 152 142 152 142 153 63 153 138 153 150 154 151 154 152 154 153 155 154 155 155 155 155 156 154 156 156 156 157 157 158 157 159 157 160 158 72 158 70 158 63 159 149 159 161 159 157 160 159 160 162 160 162 161 159 161 163 161 162 162 163 162 164 162 164 163 163 163 165 163 164 164 165 164 166 164 166 165 165 165 167 165 166 166 167 166 168 166 168 167 167 167 160 167 168 168 160 168 169 168 169 169 160 169 70 169 169 170 70 170 68 170 150 171 152 171 170 171 151 172 171 172 152 172 152 173 171 173 172 173 152 174 172 174 154 174 154 175 172 175 173 175 154 176 173 176 156 176 161 177 170 177 63 177 63 178 170 178 152 178 63 179 152 179 64 179 64 180 152 180 169 180 64 181 169 181 66 181 66 182 169 182 68 182 174 183 175 183 176 183 177 184 178 184 179 184 179 185 178 185 180 185 179 186 180 186 181 186 181 187 180 187 182 187 181 188 182 188 183 188 183 189 182 189 184 189 183 190 184 190 185 190 185 191 184 191 186 191 8 192 187 192 10 192 10 193 187 193 12 193 188 194 4 194 189 194 189 195 4 195 2 195 189 196 2 196 1 196 6 197 190 197 8 197 8 198 190 198 185 198 8 199 185 199 187 199 187 200 185 200 186 200 6 201 4 201 190 201 190 202 4 202 188 202 190 203 188 203 191 203 191 204 188 204 192 204 191 205 192 205 193 205 193 206 192 206 194 206 193 207 194 207 176 207 176 208 194 208 195 208 176 209 195 209 174 209 196 210 197 210 198 210 199 211 200 211 201 211 201 212 200 212 202 212 202 213 200 213 203 213 202 214 203 214 204 214 198 215 197 215 205 215 205 216 197 216 206 216 205 217 206 217 207 217 207 218 206 218 208 218 207 219 208 219 209 219 198 220 210 220 196 220 196 221 210 221 211 221 196 222 211 222 92 222 201 223 212 223 199 223 199 224 212 224 213 224 199 225 213 225 214 225 214 226 213 226 215 226 95 227 204 227 96 227 96 228 204 228 203 228 96 229 203 229 98 229 98 230 203 230 216 230 98 231 216 231 89 231 89 232 216 232 196 232 89 233 196 233 90 233 90 234 196 234 92 234 217 235 218 235 219 235 219 236 218 236 220 236 219 237 220 237 221 237 221 238 220 238 222 238 221 239 222 239 223 239 223 240 222 240 224 240 225 241 226 241 227 241 227 242 226 242 228 242 227 243 228 243 229 243 229 244 228 244 230 244 229 245 230 245 231 245 232 246 233 246 234 246 234 247 233 247 235 247 235 248 233 248 236 248 235 249 236 249 237 249 238 250 239 250 240 250 240 251 239 251 222 251 241 252 242 252 243 252 217 253 219 253 244 253 244 254 219 254 245 254 244 255 245 255 246 255 246 256 245 256 247 256 246 257 247 257 230 257 230 258 247 258 248 258 230 259 248 259 231 259 249 260 250 260 251 260 251 261 250 261 252 261 251 262 252 262 253 262 253 263 252 263 254 263 253 264 254 264 255 264 255 265 254 265 256 265 255 266 256 266 257 266 257 267 256 267 258 267 257 268 258 268 259 268 259 269 258 269 224 269 259 270 224 270 260 270 260 271 224 271 222 271 260 272 222 272 261 272 261 273 222 273 239 273 241 274 243 274 262 274 262 275 243 275 263 275 262 276 263 276 264 276 264 277 263 277 265 277 264 278 265 278 266 278 266 279 265 279 267 279 266 280 267 280 268 280 268 281 267 281 269 281 268 282 269 282 270 282 270 283 269 283 271 283 270 284 271 284 272 284 272 285 271 285 273 285 272 286 273 286 240 286 240 287 273 287 274 287 240 288 274 288 238 288 244 289 275 289 217 289 217 290 275 290 276 290 217 291 276 291 241 291 242 292 241 292 277 292 277 293 241 293 276 293 277 294 276 294 278 294 234 295 279 295 232 295 232 296 279 296 280 296 232 297 280 297 281 297 281 298 280 298 282 298 281 299 282 299 283 299 283 300 282 300 284 300 284 301 282 301 285 301 284 302 285 302 286 302 247 303 287 303 248 303 248 304 287 304 250 304 248 305 250 305 285 305 285 306 250 306 249 306 285 307 249 307 286 307 278 308 276 308 288 308 288 309 276 309 289 309 288 310 289 310 290 310 290 311 289 311 291 311 290 312 291 312 292 312 292 313 291 313 293 313 292 314 293 314 294 314 294 315 293 315 295 315 294 316 295 316 296 316 296 317 295 317 225 317 296 318 225 318 297 318 297 319 225 319 227 319 297 320 227 320 298 320 298 321 227 321 299 321 298 322 299 322 300 322 236 323 301 323 237 323 237 324 301 324 302 324 237 325 302 325 299 325 299 326 302 326 303 326 299 327 303 327 300 327 304 328 305 328 306 328 307 329 209 329 208 329 308 330 158 330 157 330 308 331 309 331 310 331 310 332 309 332 311 332 310 333 311 333 312 333 312 334 311 334 313 334 314 335 315 335 316 335 316 336 315 336 317 336 316 337 317 337 311 337 311 338 317 338 318 338 311 339 318 339 313 339 319 340 320 340 321 340 321 341 320 341 322 341 321 342 322 342 323 342 323 343 322 343 324 343 323 344 324 344 307 344 325 345 326 345 327 345 327 346 326 346 321 346 321 347 326 347 328 347 321 348 328 348 319 348 329 349 330 349 331 349 331 350 330 350 332 350 331 351 332 351 333 351 334 352 335 352 336 352 336 353 335 353 337 353 336 354 337 354 331 354 331 355 337 355 338 355 331 356 338 356 329 356 305 357 339 357 306 357 306 358 339 358 177 358 306 359 177 359 340 359 341 360 342 360 343 360 343 361 342 361 306 361 306 362 342 362 344 362 306 363 344 363 304 363 332 364 345 364 333 364 333 365 345 365 346 365 333 366 346 366 347 366 347 367 346 367 348 367 347 368 348 368 349 368 349 369 348 369 350 369 349 370 350 370 351 370 351 371 350 371 352 371 351 372 352 372 353 372 353 373 352 373 354 373 353 374 354 374 355 374 355 375 354 375 356 375 355 376 356 376 357 376 357 377 356 377 358 377 357 378 358 378 327 378 327 379 358 379 359 379 327 380 359 380 325 380 177 381 179 381 340 381 340 382 179 382 181 382 340 383 181 383 360 383 360 384 181 384 183 384 360 385 183 385 361 385 361 386 183 386 185 386 361 387 185 387 362 387 362 388 185 388 190 388 362 389 190 389 363 389 363 390 190 390 191 390 363 391 191 391 364 391 364 392 191 392 193 392 364 393 193 393 365 393 365 394 193 394 176 394 365 395 176 395 366 395 366 396 176 396 175 396 366 397 175 397 336 397 336 398 175 398 367 398 336 399 367 399 334 399 308 400 157 400 309 400 309 401 157 401 162 401 309 402 162 402 368 402 368 403 162 403 164 403 368 404 164 404 369 404 369 405 164 405 166 405 369 406 166 406 370 406 370 407 166 407 168 407 370 408 168 408 371 408 371 409 168 409 169 409 371 410 169 410 372 410 372 411 169 411 152 411 372 412 152 412 373 412 373 413 152 413 154 413 373 414 154 414 374 414 374 415 154 415 153 415 374 416 153 416 343 416 343 417 153 417 375 417 343 418 375 418 341 418 307 419 208 419 323 419 323 420 208 420 206 420 323 421 206 421 376 421 376 422 206 422 197 422 376 423 197 423 377 423 377 424 197 424 196 424 377 425 196 425 378 425 378 426 196 426 379 426 378 427 379 427 286 427 286 428 379 428 203 428 286 429 203 429 380 429 380 430 203 430 200 430 380 431 200 431 381 431 381 432 200 432 199 432 381 433 199 433 382 433 382 434 199 434 214 434 382 435 214 435 316 435 316 436 214 436 215 436 316 437 215 437 314 437 383 438 77 438 76 438 80 439 79 439 384 439 345 440 332 440 385 440 348 441 346 441 76 441 384 442 386 442 352 442 385 443 387 443 345 443 345 444 387 444 388 444 345 445 388 445 346 445 346 446 388 446 389 446 346 447 389 447 390 447 76 448 86 448 348 448 348 449 86 449 84 449 348 450 84 450 82 450 352 451 386 451 354 451 354 452 386 452 391 452 354 453 391 453 356 453 356 454 391 454 392 454 356 455 392 455 358 455 358 456 392 456 393 456 358 457 393 457 359 457 390 458 394 458 346 458 346 459 394 459 395 459 346 460 395 460 76 460 76 461 395 461 396 461 76 462 396 462 383 462 352 463 350 463 384 463 384 464 350 464 348 464 384 465 348 465 80 465 80 466 348 466 82 466 397 467 89 467 398 467 398 468 89 468 88 468 398 469 88 469 399 469 400 470 401 470 99 470 99 471 401 471 402 471 99 472 402 472 88 472 88 473 402 473 403 473 88 474 403 474 399 474 397 475 404 475 89 475 89 476 404 476 405 476 89 477 405 477 98 477 405 478 406 478 98 478 98 479 406 479 407 479 98 480 407 480 99 480 99 481 407 481 408 481 99 482 408 482 400 482 409 483 410 483 411 483 412 484 413 484 62 484 93 485 414 485 91 485 91 486 414 486 88 486 415 487 416 487 417 487 417 488 416 488 411 488 417 489 411 489 418 489 418 490 411 490 410 490 416 491 83 491 85 491 415 492 78 492 416 492 416 493 78 493 81 493 416 494 81 494 83 494 414 495 409 495 88 495 88 496 409 496 411 496 88 497 411 497 99 497 99 498 411 498 419 498 99 499 419 499 97 499 420 500 421 500 419 500 419 501 421 501 94 501 419 502 94 502 97 502 62 503 65 503 412 503 412 504 65 504 67 504 412 505 67 505 69 505 413 506 422 506 423 506 423 507 424 507 413 507 413 508 424 508 425 508 413 509 425 509 62 509 62 510 425 510 426 510 62 511 426 511 148 511 85 512 87 512 416 512 416 513 87 513 75 513 416 514 75 514 74 514 69 515 71 515 412 515 412 516 71 516 73 516 412 517 73 517 427 517 427 518 428 518 412 518 412 519 428 519 429 519 412 520 429 520 419 520 419 521 429 521 430 521 419 522 430 522 420 522 422 523 413 523 431 523 431 524 413 524 432 524 431 525 432 525 13 525 0 526 3 526 432 526 432 527 3 527 5 527 432 528 5 528 7 528 7 529 9 529 432 529 432 530 9 530 11 530 432 531 11 531 13 531 433 532 434 532 403 532 435 533 436 533 399 533 399 534 436 534 398 534 403 535 434 535 399 535 399 536 434 536 437 536 399 537 437 537 435 537 433 538 403 538 438 538 438 539 403 539 439 539 438 540 439 540 440 540 440 541 439 541 401 541 440 542 401 542 441 542 441 543 401 543 442 543 442 544 401 544 400 544 442 545 400 545 443 545 443 546 400 546 444 546 444 547 400 547 408 547 444 548 408 548 445 548 445 549 408 549 446 549 446 550 408 550 407 550 446 551 407 551 447 551 406 552 448 552 407 552 407 553 448 553 449 553 407 554 449 554 447 554 404 555 450 555 451 555 451 556 450 556 452 556 451 557 452 557 406 557 406 558 452 558 453 558 406 559 453 559 448 559 397 560 454 560 404 560 404 561 454 561 455 561 404 562 455 562 450 562 436 563 456 563 398 563 398 564 456 564 457 564 398 565 457 565 397 565 397 566 457 566 458 566 397 567 458 567 454 567 453 568 459 568 460 568 460 569 459 569 450 569 460 570 450 570 455 570 447 571 449 571 460 571 460 572 449 572 448 572 460 573 448 573 453 573 444 574 445 574 460 574 460 575 445 575 446 575 460 576 446 576 447 576 433 577 461 577 460 577 460 578 461 578 440 578 460 579 440 579 441 579 441 580 442 580 460 580 460 581 442 581 443 581 460 582 443 582 444 582 435 583 437 583 460 583 460 584 437 584 434 584 460 585 434 585 433 585 455 586 454 586 460 586 460 587 454 587 458 587 460 588 458 588 457 588 457 589 456 589 460 589 460 590 456 590 436 590 460 591 436 591 435 591 59 592 43 592 462 592 462 593 43 593 46 593 462 594 46 594 35 594 58 595 61 595 462 595 462 596 61 596 60 596 462 597 60 597 59 597 53 598 55 598 462 598 462 599 55 599 56 599 462 600 56 600 58 600 23 601 20 601 462 601 462 602 20 602 21 602 462 603 21 603 22 603 22 604 50 604 462 604 462 605 50 605 52 605 462 606 52 606 53 606 29 607 27 607 462 607 462 608 27 608 16 608 462 609 16 609 23 609 35 610 37 610 462 610 462 611 37 611 39 611 462 612 39 612 41 612 41 613 42 613 462 613 462 614 42 614 31 614 462 615 31 615 29 615 108 616 107 616 463 616 463 617 107 617 106 617 463 618 106 618 144 618 114 619 112 619 463 619 463 620 112 620 102 620 463 621 102 621 108 621 126 622 127 622 463 622 463 623 127 623 116 623 463 624 116 624 114 624 139 625 128 625 463 625 463 626 128 626 131 626 463 627 131 627 120 627 120 628 122 628 463 628 463 629 122 629 124 629 463 630 124 630 126 630 135 631 141 631 463 631 463 632 141 632 140 632 463 633 140 633 139 633 144 634 143 634 463 634 463 635 143 635 147 635 463 636 147 636 146 636 146 637 145 637 463 637 463 638 145 638 136 638 463 639 136 639 135 639 464 640 465 640 466 640 466 641 465 641 264 641 464 642 467 642 465 642 465 643 467 643 468 643 465 644 468 644 469 644 470 645 471 645 472 645 472 646 471 646 469 646 472 647 469 647 473 647 473 648 469 648 468 648 470 649 474 649 471 649 471 650 474 650 475 650 471 651 475 651 476 651 476 652 475 652 477 652 477 653 478 653 476 653 476 654 478 654 479 654 476 655 479 655 480 655 481 656 482 656 483 656 483 657 482 657 480 657 483 658 480 658 484 658 484 659 480 659 479 659 481 660 485 660 482 660 482 661 485 661 486 661 482 662 486 662 487 662 487 663 486 663 488 663 487 664 488 664 489 664 489 665 490 665 487 665 487 666 490 666 491 666 487 667 491 667 492 667 492 668 491 668 493 668 492 669 493 669 494 669 494 670 495 670 492 670 492 671 495 671 496 671 492 672 496 672 497 672 497 673 496 673 498 673 497 674 498 674 499 674 499 675 500 675 497 675 497 676 500 676 501 676 497 677 501 677 502 677 502 678 501 678 503 678 502 679 503 679 504 679 504 680 505 680 502 680 502 681 505 681 506 681 502 682 506 682 507 682 507 683 506 683 508 683 508 684 509 684 507 684 507 685 509 685 510 685 507 686 510 686 264 686 264 687 510 687 511 687 264 688 511 688 466 688 337 689 335 689 508 689 508 690 506 690 337 690 337 691 506 691 505 691 337 692 505 692 338 692 505 693 504 693 338 693 338 694 504 694 503 694 338 695 503 695 329 695 329 696 503 696 501 696 387 697 385 697 500 697 500 698 385 698 332 698 500 699 332 699 501 699 501 700 332 700 330 700 501 701 330 701 329 701 500 702 499 702 387 702 387 703 499 703 498 703 387 704 498 704 388 704 388 705 498 705 496 705 388 706 496 706 389 706 389 707 496 707 495 707 389 708 495 708 390 708 495 709 494 709 390 709 390 710 494 710 493 710 390 711 493 711 394 711 394 712 493 712 491 712 394 713 491 713 395 713 395 714 491 714 490 714 395 715 490 715 396 715 490 716 489 716 396 716 396 717 489 717 488 717 396 718 488 718 383 718 383 719 488 719 486 719 383 720 486 720 77 720 77 721 486 721 485 721 77 722 485 722 512 722 512 723 485 723 481 723 512 724 481 724 513 724 513 725 481 725 483 725 513 726 483 726 514 726 483 727 484 727 514 727 514 728 484 728 479 728 514 729 479 729 515 729 479 730 478 730 515 730 515 731 478 731 477 731 515 732 477 732 516 732 516 733 477 733 475 733 516 734 475 734 517 734 475 735 474 735 517 735 517 736 474 736 470 736 517 737 470 737 1 737 1 738 470 738 472 738 1 739 472 739 189 739 189 740 472 740 473 740 189 741 473 741 188 741 188 742 473 742 468 742 188 743 468 743 192 743 335 744 334 744 508 744 508 745 334 745 367 745 508 746 367 746 509 746 509 747 367 747 175 747 509 748 175 748 510 748 510 749 175 749 174 749 510 750 174 750 511 750 511 751 174 751 195 751 511 752 195 752 466 752 466 753 195 753 194 753 466 754 194 754 464 754 464 755 194 755 192 755 464 756 192 756 467 756 467 757 192 757 468 757 518 758 519 758 219 758 518 759 520 759 519 759 519 760 520 760 521 760 519 761 521 761 522 761 522 762 521 762 523 762 524 763 525 763 526 763 526 764 525 764 522 764 526 765 522 765 527 765 527 766 522 766 523 766 524 767 528 767 525 767 525 768 528 768 529 768 525 769 529 769 530 769 530 770 529 770 531 770 531 771 532 771 530 771 530 772 532 772 533 772 530 773 533 773 534 773 534 774 533 774 535 774 536 775 537 775 538 775 535 776 539 776 534 776 534 777 539 777 540 777 534 778 540 778 538 778 538 779 540 779 541 779 538 780 541 780 536 780 536 781 542 781 537 781 537 782 542 782 543 782 537 783 543 783 544 783 543 784 545 784 544 784 544 785 545 785 546 785 544 786 546 786 547 786 548 787 549 787 550 787 550 788 549 788 547 788 550 789 547 789 551 789 551 790 547 790 546 790 552 791 553 791 554 791 554 792 553 792 549 792 554 793 549 793 555 793 555 794 549 794 548 794 552 795 556 795 553 795 553 796 556 796 557 796 553 797 557 797 219 797 219 798 557 798 558 798 219 799 558 799 518 799 319 800 328 800 545 800 551 801 546 801 325 801 545 802 328 802 546 802 546 803 328 803 326 803 546 804 326 804 325 804 319 805 545 805 320 805 320 806 545 806 543 806 320 807 543 807 322 807 322 808 543 808 542 808 322 809 542 809 324 809 324 810 542 810 307 810 307 811 542 811 536 811 307 812 536 812 209 812 209 813 536 813 541 813 209 814 541 814 207 814 384 815 552 815 386 815 386 816 552 816 554 816 386 817 554 817 391 817 325 818 359 818 551 818 551 819 359 819 393 819 551 820 393 820 550 820 550 821 393 821 392 821 550 822 392 822 548 822 548 823 392 823 391 823 548 824 391 824 555 824 555 825 391 825 554 825 207 826 541 826 205 826 205 827 541 827 540 827 205 828 540 828 198 828 540 829 539 829 198 829 198 830 539 830 535 830 198 831 535 831 210 831 210 832 535 832 533 832 210 833 533 833 211 833 533 834 532 834 211 834 211 835 532 835 531 835 211 836 531 836 92 836 92 837 531 837 529 837 92 838 529 838 559 838 529 839 528 839 559 839 559 840 528 840 524 840 559 841 524 841 560 841 560 842 524 842 526 842 560 843 526 843 561 843 526 844 527 844 561 844 561 845 527 845 523 845 561 846 523 846 562 846 523 847 521 847 562 847 562 848 521 848 520 848 562 849 520 849 563 849 563 850 520 850 518 850 563 851 518 851 564 851 564 852 518 852 558 852 564 853 558 853 79 853 79 854 558 854 557 854 79 855 557 855 384 855 384 856 557 856 556 856 384 857 556 857 552 857 565 858 566 858 567 858 567 859 566 859 227 859 565 860 568 860 566 860 566 861 568 861 569 861 566 862 569 862 570 862 570 863 569 863 571 863 572 864 573 864 574 864 571 865 575 865 570 865 570 866 575 866 576 866 570 867 576 867 574 867 574 868 576 868 577 868 574 869 577 869 572 869 572 870 578 870 573 870 573 871 578 871 579 871 573 872 579 872 580 872 579 873 581 873 580 873 580 874 581 874 582 874 580 875 582 875 583 875 584 876 585 876 586 876 586 877 585 877 583 877 586 878 583 878 587 878 587 879 583 879 582 879 588 880 589 880 590 880 590 881 589 881 585 881 590 882 585 882 591 882 591 883 585 883 584 883 592 884 593 884 594 884 594 885 593 885 589 885 594 886 589 886 595 886 595 887 589 887 588 887 592 888 596 888 593 888 593 889 596 889 597 889 593 890 597 890 598 890 599 891 600 891 601 891 601 892 600 892 598 892 601 893 598 893 602 893 602 894 598 894 597 894 599 895 603 895 600 895 600 896 603 896 604 896 600 897 604 897 227 897 227 898 604 898 605 898 227 899 605 899 567 899 317 900 581 900 579 900 587 901 582 901 314 901 581 902 317 902 582 902 582 903 317 903 315 903 582 904 315 904 314 904 310 905 312 905 578 905 578 906 312 906 313 906 578 907 313 907 579 907 579 908 313 908 318 908 579 909 318 909 317 909 310 910 578 910 308 910 308 911 578 911 572 911 308 912 572 912 158 912 158 913 572 913 577 913 158 914 577 914 159 914 606 915 607 915 599 915 599 916 601 916 606 916 606 917 601 917 602 917 606 918 602 918 608 918 608 919 602 919 597 919 608 920 597 920 609 920 597 921 596 921 609 921 609 922 596 922 592 922 609 923 592 923 95 923 95 924 592 924 594 924 95 925 594 925 204 925 594 926 595 926 204 926 204 927 595 927 588 927 204 928 588 928 202 928 202 929 588 929 590 929 202 930 590 930 201 930 314 931 215 931 587 931 587 932 215 932 213 932 587 933 213 933 586 933 586 934 213 934 212 934 586 935 212 935 584 935 584 936 212 936 201 936 584 937 201 937 591 937 591 938 201 938 590 938 159 939 577 939 163 939 163 940 577 940 576 940 163 941 576 941 165 941 576 942 575 942 165 942 165 943 575 943 571 943 165 944 571 944 167 944 167 945 571 945 569 945 167 946 569 946 160 946 569 947 568 947 160 947 160 948 568 948 565 948 160 949 565 949 72 949 72 950 565 950 567 950 72 951 567 951 610 951 610 952 567 952 605 952 610 953 605 953 611 953 611 954 605 954 604 954 611 955 604 955 607 955 607 956 604 956 603 956 607 957 603 957 599 957 612 958 613 958 614 958 614 959 613 959 291 959 612 960 615 960 613 960 613 961 615 961 616 961 613 962 616 962 617 962 617 963 616 963 618 963 617 964 618 964 619 964 619 965 620 965 617 965 617 966 620 966 621 966 617 967 621 967 622 967 622 968 621 968 623 968 622 969 623 969 624 969 624 970 625 970 622 970 622 971 625 971 626 971 622 972 626 972 627 972 627 973 626 973 628 973 627 974 628 974 629 974 629 975 630 975 627 975 627 976 630 976 631 976 627 977 631 977 632 977 632 978 631 978 633 978 632 979 633 979 634 979 635 980 636 980 637 980 637 981 636 981 632 981 637 982 632 982 638 982 638 983 632 983 634 983 635 984 639 984 636 984 636 985 639 985 640 985 636 986 640 986 641 986 642 987 643 987 644 987 644 988 643 988 641 988 644 989 641 989 645 989 645 990 641 990 640 990 646 991 647 991 648 991 648 992 647 992 643 992 648 993 643 993 649 993 649 994 643 994 642 994 646 995 650 995 647 995 647 996 650 996 651 996 647 997 651 997 652 997 653 998 654 998 655 998 655 999 654 999 652 999 655 1000 652 1000 656 1000 656 1001 652 1001 651 1001 653 1002 657 1002 654 1002 654 1003 657 1003 658 1003 654 1004 658 1004 291 1004 291 1005 658 1005 659 1005 291 1006 659 1006 614 1006 657 1007 653 1007 184 1007 342 1008 618 1008 616 1008 618 1009 342 1009 619 1009 341 1010 375 1010 621 1010 621 1011 375 1011 623 1011 341 1012 621 1012 342 1012 342 1013 621 1013 620 1013 342 1014 620 1014 619 1014 612 1015 305 1015 615 1015 615 1016 305 1016 304 1016 615 1017 304 1017 616 1017 616 1018 304 1018 344 1018 616 1019 344 1019 342 1019 614 1020 177 1020 612 1020 612 1021 177 1021 339 1021 612 1022 339 1022 305 1022 184 1023 653 1023 186 1023 186 1024 653 1024 655 1024 186 1025 655 1025 187 1025 655 1026 656 1026 187 1026 187 1027 656 1027 651 1027 187 1028 651 1028 12 1028 12 1029 651 1029 650 1029 12 1030 650 1030 660 1030 660 1031 650 1031 646 1031 660 1032 646 1032 661 1032 661 1033 646 1033 648 1033 661 1034 648 1034 662 1034 648 1035 649 1035 662 1035 662 1036 649 1036 642 1036 662 1037 642 1037 663 1037 642 1038 644 1038 663 1038 663 1039 644 1039 645 1039 663 1040 645 1040 664 1040 664 1041 645 1041 640 1041 664 1042 640 1042 665 1042 640 1043 639 1043 665 1043 665 1044 639 1044 635 1044 665 1045 635 1045 149 1045 149 1046 635 1046 637 1046 149 1047 637 1047 161 1047 161 1048 637 1048 170 1048 637 1049 638 1049 170 1049 170 1050 638 1050 634 1050 170 1051 634 1051 150 1051 150 1052 634 1052 633 1052 150 1053 633 1053 151 1053 151 1054 633 1054 631 1054 151 1055 631 1055 171 1055 631 1056 630 1056 171 1056 171 1057 630 1057 629 1057 171 1058 629 1058 172 1058 172 1059 629 1059 628 1059 172 1060 628 1060 173 1060 173 1061 628 1061 626 1061 173 1062 626 1062 156 1062 375 1063 153 1063 623 1063 623 1064 153 1064 155 1064 623 1065 155 1065 624 1065 624 1066 155 1066 156 1066 624 1067 156 1067 625 1067 625 1068 156 1068 626 1068 657 1069 184 1069 658 1069 658 1070 184 1070 182 1070 658 1071 182 1071 659 1071 659 1072 182 1072 180 1072 659 1073 180 1073 614 1073 614 1074 180 1074 178 1074 614 1075 178 1075 177 1075 110 1076 109 1076 665 1076 426 1077 129 1077 148 1077 148 1078 129 1078 134 1078 148 1079 134 1079 133 1079 665 1080 109 1080 664 1080 664 1081 109 1081 101 1081 664 1082 101 1082 100 1082 100 1083 111 1083 664 1083 664 1084 111 1084 113 1084 664 1085 113 1085 115 1085 117 1086 125 1086 425 1086 425 1087 125 1087 123 1087 425 1088 123 1088 121 1088 121 1089 119 1089 425 1089 425 1090 119 1090 118 1090 425 1091 118 1091 426 1091 426 1092 118 1092 130 1092 426 1093 130 1093 129 1093 110 1094 665 1094 105 1094 105 1095 665 1095 149 1095 105 1096 149 1096 103 1096 13 1097 12 1097 431 1097 431 1098 12 1098 660 1098 431 1099 660 1099 422 1099 422 1100 660 1100 661 1100 422 1101 661 1101 423 1101 423 1102 661 1102 662 1102 423 1103 662 1103 424 1103 424 1104 662 1104 663 1104 424 1105 663 1105 425 1105 425 1106 663 1106 664 1106 425 1107 664 1107 117 1107 117 1108 664 1108 115 1108 611 1109 427 1109 610 1109 610 1110 427 1110 73 1110 610 1111 73 1111 72 1111 95 1112 94 1112 609 1112 609 1113 94 1113 421 1113 609 1114 421 1114 608 1114 608 1115 421 1115 420 1115 608 1116 420 1116 606 1116 606 1117 420 1117 430 1117 606 1118 430 1118 607 1118 607 1119 430 1119 429 1119 607 1120 429 1120 611 1120 611 1121 429 1121 428 1121 611 1122 428 1122 427 1122 93 1123 92 1123 414 1123 414 1124 92 1124 559 1124 414 1125 559 1125 409 1125 409 1126 559 1126 560 1126 409 1127 560 1127 410 1127 410 1128 560 1128 561 1128 410 1129 561 1129 418 1129 418 1130 561 1130 562 1130 418 1131 562 1131 417 1131 562 1132 563 1132 417 1132 417 1133 563 1133 564 1133 417 1134 564 1134 415 1134 415 1135 564 1135 79 1135 415 1136 79 1136 78 1136 25 1137 24 1137 416 1137 512 1138 44 1138 77 1138 77 1139 44 1139 49 1139 77 1140 49 1140 48 1140 416 1141 24 1141 411 1141 411 1142 24 1142 15 1142 411 1143 15 1143 14 1143 14 1144 26 1144 411 1144 411 1145 26 1145 28 1145 411 1146 28 1146 30 1146 32 1147 40 1147 513 1147 513 1148 40 1148 38 1148 513 1149 38 1149 36 1149 36 1150 34 1150 513 1150 513 1151 34 1151 33 1151 513 1152 33 1152 512 1152 512 1153 33 1153 45 1153 512 1154 45 1154 44 1154 25 1155 416 1155 17 1155 17 1156 416 1156 74 1156 17 1157 74 1157 18 1157 30 1158 32 1158 411 1158 411 1159 32 1159 513 1159 411 1160 513 1160 419 1160 419 1161 513 1161 514 1161 419 1162 514 1162 412 1162 412 1163 514 1163 515 1163 412 1164 515 1164 413 1164 413 1165 515 1165 516 1165 413 1166 516 1166 432 1166 432 1167 516 1167 517 1167 432 1168 517 1168 0 1168 0 1169 517 1169 1 1169</p>
        </triangles>
      </mesh>
    </geometry>
  </library_geometries>
  <library_visual_scenes>
    <visual_scene id="Scene" name="Scene">
      <node id="link_mount" name="link_mount" type="NODE">
        <matrix sid="transform">1 0 0 0 0 1 0 0 0 0 1 0 0 0 0 1</matrix>
        <instance_geometry url="#link_mount-mesh" name="link_mount">
          <bind_material>
            <technique_common>
              <instance_material symbol="silver-material" target="#silver-material"/>
            </technique_common>
          </bind_material>
        </instance_geometry>
      </node>
    </visual_scene>
  </library_visual_scenes>
  <scene>
    <instance_visual_scene url="#Scene"/>
  </scene>
</COLLADA>