<?xml version="1.0" encoding="utf-8"?>
<COLLADA xmlns="http://www.collada.org/2005/11/COLLADASchema" version="1.4.1" xmlns:xsi="http://www.w3.org/2001/XMLSchema-instance">
  <asset>
    <contributor>
      <author>Blender User</author>
      <authoring_tool>Blender 4.5.7 LTS commit date:2026-02-16, commit time:13:34, hash:a9874eeece8d</authoring_tool>
    </contributor>
    <created>2026-10-01T12:26:40</created>
    <modified>2026-10-01T12:26:40</modified>
    <unit name="meter" meter="1"/>
    <up_axis>Z_UP</up_axis>
  </asset>
  <library_effects>
    <effect id="base-effect">
      <profile_COMMON>
        <technique sid="common">
          <lambert>
            <emission>
              <color sid="emission">0 0 0 1</color>
            </emission>
            <diffuse>
              <color sid="diffuse">0.22 0.22 0.17 1</color>
            </diffuse>
            <index_of_refraction>
              <float sid="ior">1.5</float>
            </index_of_refraction>
          </lambert>
        </technique>
      </profile_COMMON>
    </effect>
  </library_effects>
  <library_images/>
  <library_materials>
    <material id="base-material" name="base">
      <instance_effect url="#base-effect"/>
    </material>
  </library_materials>
  <library_geometries>
    <geometry id="link_3-mesh" name="link_3">
      <mesh>
        <source id="link_3-mesh-positions">
          <float_array id="link_3-mesh-positions-array" count="1755">0.03179997 0.009499967 0.007699966 0.03179997 -0.009499967 0.007699966 0.03179997 0.009499967 -0.007699966 0.03179997 -0.009499967 -0.007699966 0.03179997 0.005999982 0.01119995 0.03179997 0.009328663 0.008781552 0.03179997 -0.005999982 0.01119995 0.03179997 -0.007081508 0.01102864 0.03179997 -0.008057236 0.01053154 0.03179997 -0.00883156 0.00975722 0.03179997 -0.009328663 0.008781552 0.03179997 -0.008057236 -0.01053154 0.03179997 -0.00883156 -0.00975722 0.03179997 -0.009328663 -0.008781552 0.03179997 0.008057236 -0.01053154 0.03179997 0.00883156 -0.00975722 0.03179997 0.009328663 -0.008781552 0.03179997 0.00883156 0.00975722 0.03179997 0.008057236 0.01053154 0.03179997 0.007081508 0.01102864 0.03179997 -0.007081508 -0.01102864 0.03179997 -0.005999982 -0.01119995 0.03179997 0.005999982 -0.01119995 0.03179997 0.007081508 -0.01102864 0.02039998 -0.005999982 -0.01119995 0.02039998 -0.007081508 -0.01102864 0.02039998 -0.008057236 -0.01053154 0.02039998 -0.00883156 -0.00975722 0.02039998 -0.009328663 -0.008781552 0.02039998 -0.009499967 -0.007699966 0.009366452 -0.007937669 -0.01119995 0.008138656 -0.007241666 -0.01119995 0.007903814 -0.007019102 -0.01119995 0.02002722 0.007657408 -0.01119995 0.02021795 0.007143199 -0.01119995 0.007699966 0.006413996 -0.01119995 0.02017492 -0.007275104 -0.01119995 0.01985764 -0.008022069 -0.01119995 0.01959884 0.008499979 -0.01119995 0.01122993 0.008499979 -0.01119995 0.01069068 0.008425891 -0.01119995 0.009366452 0.007937669 -0.01119995 0.02025735 0.007008671 -0.01119995 0.02037775 0.00639224 -0.01119995 0.007699966 -0.006413996 -0.01119995 0.02039998 0.005999982 -0.01119995 0.007752299 -0.006733298 -0.01119995 0.02034407 -0.006625235 -0.01119995 0.007752299 0.006733298 -0.01119995 0.007903814 0.007019102 -0.01119995 0.008138656 0.007241666 -0.01119995 0.01069068 -0.008425891 -0.01119995 0.01122993 -0.008499979 -0.01119995 0.01959884 -0.008499979 -0.01119995 0.02039998 0.009499967 -0.007699966 0.02039998 0.009328663 -0.008781552 0.02039998 0.00883156 -0.00975722 0.02039998 0.008057236 -0.01053154 0.02039998 0.007081508 -0.01102864 0.02037864 0.009499907 -0.008087396 0.02026116 0.009499967 -0.008695602 0.01955085 0.009496271 -0.01028668 0.01959884 0.009499967 -0.01019996 0.02003049 0.009499907 -0.009350121 0.02021783 0.009499967 -0.008843719 0.01946198 0.008778691 -0.01116037 0.01937961 0.009054243 -0.0110324 0.01942527 0.009425222 -0.01057928 0.01936823 0.009273707 -0.0108335 0.01936447 0.009203493 -0.01091063 0.01122993 0.008882641 -0.01112383 0.01122993 0.009207069 -0.01090705 0.01122993 0.009423851 -0.01058268 0.01122993 0.009437441 -0.01054805 0.01122993 0.009499967 -0.01019996 0.01042103 0.009388864 -0.01019996 0.01042103 0.009388864 -0.005558073 0.01071298 0.009454965 -0.005396604 0.01122993 0.009499967 -0.005099952 0 0.009422957 -0.005484879 0.01022797 0.009332656 -0.005653917 0 0.009203672 -0.005810439 0 0.009499967 -0.005099952 0.00827372 0.008499979 -0.006099998 0 0.008499979 -0.006099998 0.008886814 0.00881648 -0.006048977 0 0.008876025 -0.006026566 0.00955379 0.009101569 -0.005898833 0.009833991 0.009204328 -0.005809843 0 -0.009422957 -0.005484879 0 -0.009203672 -0.005810439 0.009866952 -0.009215772 -0.00579828 0.01042103 -0.009388864 -0.005558073 0.01062673 -0.009438574 -0.005444943 0 -0.009499967 -0.005099952 0.0109288 -0.009484767 -0.005273759 0.01122993 -0.009499967 -0.005099952 0 -0.008876025 -0.006026566 0 -0.008499979 -0.006099998 0.00827372 -0.008499979 -0.006099998 0.00859183 -0.008671045 -0.006085574 0.008955776 -0.008848726 -0.006037533 0.009283542 -0.008993089 -0.005969941 0.01042103 -0.009388864 -0.01019996 0.01122993 -0.009499967 -0.01019996 0.01936441 -0.009206891 -0.01090723 0.01936918 -0.009280025 -0.01082569 0.01122993 -0.009438157 -0.01054608 0.01942932 -0.009429574 -0.01056855 0.01955819 -0.009497284 -0.01027292 0.01959884 -0.009499967 -0.01019996 0.01122993 -0.009423851 -0.01058268 0.01122993 -0.009207069 -0.01090705 0.01937824 -0.009063601 -0.01102602 0.01122993 -0.008882641 -0.01112383 0.01945626 -0.008794307 -0.01115566 0.02034455 -0.009500086 -0.008324563 0.02018815 -0.009499967 -0.008935868 0.01988101 -0.009499907 -0.009675443 -0.002113938 -0.009261786 -0.005099952 -0.002935647 -0.009034991 -0.005099952 -0.002911806 -0.008961737 -0.005484879 -0.008559167 -0.00412184 -0.005099952 -0.009034991 -0.002935647 -0.005099952 -0.008961737 -0.002911806 -0.005484879 -0.009261786 0.002113938 -0.005099952 -0.009034991 0.002935647 -0.005099952 -0.008961737 0.002911806 -0.005484879 -0.002113938 0.009261786 -0.005099952 -0.001486122 0.009383022 -0.005099952 -0.001474022 0.009306907 -0.005484879 -0.00143975 0.009090363 -0.005810439 -0.002844095 0.00875324 -0.005810439 -0.00138849 0.00876671 -0.006026566 -0.002742826 0.008441567 -0.006026566 -0.008480191 5.80309e-4 -0.006099998 -0.008497774 -1.93836e-4 -0.006099998 -0.008876025 0 -0.006026566 -0.008395314 0.00132966 -0.006099998 -0.004029631 0.007908582 -0.006026566 -0.004178345 0.008200526 -0.005810439 -0.005217194 0.007180809 -0.006026566 -0.005409777 0.007445931 -0.005810439 -0.006276249 0.006276249 -0.006026566 -0.006507992 0.006507992 -0.005810439 -0.007180809 0.005217194 -0.006026566 -0.007445931 0.005409777 -0.005810439 -0.007908582 0.004029631 -0.006026566 -0.008200526 0.004178345 -0.005810439 -0.002911806 0.008961737 -0.005484879 -0.004277884 0.00839591 -0.005484879 -0.005538642 0.007623314 -0.005484879 -0.006663024 0.006663024 -0.005484879 -0.007623314 0.005538642 -0.005484879 -0.00839591 0.004277884 -0.005484879 -0.008319437 -0.001742541 -0.006099998 -0.008083999 -0.002626657 -0.006099998 -0.00876671 -0.00138849 -0.006026566 -0.008441567 -0.002742826 -0.006026566 -0.009090363 -0.00143975 -0.005810439 -0.00875324 -0.002844095 -0.005810439 -0.009306907 -0.001474022 -0.005484879 -0.007072925 -0.004714131 -0.006099998 -0.006010353 -0.006010353 -0.006099998 -0.007180809 -0.005217194 -0.006026566 -0.006276249 -0.006276249 -0.006026566 -0.007445931 -0.005409777 -0.005810439 -0.006507992 -0.006507992 -0.005810439 -0.007623314 -0.005538642 -0.005484879 -0.006663024 -0.006663024 -0.005484879 -0.004831552 -0.006993234 -0.006099998 -0.005217194 -0.007180809 -0.006026566 -0.005409777 -0.007445931 -0.005810439 -0.005538642 -0.007623314 -0.005484879 -0.003330528 -0.007820308 -0.006099998 -0.004029631 -0.007908582 -0.006026566 -0.004178345 -0.008200526 -0.005810439 -0.004277884 -0.00839591 -0.005484879 -0.002935647 0.009034991 -0.005099952 -0.00412184 0.008559167 -0.005099952 -0.004312872 0.008464515 -0.005099952 -0.005583941 0.007685661 -0.005099952 -0.008559167 0.00412184 -0.005099952 -0.008464515 0.004312872 -0.005099952 -0.007685661 0.005583941 -0.005099952 -0.007427394 0.005923151 -0.005099952 -0.006717503 0.006717503 -0.005099952 -0.005923151 0.007427394 -0.005099952 -0.00875324 0.002844095 -0.005810439 -0.008441567 0.002742826 -0.006026566 -0.009383022 0.001486122 -0.005099952 -0.009306907 0.001474022 -0.005484879 -0.009090363 0.00143975 -0.005810439 -0.00876671 0.00138849 -0.006026566 -0.009499967 0 -0.005099952 -0.009422957 0 -0.005484879 -0.009203672 0 -0.005810439 -0.008189976 0.002275049 -0.006099998 -0.007554471 0.003896236 -0.006099998 -0.006618499 0.005333542 -0.006099998 -0.006010353 0.006010353 -0.006099998 -0.005442619 0.006529092 -0.006099998 -0.004065155 0.007464945 -0.006099998 -0.002568602 0.008102655 -0.006099998 -0.00101304 0.008439481 -0.006099998 -0.009383022 -0.001486122 -0.005099952 -0.009261786 -0.002113938 -0.005099952 -0.008464515 -0.004312872 -0.005099952 -0.00839591 -0.004277884 -0.005484879 -0.008200526 -0.004178345 -0.005810439 -0.007908582 -0.004029631 -0.006026566 -0.007846832 -0.003267467 -0.006099998 -0.007685661 -0.005583941 -0.005099952 -0.00412184 -0.008559167 -0.005099952 -0.004312872 -0.008464515 -0.005099952 -0.005583941 -0.007685661 -0.005099952 -0.005923151 -0.007427394 -0.005099952 -0.006717503 -0.006717503 -0.005099952 -0.007427394 -0.005923151 -0.005099952 -0.002844095 -0.00875324 -0.005810439 -0.002742826 -0.008441567 -0.006026566 -0.002626657 -0.008083999 -0.006099998 -0.001486122 -0.009383022 -0.005099952 -0.001474022 -0.009306907 -0.005484879 -0.00143975 -0.009090363 -0.005810439 -0.00138849 -0.00876671 -0.006026566 -0.001675486 -0.008333206 -0.006099998 0 -0.008876025 -0.006026566 0 -0.009203672 -0.005810439 0 -0.009422957 -0.005484879 0.01058751 -0.008794426 -0.01112383 0.01050001 -0.009106814 -0.01090705 0.01044154 -0.00931555 -0.01058268 0.009659349 -0.008472859 -0.01112651 0.007927536 -0.007552921 -0.01112651 0.008768677 -0.008059561 -0.01112651 0.007743656 -0.007824063 -0.01091039 0.008614957 -0.008348882 -0.01091039 0.007620632 -0.008005499 -0.01058483 0.008512139 -0.008542478 -0.01058483 0.007577419 -0.008069276 -0.01019996 0.008476018 -0.008610486 -0.01019996 0.009427547 -0.009052097 -0.01019996 0.009456157 -0.008980572 -0.01058483 0.009537637 -0.008777022 -0.01091039 0.006932914 -0.007350742 -0.01019996 0.006804645 -0.00705254 -0.01019996 0.006876766 -0.007028222 -0.01058268 0.007317304 -0.006413996 -0.01112383 0.007389664 -0.006855428 -0.01112383 0.007199943 -0.006413996 -0.01106601 0.007082223 -0.006959021 -0.01090705 0.00683397 -0.006413996 -0.01069998 0.006992876 -0.006413996 -0.01090705 0.006699979 -0.006413996 -0.01019996 0.006776094 -0.006413996 -0.01058268 0.007107675 -0.007624208 -0.01019996 0.007168292 -0.007578194 -0.01058268 0.007340848 -0.007447004 -0.01090705 0.007599174 -0.007250666 -0.01112383 0.007317304 0.006413996 -0.01112383 0.007199943 0.006413996 -0.01106601 0.006992876 0.006413996 -0.01090705 0.00683397 0.006413996 -0.01069998 0.006776094 0.006413996 -0.01058268 0.006699979 0.006413996 -0.01019996 0.007389664 0.006855428 -0.01112383 0.007599174 0.007250666 -0.01112383 0.007082223 0.006959021 -0.01090705 0.007927536 0.007552921 -0.01112651 0.007340848 0.007447004 -0.01090705 0.007743656 0.007824063 -0.01091039 0.007168292 0.007578194 -0.01058268 0.007620632 0.008005499 -0.01058483 0.006876766 0.007028222 -0.01058268 0.007577419 0.008069276 -0.01019996 0.007107675 0.007624208 -0.01019996 0.006932914 0.007350742 -0.01019996 0.006804645 0.00705254 -0.01019996 0.01058751 0.008794426 -0.01112383 0.009659349 0.008472859 -0.01112651 0.009537637 0.008777022 -0.01091039 0.01050001 0.009106814 -0.01090705 0.009456157 0.008980572 -0.01058483 0.01044154 0.00931555 -0.01058268 0.009427547 0.009052097 -0.01019996 0.008476018 0.008610486 -0.01019996 0.008512139 0.008542478 -0.01058483 0.008614957 0.008348882 -0.01091039 0.008768677 0.008059561 -0.01112651 0.007577419 0.008069276 -0.006099998 0.007577419 -0.008069276 -0.006099998 0.006699979 0.006413996 -0.006099998 0.006932914 0.007350742 -0.006099998 0.006699979 -0.006413996 -0.006099998 0.006932914 -0.007350742 -0.006099998 0 0.009499967 0.006099998 0.009547412 0.009499967 0.006099998 0.009547412 0.009499967 0.01019996 0.01959884 0.009499967 0.01019996 0.01988101 0.009499907 0.009675443 0.02018815 0.009499967 0.008935868 0.02034455 0.009500086 0.008324563 0.02039998 0.009499967 0.007699966 0.02039998 0.005999982 0.01119995 0.02039998 0.007081508 0.01102864 0.02039998 0.008057236 0.01053154 0.02039998 0.00883156 0.00975722 0.02039998 0.009328663 0.008781552 0.004649996 0.005083262 0.01119995 0.004649996 -0.005083262 0.01119995 0.02025735 -0.007008671 0.01119995 0.02017492 0.007275104 0.01119995 0.01985764 0.008022069 0.01119995 0.007699489 0.007881999 0.01119995 0.004761576 -0.005542337 0.01119995 0.00489515 -0.005739212 0.01119995 0.02021795 -0.007143199 0.01119995 0.006129324 -0.006908416 0.01119995 0.006888866 -0.007436394 0.01119995 0.009547412 -0.008499979 0.01119995 0.01959884 -0.008499979 0.01119995 0.02002722 -0.007657408 0.01119995 0.02039998 -0.005999982 0.01119995 0.02037775 -0.00639224 0.01119995 0.006888866 0.007436394 0.01119995 0.02034407 0.006625235 0.01119995 0.01959884 0.008499979 0.01119995 0.009547412 0.008499979 0.01119995 0.009295463 0.008467733 0.01119995 0.004678249 -0.005319476 0.01119995 0.007568478 -0.007817447 0.01119995 0.009064257 -0.008404195 0.01119995 0.009295463 -0.008467733 0.01119995 0.006245374 0.006997048 0.01119995 0.005054831 0.005918025 0.01119995 0.00489515 0.005739212 0.01119995 0.004761576 0.005542337 0.01119995 0.004678249 0.005319476 0.01119995 0.02039998 -0.009499967 0.007699966 0.02039998 -0.009328663 0.008781552 0.02039998 -0.00883156 0.00975722 0.02039998 -0.008057236 0.01053154 0.02039998 -0.007081508 0.01102864 0 -0.009499967 0.006099998 0.009547412 -0.009499967 0.006099998 0.02037864 -0.009499907 0.008087396 0.02026116 -0.009499967 0.008695602 0.01959884 -0.009499967 0.01019996 0.009547412 -0.009499967 0.01019996 0.02003049 -0.009499907 0.009350121 0.02021783 -0.009499967 0.008843719 -0.001486122 0.009383022 0.006099998 -0.002113938 0.009261786 0.006099998 -0.002935647 0.009034991 0.006099998 -0.00412184 0.008559167 0.006099998 -0.004312872 0.008464515 0.006099998 -0.005583941 0.007685661 0.006099998 -0.005923151 0.007427394 0.006099998 -0.006717503 0.006717503 0.006099998 -0.007427394 0.005923151 0.006099998 -0.007685661 0.005583941 0.006099998 -0.008464515 0.004312872 0.006099998 -0.008559167 0.00412184 0.006099998 -0.009034991 0.002935647 0.006099998 -0.009261786 0.002113938 0.006099998 -0.009383022 0.001486122 0.006099998 -0.009499967 0 0.006099998 -0.009499967 0 -0.005099952 -0.009383022 -0.001486122 0.006099998 -0.009261786 -0.002113938 0.006099998 -0.009034991 -0.002935647 0.006099998 -0.008559167 -0.00412184 0.006099998 -0.008464515 -0.004312872 0.006099998 -0.007685661 -0.005583941 0.006099998 -0.007427394 -0.005923151 0.006099998 -0.006717503 -0.006717503 0.006099998 -0.005923151 -0.007427394 0.006099998 -0.005583941 -0.007685661 0.006099998 -0.004312872 -0.008464515 0.006099998 -0.00412184 -0.008559167 0.006099998 -0.002935647 -0.009034991 0.006099998 -0.002113938 -0.009261786 0.006099998 -0.001486122 -0.009383022 0.006099998 0 0.009423851 0.00648266 0.009043514 0.009435474 0.006453335 0.009463131 0.009498178 0.006159603 0.007294654 0.008796453 0.00705564 0.007957518 0.009083628 0.006911993 0 0.009207069 0.006807088 0.008285582 0.009204864 0.006809353 0.008605062 0.009310305 0.006686091 0 0.008882641 0.00702387 0 0.008499979 0.007099986 0.006723701 0.008499979 0.007099986 0.009043514 0.009435474 0.01019996 0.01936441 0.009206891 0.01090723 0.01936918 0.009280025 0.01082569 0.009547412 0.009438157 0.01054608 0.01942932 0.009429574 0.01056855 0.01955819 0.009497284 0.01027292 0.009547412 0.009423851 0.01058268 0.009547412 0.009207069 0.01090705 0.01937824 0.009063601 0.01102602 0.009547412 0.008882641 0.01112383 0.01945626 0.008794307 0.01115566 0.01955085 -0.009496271 0.01028668 0.01946198 -0.008778691 0.01116037 0.01937961 -0.009054243 0.0110324 0.01942527 -0.009425222 0.01057928 0.01936823 -0.009273707 0.0108335 0.01936447 -0.009203493 0.01091063 0.009547412 -0.008882641 0.01112383 0.009547412 -0.009207069 0.01090705 0.009547412 -0.009423851 0.01058268 0.009547412 -0.009437441 0.01054805 0.009043514 -0.009435474 0.01019996 0.009043514 -0.009435474 0.006453335 0.009147107 -0.009459435 0.00638169 0.006723701 -0.008499979 0.007099986 0 -0.008499979 0.007099986 0.007337331 -0.008816719 0.007049083 0 -0.008882641 0.00702387 0.00800991 -0.009103953 0.006897032 0 -0.009207069 0.006807088 0.008286058 -0.009205043 0.006809234 0.008613348 -0.009312868 0.006682515 0 -0.009423851 0.00648266 -0.001389503 0.008773267 0.00702387 0 0.009207069 0.006807088 -0.001440286 0.009093701 0.006807088 -0.001474201 0.009307801 0.00648266 -0.002912104 0.008962631 0.00648266 -0.004278302 0.008396685 0.00648266 -0.005539178 0.00762403 0.00648266 -0.00666368 0.00666368 0.00648266 -0.00762403 0.005539178 0.00648266 -0.008396685 0.004278302 0.00648266 -0.008962631 0.002912104 0.00648266 -0.009307801 0.001474201 0.00648266 -0.009499967 0 0.006099998 -0.009423851 0 0.00648266 -0.009307801 -0.001474201 0.00648266 -0.008962631 -0.002912104 0.00648266 -0.008396685 -0.004278302 0.00648266 -0.00762403 -0.005539178 0.00648266 -0.00666368 -0.00666368 0.00648266 -0.005539178 -0.00762403 0.00648266 -0.004278302 -0.008396685 0.00648266 -0.002912104 -0.008962631 0.00648266 -0.001474201 -0.009307801 0.00648266 -0.002845108 0.008756458 0.006807088 -0.004179894 0.008203566 0.006807088 -0.005411744 0.007448673 0.006807088 -0.006510376 0.006510376 0.006807088 -0.007448673 0.005411744 0.006807088 -0.008203566 0.004179894 0.006807088 -0.008756458 0.002845108 0.006807088 -0.009093701 0.001440286 0.006807088 -0.009207069 0 0.006807088 -0.009093701 -0.001440286 0.006807088 -0.008756458 -0.002845108 0.006807088 -0.008203566 -0.004179894 0.006807088 -0.007448673 -0.005411744 0.006807088 -0.006510376 -0.006510376 0.006807088 -0.005411744 -0.007448673 0.006807088 -0.004179894 -0.008203566 0.006807088 -0.002845108 -0.008756458 0.006807088 -0.001440286 -0.009093701 0.006807088 -0.002744853 0.008447885 0.00702387 -0.004032611 0.007914483 0.00702387 -0.005221068 0.007186233 0.00702387 -0.006280958 0.006280958 0.00702387 -0.007186233 0.005221068 0.00702387 -0.007914483 0.004032611 0.00702387 -0.008447885 0.002744853 0.00702387 -0.008773267 0.001389503 0.00702387 -0.008882641 0 0.00702387 -0.008773267 -0.001389503 0.00702387 -0.008447885 -0.002744853 0.00702387 -0.007914483 -0.004032611 0.00702387 -0.007186233 -0.005221068 0.00702387 -0.006280958 -0.006280958 0.00702387 -0.005221068 -0.007186233 0.00702387 -0.004032611 -0.007914483 0.00702387 -0.002744853 -0.008447885 0.00702387 -0.001389503 -0.008773267 0.00702387 -0.00132966 0.008395314 0.007099986 -0.002626597 0.008083939 0.007099986 -0.003858864 0.007573544 0.007099986 -0.00499612 0.006876587 0.007099986 -0.006010353 0.006010353 0.007099986 -0.006876587 0.00499612 0.007099986 -0.007573544 0.003858864 0.007099986 -0.008083939 0.002626597 0.007099986 -0.008395314 0.00132966 0.007099986 -0.008499979 0 0.007099986 -0.008395314 -0.00132966 0.007099986 -0.008083939 -0.002626597 0.007099986 -0.007573544 -0.003858864 0.007099986 -0.006876587 -0.00499612 0.007099986 -0.006010353 -0.006010353 0.007099986 -0.00499612 -0.006876587 0.007099986 -0.003858864 -0.007573544 0.007099986 -0.002626597 -0.008083939 0.007099986 -0.00132966 -0.008395314 0.007099986 0.005482256 -0.007671296 0.01019996 0.006361901 -0.008286237 0.01019996 0.006402492 -0.008220791 0.01058489 0.007905244 -0.008388161 0.01112657 0.005584418 -0.006949126 0.01112657 0.009199023 -0.008838057 0.01112383 0.00669068 -0.007755935 0.01112657 0.0077762 -0.008689403 0.01091045 0.006518006 -0.008034408 0.01091045 0.007689833 -0.008890926 0.01058489 0.009117305 -0.009151995 0.01090705 0.009062707 -0.009361803 0.01058268 0.007659494 -0.008961737 0.01019996 0.007303774 -0.008800804 0.01019996 0.005179941 -0.007424235 0.01019996 0.00522989 -0.007365584 0.01058489 0.005371987 -0.007198631 0.01091045 0.004606246 -0.005990207 0.01112383 0.004361391 -0.006202995 0.01090705 0.004197776 -0.006345152 0.01058268 0.004140317 -0.006395101 0.01019996 0.009199023 0.008838057 0.01112383 0.009117305 0.009151995 0.01090705 0.009062707 0.009361803 0.01058268 0.007303774 0.008800804 0.01019996 0.006361901 0.008286237 0.01019996 0.006402492 0.008220791 0.01058489 0.005584418 0.006949126 0.01112657 0.007905244 0.008388161 0.01112657 0.004606246 0.005990207 0.01112383 0.00669068 0.007755935 0.01112657 0.005371987 0.007198631 0.01091045 0.006518006 0.008034408 0.01091045 0.00522989 0.007365584 0.01058489 0.004361391 0.006202995 0.01090705 0.004197776 0.006345152 0.01058268 0.005179941 0.007424235 0.01019996 0.004140317 0.006395101 0.01019996 0.005482256 0.007671296 0.01019996 0.007659494 0.008961737 0.01019996 0.007689833 0.008890926 0.01058489 0.0077762 0.008689403 0.01091045 0.004267275 0.005083262 0.01112383 0.004306435 0.005409896 0.01112383 0.004149973 0.005083262 0.01106601 0.003991186 0.005486488 0.01090705 0.003780543 0.005537688 0.01058268 0.003783941 0.005083262 0.01069998 0.003942847 0.005083262 0.01090705 0.003706574 0.005555689 0.01019996 0.00364995 0.005083262 0.01019996 0.003726065 0.005083262 0.01058268 0.004421591 0.005717992 0.01112383 0.004133343 0.005866944 0.01090705 0.003940761 0.005966424 0.01058268 0.003873169 0.006001353 0.01019996 0.00364995 -0.005083262 0.01019996 0.003726065 -0.005083262 0.01058268 0.003783941 -0.005083262 0.01069998 0.003942847 -0.005083262 0.01090705 0.004149973 -0.005083262 0.01106601 0.004267275 -0.005083262 0.01112383 0.004306435 -0.005409896 0.01112383 0.003991186 -0.005486488 0.01090705 0.004421591 -0.005717992 0.01112383 0.004133343 -0.005866944 0.01090705 0.003940761 -0.005966424 0.01058268 0.003873169 -0.006001353 0.01019996 0.003780543 -0.005537688 0.01058268 0.003706574 -0.005555689 0.01019996 0.00377655 0.005783498 0.007099986 0.004140317 0.006395101 0.007099986 0.005482256 0.007671296 0.007099986 0.005482256 -0.007671296 0.007099986 0.004140317 -0.006395101 0.007099986 0.00377655 -0.005783498 0.007099986 0.00364995 0.005083262 0.007099986 0.00364995 -0.005083262 0.007099986 -0.008499979 0 0.007099986</float_array>
          <technique_common>
            <accessor source="#link_3-mesh-positions-array" count="585" stride="3">
              <param name="X" type="float"/>
              <param name="Y" type="float"/>
              <param name="Z" type="float"/>
            </accessor>
          </technique_common>
        </source>
        <source id="link_3-mesh-normals">
          <float_array id="link_3-mesh-normals-array" count="3456">1 0 0 1 0 0 1 0 0 1 0 0 1 0 0 1 0 0 1 0 0 1 0 0 1 0 0 1 0 0 1 0 0 1 0 0 1 0 0 1 0 0 1 0 0 1 0 0 1 0 0 1 0 0 1 0 0 1 0 0 1 0 0 1 0 0 0 -0.1564342 -0.9876884 0 -0.1564342 -0.9876884 0 -0.4539902 -0.8910067 0 -0.4539902 -0.8910067 0 -0.7071068 -0.7071068 0 -0.7071068 -0.7071068 0 -0.8910066 -0.4539903 0 -0.8910066 -0.4539903 0 -0.9876884 -0.1564341 0 -0.9876884 -0.1564342 0 0 -1 0 0 -1 0 0 -1 0 0 -1 0 0 -1 0 0 -1 0 0 -1 0 0 -1 0 0 -1 0 0 -1 0 0 -1 0 0 -1 0 0 -1 0 0 -1 0 0 -1 0 0 -1 0 0 -1 0 0 -1 0 0 -1 0 0 -1 0 0 -1 0 0 -1 0 0 -1 0 0 -1 0 0 -1 0 0.9876884 -0.1564341 0 0.9876884 -0.1564342 0 0.8910066 -0.4539903 0 0.8910066 -0.4539903 0 0.7071068 -0.7071068 0 0.7071067 -0.7071068 0 0.4539902 -0.8910067 0 0.4539902 -0.8910067 0 0.1564342 -0.9876884 0 0.1564342 -0.9876884 0.9432227 0.3280717 -0.05196136 0.9401257 0.05331718 -0.336632 0.7299333 0.1425698 -0.6684843 0.7067219 0.2069538 -0.6765459 0.7043353 0.3222728 -0.6324966 0.7330724 0.6652477 -0.1415988 0.7070419 0.5720351 -0.4157737 0.7068869 0.6094201 -0.3590516 0.7434718 0.5958761 -0.3036139 0.7071331 0.6568996 -0.2616214 0.7068225 0.676564 -0.2065506 0.7569575 0.2807666 -0.5900724 0.7068979 0.3594151 -0.6091931 0.7001972 0.5048385 -0.5048385 0.7404487 0.4361265 -0.5113995 0.7325723 0.4543887 -0.5068222 0.7760245 0.4497714 -0.4421444 0.707243 0.540255 -0.4559955 0.7197442 0.4953236 -0.4864389 0.7245237 0.478394 -0.49619 0 0.1950888 -0.9807856 -0.004604458 0.6318266 -0.7750961 0.00129956 0.4215573 -0.9068008 -0.002635419 0.1393345 -0.9902418 -1.18793e-4 0.5555702 -0.8314697 1.21969e-4 0.8314697 -0.5555702 -0.007107019 0.7395186 -0.6730985 0.005905807 0.9308206 -0.3654288 -6.71652e-4 0.8590906 -0.511823 5.46209e-4 0.9717425 -0.2360426 -0.00140196 0.9842385 -0.1768403 0 0.9990782 -0.0429272 -0.136082 0.9906976 0 -0.2135282 0.9768391 -0.01382756 -0.0867365 0.9962313 0 -7.27103e-4 0.8630903 -0.5050491 -0.001908063 0.8294672 -0.5585523 3.59204e-4 0.9252427 -0.3793758 -0.001314699 0.9805504 -0.1962633 0 0.9886838 -0.1500151 0 0.1590941 -0.9872634 -0.001189589 0.1915661 -0.9814789 8.79794e-4 0.4643379 -0.8856577 -0.001836776 0.5505822 -0.8347789 5.4111e-6 0.6546857 -0.7559012 -9.8249e-6 0.7721946 -0.6353861 -3.26623e-4 -0.8294687 -0.5585532 -0.001435399 -0.8128481 -0.582474 1.64067e-4 -0.9153925 -0.4025625 -7.06866e-4 -0.9805509 -0.1962634 -0.002723276 -0.9666957 -0.2559142 0 -0.9961895 -0.08721572 0 -0.1915663 -0.9814797 -0.004625678 -0.09256392 -0.995696 -3.86973e-4 -0.2614751 -0.9652102 6.54342e-4 -0.550583 -0.8347801 -0.005617737 -0.4344903 -0.9006591 2.30016e-4 -0.6101956 -0.7922508 -0.2349658 -0.9720036 0 -0.1360806 -0.9906877 -0.004472851 -0.1477914 -0.9890004 -0.005980253 -0.05045396 -0.9987264 0 -0.008449196 -0.7448136 -0.6672192 -4.70428e-4 -0.8644821 -0.5026634 5.49802e-4 -0.9844266 -0.175795 -0.00163865 -0.9748942 -0.2226624 0 -0.9993338 -0.03649592 0.01029157 -0.9311676 -0.3644462 6.03327e-6 -0.8314697 -0.5555703 -2.76708e-6 -0.6380471 -0.7699974 -0.002352178 -0.5555687 -0.8314674 0.00117743 -0.4341374 -0.9008458 -0.001698672 -0.1950884 -0.9807842 0 -0.1488301 -0.9888628 0.8682269 -0.07761752 -0.4900587 0.7070736 -0.5728954 -0.4145332 0.8700981 -0.4868105 -0.07710307 0.6938689 -0.6978462 -0.1776415 0.7246189 -0.614037 -0.3128674 0.733841 -0.6070867 -0.304833 0.707327 -0.5957561 -0.3804778 0.730228 -0.3101677 -0.608739 0.7301666 -0.310114 -0.6088399 0.6888534 -0.1793013 -0.7023759 0.7072575 -0.556569 -0.4359104 0.7131435 -0.5206083 -0.4694606 0.7196774 -0.4955935 -0.4862629 0.7240505 -0.4800602 -0.4952707 0.7321027 -0.4558566 -0.5061822 0.7140496 -0.495042 -0.4950419 0.7066705 -0.4271674 -0.5640432 0.7073501 -0.3831502 -0.5940132 -0.2608724 -0.9452514 -0.1960749 -0.9101434 -0.3650845 -0.1958374 -0.9452514 0.2608724 -0.1960749 -0.1859028 0.9627889 -0.1961575 -0.1938219 0.8073256 -0.5573675 -0.1288076 0.5365228 -0.8339975 -0.1883766 0.004271149 -0.9820876 -0.2169957 0.02457797 -0.9758632 -0.1288079 0.5365233 -0.8339972 -0.2111528 0.5097677 -0.8339971 -0.2111522 0.509767 -0.8339978 -0.2882978 0.4704594 -0.8339979 -0.288298 0.4704595 -0.8339977 -0.3583447 0.4195675 -0.8339977 -0.3583443 0.4195673 -0.833998 -0.4195672 0.3583444 -0.833998 -0.4195677 0.3583446 -0.8339977 -0.4704595 0.288298 -0.8339977 -0.4704594 0.2882979 -0.8339979 -0.1938221 0.8073259 -0.557367 -0.3177288 0.7670661 -0.5573669 -0.3177289 0.7670662 -0.5573668 -0.433813 0.7079184 -0.5573669 -0.4338131 0.7079184 -0.5573667 -0.5392149 0.6313396 -0.5573668 -0.5392152 0.6313397 -0.5573663 -0.6313399 0.539215 -0.5573663 -0.6313394 0.5392149 -0.5573667 -0.7079185 0.433813 -0.5573667 -0.7079183 0.433813 -0.5573669 -0.2032595 -0.05412292 -0.9776279 -0.1868661 -0.0448625 -0.9813604 -0.5365228 -0.1288076 -0.8339976 -0.5365233 -0.1288079 -0.8339973 -0.8073256 -0.1938218 -0.5573675 -0.8073259 -0.1938221 -0.557367 -0.1387833 -0.1137616 -0.983767 -0.1461018 -0.1247828 -0.9813683 -0.4195676 -0.3583447 -0.8339977 -0.4195673 -0.3583443 -0.833998 -0.6313396 -0.5392149 -0.5573668 -0.6313397 -0.5392152 -0.5573663 -0.1231619 -0.1477126 -0.9813318 -0.1192089 -0.1395756 -0.9830096 -0.3583444 -0.4195672 -0.833998 -0.3583446 -0.4195677 -0.8339977 -0.539215 -0.6313399 -0.5573662 -0.5392149 -0.6313394 -0.5573667 -0.09894245 -0.1795719 -0.9787566 -0.08586978 -0.1401268 -0.986403 -0.2882979 -0.4704595 -0.8339977 -0.2882979 -0.4704594 -0.8339979 -0.433813 -0.7079185 -0.5573667 -0.433813 -0.7079183 -0.5573669 -0.04329115 0.550067 -0.8339977 -0.04329127 0.5500673 -0.8339976 -0.06514197 0.8277069 -0.5573668 -0.06514179 0.8277065 -0.5573675 -0.07694208 0.9776445 -0.1956817 -0.07694184 0.9776442 -0.1956826 -0.2526931 0.915614 -0.3127257 -0.2289325 0.9535712 -0.195683 -0.3650845 0.9101434 -0.1958374 -0.3723852 0.8990179 -0.2304255 -0.4353337 0.8786182 -0.1962514 -0.5123975 0.8361564 -0.1956814 -0.5123972 0.8361564 -0.1956824 -0.8786182 0.4353337 -0.1962514 -0.8361566 0.5123973 -0.1956815 -0.8361563 0.5123974 -0.1956824 -0.7801578 0.5940141 -0.1962167 -0.7356423 0.628298 -0.2531246 -0.7311844 0.6534265 -0.195967 -0.6368926 0.7457053 -0.1956821 -0.6406529 0.7168908 -0.2750117 -0.5940141 0.7801578 -0.1962167 -0.9101434 0.3650845 -0.1958374 -0.8990179 0.3723852 -0.2304255 -0.7670661 0.3177289 -0.557367 -0.7670662 0.3177289 -0.5573668 -0.5097678 0.2111525 -0.8339972 -0.5097669 0.2111524 -0.8339978 -0.9627889 0.1859028 -0.1961575 -0.9377863 0.2251428 -0.2643247 -0.8073256 0.193822 -0.5573675 -0.8073259 0.1938219 -0.557367 -0.5365228 0.1288078 -0.8339975 -0.5365234 0.1288077 -0.8339971 -0.9776445 0.07694184 -0.1956816 -0.9776442 0.07694208 -0.1956827 -0.8277069 0.06514179 -0.5573669 -0.8277065 0.06514197 -0.5573675 -0.550067 0.04329121 -0.8339977 -0.5500673 0.04329115 -0.8339976 -0.1915487 0.01507514 -0.9813674 -0.186832 0.04485434 -0.9813674 -0.2032213 0.04415011 -0.978137 -0.1622248 0.06719577 -0.9844632 -0.1773153 0.06949996 -0.981697 -0.1652225 0.1012485 -0.9810456 -0.1484552 0.09667956 -0.984182 -0.1551933 0.1325476 -0.9789515 -0.1426968 0.1282042 -0.9814282 -0.1247828 0.1461018 -0.9813681 -0.1468281 0.1607062 -0.97602 -0.08637106 0.1409448 -0.9862427 -0.116303 0.1711846 -0.9783504 -0.06969839 0.1682668 -0.9832744 -0.07432299 0.1744223 -0.981862 -0.04539579 0.1890872 -0.9809104 -0.0382542 0.1766848 -0.9835239 -0.01585447 0.2014505 -0.9793704 -0.01144164 0.1915537 -0.9814154 -0.2019046 -0.02324712 -0.9791292 -0.172356 -0.01356464 -0.9849413 -0.550067 -0.04329115 -0.8339977 -0.5500673 -0.04329127 -0.8339976 -0.8277069 -0.06514197 -0.5573668 -0.8277065 -0.06514179 -0.5573675 -0.9776445 -0.07694208 -0.1956817 -0.9776442 -0.07694184 -0.1956826 -0.9535712 -0.2289325 -0.1956831 -0.9156138 -0.252693 -0.3127257 -0.9627889 -0.1859028 -0.1961575 -0.8786182 -0.4353337 -0.1962514 -0.8990179 -0.3723852 -0.2304255 -0.7670662 -0.3177289 -0.5573669 -0.7670661 -0.3177289 -0.557367 -0.5097671 -0.2111521 -0.8339979 -0.5097677 -0.2111528 -0.8339973 -0.1902983 -0.07882416 -0.9785568 -0.1798336 -0.06655794 -0.9814428 -0.1539397 -0.08235484 -0.9846422 -0.172697 -0.1058288 -0.9792732 -0.4704594 -0.2882978 -0.8339979 -0.4704595 -0.288298 -0.8339977 -0.7079184 -0.433813 -0.557367 -0.7079184 -0.4338131 -0.5573667 -0.8361564 -0.5123975 -0.1956815 -0.8361564 -0.5123972 -0.1956824 -0.4353337 -0.8786182 -0.1962514 -0.5123973 -0.8361566 -0.1956815 -0.5123974 -0.8361563 -0.1956824 -0.5940141 -0.7801578 -0.1962167 -0.628298 -0.7356423 -0.2531246 -0.6534265 -0.7311844 -0.195967 -0.7457053 -0.6368926 -0.1956821 -0.7168908 -0.6406529 -0.2750117 -0.7801578 -0.5940141 -0.1962167 -0.3650845 -0.9101434 -0.1958374 -0.3723852 -0.8990179 -0.2304255 -0.3177289 -0.7670661 -0.557367 -0.3177289 -0.7670662 -0.5573668 -0.2111525 -0.5097678 -0.8339972 -0.2111524 -0.5097669 -0.8339978 -0.07353961 -0.1775403 -0.9813621 -0.07662934 -0.204555 -0.975851 -0.1859028 -0.9627889 -0.1961575 -0.2251428 -0.9377863 -0.2643246 -0.193822 -0.8073256 -0.5573675 -0.1938219 -0.807326 -0.557367 -0.1288078 -0.5365228 -0.8339976 -0.1288077 -0.5365234 -0.8339972 -0.04732316 -0.1971153 -0.9792375 -0.0486378 -0.1856418 -0.981413 -0.01774686 -0.1783092 -0.9838144 -0.01507484 -0.1915445 -0.9813682 -0.04329115 -0.5500673 -0.8339976 -0.04329121 -0.550067 -0.8339977 -0.06514197 -0.8277065 -0.5573675 -0.06514179 -0.8277069 -0.5573669 -0.07694208 -0.9776442 -0.1956826 -0.07694184 -0.9776445 -0.1956817 -0.02678799 -0.1950184 -0.9804337 -0.02678787 -0.1950187 -0.9804337 -0.07609218 -0.5539598 -0.8290588 -0.07609236 -0.5539595 -0.8290591 -0.1134737 -0.8260994 -0.5519813 -0.1340011 -0.9755484 -0.1742095 -0.1419893 -0.9707592 -0.1935607 -0.1268792 -0.923691 -0.3615199 -0.1134739 -0.8260992 -0.5519818 -0.06233906 -0.1690885 -0.9836274 -0.2844043 -0.472182 -0.834361 -0.2844044 -0.472183 -0.8343605 -0.4281783 -0.7108839 -0.5579493 -0.4281783 -0.7108837 -0.5579496 -0.5059506 -0.8400052 -0.1959729 -0.5059505 -0.8400053 -0.1959726 -0.4127746 -0.8895008 -0.1959729 -0.4127745 -0.889501 -0.1959725 -0.3493254 -0.7527723 -0.5579478 -0.3493256 -0.7527709 -0.5579495 -0.2320284 -0.5000042 -0.8343612 -0.2320284 -0.5000054 -0.8343604 -0.08365041 -0.180261 -0.9800555 -0.09036517 -0.1500287 -0.9845433 -0.0947979 -0.1672157 -0.9813523 -0.06139111 -0.1853936 -0.9807448 -0.1799134 -0.5262786 -0.8310608 -0.1761075 -0.5223659 -0.8343381 -0.26793 -0.7875273 -0.5549905 -0.2660089 -0.7860955 -0.5579366 -0.3153159 -0.928775 -0.1948149 -0.3148218 -0.928699 -0.195973 -0.9010946 -0.3875683 -0.1944717 -0.1334861 -0.1408907 -0.9809848 -0.194989 -0.03196281 -0.9802845 -0.1949888 -0.03196251 -0.9802846 -0.4411334 -0.07231044 -0.8945236 -0.5433546 -0.1246637 -0.8301956 -0.8175973 -0.1625152 -0.5523797 -0.7867285 -0.1289608 -0.6036783 -0.6057521 -0.09929507 -0.7894333 -0.9683504 -0.1587323 -0.1926174 -0.9683504 -0.1587322 -0.1926175 -0.8873349 -0.1454521 -0.4375848 -0.8265343 -0.5282256 -0.1944705 -0.854036 -0.4527127 -0.2562688 -0.7376224 -0.3910034 -0.5504814 -0.7376223 -0.3910037 -0.550481 -0.4953705 -0.2625893 -0.8280429 -0.4953705 -0.2625894 -0.8280428 -0.1745802 -0.09254264 -0.9802845 -0.17458 -0.09254205 -0.9802845 -0.137775 -0.1409976 -0.9803763 -0.3797895 -0.4052702 -0.8315743 -0.386675 -0.4057369 -0.8281666 -0.5716041 -0.6056945 -0.5535367 -0.5746901 -0.6055091 -0.550536 -0.6742081 -0.7126654 -0.193782 -0.6748961 -0.7123302 -0.1926162 -0.1950888 0 -0.9807856 -0.1950888 0 -0.9807856 -0.4422913 0 -0.8968715 -0.4422913 0 -0.8968715 -0.6087605 0 -0.793354 -0.6087605 0 -0.793354 -0.7933532 0 -0.6087616 -0.7933532 0 -0.6087616 -0.8968729 0 -0.4422885 -0.8968729 0 -0.4422885 -0.9807852 0 -0.195091 -0.9807852 0 -0.195091 -0.1949887 0.03196275 -0.9802845 -0.1358982 0.1434366 -0.9802845 -0.194989 0.03196251 -0.9802845 -0.4411334 0.07231044 -0.8945236 -0.5433546 0.1246637 -0.8301956 -0.1360552 0.1391246 -0.980884 -0.3835725 0.4094139 -0.8277998 -0.3835872 0.4024118 -0.8312194 -0.5730296 0.6072453 -0.5503547 -0.5734149 0.6041448 -0.5533574 -0.8873349 0.1454521 -0.4375848 -0.8175973 0.1625153 -0.5523797 -0.7867285 0.1289607 -0.6036784 -0.6057521 0.09929507 -0.7894334 -0.6747413 0.7121668 -0.1937593 -0.6743658 0.7128384 -0.1925933 -0.8265343 0.5282256 -0.1944705 -0.8722981 0.3751826 -0.3135824 -0.1745805 0.09254229 -0.9802845 -0.1745799 0.09254246 -0.9802845 -0.4953704 0.2625893 -0.8280429 -0.4953705 0.2625893 -0.8280428 -0.7376221 0.3910036 -0.5504813 -0.7376224 0.3910035 -0.550481 -0.8669962 0.4595827 -0.1926174 -0.9683504 0.1587322 -0.1926174 -0.9683504 0.1587323 -0.1926175 -0.1782634 0.5215435 -0.8343948 -0.1776867 0.5269425 -0.8311192 -0.2672739 0.7856426 -0.5579699 -0.2666425 0.7879403 -0.5550243 -0.315239 0.9285565 -0.1959775 -0.3148955 0.9289167 -0.1948195 -0.4127746 0.8895009 -0.1959725 -0.4127745 0.8895009 -0.1959729 -0.3493248 0.7527711 -0.5579496 -0.3493261 0.752772 -0.5579477 -0.2320289 0.5000053 -0.8343604 -0.232028 0.5000044 -0.8343612 -0.08365041 0.1802609 -0.9800554 -0.05425554 0.1648296 -0.9848287 -0.06769371 0.1836125 -0.980665 -0.08887773 0.1567729 -0.9836274 -0.09900695 0.1643762 -0.9814164 -0.2844048 0.4721828 -0.8343604 -0.284404 0.4721822 -0.834361 -0.4281782 0.7108837 -0.5579496 -0.4281784 0.7108839 -0.5579493 -0.5059506 0.8400052 -0.1959726 -0.5059505 0.8400052 -0.1959729 -0.02678805 0.1950187 -0.9804336 -0.02678781 0.1950185 -0.9804337 -0.07609212 0.5539595 -0.8290591 -0.07609236 0.5539597 -0.8290588 -0.1134737 0.8260992 -0.5519818 -0.1134739 0.8260994 -0.5519814 -0.1268283 0.92332 -0.3624842 -0.1415804 0.9708209 -0.1935506 -0.1339761 0.9753662 -0.1752462 -0.2795522 0.9601305 0 -0.3092179 0.9509902 -0.001372992 -0.5159552 0.8566156 0 -0.5260422 0.850453 -0.003024339 -0.420934 0.9070838 0.003687739 -0.4580929 0.8888565 -0.009223937 -0.3210242 0.9469958 0.01193261 -0.389749 0.9207626 -0.0170862 -0.3424817 0.9395033 -0.006303787 0 0 -1 0 0 -1 0 0 -1 0 0 -1 0 0 -1 0 0 -1 0 0 -1 0 0 -1 0 0 -1 0 0 -1 0 0 -1 0 0 -1 0 0 -1 0 0 -1 0 0 -1 0 0 -1 0 0 -1 0 0 -1 0 0 -1 0 0 -1 0 0 -1 0 0 -1 0 0 -1 0 0 -1 0 0 -1 0 0 -1 0 0 -1 0 0 -1 -0.2981815 -0.9545091 0 -0.3545346 -0.9350098 -0.007860779 -0.3210463 -0.9470608 0.00227195 -0.4030096 -0.9151952 -9.62454e-4 -0.4209344 -0.9070847 -0.003390312 -0.5260447 -0.850457 0 -0.5159538 -0.8566132 -0.002360522 -0.4736512 -0.8807125 3.76085e-4 -0.4385823 -0.8986906 -8.75753e-4 -0.9868299 -0.1617615 0 -0.9703691 -0.2412881 0.01280546 -0.6877752 -0.7259237 0 -0.7443534 -0.6676631 0.0128054 -0.8426213 -0.5385066 0 -0.9186331 -0.3951117 0 -1 0 0 -1 0 0 -0.6877752 0.7259237 0 -0.7443534 0.6676632 0.0128054 -0.9868299 0.1617615 0 -0.9703691 0.2412881 0.01280546 -0.9186331 0.3951117 0 -0.8426213 0.5385066 0 0 1 0 0 1 0 0 1 0 3.44465e-5 1 -8.44478e-5 1.66506e-5 1 3.35332e-5 -3.7584e-5 1 -1.32556e-4 0 1 5.2601e-5 5.07961e-6 1 0 -1.82973e-5 1 -4.84055e-5 3.43457e-5 1 7.79786e-5 -1.79065e-5 1 6.68598e-5 -5.10174e-5 1 1.91098e-4 -1.1295e-5 1 -1.69681e-6 2.50019e-4 1 -1.79116e-4 0 1 0 0 1 0 0 1 0 0 0.1564342 0.9876884 0 0.1564342 0.9876884 0 0.4539902 0.8910067 0 0.4539902 0.8910067 0 0.7071068 0.7071068 0 0.7071067 0.7071068 0 0.8910066 0.4539903 0 0.8910066 0.4539903 0 0.9876884 0.1564342 0 0.9876884 0.1564341 0 0 1 0 0 1 0 0 1 0 0 1 0 0 1 0 0 1 0 0 1 0 0 1 0 0 1 0 0 1 0 0 1 0 0 1 0 0 1 0 0 1 0 0 1 0 0 1 0 0 1 0 0 1 0 0 1 0 0 1 0 0 1 0 0 1 0 0 1 0 0 1 0 0 1 0 0 1 0 0 1 0 0 1 0 0 1 0 0 1 0 0 1 0 -0.9876884 0.1564342 0 -0.9876884 0.1564341 0 -0.8910066 0.4539903 0 -0.8910066 0.4539903 0 -0.7071068 0.7071068 0 -0.7071068 0.7071068 0 -0.4539902 0.8910067 0 -0.4539902 0.8910067 0 -0.1564342 0.9876884 0 -0.1564342 0.9876884 0 -1 0 0 -1 0 0 -1 0 0 -1 0 1.11626e-5 -1 -3.45934e-5 0 -1 -5.2601e-5 4.26433e-6 -1 0 -1.15203e-5 -1 5.09124e-5 2.25116e-5 -1 -8.14378e-5 0 -1 0 4.72613e-5 -1 7.75536e-5 -2.70984e-5 -1 -6.30421e-5 -7.88796e-5 -1 -1.83971e-4 5.56743e-5 -1 1.9636e-4 0 -1 0 0 -1 0 -1.9688e-5 -1 1.33541e-4 -0.07845866 0.9969174 0 -0.07845866 0.9969174 0 -0.1895859 0.9818642 0 -0.189586 0.9818641 0 -0.2660365 0.963963 0 -0.2660365 0.963963 0 -0.3722934 0.9281151 0 -0.3722934 0.9281151 0 -0.4439673 0.8960431 0 -0.4439673 0.8960431 0 -0.5224985 0.8526403 0 -0.5224985 0.8526403 0 -0.6057904 0.7956243 0 -0.6057904 0.7956243 0 -0.6663466 0.7456421 0 -0.6663466 0.7456421 0 -0.7456421 0.6663466 0 -0.7456421 0.6663466 0 -0.7956243 0.6057904 0 -0.7956243 0.6057904 0 -0.8526403 0.5224985 0 -0.8526403 0.5224985 0 -0.8960431 0.4439673 0 -0.8960431 0.4439673 0 -0.9281151 0.3722934 0 -0.9281151 0.3722934 0 -0.963963 0.2660365 0 -0.963963 0.2660365 0 -0.9818641 0.189586 0 -0.9818641 0.189586 0 -0.9969174 0.07845866 0 -0.9969174 0.07845866 0 -0.9969174 -0.07845866 0 -0.9969174 -0.07845866 0 -0.9818641 -0.189586 0 -0.9818641 -0.189586 0 -0.963963 -0.2660365 0 -0.963963 -0.2660365 0 -0.9281151 -0.3722934 0 -0.9281151 -0.3722934 0 -0.8960431 -0.4439673 0 -0.8960431 -0.4439673 0 -0.8526403 -0.5224985 0 -0.8526403 -0.5224985 0 -0.7956243 -0.6057904 0 -0.7956243 -0.6057904 0 -0.7456421 -0.6663466 0 -0.7456421 -0.6663466 0 -0.6663466 -0.7456421 0 -0.6663466 -0.7456421 0 -0.6057904 -0.7956243 0 -0.6057904 -0.7956243 0 -0.5224985 -0.8526403 0 -0.5224985 -0.8526403 0 -0.4439673 -0.8960431 0 -0.4439673 -0.8960431 0 -0.3722934 -0.9281151 0 -0.3722934 -0.9281151 0 -0.2660365 -0.963963 0 -0.2660365 -0.963963 0 -0.1895859 -0.9818642 0 -0.189586 -0.9818641 0 -0.07845866 -0.9969174 0 -0.07845866 -0.9969174 0 -6.26129e-4 0.9807855 0.1950885 -0.001122593 0.9782693 0.2073352 0 0.9995551 0.02983069 -0.004659116 0.4559518 0.8899922 -3.90884e-5 0.6461131 0.7632417 6.80014e-5 0.8314697 0.5555703 -0.005064606 0.7665199 0.6422007 4.07689e-4 0.8803759 0.4742763 0.0029428 0.5555669 0.8314666 -0.001968741 0.1950906 0.9807832 0 0.1478772 0.9890057 -0.1478648 0.9890076 0 -0.1269985 0.9919003 0.002211987 -0.02111411 0.9997771 0 -0.007003903 0.74478 0.6672734 -3.9037e-4 0.864474 0.5026775 4.5619e-4 0.9844267 0.175795 -0.001364111 0.9748686 0.2227763 0 0.9993337 0.0364964 0.008527815 0.931183 0.3644523 4.99923e-6 0.8314697 0.5555702 -2.29283e-6 0.6380471 0.7699974 -0.001949608 0.5555691 0.831468 9.77045e-4 0.4340904 0.9008688 -0.001410245 0.1950885 0.9807847 0 0.1488301 0.9888628 0.8682269 0.07761752 0.4900587 0.7070737 0.5728915 0.4145384 0.8700983 0.4868103 0.07710295 0.6938689 0.6978462 0.1776415 0.7246189 0.614037 0.3128674 0.733841 0.6070867 0.304833 0.7073271 0.5957562 0.3804772 0.730228 0.3101677 0.608739 0.7301666 0.310114 0.6088399 0.6888534 0.1793013 0.7023759 0.7072575 0.556569 0.4359104 0.7131435 0.5206083 0.4694606 0.7196774 0.4955935 0.4862629 0.7240505 0.4800602 0.4952707 0.7321027 0.4558566 0.5061822 0.7140496 0.495042 0.4950419 0.7066705 0.4271674 0.5640432 0.7073501 0.3831502 0.5940132 0.9432228 -0.3280713 0.05196124 0.9401257 -0.05331718 0.336632 0.7299333 -0.1425698 0.6684843 0.7067219 -0.2069538 0.6765459 0.7043353 -0.3222728 0.6324966 0.7330724 -0.6652477 0.1415988 0.7070419 -0.5720351 0.4157737 0.7068869 -0.6094201 0.3590516 0.7434718 -0.5958761 0.3036139 0.7071331 -0.6568996 0.2616214 0.7068225 -0.676564 0.2065506 0.7569575 -0.2807666 0.5900724 0.7068979 -0.3594151 0.6091931 0.7001972 -0.5048385 0.5048385 0.7404487 -0.4361265 0.5113995 0.7325723 -0.4543887 0.5068222 0.7760245 -0.4497714 0.4421444 0.707243 -0.540255 0.4559955 0.7197442 -0.4953236 0.4864389 0.7245237 -0.478394 0.49619 0 -0.1950888 0.9807856 -0.003817737 -0.6318767 0.7750595 0.001078367 -0.421503 0.9068264 -0.002185821 -0.1395511 0.9902125 -9.84333e-5 -0.5555703 0.8314697 1.01065e-4 -0.8314697 0.5555703 -0.005890786 -0.7394948 0.6731366 0.004894018 -0.9308257 0.3654308 -5.57321e-4 -0.8590795 0.5118421 4.53302e-4 -0.9717517 0.236005 -0.001166164 -0.9842388 0.1768404 0 -0.9990782 0.0429272 -0.1269988 -0.9919028 0 -0.2175515 -0.9759693 0.01245284 -0.1006805 -0.9949188 0 0 -0.1585672 0.9873482 -0.00162208 -0.1950908 0.9807838 0.001141548 -0.4658265 0.8848753 -0.002183079 -0.5555681 0.8314682 -3.21033e-5 -0.6558325 0.7549065 2.15324e-5 -0.7615278 0.6481323 -0.002176284 -0.8314676 0.5555689 3.99863e-4 -0.8814455 0.4722855 -1.87471e-4 -0.9482465 0.3175349 -0.001665472 -0.9807842 0.1950882 0 -0.9898219 0.1423118 -0.01535218 0.195068 0.9806696 -0.04368257 0.5550391 0.8306764 -0.06529873 0.8296951 0.5543845 -0.07696014 0.9778768 0.1945099 -0.07696086 0.9778762 0.1945128 -0.1859471 0.9630184 0.194985 -0.2251887 0.9379801 0.2635974 -0.2609347 0.9454771 0.1949004 -0.3651714 0.9103602 0.1946643 -0.3724711 0.8992242 0.2294802 -0.4354376 0.878828 0.1950779 -0.5125189 0.836355 0.1945112 -0.512519 0.8363549 0.1945117 -0.594156 0.780344 0.1950431 -0.6284336 0.735801 0.2523257 -0.6535821 0.7313586 0.194795 -0.7458823 0.6370438 0.1945116 -0.7170302 0.6407775 0.2743572 -0.780344 0.594156 0.1950431 -0.8363549 0.5125188 0.1945117 -0.836355 0.5125191 0.1945112 -0.878828 0.4354376 0.1950779 -0.8992242 0.3724711 0.2294802 -0.9103602 0.3651714 0.1946643 -0.9537982 0.2289863 0.1945107 -0.9157453 0.2527293 0.3123117 -0.9630184 0.1859471 0.194985 -0.9778762 0.07696008 0.1945128 -0.9778768 0.07696092 0.1945099 -0.9778768 -0.07696014 0.1945099 -0.9778762 -0.07696086 0.1945128 -0.9630184 -0.1859471 0.194985 -0.9379801 -0.2251887 0.2635973 -0.9454771 -0.2609347 0.1949004 -0.9103602 -0.3651714 0.1946643 -0.8992242 -0.3724711 0.2294802 -0.878828 -0.4354376 0.1950779 -0.836355 -0.5125189 0.1945112 -0.8363549 -0.512519 0.1945117 -0.780344 -0.594156 0.1950431 -0.735801 -0.6284336 0.2523257 -0.7313586 -0.6535821 0.194795 -0.6370438 -0.7458823 0.1945116 -0.6407775 -0.7170302 0.2743572 -0.594156 -0.780344 0.1950431 -0.5125188 -0.8363549 0.1945117 -0.5125191 -0.836355 0.1945112 -0.4354376 -0.878828 0.1950779 -0.3724711 -0.8992242 0.2294802 -0.3651714 -0.9103602 0.1946643 -0.2289863 -0.9537982 0.1945108 -0.2527292 -0.9157452 0.3123118 -0.1859471 -0.9630184 0.194985 -0.07696008 -0.9778762 0.1945128 -0.07696092 -0.9778768 0.1945099 -0.06529855 0.8296955 0.5543839 -0.1942871 0.8092657 0.5543839 -0.1942873 0.8092654 0.5543844 -0.3184926 0.7689086 0.5543844 -0.3184925 0.7689086 0.5543844 -0.4348551 0.7096191 0.5543843 -0.4348551 0.7096188 0.5543845 -0.5405101 0.6328559 0.5543846 -0.5405102 0.6328564 0.5543839 -0.6328562 0.5405104 0.5543839 -0.632856 0.54051 0.5543846 -0.7096189 0.4348551 0.5543845 -0.709619 0.4348551 0.5543842 -0.7689086 0.3184925 0.5543844 -0.7689086 0.3184926 0.5543844 -0.8092653 0.1942871 0.5543844 -0.8092657 0.1942873 0.5543839 -0.8296955 0.06529873 0.5543839 -0.8296951 0.06529855 0.5543845 -0.8296951 -0.06529873 0.5543845 -0.8296955 -0.06529855 0.5543839 -0.8092657 -0.1942872 0.5543839 -0.8092653 -0.1942873 0.5543844 -0.7689086 -0.3184926 0.5543844 -0.7689086 -0.3184925 0.5543844 -0.7096191 -0.4348551 0.5543843 -0.7096188 -0.4348551 0.5543845 -0.6328559 -0.5405101 0.5543846 -0.6328564 -0.5405102 0.5543839 -0.5405104 -0.6328562 0.5543839 -0.54051 -0.632856 0.5543846 -0.4348551 -0.7096189 0.5543845 -0.4348551 -0.709619 0.5543842 -0.3184925 -0.7689086 0.5543844 -0.3184926 -0.7689086 0.5543844 -0.1942871 -0.8092654 0.5543844 -0.1942873 -0.8092657 0.5543839 -0.06529873 -0.8296955 0.5543839 -0.06529855 -0.8296951 0.5543845 -0.04368251 0.5550394 0.8306763 -0.1299719 0.5413724 0.8306763 -0.1299719 0.5413718 0.8306768 -0.213061 0.5143744 0.8306767 -0.213061 0.5143752 0.8306763 -0.2909041 0.4747121 0.8306764 -0.2909041 0.4747122 0.8306763 -0.3615838 0.4233604 0.8306763 -0.3615837 0.4233601 0.8306765 -0.4233602 0.3615837 0.8306765 -0.4233602 0.3615838 0.8306763 -0.4747121 0.2909041 0.8306764 -0.4747122 0.2909041 0.8306763 -0.5143752 0.2130613 0.8306763 -0.5143746 0.2130608 0.8306768 -0.5413718 0.1299718 0.8306767 -0.5413724 0.1299721 0.8306763 -0.5550394 0.04368263 0.8306763 -0.5550391 0.04368251 0.8306766 -0.5550391 -0.04368257 0.8306764 -0.5550394 -0.04368251 0.8306763 -0.5413724 -0.1299719 0.8306763 -0.5413718 -0.129972 0.8306768 -0.5143744 -0.213061 0.8306767 -0.5143752 -0.213061 0.8306763 -0.4747121 -0.2909041 0.8306764 -0.4747122 -0.2909041 0.8306763 -0.4233604 -0.3615838 0.8306763 -0.4233601 -0.3615837 0.8306765 -0.3615837 -0.4233602 0.8306765 -0.3615838 -0.4233602 0.8306763 -0.2909041 -0.4747121 0.8306764 -0.2909041 -0.4747122 0.8306763 -0.2130613 -0.5143752 0.8306763 -0.2130608 -0.5143746 0.8306768 -0.1299718 -0.5413718 0.8306768 -0.1299721 -0.5413724 0.8306763 -0.04368263 -0.5550394 0.8306763 -0.04368251 -0.5550391 0.8306766 -0.01535224 0.1950676 0.9806696 -0.04567849 0.1902644 0.9806697 -0.04567843 0.1902648 0.9806696 -0.07488006 0.1807766 0.9806695 -0.07488006 0.1807763 0.9806696 -0.1022378 0.1668369 0.9806696 -0.1022378 0.1668371 0.9806696 -0.1270782 0.1487895 0.9806696 -0.1270782 0.1487894 0.9806696 -0.1487895 0.1270782 0.9806696 -0.1487895 0.1270782 0.9806696 -0.166837 0.1022379 0.9806696 -0.1668369 0.1022377 0.9806696 -0.1807764 0.07487994 0.9806696 -0.1807766 0.07488018 0.9806696 -0.1902648 0.04567855 0.9806696 -0.1902644 0.04567837 0.9806696 -0.1950676 0.01535212 0.9806697 -0.195068 0.0153523 0.9806696 -0.195068 -0.01535218 0.9806696 -0.1950676 -0.01535224 0.9806696 -0.1902644 -0.04567849 0.9806696 -0.1902648 -0.04567843 0.9806696 -0.1807766 -0.07488006 0.9806695 -0.1807763 -0.07488006 0.9806696 -0.1668369 -0.1022378 0.9806696 -0.1668371 -0.1022378 0.9806696 -0.1487895 -0.1270782 0.9806696 -0.1487894 -0.1270782 0.9806696 -0.1270782 -0.1487895 0.9806696 -0.1270782 -0.1487895 0.9806696 -0.1022379 -0.166837 0.9806696 -0.1022377 -0.1668369 0.9806696 -0.07487994 -0.1807764 0.9806696 -0.07488018 -0.1807766 0.9806696 -0.04567855 -0.1902648 0.9806696 -0.04567831 -0.1902644 0.9806696 -0.01535212 -0.1950676 0.9806697 -0.0153523 -0.195068 0.9806696 -0.5618497 -0.8036884 0.1959845 -0.06459313 -0.1646704 0.9842314 -0.1228217 -0.1296502 0.9839236 -0.05168908 -0.1881341 0.9807822 -0.1052275 -0.1876637 0.9765805 -0.08868896 -0.1703729 0.9813803 -0.2547189 -0.4893191 0.8340774 -0.2547191 -0.4893193 0.8340772 -0.3833342 -0.736391 0.5574793 -0.3833342 -0.7363908 0.5574796 -0.06465584 -0.1918993 0.9792825 -0.1795832 -0.5215428 0.8341121 -0.1796348 -0.5268378 0.8307667 -0.2694584 -0.7852284 0.5575021 -0.2691859 -0.7874457 0.5544981 -0.3178737 -0.9277077 0.1957412 -0.317645 -0.9280341 0.1945617 -0.4528104 -0.8698558 0.1957388 -0.4622073 -0.8461007 0.2654769 -0.4042067 -0.8933703 0.1962307 -0.6205279 -0.7592356 0.1962304 -0.5709257 -0.7828131 0.2474827 -0.4891945 -0.6707489 0.5574806 -0.4891951 -0.6707493 0.5574796 -0.3250617 -0.4457014 0.8340775 -0.325062 -0.4457016 0.8340771 -0.1196161 -0.164009 0.9791798 -0.1094818 -0.1574916 0.9814327 -0.1382841 -0.1382633 0.9806941 -0.3909043 -0.3963819 0.8307076 -0.3885891 -0.3916023 0.8340539 -0.5849886 -0.591912 0.5544624 -0.5842807 -0.5897833 0.5574691 -0.6898322 -0.697337 0.1945571 -0.6898974 -0.6969425 0.1957364 -0.02497088 -0.1950279 0.9804798 -0.02497082 -0.1950278 0.9804798 -0.07095444 -0.55417 0.829374 -0.0709545 -0.55417 0.8293739 -0.1058611 -0.8267975 0.5524484 -0.1058604 -0.8267973 0.552449 -0.1183438 -0.9242955 0.3628671 -0.1377355 -0.9713091 0.1938755 -0.1250288 -0.9765163 0.1754528 -0.02497088 0.1950278 0.9804798 -0.02497082 0.1950278 0.9804797 -0.07095444 0.55417 0.829374 -0.0709545 0.55417 0.829374 -0.105861 0.8267972 0.5524491 -0.1250522 0.9766992 0.1744151 -0.1383999 0.9712117 0.19389 -0.1183915 0.9246677 0.3619021 -0.1058605 0.8267976 0.5524485 -0.4701127 0.8605719 0.1959846 -0.1187859 0.1310673 0.9842313 -0.06152951 0.1676557 0.9839237 -0.1455398 0.12994 0.9807822 -0.1213171 0.1776884 0.9765803 -0.1131812 0.1551858 0.9813804 -0.3250618 0.4457013 0.8340774 -0.3250619 0.4457017 0.8340771 -0.4891947 0.6707488 0.5574806 -0.4891948 0.6707494 0.5574796 -0.1431478 0.1432287 0.9792825 -0.3873291 0.3927252 0.8341122 -0.3920488 0.3951253 0.830767 -0.5835663 0.5904579 0.5575032 -0.5856752 0.5912002 0.5544969 -0.6896679 0.6971683 0.1957411 -0.6900618 0.6971087 0.1945617 -0.5778576 0.7923176 0.1957387 -0.5524019 0.7901739 0.2654757 -0.6205279 0.7592356 0.1962304 -0.4042067 0.8933703 0.1962307 -0.4473784 0.859421 0.2474836 -0.3833342 0.7363909 0.5574794 -0.3833342 0.7363908 0.5574796 -0.254719 0.489319 0.8340774 -0.254719 0.4893194 0.8340772 -0.09373134 0.1800594 0.9791798 -0.092399 0.1680841 0.9814327 -0.06237041 0.1853352 0.9806941 -0.1812694 0.5263713 0.8307073 -0.1780171 0.5221722 0.834054 -0.270128 0.7871473 0.5544638 -0.2685371 0.7855681 0.5574679 -0.3179519 0.92793 0.194557 -0.3175694 0.9278129 0.1957366 -0.1950355 0.02336519 0.9805179 -0.1950354 0.02336508 0.9805179 -0.4416717 0.05291193 0.8956151 -0.5440964 0.1133613 0.8313294 -0.8208007 0.1369962 0.5545433 -0.789794 0.09461694 0.6060305 -0.6071481 0.07273608 0.7912526 -0.9740844 0.116695 0.1937574 -0.9740843 0.1166948 0.1937575 -0.891741 0.1068301 0.439756 -0.1839972 0.06877321 0.9805179 -0.1839972 0.06877297 0.9805179 -0.5229706 0.1954717 0.8296341 -0.5229706 0.1954718 0.8296339 -0.7805497 0.2917477 0.5528339 -0.7805497 0.2917476 0.552834 -0.9189557 0.3434799 0.1937575 -0.9189557 0.3434799 0.1937574 -0.1625456 0.1102887 0.9805179 -0.1625457 0.110289 0.9805179 -0.4619992 0.3134714 0.829634 -0.4619991 0.3134707 0.8296342 -0.6895483 0.4678649 0.5528341 -0.6895483 0.4678655 0.5528337 -0.8118178 0.5508266 0.1937575 -0.8118179 0.5508263 0.1937579 -0.9807853 0 0.1950904 -0.9807853 0 0.1950904 -0.8968735 0 0.442287 -0.8968735 0 0.442287 -0.7933531 0 0.6087616 -0.7933531 0 0.6087616 -0.6087605 0 0.793354 -0.6087605 0 0.793354 -0.4422913 0 0.8968715 -0.4422913 0 0.8968715 -0.1950887 0 0.9807857 -0.1950887 0 0.9807857 -0.1950354 -0.02336513 0.9805179 -0.1950355 -0.02336508 0.9805179 -0.4416717 -0.05291193 0.8956151 -0.5440964 -0.1133613 0.8313293 -0.1625458 -0.1102888 0.9805179 -0.1625455 -0.1102889 0.9805179 -0.4619987 -0.3134711 0.8296343 -0.4619994 -0.3134709 0.829634 -0.6895486 -0.4678651 0.5528336 -0.689548 -0.4678654 0.5528341 -0.8118177 -0.5508266 0.1937579 -0.811818 -0.5508263 0.1937575 -0.1839971 -0.06877315 0.9805179 -0.1839973 -0.06877303 0.9805179 -0.5229707 -0.1954717 0.829634 -0.5229706 -0.1954718 0.829634 -0.7805497 -0.2917476 0.552834 -0.7805498 -0.2917476 0.552834 -0.9189557 -0.3434799 0.1937574 -0.9189557 -0.34348 0.1937575 -0.6071481 -0.07273608 0.7912526 -0.789794 -0.09461694 0.6060305 -0.8208007 -0.1369962 0.5545433 -0.891741 -0.1068301 0.439756 -0.9740844 -0.1166948 0.1937574 -0.9740844 -0.116695 0.1937575 0 0 1 0 0 1 0 0 1 0 0 1 0 0 1 0 0 1 0 0 1 0 0 1 0 0 1 0 0 1 0 0 1 0 0 1 0 0 1 0 0 1 0 0 1 0 0 1 0 0 1 0 0 1 0 0 1 0 0 1 0 0 1 0 0 1 0 0 1 0 0 1 0 0 1 0 0 1 0 0 1 0 0 1 0 0 1 -0.2745059 0.9615854 0 -0.3115913 0.9502028 0.005033195 -0.3430076 0.9392454 0.0128014 -0.3238281 0.9460986 0.005733191 -0.3979696 0.9173963 -0.002051293 -0.7035056 0.7106897 0 -0.689104 0.7246009 -0.009448111 -0.6328316 0.7742896 0 -0.5551648 0.8317403 0 -0.5729303 0.8195384 -0.01037621 -0.4603748 0.8876932 0.007460653 -0.4794099 0.8775911 1.74777e-4 -0.4122211 0.9110838 -6.59318e-5 -0.2740742 -0.9617086 0 -0.7035056 -0.7106897 0 -0.689104 -0.7246009 -0.009448111 -0.6328316 -0.7742896 0 -0.5729612 -0.8195825 0 -0.5551494 -0.8317172 -0.007461071 -0.479405 -0.8775821 0.004542231 -0.4587192 -0.8885812 -3.95385e-4 -0.4122211 -0.9110838 2.13614e-4 -0.3931281 -0.9194812 -0.002125084 -0.3238268 -0.9460949 0.006373643 -0.3403982 -0.9402028 0.01215082 -0.3111719 -0.9503409 0.004932761 -0.8594818 0.5111665 0 -0.9929004 0.1189491 0 -0.9840083 0.1778874 -0.009144008 -0.9366969 0.3501111 0.004580438 -0.8274222 0.561414 -0.01367485 -1 0 0 -1 0 0 -0.9929004 -0.1189491 0 -0.9840083 -0.1778874 -0.009144008 -0.9366969 -0.3501111 0.004580438 -0.8594458 -0.5111451 -0.009144067 -0.8274996 -0.5614664 0</float_array>
          <technique_common>
            <accessor source="#link_3-mesh-normals-array" count="1152" stride="3">
              <param name="X" type="float"/>
              <param name="Y" type="float"/>
              <param name="Z" type="float"/>
            </accessor>
          </technique_common>
        </source>
        <vertices id="link_3-mesh-vertices">
          <input semantic="POSITION" source="#link_3-mesh-positions"/>
        </vertices>
        <triangles material="base-material" count="1152">
          <input semantic="VERTEX" source="#link_3-mesh-vertices" offset="0"/>
          <input semantic="NORMAL" source="#link_3-mesh-normals" offset="1"/>
          <p>0 0 1 0 2 0 2 1 1 1 3 1 4 2 0 2 5 2 0 3 4 3 1 3 1 4 4 4 6 4 1 5 6 5 7 5 7 6 8 6 1 6 1 7 8 7 9 7 1 8 9 8 10 8 11 9 3 9 12 9 12 10 3 10 13 10 14 11 15 11 16 11 17 12 18 12 5 12 5 13 18 13 19 13 5 14 19 14 4 14 11 15 20 15 3 15 3 16 20 16 21 16 3 17 21 17 2 17 2 18 21 18 22 18 2 19 22 19 16 19 16 20 22 20 23 20 16 21 23 21 14 21 24 22 21 22 20 22 24 23 20 23 25 23 25 24 20 24 11 24 25 25 11 25 26 25 26 26 11 26 12 26 26 27 12 27 27 27 27 28 12 28 13 28 27 29 13 29 28 29 28 30 13 30 3 30 28 31 3 31 29 31 30 32 31 32 32 32 33 33 34 33 35 33 36 34 37 34 32 34 38 35 33 35 39 35 39 36 33 36 35 36 39 37 35 37 40 37 40 38 35 38 41 38 34 39 42 39 35 39 35 40 42 40 43 40 35 41 43 41 44 41 44 42 43 42 45 42 44 43 45 43 46 43 46 44 45 44 32 44 22 45 21 45 45 45 45 46 21 46 24 46 45 47 24 47 32 47 32 48 24 48 47 48 32 49 47 49 36 49 48 50 49 50 35 50 35 51 49 51 50 51 35 52 50 52 41 52 51 53 30 53 52 53 52 54 30 54 32 54 52 55 32 55 53 55 53 56 32 56 37 56 54 57 2 57 16 57 54 58 16 58 55 58 55 59 16 59 15 59 55 60 15 60 56 60 56 61 15 61 14 61 56 62 14 62 57 62 57 63 14 63 23 63 57 64 23 64 58 64 58 65 23 65 22 65 58 66 22 66 45 66 59 67 54 67 55 67 58 68 45 68 43 68 43 69 42 69 58 69 58 70 42 70 34 70 58 71 34 71 57 71 59 72 55 72 60 72 61 73 62 73 56 73 56 74 62 74 63 74 56 75 63 75 55 75 55 76 63 76 64 76 55 77 64 77 60 77 34 78 33 78 57 78 57 79 33 79 38 79 57 80 38 80 56 80 56 81 38 81 65 81 56 82 65 82 66 82 67 83 61 83 68 83 68 84 61 84 56 84 68 85 56 85 69 85 69 86 56 86 66 86 38 87 39 87 70 87 69 88 66 88 70 88 70 89 66 89 65 89 70 90 65 90 38 90 70 91 71 91 69 91 69 92 71 92 72 92 69 93 72 93 68 93 68 94 72 94 73 94 68 95 73 95 67 95 67 96 73 96 61 96 61 97 73 97 74 97 61 98 74 98 62 98 75 99 76 99 74 99 74 100 76 100 77 100 74 101 77 101 78 101 79 102 76 102 80 102 79 103 80 103 81 103 76 104 79 104 77 104 77 105 79 105 82 105 77 106 82 106 78 106 83 107 84 107 85 107 85 108 84 108 86 108 85 109 86 109 87 109 87 110 86 110 81 110 87 111 81 111 88 111 88 112 81 112 80 112 89 113 90 113 91 113 91 114 92 114 89 114 89 115 92 115 93 115 89 116 93 116 94 116 94 117 93 117 95 117 94 118 95 118 96 118 97 119 98 119 99 119 99 120 100 120 97 120 97 121 100 121 101 121 97 122 101 122 90 122 90 123 101 123 102 123 90 124 102 124 91 124 92 125 103 125 93 125 93 126 103 126 104 126 93 127 104 127 95 127 95 128 104 128 96 128 105 129 106 129 107 129 107 130 106 130 108 130 107 131 108 131 104 131 104 132 108 132 109 132 104 133 109 133 110 133 107 134 111 134 105 134 105 135 111 135 112 135 105 136 112 136 113 136 113 137 112 137 114 137 113 138 114 138 115 138 115 139 114 139 52 139 115 140 52 140 53 140 47 141 24 141 25 141 110 142 109 142 27 142 29 143 116 143 28 143 28 144 116 144 117 144 28 145 117 145 27 145 27 146 117 146 118 146 27 147 118 147 110 147 26 148 37 148 25 148 25 149 37 149 36 149 25 150 36 150 47 150 109 151 108 151 27 151 27 152 108 152 106 152 27 153 106 153 105 153 105 154 113 154 27 154 27 155 113 155 115 155 27 156 115 156 26 156 26 157 115 157 53 157 26 158 53 158 37 158 119 159 120 159 121 159 122 160 123 160 124 160 125 161 126 161 127 161 128 162 129 162 130 162 130 163 131 163 132 163 131 164 133 164 134 164 135 165 136 165 137 165 135 166 137 166 138 166 131 167 134 167 132 167 132 168 134 168 139 168 132 169 139 169 140 169 140 170 139 170 141 170 140 171 141 171 142 171 142 172 141 172 143 172 142 173 143 173 144 173 144 174 143 174 145 174 144 175 145 175 146 175 146 176 145 176 147 176 146 177 147 177 148 177 130 178 132 178 149 178 149 179 132 179 140 179 149 180 140 180 150 180 150 181 140 181 142 181 150 182 142 182 151 182 151 183 142 183 144 183 151 184 144 184 152 184 152 185 144 185 146 185 152 186 146 186 153 186 153 187 146 187 148 187 153 188 148 188 154 188 155 189 156 189 157 189 157 190 156 190 158 190 157 191 158 191 159 191 159 192 158 192 160 192 159 193 160 193 161 193 161 194 160 194 124 194 162 195 163 195 164 195 164 196 163 196 165 196 164 197 165 197 166 197 166 198 165 198 167 198 166 199 167 199 168 199 168 200 167 200 169 200 163 201 170 201 165 201 165 202 170 202 171 202 165 203 171 203 167 203 167 204 171 204 172 204 167 205 172 205 169 205 169 206 172 206 173 206 170 207 174 207 171 207 171 208 174 208 175 208 171 209 175 209 172 209 172 210 175 210 176 210 172 211 176 211 173 211 173 212 176 212 177 212 86 213 133 213 81 213 81 214 133 214 131 214 81 215 131 215 79 215 79 216 131 216 130 216 79 217 130 217 82 217 82 218 130 218 129 218 128 219 130 219 178 219 178 220 130 220 149 220 178 221 149 221 179 221 179 222 149 222 150 222 179 223 150 223 180 223 180 224 150 224 151 224 180 225 151 225 181 225 182 226 183 226 154 226 154 227 183 227 184 227 154 228 184 228 153 228 153 229 184 229 185 229 153 230 185 230 152 230 152 231 185 231 186 231 152 232 186 232 151 232 151 233 186 233 187 233 151 234 187 234 181 234 126 235 182 235 127 235 127 236 182 236 154 236 127 237 154 237 188 237 188 238 154 238 148 238 188 239 148 239 189 239 189 240 148 240 147 240 190 241 125 241 191 241 191 242 125 242 127 242 191 243 127 243 192 243 192 244 127 244 188 244 192 245 188 245 193 245 193 246 188 246 189 246 194 247 190 247 195 247 195 248 190 248 191 248 195 249 191 249 196 249 196 250 191 250 192 250 196 251 192 251 137 251 137 252 192 252 193 252 137 253 193 253 138 253 138 254 193 254 189 254 138 255 189 255 197 255 197 256 189 256 147 256 197 257 147 257 198 257 198 258 147 258 145 258 198 259 145 259 199 259 199 260 145 260 143 260 199 261 143 261 200 261 200 262 143 262 141 262 200 263 141 263 201 263 201 264 141 264 139 264 201 265 139 265 202 265 202 266 139 266 134 266 202 267 134 267 203 267 203 268 134 268 133 268 203 269 133 269 204 269 204 270 133 270 86 270 204 271 86 271 84 271 136 272 155 272 137 272 137 273 155 273 157 273 137 274 157 274 196 274 196 275 157 275 159 275 196 276 159 276 195 276 195 277 159 277 161 277 195 278 161 278 194 278 194 279 161 279 205 279 124 280 123 280 161 280 161 281 123 281 206 281 161 282 206 282 205 282 207 283 122 283 208 283 208 284 122 284 124 284 208 285 124 285 209 285 209 286 124 286 160 286 209 287 160 287 210 287 210 288 160 288 158 288 210 289 158 289 211 289 211 290 158 290 156 290 211 291 162 291 210 291 210 292 162 292 164 292 210 293 164 293 209 293 209 294 164 294 166 294 209 295 166 295 208 295 208 296 166 296 168 296 208 297 168 297 207 297 207 298 168 298 212 298 213 299 214 299 177 299 177 300 214 300 215 300 177 301 215 301 173 301 173 302 215 302 216 302 173 303 216 303 169 303 169 304 216 304 217 304 169 305 217 305 168 305 168 306 217 306 218 306 168 307 218 307 212 307 120 308 213 308 121 308 121 309 213 309 177 309 121 310 177 310 219 310 219 311 177 311 176 311 219 312 176 312 220 312 220 313 176 313 175 313 220 314 175 314 221 314 221 315 175 315 174 315 222 316 119 316 223 316 223 317 119 317 121 317 223 318 121 318 224 318 224 319 121 319 219 319 224 320 219 320 225 320 225 321 219 321 220 321 225 322 220 322 226 322 226 323 220 323 221 323 226 324 98 324 225 324 225 325 98 325 227 325 225 326 227 326 224 326 224 327 227 327 228 327 224 328 228 328 223 328 223 329 228 329 229 329 223 330 229 330 222 330 222 331 229 331 94 331 51 332 52 332 230 332 230 333 52 333 114 333 230 334 114 334 231 334 231 335 114 335 112 335 231 336 112 336 232 336 104 337 103 337 107 337 107 338 103 338 232 338 107 339 232 339 111 339 111 340 232 340 112 340 233 341 30 341 51 341 234 342 235 342 236 342 236 343 235 343 237 343 236 344 237 344 238 344 238 345 237 345 239 345 238 346 239 346 240 346 240 347 239 347 241 347 242 348 241 348 243 348 243 349 241 349 239 349 243 350 239 350 244 350 244 351 239 351 237 351 244 352 237 352 233 352 233 353 237 353 235 353 233 354 235 354 30 354 30 355 235 355 234 355 30 356 234 356 31 356 51 357 230 357 233 357 233 358 230 358 231 358 233 359 231 359 244 359 244 360 231 360 232 360 244 361 232 361 243 361 243 362 232 362 103 362 243 363 103 363 242 363 245 364 246 364 247 364 32 365 31 365 234 365 44 366 46 366 248 366 248 367 46 367 249 367 248 368 249 368 250 368 250 369 249 369 251 369 247 370 252 370 251 370 251 371 252 371 253 371 251 372 253 372 250 372 246 373 254 373 247 373 247 374 254 374 255 374 247 375 255 375 252 375 256 376 245 376 257 376 257 377 245 377 247 377 257 378 247 378 258 378 258 379 247 379 251 379 258 380 251 380 259 380 259 381 251 381 249 381 259 382 249 382 32 382 32 383 249 383 46 383 32 384 234 384 259 384 259 385 234 385 236 385 259 386 236 386 258 386 258 387 236 387 238 387 258 388 238 388 257 388 257 389 238 389 240 389 257 390 240 390 256 390 35 391 44 391 260 391 260 392 44 392 248 392 260 393 248 393 261 393 261 394 248 394 250 394 261 395 250 395 262 395 262 396 250 396 253 396 262 397 253 397 263 397 263 398 253 398 252 398 263 399 252 399 264 399 264 400 252 400 255 400 264 401 255 401 265 401 265 402 255 402 254 402 266 403 48 403 35 403 50 404 49 404 267 404 35 405 260 405 266 405 266 406 260 406 261 406 266 407 261 407 268 407 50 408 267 408 269 408 269 409 267 409 270 409 269 410 270 410 271 410 271 411 270 411 272 411 271 412 272 412 273 412 264 413 274 413 263 413 263 414 274 414 268 414 263 415 268 415 262 415 262 416 268 416 261 416 275 417 273 417 276 417 276 418 273 418 272 418 276 419 272 419 277 419 277 420 272 420 278 420 49 421 48 421 267 421 267 422 48 422 266 422 267 423 266 423 270 423 270 424 266 424 268 424 270 425 268 425 272 425 272 426 268 426 274 426 272 427 274 427 278 427 278 428 274 428 264 428 278 429 264 429 265 429 279 430 280 430 281 430 279 431 281 431 282 431 282 432 281 432 283 432 282 433 283 433 284 433 284 434 283 434 285 434 284 435 285 435 75 435 286 436 285 436 287 436 287 437 285 437 283 437 287 438 283 438 288 438 288 439 283 439 281 439 288 440 281 440 289 440 289 441 281 441 280 441 289 442 280 442 41 442 41 443 280 443 279 443 41 444 279 444 40 444 41 445 50 445 289 445 289 446 50 446 269 446 289 447 269 447 288 447 288 448 269 448 271 448 288 449 271 449 287 449 287 450 271 450 273 450 287 451 273 451 286 451 286 452 273 452 275 452 39 453 40 453 70 453 70 454 40 454 279 454 70 455 279 455 71 455 71 456 279 456 282 456 71 457 282 457 72 457 72 458 282 458 284 458 72 459 284 459 73 459 73 460 284 460 75 460 73 461 75 461 74 461 80 462 76 462 75 462 80 463 75 463 88 463 275 464 290 464 286 464 286 465 290 465 83 465 286 466 83 466 285 466 285 467 83 467 85 467 285 468 85 468 75 468 75 469 85 469 87 469 75 470 87 470 88 470 291 471 99 471 98 471 84 472 83 472 290 472 292 473 202 473 203 473 203 474 204 474 292 474 292 475 204 475 84 475 292 476 84 476 293 476 293 477 84 477 290 477 226 478 221 478 294 478 226 479 294 479 98 479 98 480 294 480 295 480 98 481 295 481 291 481 136 482 294 482 155 482 155 483 294 483 156 483 202 484 292 484 201 484 201 485 292 485 294 485 201 486 294 486 200 486 221 487 174 487 294 487 294 488 174 488 170 488 294 489 170 489 163 489 163 490 162 490 294 490 294 491 162 491 211 491 294 492 211 492 156 492 136 493 135 493 294 493 294 494 135 494 138 494 294 495 138 495 197 495 197 496 198 496 294 496 294 497 198 497 199 497 294 498 199 498 200 498 92 499 91 499 103 499 103 500 91 500 102 500 103 501 102 501 242 501 242 502 102 502 101 502 242 503 101 503 241 503 291 504 240 504 99 504 99 505 240 505 241 505 99 506 241 506 100 506 100 507 241 507 101 507 254 508 246 508 294 508 294 509 246 509 295 509 240 510 291 510 256 510 256 511 291 511 295 511 256 512 295 512 245 512 245 513 295 513 246 513 292 514 265 514 294 514 294 515 265 515 254 515 275 516 276 516 290 516 290 517 276 517 293 517 265 518 292 518 278 518 278 519 292 519 293 519 278 520 293 520 277 520 277 521 293 521 276 521 82 522 296 522 78 522 78 523 296 523 297 523 298 524 299 524 297 524 297 525 299 525 300 525 60 526 78 526 59 526 59 527 78 527 54 527 62 528 74 528 63 528 63 529 74 529 78 529 63 530 78 530 64 530 64 531 78 531 60 531 300 532 301 532 297 532 297 533 301 533 302 533 297 534 302 534 78 534 78 535 302 535 303 535 78 536 303 536 54 536 54 537 303 537 0 537 54 538 0 538 2 538 304 539 4 539 19 539 304 540 19 540 305 540 305 541 19 541 18 541 305 542 18 542 306 542 306 543 18 543 17 543 306 544 17 544 307 544 307 545 17 545 5 545 307 546 5 546 308 546 308 547 5 547 0 547 308 548 0 548 303 548 309 549 310 549 311 549 312 550 313 550 314 550 315 551 316 551 317 551 317 552 316 552 318 552 317 553 318 553 319 553 320 554 321 554 322 554 323 555 314 555 324 555 324 556 314 556 325 556 324 557 325 557 311 557 6 558 4 558 323 558 323 559 4 559 304 559 323 560 304 560 314 560 314 561 304 561 326 561 314 562 326 562 312 562 313 563 327 563 314 563 314 564 327 564 328 564 314 565 328 565 329 565 311 566 310 566 317 566 317 567 310 567 330 567 317 568 330 568 315 568 319 569 331 569 317 569 317 570 331 570 332 570 317 571 332 571 322 571 322 572 332 572 333 572 322 573 333 573 320 573 325 574 334 574 311 574 311 575 334 575 335 575 311 576 335 576 336 576 336 577 337 577 311 577 311 578 337 578 338 578 311 579 338 579 309 579 339 580 1 580 10 580 339 581 10 581 340 581 340 582 10 582 9 582 340 583 9 583 341 583 341 584 9 584 8 584 341 585 8 585 342 585 342 586 8 586 7 586 342 587 7 587 343 587 343 588 7 588 6 588 343 589 6 589 323 589 1 590 339 590 3 590 3 591 339 591 29 591 344 592 94 592 345 592 345 593 94 593 96 593 346 594 347 594 345 594 348 595 349 595 350 595 350 596 349 596 345 596 350 597 345 597 351 597 351 598 345 598 347 598 104 599 110 599 96 599 96 600 110 600 118 600 96 601 118 601 117 601 117 602 116 602 96 602 96 603 116 603 29 603 96 604 29 604 345 604 345 605 29 605 339 605 345 606 339 606 346 606 296 607 82 607 352 607 352 608 82 608 129 608 352 609 129 609 353 609 353 610 129 610 128 610 353 611 128 611 354 611 354 612 128 612 178 612 354 613 178 613 355 613 355 614 178 614 179 614 355 615 179 615 356 615 356 616 179 616 180 616 356 617 180 617 357 617 357 618 180 618 181 618 357 619 181 619 358 619 358 620 181 620 187 620 358 621 187 621 359 621 359 622 187 622 186 622 359 623 186 623 360 623 360 624 186 624 185 624 360 625 185 625 361 625 361 626 185 626 184 626 361 627 184 627 362 627 362 628 184 628 183 628 362 629 183 629 363 629 363 630 183 630 182 630 363 631 182 631 364 631 364 632 182 632 126 632 364 633 126 633 365 633 365 634 126 634 125 634 365 635 125 635 366 635 366 636 125 636 190 636 366 637 190 637 367 637 367 638 190 638 368 638 367 639 368 639 369 639 369 640 368 640 205 640 369 641 205 641 370 641 370 642 205 642 206 642 370 643 206 643 371 643 371 644 206 644 123 644 371 645 123 645 372 645 372 646 123 646 122 646 372 647 122 647 373 647 373 648 122 648 207 648 373 649 207 649 374 649 374 650 207 650 212 650 374 651 212 651 375 651 375 652 212 652 218 652 375 653 218 653 376 653 376 654 218 654 217 654 376 655 217 655 377 655 377 656 217 656 216 656 377 657 216 657 378 657 378 658 216 658 215 658 378 659 215 659 379 659 379 660 215 660 214 660 379 661 214 661 380 661 380 662 214 662 213 662 380 663 213 663 381 663 381 664 213 664 120 664 381 665 120 665 382 665 382 666 120 666 119 666 382 667 119 667 383 667 383 668 119 668 222 668 383 669 222 669 344 669 344 670 222 670 94 670 384 671 385 671 296 671 296 672 385 672 386 672 296 673 386 673 297 673 387 674 388 674 389 674 389 675 388 675 390 675 389 676 390 676 384 676 384 677 390 677 391 677 384 678 391 678 385 678 389 679 392 679 387 679 387 680 392 680 393 680 387 681 393 681 394 681 385 682 395 682 386 682 386 683 395 683 298 683 386 684 298 684 297 684 396 685 397 685 398 685 398 686 397 686 399 686 398 687 399 687 298 687 298 688 399 688 400 688 298 689 400 689 299 689 398 690 401 690 396 690 396 691 401 691 402 691 396 692 402 692 403 692 403 693 402 693 404 693 403 694 404 694 405 694 405 695 404 695 328 695 405 696 328 696 327 696 326 697 304 697 305 697 299 698 400 698 307 698 303 699 302 699 308 699 308 700 302 700 301 700 308 701 301 701 307 701 307 702 301 702 300 702 307 703 300 703 299 703 306 704 313 704 305 704 305 705 313 705 312 705 305 706 312 706 326 706 400 707 399 707 307 707 307 708 399 708 397 708 307 709 397 709 396 709 396 710 403 710 307 710 307 711 403 711 405 711 307 712 405 712 306 712 306 713 405 713 327 713 306 714 327 714 313 714 346 715 339 715 340 715 343 716 323 716 324 716 324 717 311 717 343 717 343 718 311 718 317 718 343 719 317 719 342 719 346 720 340 720 347 720 406 721 348 721 341 721 341 722 348 722 350 722 341 723 350 723 340 723 340 724 350 724 351 724 340 725 351 725 347 725 317 726 322 726 342 726 342 727 322 727 321 727 342 728 321 728 341 728 341 729 321 729 407 729 341 730 407 730 408 730 409 731 406 731 410 731 410 732 406 732 341 732 410 733 341 733 411 733 411 734 341 734 408 734 321 735 320 735 412 735 411 736 408 736 412 736 412 737 408 737 407 737 412 738 407 738 321 738 412 739 413 739 411 739 411 740 413 740 414 740 411 741 414 741 410 741 410 742 414 742 415 742 410 743 415 743 409 743 409 744 415 744 406 744 406 745 415 745 349 745 406 746 349 746 348 746 416 747 417 747 349 747 349 748 417 748 418 748 349 749 418 749 345 749 419 750 420 750 421 750 421 751 420 751 422 751 421 752 422 752 423 752 423 753 422 753 424 753 423 754 424 754 425 754 425 755 424 755 426 755 426 756 424 756 427 756 426 757 427 757 417 757 417 758 427 758 418 758 418 759 427 759 344 759 418 760 344 760 345 760 393 761 392 761 428 761 392 762 429 762 430 762 429 763 384 763 431 763 384 764 296 764 352 764 384 765 352 765 431 765 431 766 352 766 353 766 431 767 353 767 432 767 353 768 354 768 432 768 432 769 354 769 355 769 432 770 355 770 433 770 355 771 356 771 433 771 433 772 356 772 357 772 433 773 357 773 434 773 434 774 357 774 358 774 434 775 358 775 435 775 435 776 358 776 359 776 435 777 359 777 436 777 436 778 359 778 360 778 360 779 361 779 436 779 436 780 361 780 362 780 436 781 362 781 437 781 437 782 362 782 363 782 437 783 363 783 438 783 438 784 363 784 364 784 438 785 364 785 439 785 439 786 364 786 365 786 365 787 366 787 439 787 439 788 366 788 440 788 439 789 440 789 441 789 441 790 440 790 369 790 441 791 369 791 442 791 442 792 369 792 370 792 442 793 370 793 443 793 370 794 371 794 443 794 443 795 371 795 372 795 443 796 372 796 444 796 372 797 373 797 444 797 444 798 373 798 374 798 444 799 374 799 445 799 445 800 374 800 375 800 445 801 375 801 446 801 446 802 375 802 376 802 446 803 376 803 447 803 447 804 376 804 377 804 377 805 378 805 447 805 447 806 378 806 379 806 447 807 379 807 448 807 448 808 379 808 380 808 448 809 380 809 449 809 449 810 380 810 381 810 449 811 381 811 450 811 450 812 381 812 382 812 382 813 383 813 450 813 450 814 383 814 344 814 450 815 344 815 427 815 429 816 431 816 430 816 430 817 431 817 432 817 430 818 432 818 451 818 451 819 432 819 433 819 451 820 433 820 452 820 452 821 433 821 434 821 452 822 434 822 453 822 453 823 434 823 435 823 453 824 435 824 454 824 454 825 435 825 436 825 454 826 436 826 455 826 455 827 436 827 437 827 455 828 437 828 456 828 456 829 437 829 438 829 456 830 438 830 457 830 457 831 438 831 439 831 457 832 439 832 458 832 458 833 439 833 441 833 458 834 441 834 459 834 459 835 441 835 442 835 459 836 442 836 460 836 460 837 442 837 443 837 460 838 443 838 461 838 461 839 443 839 444 839 461 840 444 840 462 840 462 841 444 841 445 841 462 842 445 842 463 842 463 843 445 843 446 843 463 844 446 844 464 844 464 845 446 845 447 845 464 846 447 846 465 846 465 847 447 847 448 847 465 848 448 848 466 848 466 849 448 849 449 849 466 850 449 850 467 850 467 851 449 851 450 851 467 852 450 852 468 852 468 853 450 853 427 853 468 854 427 854 424 854 392 855 430 855 428 855 428 856 430 856 451 856 428 857 451 857 469 857 469 858 451 858 452 858 469 859 452 859 470 859 470 860 452 860 453 860 470 861 453 861 471 861 471 862 453 862 454 862 471 863 454 863 472 863 472 864 454 864 455 864 472 865 455 865 473 865 473 866 455 866 456 866 473 867 456 867 474 867 474 868 456 868 457 868 474 869 457 869 475 869 475 870 457 870 458 870 475 871 458 871 476 871 476 872 458 872 459 872 476 873 459 873 477 873 477 874 459 874 460 874 477 875 460 875 478 875 478 876 460 876 461 876 478 877 461 877 479 877 479 878 461 878 462 878 479 879 462 879 480 879 480 880 462 880 463 880 480 881 463 881 481 881 481 882 463 882 464 882 481 883 464 883 482 883 482 884 464 884 465 884 482 885 465 885 483 885 483 886 465 886 466 886 483 887 466 887 484 887 484 888 466 888 467 888 484 889 467 889 485 889 485 890 467 890 468 890 485 891 468 891 486 891 486 892 468 892 424 892 486 893 424 893 422 893 393 894 428 894 487 894 487 895 428 895 469 895 487 896 469 896 488 896 488 897 469 897 470 897 488 898 470 898 489 898 489 899 470 899 471 899 489 900 471 900 490 900 490 901 471 901 472 901 490 902 472 902 491 902 491 903 472 903 473 903 491 904 473 904 492 904 492 905 473 905 474 905 492 906 474 906 493 906 493 907 474 907 475 907 493 908 475 908 494 908 494 909 475 909 476 909 494 910 476 910 495 910 495 911 476 911 477 911 495 912 477 912 496 912 496 913 477 913 478 913 496 914 478 914 497 914 497 915 478 915 479 915 497 916 479 916 498 916 498 917 479 917 480 917 498 918 480 918 499 918 499 919 480 919 481 919 499 920 481 920 500 920 500 921 481 921 482 921 500 922 482 922 501 922 501 923 482 923 483 923 501 924 483 924 502 924 502 925 483 925 484 925 502 926 484 926 503 926 503 927 484 927 485 927 503 928 485 928 504 928 504 929 485 929 486 929 504 930 486 930 505 930 505 931 486 931 422 931 505 932 422 932 420 932 506 933 507 933 508 933 332 934 331 934 509 934 510 935 318 935 316 935 511 936 333 936 332 936 331 937 319 937 509 937 509 938 319 938 512 938 509 939 512 939 513 939 513 940 512 940 514 940 513 941 514 941 515 941 515 942 514 942 508 942 332 943 509 943 511 943 511 944 509 944 513 944 511 945 513 945 516 945 516 946 513 946 515 946 516 947 515 947 517 947 517 948 515 948 518 948 517 949 518 949 416 949 508 950 507 950 515 950 515 951 507 951 519 951 515 952 519 952 518 952 520 953 506 953 521 953 521 954 506 954 508 954 521 955 508 955 522 955 522 956 508 956 514 956 522 957 514 957 510 957 510 958 514 958 512 958 510 959 512 959 318 959 318 960 512 960 319 960 316 961 523 961 510 961 510 962 523 962 524 962 510 963 524 963 522 963 522 964 524 964 525 964 522 965 525 965 521 965 521 966 525 966 526 966 521 967 526 967 520 967 320 968 333 968 412 968 412 969 333 969 511 969 412 970 511 970 413 970 413 971 511 971 516 971 413 972 516 972 414 972 414 973 516 973 517 973 414 974 517 974 415 974 415 975 517 975 416 975 415 976 416 976 349 976 329 977 328 977 527 977 527 978 328 978 404 978 527 979 404 979 528 979 528 980 404 980 402 980 528 981 402 981 529 981 298 982 395 982 398 982 398 983 395 983 529 983 398 984 529 984 401 984 401 985 529 985 402 985 530 986 531 986 532 986 335 987 334 987 533 987 534 988 314 988 329 988 535 989 336 989 335 989 334 990 325 990 533 990 533 991 325 991 536 991 533 992 536 992 537 992 537 993 536 993 538 993 537 994 538 994 539 994 539 995 538 995 532 995 335 996 533 996 535 996 535 997 533 997 537 997 535 998 537 998 540 998 540 999 537 999 539 999 540 1000 539 1000 541 1000 541 1001 539 1001 542 1001 541 1002 542 1002 543 1002 532 1003 531 1003 539 1003 539 1004 531 1004 544 1004 539 1005 544 1005 542 1005 545 1006 530 1006 546 1006 546 1007 530 1007 532 1007 546 1008 532 1008 547 1008 547 1009 532 1009 538 1009 547 1010 538 1010 534 1010 534 1011 538 1011 536 1011 534 1012 536 1012 314 1012 314 1013 536 1013 325 1013 329 1014 527 1014 534 1014 534 1015 527 1015 528 1015 534 1016 528 1016 547 1016 547 1017 528 1017 529 1017 547 1018 529 1018 546 1018 546 1019 529 1019 395 1019 546 1020 395 1020 545 1020 309 1021 338 1021 548 1021 548 1022 338 1022 549 1022 548 1023 549 1023 550 1023 550 1024 549 1024 551 1024 552 1025 553 1025 551 1025 551 1026 553 1026 554 1026 551 1027 554 1027 550 1027 555 1028 556 1028 552 1028 552 1029 556 1029 557 1029 552 1030 557 1030 553 1030 338 1031 337 1031 549 1031 549 1032 337 1032 558 1032 549 1033 558 1033 551 1033 551 1034 558 1034 559 1034 551 1035 559 1035 552 1035 552 1036 559 1036 560 1036 552 1037 560 1037 555 1037 555 1038 560 1038 561 1038 337 1039 336 1039 558 1039 558 1040 336 1040 535 1040 558 1041 535 1041 559 1041 559 1042 535 1042 540 1042 559 1043 540 1043 560 1043 560 1044 540 1044 541 1044 560 1045 541 1045 561 1045 561 1046 541 1046 543 1046 556 1047 562 1047 557 1047 557 1048 562 1048 563 1048 557 1049 563 1049 553 1049 553 1050 563 1050 564 1050 553 1051 564 1051 554 1051 554 1052 564 1052 565 1052 554 1053 565 1053 550 1053 550 1054 565 1054 566 1054 550 1055 566 1055 548 1055 548 1056 566 1056 567 1056 548 1057 567 1057 309 1057 309 1058 567 1058 310 1058 568 1059 330 1059 310 1059 310 1060 567 1060 568 1060 568 1061 567 1061 566 1061 568 1062 566 1062 569 1062 316 1063 315 1063 523 1063 523 1064 315 1064 570 1064 523 1065 570 1065 524 1065 524 1066 570 1066 571 1066 524 1067 571 1067 525 1067 525 1068 571 1068 572 1068 525 1069 572 1069 526 1069 526 1070 572 1070 573 1070 315 1071 330 1071 570 1071 570 1072 330 1072 568 1072 570 1073 568 1073 571 1073 571 1074 568 1074 569 1074 571 1075 569 1075 572 1075 572 1076 569 1076 574 1076 572 1077 574 1077 573 1077 573 1078 574 1078 575 1078 566 1079 565 1079 569 1079 569 1080 565 1080 564 1080 569 1081 564 1081 574 1081 574 1082 564 1082 563 1082 574 1083 563 1083 575 1083 575 1084 563 1084 562 1084 576 1085 577 1085 393 1085 393 1086 577 1086 578 1086 393 1087 578 1087 394 1087 419 1088 579 1088 420 1088 420 1089 579 1089 580 1089 420 1090 580 1090 505 1090 505 1091 580 1091 581 1091 505 1092 581 1092 504 1092 393 1093 487 1093 576 1093 576 1094 487 1094 488 1094 576 1095 488 1095 582 1095 582 1096 488 1096 489 1096 504 1097 581 1097 503 1097 503 1098 581 1098 583 1098 503 1099 583 1099 502 1099 489 1100 490 1100 582 1100 582 1101 490 1101 491 1101 582 1102 491 1102 492 1102 492 1103 493 1103 582 1103 582 1104 493 1104 494 1104 582 1105 494 1105 495 1105 495 1106 584 1106 582 1106 582 1107 584 1107 497 1107 582 1108 497 1108 498 1108 498 1109 499 1109 582 1109 582 1110 499 1110 500 1110 582 1111 500 1111 583 1111 583 1112 500 1112 501 1112 583 1113 501 1113 502 1113 395 1114 385 1114 391 1114 391 1115 390 1115 395 1115 395 1116 390 1116 388 1116 395 1117 388 1117 545 1117 545 1118 388 1118 387 1118 577 1119 543 1119 542 1119 577 1120 542 1120 578 1120 578 1121 542 1121 544 1121 578 1122 544 1122 394 1122 394 1123 544 1123 531 1123 394 1124 531 1124 387 1124 387 1125 531 1125 530 1125 387 1126 530 1126 545 1126 426 1127 417 1127 416 1127 526 1128 580 1128 520 1128 520 1129 580 1129 579 1129 520 1130 579 1130 506 1130 506 1131 579 1131 507 1131 507 1132 579 1132 419 1132 507 1133 419 1133 519 1133 519 1134 419 1134 421 1134 519 1135 421 1135 518 1135 518 1136 421 1136 423 1136 518 1137 423 1137 416 1137 416 1138 423 1138 425 1138 416 1139 425 1139 426 1139 543 1140 577 1140 576 1140 582 1141 556 1141 555 1141 582 1142 555 1142 576 1142 576 1143 555 1143 561 1143 576 1144 561 1144 543 1144 583 1145 562 1145 582 1145 582 1146 562 1146 556 1146 562 1147 583 1147 575 1147 575 1148 583 1148 581 1148 575 1149 581 1149 573 1149 573 1150 581 1150 580 1150 573 1151 580 1151 526 1151</p>
        </triangles>
      </mesh>
    </geometry>
  </library_geometries>
  <library_visual_scenes>
    <visual_scene id="Scene" name="Scene">
      <node id="link_3" name="link_3" type="NODE">
        <matrix sid="transform">1 0 0 0 0 1 0 0 0 0 1 0 0 0 0 1</matrix>
        <instance_geometry url="#link_3-mesh" name="link_3">
          <bind_material>
            <technique_common>
              <instance_material symbol="base-material" target="#base-material"/>
            </technique_common>
          </bind_material>
        </instance_geometry>
      </node>
    </visual_scene>
  </library_visual_scenes>
  <scene>
    <instance_visual_scene url="#Scene"/>
  </scene>
</COLLADA>